M48
;DRILL file {kicad (2014-jul-16 BZR unknown)-product} date Mon 09 Feb 2015 12:25:04 PM PST
;FORMAT={2:4/ absolute / inch / suppress leading zeros}
FMAT,2
INCH,TZ
T1C0.025
T2C0.030
T3C0.032
T4C0.032
T5C0.039
T6C0.040
T7C0.047
T8C0.050
T9C0.125
T10C0.150
%
G90
G05
M72
T1
X45100Y-58150
X46340Y-55210
X46400Y-56770
X47000Y-41090
X51000Y-43090
X53193Y-46809
X53540Y-47500
X53609Y-49572
X53980Y-40430
X54000Y-41650
X55580Y-42610
X57450Y-57950
X57500Y-50250
X57500Y-51850
X57500Y-52750
X57550Y-55400
X57620Y-44950
X58240Y-43210
X58350Y-53250
X58880Y-44450
X60600Y-43410
X60750Y-56750
X61900Y-42370
X62000Y-54750
X62500Y-56250
X62660Y-41450
X63160Y-44970
X63250Y-53000
X63300Y-40330
X63750Y-55250
X64480Y-40950
X64500Y-55500
X64820Y-44690
X64840Y-46010
X64960Y-43410
X65250Y-46500
X65250Y-52500
X65460Y-40770
X65500Y-44500
X65500Y-45500
X65750Y-48000
X65750Y-51500
X65750Y-55000
X65750Y-55500
X66750Y-55500
X67250Y-57000
X68000Y-56250
X68380Y-43890
X68780Y-45330
X69000Y-50970
X69000Y-55500
X69200Y-49790
X69380Y-48050
X69720Y-55370
X70460Y-49610
X70480Y-48030
X70720Y-45350
X70760Y-44510
X71750Y-51000
X71750Y-53000
X72000Y-51500
X72220Y-41930
X72250Y-52500
X72250Y-53500
X72500Y-44250
X72750Y-54500
X73000Y-47250
X73250Y-45250
X73250Y-46250
X73250Y-47750
X73250Y-54750
X73500Y-53750
X73840Y-46790
X75300Y-44930
T2
X77200Y-52650
X77200Y-53650
T3
X51250Y-54000
X51750Y-42250
X51750Y-48250
X52250Y-54000
X52250Y-56250
X52250Y-57250
X52750Y-42250
X52750Y-48250
X54000Y-43750
X54000Y-44750
X54250Y-58000
X55250Y-58000
X57500Y-40250
X58500Y-40250
X60750Y-46000
X60750Y-47000
X61200Y-49989
X61200Y-51911
X62750Y-46500
X62750Y-47500
X62750Y-48500
X62750Y-49500
X62750Y-50500
X62750Y-51500
X67750Y-48500
X67750Y-49500
T4
X47750Y-55250
X47750Y-58250
X48750Y-55250
X48750Y-58250
X49750Y-55250
X49750Y-58250
X50750Y-55250
X50750Y-58250
X56500Y-42000
X56500Y-43000
X56500Y-44000
X56500Y-45000
X56500Y-46000
X56500Y-47000
X56500Y-48000
X56500Y-51000
X56500Y-52000
X56500Y-53000
X56500Y-54000
X56500Y-55000
X56500Y-56000
X56500Y-57000
X59500Y-42000
X59500Y-43000
X59500Y-44000
X59500Y-45000
X59500Y-46000
X59500Y-47000
X59500Y-48000
X59500Y-51000
X59500Y-52000
X59500Y-53000
X59500Y-54000
X59500Y-55000
X59500Y-56000
X59500Y-57000
X63750Y-41500
X63750Y-42500
X63750Y-43500
X63750Y-44500
X63750Y-45500
X63750Y-46500
X63750Y-47500
X63750Y-48500
X63750Y-49500
X63750Y-50500
X63750Y-51500
X63750Y-52500
X63750Y-53500
X63750Y-54500
X66750Y-41500
X66750Y-42500
X66750Y-43500
X66750Y-44500
X66750Y-45500
X66750Y-46500
X66750Y-47500
X66750Y-48500
X66750Y-49500
X66750Y-50500
X66750Y-51500
X66750Y-52500
X66750Y-53500
X66750Y-54500
T5
X52000Y-44750
X52000Y-45750
X52000Y-46750
X52000Y-49500
X52000Y-50500
X52000Y-51500
X68750Y-46500
T6
X41138Y-47213
X41138Y-48213
X41138Y-49213
X41138Y-50213
X41138Y-51213
X42138Y-47213
X42138Y-48213
X42138Y-49213
X42138Y-50213
X42138Y-51213
X44500Y-40350
X45000Y-54950
X45000Y-55950
X45000Y-56950
X45500Y-40350
X45500Y-41500
X45500Y-42750
X46500Y-40350
X46500Y-54250
X46500Y-58250
X47500Y-40350
X48500Y-40350
X49500Y-40350
X49500Y-41500
X49500Y-42750
X51000Y-40350
X54000Y-46500
X54000Y-50500
X55000Y-40350
X55331Y-44890
X55331Y-45890
X55331Y-46890
X55331Y-47890
X55331Y-48890
X55331Y-49890
X55331Y-51890
X55331Y-52890
X55331Y-53890
X55331Y-54890
X55331Y-55890
X55331Y-56890
X61000Y-40250
X61000Y-44250
X61500Y-54000
X61500Y-58000
X62250Y-40250
X62250Y-44250
X62750Y-54000
X62750Y-58000
X64311Y-56945
X64311Y-57945
X65311Y-56945
X65311Y-57945
X66311Y-56945
X66311Y-57945
X70750Y-42500
X70750Y-46500
X74331Y-41290
X74331Y-42290
X74331Y-43290
X74331Y-44290
X74331Y-45290
X74331Y-46290
X74331Y-47290
X74331Y-48290
X74331Y-49890
X74331Y-50890
X74331Y-51890
X74331Y-52890
X74331Y-53890
X74331Y-54890
X74331Y-55890
X74331Y-56890
X75800Y-46750
X75800Y-50750
T7
X77400Y-44270
X77400Y-46830
T8
X68750Y-42500
T9
X41339Y-41339
X41339Y-57087
X76772Y-41339
X76772Y-57087
T10
X45400Y-45750
X45400Y-50500
T0
M30
