%FSLAX36Y36*%
G04 Gerber Fmt 3.6, Leading zero omitted, Abs format (unit inch)*
G04 Created by KiCad (PCBNEW (2014-jul-16 BZR unknown)-product) date Mon 02 Feb 2015 12:29:57 PM PST*
%MOIN*%
G01*
G04 APERTURE LIST*
%ADD10C,0.003937*%
%ADD11C,0.008000*%
%ADD12C,0.012000*%
%ADD13C,0.015000*%
%ADD14C,0.010000*%
%ADD15C,0.005906*%
G04 APERTURE END LIST*
D10*
D11*
X5800810Y-5722143D02*
X5806524Y-5724048D01*
X5808429Y-5725952D01*
X5810333Y-5729762D01*
X5810333Y-5735476D01*
X5808429Y-5739286D01*
X5806524Y-5741190D01*
X5802714Y-5743095D01*
X5787476Y-5743095D01*
X5787476Y-5703095D01*
X5800810Y-5703095D01*
X5804619Y-5705000D01*
X5806524Y-5706905D01*
X5808429Y-5710714D01*
X5808429Y-5714524D01*
X5806524Y-5718333D01*
X5804619Y-5720238D01*
X5800810Y-5722143D01*
X5787476Y-5722143D01*
X5827476Y-5703095D02*
X5827476Y-5735476D01*
X5829381Y-5739286D01*
X5831286Y-5741190D01*
X5835095Y-5743095D01*
X5842714Y-5743095D01*
X5846524Y-5741190D01*
X5848429Y-5739286D01*
X5850333Y-5735476D01*
X5850333Y-5703095D01*
X5867476Y-5741190D02*
X5873191Y-5743095D01*
X5882714Y-5743095D01*
X5886524Y-5741190D01*
X5888429Y-5739286D01*
X5890333Y-5735476D01*
X5890333Y-5731667D01*
X5888429Y-5727857D01*
X5886524Y-5725952D01*
X5882714Y-5724048D01*
X5875095Y-5722143D01*
X5871286Y-5720238D01*
X5869381Y-5718333D01*
X5867476Y-5714524D01*
X5867476Y-5710714D01*
X5869381Y-5706905D01*
X5871286Y-5705000D01*
X5875095Y-5703095D01*
X5884619Y-5703095D01*
X5890333Y-5705000D01*
X5897952Y-5746905D02*
X5928429Y-5746905D01*
X5936048Y-5741190D02*
X5941762Y-5743095D01*
X5951286Y-5743095D01*
X5955095Y-5741190D01*
X5957000Y-5739286D01*
X5958905Y-5735476D01*
X5958905Y-5731667D01*
X5957000Y-5727857D01*
X5955095Y-5725952D01*
X5951286Y-5724048D01*
X5943667Y-5722143D01*
X5939857Y-5720238D01*
X5937952Y-5718333D01*
X5936048Y-5714524D01*
X5936048Y-5710714D01*
X5937952Y-5706905D01*
X5939857Y-5705000D01*
X5943667Y-5703095D01*
X5953190Y-5703095D01*
X5958905Y-5705000D01*
X5976048Y-5743095D02*
X5976048Y-5703095D01*
X5976048Y-5722143D02*
X5998905Y-5722143D01*
X5998905Y-5743095D02*
X5998905Y-5703095D01*
X6017952Y-5743095D02*
X6017952Y-5703095D01*
X6037000Y-5722143D02*
X6050333Y-5722143D01*
X6056048Y-5743095D02*
X6037000Y-5743095D01*
X6037000Y-5703095D01*
X6056048Y-5703095D01*
X6092238Y-5743095D02*
X6073191Y-5743095D01*
X6073191Y-5703095D01*
X6105571Y-5743095D02*
X6105571Y-5703095D01*
X6115095Y-5703095D01*
X6120810Y-5705000D01*
X6124619Y-5708810D01*
X6126524Y-5712619D01*
X6128429Y-5720238D01*
X6128429Y-5725952D01*
X6126524Y-5733571D01*
X6124619Y-5737381D01*
X6120810Y-5741190D01*
X6115095Y-5743095D01*
X6105571Y-5743095D01*
X5726524Y-5807095D02*
X5713191Y-5788048D01*
X5703667Y-5807095D02*
X5703667Y-5767095D01*
X5718905Y-5767095D01*
X5722714Y-5769000D01*
X5724619Y-5770905D01*
X5726524Y-5774714D01*
X5726524Y-5780429D01*
X5724619Y-5784238D01*
X5722714Y-5786143D01*
X5718905Y-5788048D01*
X5703667Y-5788048D01*
X5743667Y-5786143D02*
X5757000Y-5786143D01*
X5762714Y-5807095D02*
X5743667Y-5807095D01*
X5743667Y-5767095D01*
X5762714Y-5767095D01*
X5774143Y-5767095D02*
X5787476Y-5807095D01*
X5800810Y-5767095D01*
X5814143Y-5803286D02*
X5816048Y-5805190D01*
X5814143Y-5807095D01*
X5812238Y-5805190D01*
X5814143Y-5803286D01*
X5814143Y-5807095D01*
X5861762Y-5795667D02*
X5880810Y-5795667D01*
X5857952Y-5807095D02*
X5871286Y-5767095D01*
X5884619Y-5807095D01*
X5949381Y-5807095D02*
X5926524Y-5807095D01*
X5937952Y-5807095D02*
X5937952Y-5767095D01*
X5934143Y-5772810D01*
X5930333Y-5776619D01*
X5926524Y-5778524D01*
X5979857Y-5786143D02*
X5966524Y-5786143D01*
X5966524Y-5807095D02*
X5966524Y-5767095D01*
X5985571Y-5767095D01*
X6000810Y-5786143D02*
X6014143Y-5786143D01*
X6019857Y-5807095D02*
X6000810Y-5807095D01*
X6000810Y-5767095D01*
X6019857Y-5767095D01*
X6050333Y-5786143D02*
X6056048Y-5788048D01*
X6057952Y-5789952D01*
X6059857Y-5793762D01*
X6059857Y-5799476D01*
X6057952Y-5803286D01*
X6056048Y-5805190D01*
X6052238Y-5807095D01*
X6037000Y-5807095D01*
X6037000Y-5767095D01*
X6050333Y-5767095D01*
X6054143Y-5769000D01*
X6056048Y-5770905D01*
X6057952Y-5774714D01*
X6057952Y-5778524D01*
X6056048Y-5782333D01*
X6054143Y-5784238D01*
X6050333Y-5786143D01*
X6037000Y-5786143D01*
X6075095Y-5770905D02*
X6077000Y-5769000D01*
X6080810Y-5767095D01*
X6090333Y-5767095D01*
X6094143Y-5769000D01*
X6096048Y-5770905D01*
X6097952Y-5774714D01*
X6097952Y-5778524D01*
X6096048Y-5784238D01*
X6073190Y-5807095D01*
X6097952Y-5807095D01*
X6122714Y-5767095D02*
X6126524Y-5767095D01*
X6130333Y-5769000D01*
X6132238Y-5770905D01*
X6134143Y-5774714D01*
X6136048Y-5782333D01*
X6136048Y-5791857D01*
X6134143Y-5799476D01*
X6132238Y-5803286D01*
X6130333Y-5805190D01*
X6126524Y-5807095D01*
X6122714Y-5807095D01*
X6118905Y-5805190D01*
X6117000Y-5803286D01*
X6115095Y-5799476D01*
X6113190Y-5791857D01*
X6113190Y-5782333D01*
X6115095Y-5774714D01*
X6117000Y-5770905D01*
X6118905Y-5769000D01*
X6122714Y-5767095D01*
X6174143Y-5807095D02*
X6151286Y-5807095D01*
X6162714Y-5807095D02*
X6162714Y-5767095D01*
X6158905Y-5772810D01*
X6155095Y-5776619D01*
X6151286Y-5778524D01*
X6210333Y-5767095D02*
X6191286Y-5767095D01*
X6189381Y-5786143D01*
X6191286Y-5784238D01*
X6195095Y-5782333D01*
X6204619Y-5782333D01*
X6208429Y-5784238D01*
X6210333Y-5786143D01*
X6212238Y-5789952D01*
X6212238Y-5799476D01*
X6210333Y-5803286D01*
X6208429Y-5805190D01*
X6204619Y-5807095D01*
X6195095Y-5807095D01*
X6191286Y-5805190D01*
X6189381Y-5803286D01*
X5625571Y-5886333D02*
X5623667Y-5884429D01*
X5619857Y-5878714D01*
X5617952Y-5874905D01*
X5616048Y-5869190D01*
X5614143Y-5859667D01*
X5614143Y-5852048D01*
X5616048Y-5842524D01*
X5617952Y-5836810D01*
X5619857Y-5833000D01*
X5623667Y-5827286D01*
X5625571Y-5825381D01*
X5663667Y-5867286D02*
X5661762Y-5869190D01*
X5656048Y-5871095D01*
X5652238Y-5871095D01*
X5646524Y-5869190D01*
X5642714Y-5865381D01*
X5640810Y-5861571D01*
X5638905Y-5853952D01*
X5638905Y-5848238D01*
X5640810Y-5840619D01*
X5642714Y-5836810D01*
X5646524Y-5833000D01*
X5652238Y-5831095D01*
X5656048Y-5831095D01*
X5661762Y-5833000D01*
X5663667Y-5834905D01*
X5677000Y-5886333D02*
X5678905Y-5884429D01*
X5682714Y-5878714D01*
X5684619Y-5874905D01*
X5686524Y-5869190D01*
X5688429Y-5859667D01*
X5688429Y-5852048D01*
X5686524Y-5842524D01*
X5684619Y-5836810D01*
X5682714Y-5833000D01*
X5678905Y-5827286D01*
X5677000Y-5825381D01*
X5736048Y-5834905D02*
X5737952Y-5833000D01*
X5741762Y-5831095D01*
X5751286Y-5831095D01*
X5755095Y-5833000D01*
X5757000Y-5834905D01*
X5758905Y-5838714D01*
X5758905Y-5842524D01*
X5757000Y-5848238D01*
X5734143Y-5871095D01*
X5758905Y-5871095D01*
X5783667Y-5831095D02*
X5787476Y-5831095D01*
X5791286Y-5833000D01*
X5793190Y-5834905D01*
X5795095Y-5838714D01*
X5797000Y-5846333D01*
X5797000Y-5855857D01*
X5795095Y-5863476D01*
X5793190Y-5867286D01*
X5791286Y-5869190D01*
X5787476Y-5871095D01*
X5783667Y-5871095D01*
X5779857Y-5869190D01*
X5777952Y-5867286D01*
X5776048Y-5863476D01*
X5774143Y-5855857D01*
X5774143Y-5846333D01*
X5776048Y-5838714D01*
X5777952Y-5834905D01*
X5779857Y-5833000D01*
X5783667Y-5831095D01*
X5835095Y-5871095D02*
X5812238Y-5871095D01*
X5823667Y-5871095D02*
X5823667Y-5831095D01*
X5819857Y-5836810D01*
X5816048Y-5840619D01*
X5812238Y-5842524D01*
X5871286Y-5831095D02*
X5852238Y-5831095D01*
X5850333Y-5850143D01*
X5852238Y-5848238D01*
X5856048Y-5846333D01*
X5865571Y-5846333D01*
X5869381Y-5848238D01*
X5871286Y-5850143D01*
X5873190Y-5853952D01*
X5873190Y-5863476D01*
X5871286Y-5867286D01*
X5869381Y-5869190D01*
X5865571Y-5871095D01*
X5856048Y-5871095D01*
X5852238Y-5869190D01*
X5850333Y-5867286D01*
X5934143Y-5850143D02*
X5939857Y-5852048D01*
X5941762Y-5853952D01*
X5943667Y-5857762D01*
X5943667Y-5863476D01*
X5941762Y-5867286D01*
X5939857Y-5869190D01*
X5936048Y-5871095D01*
X5920810Y-5871095D01*
X5920810Y-5831095D01*
X5934143Y-5831095D01*
X5937952Y-5833000D01*
X5939857Y-5834905D01*
X5941762Y-5838714D01*
X5941762Y-5842524D01*
X5939857Y-5846333D01*
X5937952Y-5848238D01*
X5934143Y-5850143D01*
X5920810Y-5850143D01*
X5968429Y-5852048D02*
X5968429Y-5871095D01*
X5955095Y-5831095D02*
X5968429Y-5852048D01*
X5981762Y-5831095D01*
X6046524Y-5833000D02*
X6042714Y-5831095D01*
X6037000Y-5831095D01*
X6031286Y-5833000D01*
X6027476Y-5836810D01*
X6025571Y-5840619D01*
X6023667Y-5848238D01*
X6023667Y-5853952D01*
X6025571Y-5861571D01*
X6027476Y-5865381D01*
X6031286Y-5869190D01*
X6037000Y-5871095D01*
X6040809Y-5871095D01*
X6046524Y-5869190D01*
X6048429Y-5867286D01*
X6048429Y-5853952D01*
X6040809Y-5853952D01*
X6088429Y-5871095D02*
X6075095Y-5852048D01*
X6065571Y-5871095D02*
X6065571Y-5831095D01*
X6080809Y-5831095D01*
X6084619Y-5833000D01*
X6086524Y-5834905D01*
X6088429Y-5838714D01*
X6088429Y-5844429D01*
X6086524Y-5848238D01*
X6084619Y-5850143D01*
X6080809Y-5852048D01*
X6065571Y-5852048D01*
X6103667Y-5859667D02*
X6122714Y-5859667D01*
X6099857Y-5871095D02*
X6113190Y-5831095D01*
X6126524Y-5871095D01*
X6139857Y-5871095D02*
X6139857Y-5831095D01*
X6153190Y-5859667D01*
X6166524Y-5831095D01*
X6166524Y-5871095D01*
X6204619Y-5871095D02*
X6185571Y-5871095D01*
X6185571Y-5831095D01*
X6217952Y-5871095D02*
X6217952Y-5831095D01*
X6259857Y-5867286D02*
X6257952Y-5869190D01*
X6252238Y-5871095D01*
X6248429Y-5871095D01*
X6242714Y-5869190D01*
X6238905Y-5865381D01*
X6237000Y-5861571D01*
X6235095Y-5853952D01*
X6235095Y-5848238D01*
X6237000Y-5840619D01*
X6238905Y-5836810D01*
X6242714Y-5833000D01*
X6248429Y-5831095D01*
X6252238Y-5831095D01*
X6257952Y-5833000D01*
X6259857Y-5834905D01*
X6277000Y-5871095D02*
X6277000Y-5831095D01*
X6277000Y-5850143D02*
X6299857Y-5850143D01*
X6299857Y-5871095D02*
X6299857Y-5831095D01*
X7694405Y-4806095D02*
X7681071Y-4787048D01*
X7671548Y-4806095D02*
X7671548Y-4766095D01*
X7686786Y-4766095D01*
X7690595Y-4768000D01*
X7692500Y-4769905D01*
X7694405Y-4773714D01*
X7694405Y-4779429D01*
X7692500Y-4783238D01*
X7690595Y-4785143D01*
X7686786Y-4787048D01*
X7671548Y-4787048D01*
X7711548Y-4785143D02*
X7724881Y-4785143D01*
X7730595Y-4806095D02*
X7711548Y-4806095D01*
X7711548Y-4766095D01*
X7730595Y-4766095D01*
X7745833Y-4804190D02*
X7751548Y-4806095D01*
X7761071Y-4806095D01*
X7764881Y-4804190D01*
X7766786Y-4802286D01*
X7768690Y-4798476D01*
X7768690Y-4794667D01*
X7766786Y-4790857D01*
X7764881Y-4788952D01*
X7761071Y-4787048D01*
X7753452Y-4785143D01*
X7749643Y-4783238D01*
X7747738Y-4781333D01*
X7745833Y-4777524D01*
X7745833Y-4773714D01*
X7747738Y-4769905D01*
X7749643Y-4768000D01*
X7753452Y-4766095D01*
X7762976Y-4766095D01*
X7768690Y-4768000D01*
X7785833Y-4785143D02*
X7799167Y-4785143D01*
X7804881Y-4806095D02*
X7785833Y-4806095D01*
X7785833Y-4766095D01*
X7804881Y-4766095D01*
X7816310Y-4766095D02*
X7839167Y-4766095D01*
X7827738Y-4806095D02*
X7827738Y-4766095D01*
X6318429Y-4207595D02*
X6295571Y-4207595D01*
X6307000Y-4207595D02*
X6307000Y-4167595D01*
X6303191Y-4173310D01*
X6299381Y-4177119D01*
X6295571Y-4179024D01*
X6713929Y-5642595D02*
X6691071Y-5642595D01*
X6702500Y-5642595D02*
X6702500Y-5602595D01*
X6698691Y-5608310D01*
X6694881Y-5612119D01*
X6691071Y-5614024D01*
X5343962Y-4226857D02*
X5374438Y-4226857D01*
X5359200Y-4242095D02*
X5359200Y-4211619D01*
X5075562Y-4825257D02*
X5106038Y-4825257D01*
X5090800Y-4840495D02*
X5090800Y-4810019D01*
X5024962Y-5406057D02*
X5055438Y-5406057D01*
X5040200Y-5421295D02*
X5040200Y-5390819D01*
X4734829Y-5878895D02*
X4711971Y-5878895D01*
X4723400Y-5878895D02*
X4723400Y-5838895D01*
X4719591Y-5844610D01*
X4715781Y-5848419D01*
X4711971Y-5850324D01*
X7520029Y-4899895D02*
X7497171Y-4899895D01*
X7508600Y-4899895D02*
X7508600Y-4859895D01*
X7504791Y-4865610D01*
X7500981Y-4869419D01*
X7497171Y-4871324D01*
X7524429Y-5711695D02*
X7501571Y-5711695D01*
X7513000Y-5711695D02*
X7513000Y-5671695D01*
X7509191Y-5677410D01*
X7505381Y-5681219D01*
X7501571Y-5683124D01*
X5465429Y-5722595D02*
X5442571Y-5722595D01*
X5454000Y-5722595D02*
X5454000Y-5682595D01*
X5450191Y-5688310D01*
X5446381Y-5692119D01*
X5442571Y-5694024D01*
X5621429Y-5050595D02*
X5598571Y-5050595D01*
X5610000Y-5050595D02*
X5610000Y-5010595D01*
X5606191Y-5016310D01*
X5602381Y-5020119D01*
X5598571Y-5022024D01*
X5599429Y-4176095D02*
X5576571Y-4176095D01*
X5588000Y-4176095D02*
X5588000Y-4136095D01*
X5584191Y-4141810D01*
X5580381Y-4145619D01*
X5576571Y-4147524D01*
X4376429Y-4092095D02*
X4353571Y-4092095D01*
X4365000Y-4092095D02*
X4365000Y-4052095D01*
X4361191Y-4057810D01*
X4357381Y-4061619D01*
X4353571Y-4063524D01*
X4113929Y-4443095D02*
X4091071Y-4443095D01*
X4102500Y-4443095D02*
X4102500Y-4403095D01*
X4098691Y-4408810D01*
X4094881Y-4412619D01*
X4091071Y-4414524D01*
X4419619Y-5381095D02*
X4442476Y-5381095D01*
X4431048Y-5421095D02*
X4431048Y-5381095D01*
X4455810Y-5400143D02*
X4469143Y-5400143D01*
X4474857Y-5421095D02*
X4455810Y-5421095D01*
X4455810Y-5381095D01*
X4474857Y-5381095D01*
X4514857Y-5421095D02*
X4501524Y-5402048D01*
X4492000Y-5421095D02*
X4492000Y-5381095D01*
X4507238Y-5381095D01*
X4511048Y-5383000D01*
X4512952Y-5384905D01*
X4514857Y-5388714D01*
X4514857Y-5394429D01*
X4512952Y-5398238D01*
X4511048Y-5400143D01*
X4507238Y-5402048D01*
X4492000Y-5402048D01*
X4532000Y-5421095D02*
X4532000Y-5381095D01*
X4545333Y-5409667D01*
X4558667Y-5381095D01*
X4558667Y-5421095D01*
X4346905Y-5619095D02*
X4354524Y-5619095D01*
X4358333Y-5621000D01*
X4362143Y-5624810D01*
X4364048Y-5632429D01*
X4364048Y-5645762D01*
X4362143Y-5653381D01*
X4358333Y-5657190D01*
X4354524Y-5659095D01*
X4346905Y-5659095D01*
X4343095Y-5657190D01*
X4339286Y-5653381D01*
X4337381Y-5645762D01*
X4337381Y-5632429D01*
X4339286Y-5624810D01*
X4343095Y-5621000D01*
X4346905Y-5619095D01*
X4394524Y-5638143D02*
X4381191Y-5638143D01*
X4381191Y-5659095D02*
X4381191Y-5619095D01*
X4400238Y-5619095D01*
X4428810Y-5638143D02*
X4415476Y-5638143D01*
X4415476Y-5659095D02*
X4415476Y-5619095D01*
X4434524Y-5619095D01*
X3937008Y-5905512D02*
X3937008Y-3937008D01*
X7874016Y-5905512D02*
X3937008Y-5905512D01*
X7874016Y-3937008D02*
X7874016Y-5905512D01*
X3937008Y-3937008D02*
X7874016Y-3937008D01*
X4376238Y-5520095D02*
X4383857Y-5520095D01*
X4387667Y-5522000D01*
X4391476Y-5525810D01*
X4393381Y-5533429D01*
X4393381Y-5546762D01*
X4391476Y-5554381D01*
X4387667Y-5558190D01*
X4383857Y-5560095D01*
X4376238Y-5560095D01*
X4372429Y-5558190D01*
X4368619Y-5554381D01*
X4366714Y-5546762D01*
X4366714Y-5533429D01*
X4368619Y-5525810D01*
X4372429Y-5522000D01*
X4376238Y-5520095D01*
X4410524Y-5560095D02*
X4410524Y-5520095D01*
X4433381Y-5560095D01*
X4433381Y-5520095D01*
D12*
X6225000Y-4798000D02*
X6225000Y-4600000D01*
X6225000Y-4600000D02*
X6325000Y-4600000D01*
X6325000Y-4600000D02*
X6325000Y-4800000D01*
X6325000Y-4800000D02*
X6225000Y-4800000D01*
X6250000Y-4800000D02*
X6225000Y-4775000D01*
X6725000Y-4998000D02*
X6725000Y-4800000D01*
X6725000Y-4800000D02*
X6825000Y-4800000D01*
X6825000Y-4800000D02*
X6825000Y-5000000D01*
X6825000Y-5000000D02*
X6725000Y-5000000D01*
X6750000Y-5000000D02*
X6725000Y-4975000D01*
X5175000Y-5773000D02*
X5175000Y-5575000D01*
X5175000Y-5575000D02*
X5275000Y-5575000D01*
X5275000Y-5575000D02*
X5275000Y-5775000D01*
X5275000Y-5775000D02*
X5175000Y-5775000D01*
X5200000Y-5775000D02*
X5175000Y-5750000D01*
X5702000Y-3975000D02*
X5900000Y-3975000D01*
X5900000Y-3975000D02*
X5900000Y-4075000D01*
X5900000Y-4075000D02*
X5700000Y-4075000D01*
X5700000Y-4075000D02*
X5700000Y-3975000D01*
X5700000Y-4000000D02*
X5725000Y-3975000D01*
X5077000Y-5350000D02*
X5275000Y-5350000D01*
X5275000Y-5350000D02*
X5275000Y-5450000D01*
X5275000Y-5450000D02*
X5075000Y-5450000D01*
X5075000Y-5450000D02*
X5075000Y-5350000D01*
X5075000Y-5375000D02*
X5100000Y-5350000D01*
X5127000Y-4775000D02*
X5325000Y-4775000D01*
X5325000Y-4775000D02*
X5325000Y-4875000D01*
X5325000Y-4875000D02*
X5125000Y-4875000D01*
X5125000Y-4875000D02*
X5125000Y-4775000D01*
X5125000Y-4800000D02*
X5150000Y-4775000D01*
X5350000Y-4523000D02*
X5350000Y-4325000D01*
X5350000Y-4325000D02*
X5450000Y-4325000D01*
X5450000Y-4325000D02*
X5450000Y-4525000D01*
X5450000Y-4525000D02*
X5350000Y-4525000D01*
X5375000Y-4525000D02*
X5350000Y-4500000D01*
X6025000Y-4748000D02*
X6025000Y-4550000D01*
X6025000Y-4550000D02*
X6125000Y-4550000D01*
X6125000Y-4550000D02*
X6125000Y-4750000D01*
X6125000Y-4750000D02*
X6025000Y-4750000D01*
X6050000Y-4750000D02*
X6025000Y-4725000D01*
X5323000Y-4275000D02*
X5125000Y-4275000D01*
X5125000Y-4275000D02*
X5125000Y-4175000D01*
X5125000Y-4175000D02*
X5325000Y-4175000D01*
X5325000Y-4175000D02*
X5325000Y-4275000D01*
X5325000Y-4250000D02*
X5300000Y-4275000D01*
X6225000Y-4998000D02*
X6225000Y-4800000D01*
X6225000Y-4800000D02*
X6325000Y-4800000D01*
X6325000Y-4800000D02*
X6325000Y-5000000D01*
X6325000Y-5000000D02*
X6225000Y-5000000D01*
X6250000Y-5000000D02*
X6225000Y-4975000D01*
X6325000Y-5002000D02*
X6325000Y-5200000D01*
X6325000Y-5200000D02*
X6225000Y-5200000D01*
X6225000Y-5200000D02*
X6225000Y-5000000D01*
X6225000Y-5000000D02*
X6325000Y-5000000D01*
X6300000Y-5000000D02*
X6325000Y-5025000D01*
D13*
X6875000Y-4350000D02*
X6875000Y-4310000D01*
X6875000Y-4540000D02*
X6875000Y-4590000D01*
D14*
X6925000Y-4530000D02*
X6825000Y-4530000D01*
X6925000Y-4520000D02*
X6825000Y-4520000D01*
X6925000Y-4510000D02*
X6825000Y-4510000D01*
X6925000Y-4540000D02*
X6825000Y-4540000D01*
X6925000Y-4500000D02*
X6825000Y-4550000D01*
X6925000Y-4550000D02*
X6825000Y-4500000D01*
X6925000Y-4500000D02*
X6825000Y-4500000D01*
X6925000Y-4525000D02*
X6825000Y-4525000D01*
X6825000Y-4550000D02*
X6925000Y-4550000D01*
X6925000Y-4550000D02*
X6925000Y-4350000D01*
X6925000Y-4350000D02*
X6825000Y-4350000D01*
X6825000Y-4350000D02*
X6825000Y-4550000D01*
D15*
X7625000Y-5250000D02*
G75*
G03X7655000Y-5410000I95000J-65000D01*
G74*
G01*
X7655000Y-5410000D02*
X7785000Y-5410000D01*
X7785000Y-5410000D02*
G75*
G03X7625000Y-5380000I-65000J95000D01*
G74*
G01*
D14*
X4550000Y-5645000D02*
X4550000Y-5445000D01*
X4550000Y-5445000D02*
X4450000Y-5445000D01*
X4450000Y-5445000D02*
X4450000Y-5645000D01*
X4450000Y-5745000D02*
X4450000Y-5645000D01*
X4450000Y-5645000D02*
X4550000Y-5645000D01*
X4450000Y-5745000D02*
X4550000Y-5745000D01*
X4550000Y-5745000D02*
X4550000Y-5645000D01*
D15*
X3943780Y-4721260D02*
X3973780Y-4701260D01*
X3943780Y-4721260D02*
X3973780Y-4741260D01*
D14*
X3973780Y-5011260D02*
X3993780Y-5011260D01*
X3993780Y-5011260D02*
X3993780Y-4831260D01*
X3993780Y-4831260D02*
X3973780Y-4831260D01*
X4353780Y-4521260D02*
X4353780Y-5321260D01*
X4353780Y-5321260D02*
X3973780Y-5321260D01*
X3973780Y-5321260D02*
X3973780Y-4521260D01*
X3973780Y-4521260D02*
X4353780Y-4521260D01*
X4500000Y-3985000D02*
X5000000Y-3985000D01*
X5000000Y-3985000D02*
X5000000Y-4085000D01*
X5000000Y-4085000D02*
X4500000Y-4085000D01*
X4400000Y-3985000D02*
X4500000Y-3985000D01*
X4500000Y-3985000D02*
X4500000Y-4085000D01*
X4400000Y-3985000D02*
X4400000Y-4085000D01*
X4400000Y-4085000D02*
X4500000Y-4085000D01*
X7383071Y-4778976D02*
X7383071Y-4078976D01*
X7383071Y-4078976D02*
X7483071Y-4078976D01*
X7483071Y-4078976D02*
X7483071Y-4778976D01*
X7383071Y-4878976D02*
X7383071Y-4778976D01*
X7383071Y-4778976D02*
X7483071Y-4778976D01*
X7383071Y-4878976D02*
X7483071Y-4878976D01*
X7483071Y-4878976D02*
X7483071Y-4778976D01*
X7383071Y-5638976D02*
X7383071Y-4938976D01*
X7383071Y-4938976D02*
X7483071Y-4938976D01*
X7483071Y-4938976D02*
X7483071Y-5638976D01*
X7383071Y-5738976D02*
X7383071Y-5638976D01*
X7383071Y-5638976D02*
X7483071Y-5638976D01*
X7383071Y-5738976D02*
X7483071Y-5738976D01*
X7483071Y-5738976D02*
X7483071Y-5638976D01*
X5483071Y-5638976D02*
X5483071Y-5138976D01*
X5483071Y-5138976D02*
X5583071Y-5138976D01*
X5583071Y-5138976D02*
X5583071Y-5638976D01*
X5483071Y-5738976D02*
X5483071Y-5638976D01*
X5483071Y-5638976D02*
X5583071Y-5638976D01*
X5483071Y-5738976D02*
X5583071Y-5738976D01*
X5583071Y-5738976D02*
X5583071Y-5638976D01*
X5483071Y-4938976D02*
X5483071Y-4438976D01*
X5483071Y-4438976D02*
X5583071Y-4438976D01*
X5583071Y-4438976D02*
X5583071Y-4938976D01*
X5483071Y-5038976D02*
X5483071Y-4938976D01*
X5483071Y-4938976D02*
X5583071Y-4938976D01*
X5483071Y-5038976D02*
X5583071Y-5038976D01*
X5583071Y-5038976D02*
X5583071Y-4938976D01*
D15*
X6681102Y-5744488D02*
X6581102Y-5744488D01*
X6581102Y-5744488D02*
X6581102Y-5644488D01*
X6681102Y-5644488D02*
X6381102Y-5644488D01*
X6381102Y-5644488D02*
X6381102Y-5844488D01*
X6381102Y-5844488D02*
X6581102Y-5844488D01*
X6681102Y-5644488D02*
X6681102Y-5744488D01*
X6681102Y-5844488D02*
X6681102Y-5744488D01*
X6581102Y-5844488D02*
X6681102Y-5844488D01*
X4850000Y-4150000D02*
X4900000Y-4150000D01*
X4650000Y-4150000D02*
X4600000Y-4150000D01*
X4650000Y-4100000D02*
X4650000Y-4200000D01*
X4650000Y-4200000D02*
X4850000Y-4200000D01*
X4850000Y-4200000D02*
X4850000Y-4100000D01*
X4850000Y-4100000D02*
X4650000Y-4100000D01*
X4850000Y-4275000D02*
X4900000Y-4275000D01*
X4650000Y-4275000D02*
X4600000Y-4275000D01*
X4650000Y-4225000D02*
X4650000Y-4325000D01*
X4650000Y-4325000D02*
X4850000Y-4325000D01*
X4850000Y-4325000D02*
X4850000Y-4225000D01*
X4850000Y-4225000D02*
X4650000Y-4225000D01*
X4650000Y-5725000D02*
X4650000Y-5775000D01*
X4650000Y-5525000D02*
X4650000Y-5475000D01*
X4700000Y-5525000D02*
X4600000Y-5525000D01*
X4600000Y-5525000D02*
X4600000Y-5725000D01*
X4600000Y-5725000D02*
X4700000Y-5725000D01*
X4700000Y-5725000D02*
X4700000Y-5525000D01*
X5400000Y-4035000D02*
X5450000Y-4035000D01*
X5200000Y-4035000D02*
X5150000Y-4035000D01*
X5200000Y-3985000D02*
X5200000Y-4085000D01*
X5200000Y-4085000D02*
X5400000Y-4085000D01*
X5400000Y-4085000D02*
X5400000Y-3985000D01*
X5400000Y-3985000D02*
X5200000Y-3985000D01*
X5400000Y-4750000D02*
X5400000Y-4700000D01*
X5400000Y-4950000D02*
X5400000Y-5000000D01*
X5350000Y-4950000D02*
X5450000Y-4950000D01*
X5450000Y-4950000D02*
X5450000Y-4750000D01*
X5450000Y-4750000D02*
X5350000Y-4750000D01*
X5350000Y-4750000D02*
X5350000Y-4950000D01*
X6100000Y-4125000D02*
X6100000Y-4075000D01*
X6100000Y-4325000D02*
X6100000Y-4375000D01*
X6050000Y-4325000D02*
X6150000Y-4325000D01*
X6150000Y-4325000D02*
X6150000Y-4125000D01*
X6150000Y-4125000D02*
X6050000Y-4125000D01*
X6050000Y-4125000D02*
X6050000Y-4325000D01*
X6225000Y-4125000D02*
X6225000Y-4075000D01*
X6225000Y-4325000D02*
X6225000Y-4375000D01*
X6175000Y-4325000D02*
X6275000Y-4325000D01*
X6275000Y-4325000D02*
X6275000Y-4125000D01*
X6275000Y-4125000D02*
X6175000Y-4125000D01*
X6175000Y-4125000D02*
X6175000Y-4325000D01*
X7075000Y-4550000D02*
X7075000Y-4600000D01*
X7075000Y-4350000D02*
X7075000Y-4300000D01*
X7125000Y-4350000D02*
X7025000Y-4350000D01*
X7025000Y-4350000D02*
X7025000Y-4550000D01*
X7025000Y-4550000D02*
X7125000Y-4550000D01*
X7125000Y-4550000D02*
X7125000Y-4350000D01*
X7580000Y-4775000D02*
X7580000Y-4725000D01*
X7580000Y-4975000D02*
X7580000Y-5025000D01*
X7530000Y-4975000D02*
X7630000Y-4975000D01*
X7630000Y-4975000D02*
X7630000Y-4775000D01*
X7630000Y-4775000D02*
X7530000Y-4775000D01*
X7530000Y-4775000D02*
X7530000Y-4975000D01*
D13*
X7808900Y-4436900D02*
X7799100Y-4436900D01*
X7808900Y-4673100D02*
X7799100Y-4673100D01*
X7671100Y-4436900D02*
X7680900Y-4436900D01*
X7671100Y-4673100D02*
X7680900Y-4673100D01*
X7808900Y-4673100D02*
X7808900Y-4436900D01*
X7671100Y-4673100D02*
X7671100Y-4436900D01*
X5900000Y-4100000D02*
X5900000Y-4900000D01*
X5700000Y-4900000D02*
X5700000Y-4100000D01*
X5700000Y-4100000D02*
X5900000Y-4100000D01*
X5850000Y-4100000D02*
X5850000Y-4150000D01*
X5850000Y-4150000D02*
X5750000Y-4150000D01*
X5750000Y-4150000D02*
X5750000Y-4100000D01*
X5900000Y-4900000D02*
X5700000Y-4900000D01*
X5055000Y-5150000D02*
X5110000Y-5150000D01*
X5055000Y-5050000D02*
X5110000Y-5050000D01*
X5055000Y-4950000D02*
X5110000Y-4950000D01*
X4638995Y-5050000D02*
G75*
G03X4638995Y-5050000I-98995J0D01*
G74*
G01*
X4720000Y-4840000D02*
X4405000Y-4840000D01*
X4405000Y-4840000D02*
X4405000Y-5260000D01*
X4405000Y-5260000D02*
X4720000Y-5260000D01*
X5055000Y-4840000D02*
X4720000Y-4840000D01*
X4720000Y-4840000D02*
X4720000Y-5260000D01*
X4720000Y-5260000D02*
X5055000Y-5260000D01*
X5055000Y-5050000D02*
X5055000Y-5260000D01*
X5055000Y-5050000D02*
X5055000Y-4840000D01*
D14*
X4725000Y-5625000D02*
X4775000Y-5625000D01*
X4775000Y-5625000D02*
X4775000Y-5725000D01*
X4775000Y-5725000D02*
X4725000Y-5725000D01*
X4725000Y-5575000D02*
X5125000Y-5575000D01*
X5125000Y-5575000D02*
X5125000Y-5775000D01*
X5125000Y-5775000D02*
X4725000Y-5775000D01*
X4725000Y-5775000D02*
X4725000Y-5575000D01*
D13*
X5055000Y-4675000D02*
X5110000Y-4675000D01*
X5055000Y-4575000D02*
X5110000Y-4575000D01*
X5055000Y-4475000D02*
X5110000Y-4475000D01*
X4638995Y-4575000D02*
G75*
G03X4638995Y-4575000I-98995J0D01*
G74*
G01*
X4720000Y-4365000D02*
X4405000Y-4365000D01*
X4405000Y-4365000D02*
X4405000Y-4785000D01*
X4405000Y-4785000D02*
X4720000Y-4785000D01*
X5055000Y-4365000D02*
X4720000Y-4365000D01*
X4720000Y-4365000D02*
X4720000Y-4785000D01*
X4720000Y-4785000D02*
X5055000Y-4785000D01*
X5055000Y-4575000D02*
X5055000Y-4785000D01*
X5055000Y-4575000D02*
X5055000Y-4365000D01*
X6625000Y-4050000D02*
X6625000Y-5550000D01*
X6625000Y-5550000D02*
X6425000Y-5550000D01*
X6425000Y-5550000D02*
X6425000Y-4050000D01*
X6425000Y-4050000D02*
X6625000Y-4050000D01*
X6575000Y-4050000D02*
X6575000Y-4100000D01*
X6575000Y-4100000D02*
X6475000Y-4100000D01*
X6475000Y-4100000D02*
X6475000Y-4050000D01*
X6159400Y-5280000D02*
X6143600Y-5287900D01*
X6143600Y-5287900D02*
X6120000Y-5291900D01*
X6120000Y-5291900D02*
X6100300Y-5287900D01*
X6100300Y-5287900D02*
X6072800Y-5272200D01*
X6072800Y-5272200D02*
X6057000Y-5248500D01*
X6057000Y-5248500D02*
X6049100Y-5224900D01*
X6049100Y-5224900D02*
X6049100Y-4965100D01*
X6049100Y-4965100D02*
X6057000Y-4937500D01*
X6057000Y-4937500D02*
X6068800Y-4921800D01*
X6068800Y-4921800D02*
X6088500Y-4906000D01*
X6088500Y-4906000D02*
X6112100Y-4898100D01*
X6112100Y-4898100D02*
X6131800Y-4898100D01*
X6131800Y-4898100D02*
X6151500Y-4906000D01*
X6151500Y-4906000D02*
X6175100Y-4925700D01*
X6175100Y-4925700D02*
X6186900Y-4945400D01*
X6186900Y-4945400D02*
X6190900Y-4965100D01*
X6190900Y-4969000D02*
X6190900Y-5228900D01*
X6190900Y-5228900D02*
X6186900Y-5244600D01*
X6186900Y-5244600D02*
X6175100Y-5264300D01*
X6175100Y-5264300D02*
X6155400Y-5284000D01*
X6211700Y-4969400D02*
X6209800Y-4951300D01*
X6209800Y-4951300D02*
X6205400Y-4935600D01*
X6205400Y-4935600D02*
X6196800Y-4918600D01*
X6196800Y-4918600D02*
X6187700Y-4907200D01*
X6187700Y-4907200D02*
X6173900Y-4894200D01*
X6173900Y-4894200D02*
X6152700Y-4882800D01*
X6152700Y-4882800D02*
X6129100Y-4877700D01*
X6129100Y-4877700D02*
X6109000Y-4877700D01*
X6109000Y-4877700D02*
X6081400Y-4884400D01*
X6081400Y-4884400D02*
X6058200Y-4900100D01*
X6058200Y-4900100D02*
X6043600Y-4918200D01*
X6043600Y-4918200D02*
X6035400Y-4934800D01*
X6035400Y-4934800D02*
X6029100Y-4952500D01*
X6029100Y-4952500D02*
X6027900Y-4969800D01*
X6036500Y-5258800D02*
X6045200Y-5273700D01*
X6045200Y-5273700D02*
X6056200Y-5286300D01*
X6056200Y-5286300D02*
X6069200Y-5296200D01*
X6069200Y-5296200D02*
X6090900Y-5308000D01*
X6090900Y-5308000D02*
X6109400Y-5312300D01*
X6109400Y-5312300D02*
X6127500Y-5313100D01*
X6127500Y-5313100D02*
X6145600Y-5309600D01*
X6145600Y-5309600D02*
X6163300Y-5302100D01*
X6163300Y-5302100D02*
X6181800Y-5287900D01*
X6181800Y-5287900D02*
X6194400Y-5274100D01*
X6194400Y-5274100D02*
X6203500Y-5258800D01*
X6203500Y-5258800D02*
X6209000Y-5241900D01*
X6209000Y-5241900D02*
X6211700Y-5224500D01*
X6028300Y-4969000D02*
X6028300Y-5223000D01*
X6028300Y-5223000D02*
X6029800Y-5239500D01*
X6029800Y-5239500D02*
X6036500Y-5258800D01*
X6211700Y-4969000D02*
X6211700Y-5223000D01*
D11*
X6168333Y-4714286D02*
X6166429Y-4716190D01*
X6160714Y-4718095D01*
X6156905Y-4718095D01*
X6151191Y-4716190D01*
X6147381Y-4712381D01*
X6145476Y-4708571D01*
X6143571Y-4700952D01*
X6143571Y-4695238D01*
X6145476Y-4687619D01*
X6147381Y-4683810D01*
X6151191Y-4680000D01*
X6156905Y-4678095D01*
X6160714Y-4678095D01*
X6166429Y-4680000D01*
X6168333Y-4681905D01*
X6206429Y-4718095D02*
X6183571Y-4718095D01*
X6195000Y-4718095D02*
X6195000Y-4678095D01*
X6191191Y-4683810D01*
X6187381Y-4687619D01*
X6183571Y-4689524D01*
X6866133Y-4915886D02*
X6864229Y-4917790D01*
X6858514Y-4919695D01*
X6854705Y-4919695D01*
X6848991Y-4917790D01*
X6845181Y-4913981D01*
X6843276Y-4910171D01*
X6841371Y-4902552D01*
X6841371Y-4896838D01*
X6843276Y-4889219D01*
X6845181Y-4885410D01*
X6848991Y-4881600D01*
X6854705Y-4879695D01*
X6858514Y-4879695D01*
X6864229Y-4881600D01*
X6866133Y-4883505D01*
X6881371Y-4883505D02*
X6883276Y-4881600D01*
X6887086Y-4879695D01*
X6896610Y-4879695D01*
X6900419Y-4881600D01*
X6902324Y-4883505D01*
X6904229Y-4887314D01*
X6904229Y-4891124D01*
X6902324Y-4896838D01*
X6879467Y-4919695D01*
X6904229Y-4919695D01*
X5318333Y-5664286D02*
X5316429Y-5666190D01*
X5310714Y-5668095D01*
X5306905Y-5668095D01*
X5301191Y-5666190D01*
X5297381Y-5662381D01*
X5295476Y-5658571D01*
X5293571Y-5650952D01*
X5293571Y-5645238D01*
X5295476Y-5637619D01*
X5297381Y-5633810D01*
X5301191Y-5630000D01*
X5306905Y-5628095D01*
X5310714Y-5628095D01*
X5316429Y-5630000D01*
X5318333Y-5631905D01*
X5331667Y-5628095D02*
X5356429Y-5628095D01*
X5343095Y-5643333D01*
X5348810Y-5643333D01*
X5352619Y-5645238D01*
X5354524Y-5647143D01*
X5356429Y-5650952D01*
X5356429Y-5660476D01*
X5354524Y-5664286D01*
X5352619Y-5666190D01*
X5348810Y-5668095D01*
X5337381Y-5668095D01*
X5333571Y-5666190D01*
X5331667Y-5664286D01*
X5943333Y-4039286D02*
X5941429Y-4041190D01*
X5935714Y-4043095D01*
X5931905Y-4043095D01*
X5926191Y-4041190D01*
X5922381Y-4037381D01*
X5920476Y-4033571D01*
X5918571Y-4025952D01*
X5918571Y-4020238D01*
X5920476Y-4012619D01*
X5922381Y-4008810D01*
X5926191Y-4005000D01*
X5931905Y-4003095D01*
X5935714Y-4003095D01*
X5941429Y-4005000D01*
X5943333Y-4006905D01*
X5977619Y-4016429D02*
X5977619Y-4043095D01*
X5968095Y-4001190D02*
X5958571Y-4029762D01*
X5983333Y-4029762D01*
X5166759Y-5328853D02*
X5164854Y-5330757D01*
X5159139Y-5332662D01*
X5155330Y-5332662D01*
X5149616Y-5330757D01*
X5145806Y-5326948D01*
X5143901Y-5323138D01*
X5141997Y-5315519D01*
X5141997Y-5309805D01*
X5143901Y-5302186D01*
X5145806Y-5298376D01*
X5149616Y-5294567D01*
X5155330Y-5292662D01*
X5159139Y-5292662D01*
X5164854Y-5294567D01*
X5166759Y-5296472D01*
X5202949Y-5292662D02*
X5183901Y-5292662D01*
X5181997Y-5311710D01*
X5183901Y-5309805D01*
X5187711Y-5307900D01*
X5197235Y-5307900D01*
X5201044Y-5309805D01*
X5202949Y-5311710D01*
X5204854Y-5315519D01*
X5204854Y-5325043D01*
X5202949Y-5328853D01*
X5201044Y-5330757D01*
X5197235Y-5332662D01*
X5187711Y-5332662D01*
X5183901Y-5330757D01*
X5181997Y-5328853D01*
X5216759Y-4753853D02*
X5214854Y-4755757D01*
X5209139Y-4757662D01*
X5205330Y-4757662D01*
X5199616Y-4755757D01*
X5195806Y-4751948D01*
X5193901Y-4748138D01*
X5191997Y-4740519D01*
X5191997Y-4734805D01*
X5193901Y-4727186D01*
X5195806Y-4723376D01*
X5199616Y-4719567D01*
X5205330Y-4717662D01*
X5209139Y-4717662D01*
X5214854Y-4719567D01*
X5216759Y-4721472D01*
X5251044Y-4717662D02*
X5243425Y-4717662D01*
X5239616Y-4719567D01*
X5237711Y-4721472D01*
X5233901Y-4727186D01*
X5231997Y-4734805D01*
X5231997Y-4750043D01*
X5233901Y-4753853D01*
X5235806Y-4755757D01*
X5239616Y-4757662D01*
X5247235Y-4757662D01*
X5251044Y-4755757D01*
X5252949Y-4753853D01*
X5254854Y-4750043D01*
X5254854Y-4740519D01*
X5252949Y-4736710D01*
X5251044Y-4734805D01*
X5247235Y-4732900D01*
X5239616Y-4732900D01*
X5235806Y-4734805D01*
X5233901Y-4736710D01*
X5231997Y-4740519D01*
X5493333Y-4364286D02*
X5491429Y-4366190D01*
X5485714Y-4368095D01*
X5481905Y-4368095D01*
X5476191Y-4366190D01*
X5472381Y-4362381D01*
X5470476Y-4358571D01*
X5468571Y-4350952D01*
X5468571Y-4345238D01*
X5470476Y-4337619D01*
X5472381Y-4333810D01*
X5476191Y-4330000D01*
X5481905Y-4328095D01*
X5485714Y-4328095D01*
X5491429Y-4330000D01*
X5493333Y-4331905D01*
X5506667Y-4328095D02*
X5533333Y-4328095D01*
X5516191Y-4368095D01*
X6069733Y-4524286D02*
X6067829Y-4526190D01*
X6062114Y-4528095D01*
X6058305Y-4528095D01*
X6052591Y-4526190D01*
X6048781Y-4522381D01*
X6046876Y-4518571D01*
X6044971Y-4510952D01*
X6044971Y-4505238D01*
X6046876Y-4497619D01*
X6048781Y-4493810D01*
X6052591Y-4490000D01*
X6058305Y-4488095D01*
X6062114Y-4488095D01*
X6067829Y-4490000D01*
X6069733Y-4491905D01*
X6092591Y-4505238D02*
X6088781Y-4503333D01*
X6086876Y-4501429D01*
X6084971Y-4497619D01*
X6084971Y-4495714D01*
X6086876Y-4491905D01*
X6088781Y-4490000D01*
X6092591Y-4488095D01*
X6100210Y-4488095D01*
X6104019Y-4490000D01*
X6105924Y-4491905D01*
X6107829Y-4495714D01*
X6107829Y-4497619D01*
X6105924Y-4501429D01*
X6104019Y-4503333D01*
X6100210Y-4505238D01*
X6092591Y-4505238D01*
X6088781Y-4507143D01*
X6086876Y-4509048D01*
X6084971Y-4512857D01*
X6084971Y-4520476D01*
X6086876Y-4524286D01*
X6088781Y-4526190D01*
X6092591Y-4528095D01*
X6100210Y-4528095D01*
X6104019Y-4526190D01*
X6105924Y-4524286D01*
X6107829Y-4520476D01*
X6107829Y-4512857D01*
X6105924Y-4509048D01*
X6104019Y-4507143D01*
X6100210Y-4505238D01*
X5219908Y-4324719D02*
X5218003Y-4326624D01*
X5212289Y-4328528D01*
X5208480Y-4328528D01*
X5202765Y-4326624D01*
X5198956Y-4322814D01*
X5197051Y-4319004D01*
X5195146Y-4311385D01*
X5195146Y-4305671D01*
X5197051Y-4298052D01*
X5198956Y-4294243D01*
X5202765Y-4290433D01*
X5208480Y-4288528D01*
X5212289Y-4288528D01*
X5218003Y-4290433D01*
X5219908Y-4292338D01*
X5238956Y-4328528D02*
X5246575Y-4328528D01*
X5250384Y-4326624D01*
X5252289Y-4324719D01*
X5256099Y-4319004D01*
X5258003Y-4311385D01*
X5258003Y-4296147D01*
X5256099Y-4292338D01*
X5254194Y-4290433D01*
X5250384Y-4288528D01*
X5242765Y-4288528D01*
X5238956Y-4290433D01*
X5237051Y-4292338D01*
X5235146Y-4296147D01*
X5235146Y-4305671D01*
X5237051Y-4309481D01*
X5238956Y-4311385D01*
X5242765Y-4313290D01*
X5250384Y-4313290D01*
X5254194Y-4311385D01*
X5256099Y-4309481D01*
X5258003Y-4305671D01*
X6129286Y-4854286D02*
X6127381Y-4856190D01*
X6121667Y-4858095D01*
X6117857Y-4858095D01*
X6112143Y-4856190D01*
X6108333Y-4852381D01*
X6106429Y-4848571D01*
X6104524Y-4840952D01*
X6104524Y-4835238D01*
X6106429Y-4827619D01*
X6108333Y-4823810D01*
X6112143Y-4820000D01*
X6117857Y-4818095D01*
X6121667Y-4818095D01*
X6127381Y-4820000D01*
X6129286Y-4821905D01*
X6167381Y-4858095D02*
X6144524Y-4858095D01*
X6155952Y-4858095D02*
X6155952Y-4818095D01*
X6152143Y-4823810D01*
X6148333Y-4827619D01*
X6144524Y-4829524D01*
X6192143Y-4818095D02*
X6195952Y-4818095D01*
X6199762Y-4820000D01*
X6201667Y-4821905D01*
X6203571Y-4825714D01*
X6205476Y-4833333D01*
X6205476Y-4842857D01*
X6203571Y-4850476D01*
X6201667Y-4854286D01*
X6199762Y-4856190D01*
X6195952Y-4858095D01*
X6192143Y-4858095D01*
X6188333Y-4856190D01*
X6186429Y-4854286D01*
X6184524Y-4850476D01*
X6182619Y-4842857D01*
X6182619Y-4833333D01*
X6184524Y-4825714D01*
X6186429Y-4821905D01*
X6188333Y-4820000D01*
X6192143Y-4818095D01*
X6249286Y-5254286D02*
X6247381Y-5256190D01*
X6241667Y-5258095D01*
X6237857Y-5258095D01*
X6232143Y-5256190D01*
X6228333Y-5252381D01*
X6226429Y-5248571D01*
X6224524Y-5240952D01*
X6224524Y-5235238D01*
X6226429Y-5227619D01*
X6228333Y-5223810D01*
X6232143Y-5220000D01*
X6237857Y-5218095D01*
X6241667Y-5218095D01*
X6247381Y-5220000D01*
X6249286Y-5221905D01*
X6287381Y-5258095D02*
X6264524Y-5258095D01*
X6275952Y-5258095D02*
X6275952Y-5218095D01*
X6272143Y-5223810D01*
X6268333Y-5227619D01*
X6264524Y-5229524D01*
X6325476Y-5258095D02*
X6302619Y-5258095D01*
X6314048Y-5258095D02*
X6314048Y-5218095D01*
X6310238Y-5223810D01*
X6306429Y-5227619D01*
X6302619Y-5229524D01*
X6745476Y-4468095D02*
X6745476Y-4428095D01*
X6755000Y-4428095D01*
X6760714Y-4430000D01*
X6764524Y-4433810D01*
X6766429Y-4437619D01*
X6768333Y-4445238D01*
X6768333Y-4450952D01*
X6766429Y-4458571D01*
X6764524Y-4462381D01*
X6760714Y-4466190D01*
X6755000Y-4468095D01*
X6745476Y-4468095D01*
X6806429Y-4468095D02*
X6783571Y-4468095D01*
X6795000Y-4468095D02*
X6795000Y-4428095D01*
X6791191Y-4433810D01*
X6787381Y-4437619D01*
X6783571Y-4439524D01*
X6810534Y-4588860D02*
X6810534Y-4558384D01*
X6816440Y-4330592D02*
X6816440Y-4300116D01*
X6831678Y-4315354D02*
X6801202Y-4315354D01*
X7615476Y-5183095D02*
X7615476Y-5143095D01*
X7625000Y-5143095D01*
X7630714Y-5145000D01*
X7634524Y-5148810D01*
X7636429Y-5152619D01*
X7638333Y-5160238D01*
X7638333Y-5165952D01*
X7636429Y-5173571D01*
X7634524Y-5177381D01*
X7630714Y-5181190D01*
X7625000Y-5183095D01*
X7615476Y-5183095D01*
X7653571Y-5146905D02*
X7655476Y-5145000D01*
X7659286Y-5143095D01*
X7668810Y-5143095D01*
X7672619Y-5145000D01*
X7674524Y-5146905D01*
X7676429Y-5150714D01*
X7676429Y-5154524D01*
X7674524Y-5160238D01*
X7651667Y-5183095D01*
X7676429Y-5183095D01*
X7704762Y-5442857D02*
X7735238Y-5442857D01*
X7704762Y-5167857D02*
X7735238Y-5167857D01*
X7720000Y-5183095D02*
X7720000Y-5152619D01*
X4103382Y-4151954D02*
X4103382Y-4111954D01*
X4103382Y-4131001D02*
X4126239Y-4131001D01*
X4126239Y-4151954D02*
X4126239Y-4111954D01*
X4166239Y-4151954D02*
X4143382Y-4151954D01*
X4154811Y-4151954D02*
X4154811Y-4111954D01*
X4151001Y-4117668D01*
X4147192Y-4121477D01*
X4143382Y-4123382D01*
X7646689Y-4151954D02*
X7646689Y-4111954D01*
X7646689Y-4131001D02*
X7669546Y-4131001D01*
X7669546Y-4151954D02*
X7669546Y-4111954D01*
X7686689Y-4115763D02*
X7688594Y-4113858D01*
X7692403Y-4111954D01*
X7701927Y-4111954D01*
X7705737Y-4113858D01*
X7707642Y-4115763D01*
X7709546Y-4119573D01*
X7709546Y-4123382D01*
X7707642Y-4129096D01*
X7684784Y-4151954D01*
X7709546Y-4151954D01*
X4103382Y-5726757D02*
X4103382Y-5686757D01*
X4103382Y-5705804D02*
X4126239Y-5705804D01*
X4126239Y-5726757D02*
X4126239Y-5686757D01*
X4141477Y-5686757D02*
X4166239Y-5686757D01*
X4152906Y-5701995D01*
X4158620Y-5701995D01*
X4162430Y-5703900D01*
X4164334Y-5705804D01*
X4166239Y-5709614D01*
X4166239Y-5719138D01*
X4164334Y-5722947D01*
X4162430Y-5724852D01*
X4158620Y-5726757D01*
X4147192Y-5726757D01*
X4143382Y-5724852D01*
X4141477Y-5722947D01*
X7646689Y-5726757D02*
X7646689Y-5686757D01*
X7646689Y-5705804D02*
X7669546Y-5705804D01*
X7669546Y-5726757D02*
X7669546Y-5686757D01*
X7705737Y-5700090D02*
X7705737Y-5726757D01*
X7696213Y-5684852D02*
X7686689Y-5713423D01*
X7711451Y-5713423D01*
X4452667Y-5777295D02*
X4452667Y-5805867D01*
X4450762Y-5811581D01*
X4446952Y-5815390D01*
X4441238Y-5817295D01*
X4437429Y-5817295D01*
X4492667Y-5817295D02*
X4469810Y-5817295D01*
X4481238Y-5817295D02*
X4481238Y-5777295D01*
X4477429Y-5783010D01*
X4473619Y-5786819D01*
X4469810Y-5788724D01*
X3994524Y-4501166D02*
X3994524Y-4461166D01*
X4017381Y-4501166D01*
X4017381Y-4461166D01*
X4057381Y-4501166D02*
X4034524Y-4501166D01*
X4045952Y-4501166D02*
X4045952Y-4461166D01*
X4042143Y-4466880D01*
X4038333Y-4470690D01*
X4034524Y-4472595D01*
X4319524Y-3993095D02*
X4319524Y-3953095D01*
X4342381Y-3993095D01*
X4342381Y-3953095D01*
X4359524Y-3956905D02*
X4361429Y-3955000D01*
X4365238Y-3953095D01*
X4374762Y-3953095D01*
X4378571Y-3955000D01*
X4380476Y-3956905D01*
X4382381Y-3960714D01*
X4382381Y-3964524D01*
X4380476Y-3970238D01*
X4357619Y-3993095D01*
X4382381Y-3993095D01*
X7294524Y-4868095D02*
X7294524Y-4828095D01*
X7317381Y-4868095D01*
X7317381Y-4828095D01*
X7332619Y-4828095D02*
X7357381Y-4828095D01*
X7344048Y-4843333D01*
X7349762Y-4843333D01*
X7353571Y-4845238D01*
X7355476Y-4847143D01*
X7357381Y-4850952D01*
X7357381Y-4860476D01*
X7355476Y-4864286D01*
X7353571Y-4866190D01*
X7349762Y-4868095D01*
X7338333Y-4868095D01*
X7334524Y-4866190D01*
X7332619Y-4864286D01*
X7294524Y-5718095D02*
X7294524Y-5678095D01*
X7317381Y-5718095D01*
X7317381Y-5678095D01*
X7353571Y-5691429D02*
X7353571Y-5718095D01*
X7344048Y-5676190D02*
X7334524Y-5704762D01*
X7359286Y-5704762D01*
X5619524Y-5718095D02*
X5619524Y-5678095D01*
X5642381Y-5718095D01*
X5642381Y-5678095D01*
X5680476Y-5678095D02*
X5661429Y-5678095D01*
X5659524Y-5697143D01*
X5661429Y-5695238D01*
X5665238Y-5693333D01*
X5674762Y-5693333D01*
X5678571Y-5695238D01*
X5680476Y-5697143D01*
X5682381Y-5700952D01*
X5682381Y-5710476D01*
X5680476Y-5714286D01*
X5678571Y-5716190D01*
X5674762Y-5718095D01*
X5665238Y-5718095D01*
X5661429Y-5716190D01*
X5659524Y-5714286D01*
X5594524Y-4993095D02*
X5594524Y-4953095D01*
X5617381Y-4993095D01*
X5617381Y-4953095D01*
X5653571Y-4953095D02*
X5645952Y-4953095D01*
X5642143Y-4955000D01*
X5640238Y-4956905D01*
X5636429Y-4962619D01*
X5634524Y-4970238D01*
X5634524Y-4985476D01*
X5636429Y-4989286D01*
X5638333Y-4991190D01*
X5642143Y-4993095D01*
X5649762Y-4993095D01*
X5653571Y-4991190D01*
X5655476Y-4989286D01*
X5657381Y-4985476D01*
X5657381Y-4975952D01*
X5655476Y-4972143D01*
X5653571Y-4970238D01*
X5649762Y-4968333D01*
X5642143Y-4968333D01*
X5638333Y-4970238D01*
X5636429Y-4972143D01*
X5634524Y-4975952D01*
X6719524Y-5768095D02*
X6719524Y-5728095D01*
X6742381Y-5768095D01*
X6742381Y-5728095D01*
X6757619Y-5728095D02*
X6784286Y-5728095D01*
X6767143Y-5768095D01*
X4443333Y-4168095D02*
X4430000Y-4149048D01*
X4420476Y-4168095D02*
X4420476Y-4128095D01*
X4435714Y-4128095D01*
X4439524Y-4130000D01*
X4441429Y-4131905D01*
X4443333Y-4135714D01*
X4443333Y-4141429D01*
X4441429Y-4145238D01*
X4439524Y-4147143D01*
X4435714Y-4149048D01*
X4420476Y-4149048D01*
X4481429Y-4168095D02*
X4458571Y-4168095D01*
X4470000Y-4168095D02*
X4470000Y-4128095D01*
X4466191Y-4133810D01*
X4462381Y-4137619D01*
X4458571Y-4139524D01*
X4443333Y-4293095D02*
X4430000Y-4274048D01*
X4420476Y-4293095D02*
X4420476Y-4253095D01*
X4435714Y-4253095D01*
X4439524Y-4255000D01*
X4441429Y-4256905D01*
X4443333Y-4260714D01*
X4443333Y-4266429D01*
X4441429Y-4270238D01*
X4439524Y-4272143D01*
X4435714Y-4274048D01*
X4420476Y-4274048D01*
X4458571Y-4256905D02*
X4460476Y-4255000D01*
X4464286Y-4253095D01*
X4473810Y-4253095D01*
X4477619Y-4255000D01*
X4479524Y-4256905D01*
X4481429Y-4260714D01*
X4481429Y-4264524D01*
X4479524Y-4270238D01*
X4456667Y-4293095D01*
X4481429Y-4293095D01*
X4639733Y-5366295D02*
X4626400Y-5347248D01*
X4616876Y-5366295D02*
X4616876Y-5326295D01*
X4632114Y-5326295D01*
X4635924Y-5328200D01*
X4637829Y-5330105D01*
X4639733Y-5333914D01*
X4639733Y-5339629D01*
X4637829Y-5343438D01*
X4635924Y-5345343D01*
X4632114Y-5347248D01*
X4616876Y-5347248D01*
X4653067Y-5326295D02*
X4677829Y-5326295D01*
X4664495Y-5341533D01*
X4670210Y-5341533D01*
X4674019Y-5343438D01*
X4675924Y-5345343D01*
X4677829Y-5349152D01*
X4677829Y-5358676D01*
X4675924Y-5362486D01*
X4674019Y-5364390D01*
X4670210Y-5366295D01*
X4658781Y-5366295D01*
X4654971Y-5364390D01*
X4653067Y-5362486D01*
X5593333Y-4043095D02*
X5580000Y-4024048D01*
X5570476Y-4043095D02*
X5570476Y-4003095D01*
X5585714Y-4003095D01*
X5589524Y-4005000D01*
X5591429Y-4006905D01*
X5593333Y-4010714D01*
X5593333Y-4016429D01*
X5591429Y-4020238D01*
X5589524Y-4022143D01*
X5585714Y-4024048D01*
X5570476Y-4024048D01*
X5627619Y-4016429D02*
X5627619Y-4043095D01*
X5618095Y-4001190D02*
X5608571Y-4029762D01*
X5633333Y-4029762D01*
X5393333Y-5143095D02*
X5380000Y-5124048D01*
X5370476Y-5143095D02*
X5370476Y-5103095D01*
X5385714Y-5103095D01*
X5389524Y-5105000D01*
X5391429Y-5106905D01*
X5393333Y-5110714D01*
X5393333Y-5116429D01*
X5391429Y-5120238D01*
X5389524Y-5122143D01*
X5385714Y-5124048D01*
X5370476Y-5124048D01*
X5429524Y-5103095D02*
X5410476Y-5103095D01*
X5408571Y-5122143D01*
X5410476Y-5120238D01*
X5414286Y-5118333D01*
X5423810Y-5118333D01*
X5427619Y-5120238D01*
X5429524Y-5122143D01*
X5431429Y-5125952D01*
X5431429Y-5135476D01*
X5429524Y-5139286D01*
X5427619Y-5141190D01*
X5423810Y-5143095D01*
X5414286Y-5143095D01*
X5410476Y-5141190D01*
X5408571Y-5139286D01*
X5993333Y-4143095D02*
X5980000Y-4124048D01*
X5970476Y-4143095D02*
X5970476Y-4103095D01*
X5985714Y-4103095D01*
X5989524Y-4105000D01*
X5991429Y-4106905D01*
X5993333Y-4110714D01*
X5993333Y-4116429D01*
X5991429Y-4120238D01*
X5989524Y-4122143D01*
X5985714Y-4124048D01*
X5970476Y-4124048D01*
X6027619Y-4103095D02*
X6020000Y-4103095D01*
X6016191Y-4105000D01*
X6014286Y-4106905D01*
X6010476Y-4112619D01*
X6008571Y-4120238D01*
X6008571Y-4135476D01*
X6010476Y-4139286D01*
X6012381Y-4141190D01*
X6016191Y-4143095D01*
X6023810Y-4143095D01*
X6027619Y-4141190D01*
X6029524Y-4139286D01*
X6031429Y-4135476D01*
X6031429Y-4125952D01*
X6029524Y-4122143D01*
X6027619Y-4120238D01*
X6023810Y-4118333D01*
X6016191Y-4118333D01*
X6012381Y-4120238D01*
X6010476Y-4122143D01*
X6008571Y-4125952D01*
X6293333Y-4118095D02*
X6280000Y-4099048D01*
X6270476Y-4118095D02*
X6270476Y-4078095D01*
X6285714Y-4078095D01*
X6289524Y-4080000D01*
X6291429Y-4081905D01*
X6293333Y-4085714D01*
X6293333Y-4091429D01*
X6291429Y-4095238D01*
X6289524Y-4097143D01*
X6285714Y-4099048D01*
X6270476Y-4099048D01*
X6306667Y-4078095D02*
X6333333Y-4078095D01*
X6316191Y-4118095D01*
X7160066Y-4466914D02*
X7146732Y-4447867D01*
X7137209Y-4466914D02*
X7137209Y-4426914D01*
X7152447Y-4426914D01*
X7156256Y-4428819D01*
X7158161Y-4430724D01*
X7160066Y-4434533D01*
X7160066Y-4440247D01*
X7158161Y-4444057D01*
X7156256Y-4445962D01*
X7152447Y-4447867D01*
X7137209Y-4447867D01*
X7182923Y-4444057D02*
X7179113Y-4442152D01*
X7177209Y-4440247D01*
X7175304Y-4436438D01*
X7175304Y-4434533D01*
X7177209Y-4430724D01*
X7179113Y-4428819D01*
X7182923Y-4426914D01*
X7190542Y-4426914D01*
X7194351Y-4428819D01*
X7196256Y-4430724D01*
X7198161Y-4434533D01*
X7198161Y-4436438D01*
X7196256Y-4440247D01*
X7194351Y-4442152D01*
X7190542Y-4444057D01*
X7182923Y-4444057D01*
X7179113Y-4445962D01*
X7177209Y-4447867D01*
X7175304Y-4451676D01*
X7175304Y-4459295D01*
X7177209Y-4463105D01*
X7179113Y-4465009D01*
X7182923Y-4466914D01*
X7190542Y-4466914D01*
X7194351Y-4465009D01*
X7196256Y-4463105D01*
X7198161Y-4459295D01*
X7198161Y-4451676D01*
X7196256Y-4447867D01*
X7194351Y-4445962D01*
X7190542Y-4444057D01*
X7668333Y-4893095D02*
X7655000Y-4874048D01*
X7645476Y-4893095D02*
X7645476Y-4853095D01*
X7660714Y-4853095D01*
X7664524Y-4855000D01*
X7666429Y-4856905D01*
X7668333Y-4860714D01*
X7668333Y-4866429D01*
X7666429Y-4870238D01*
X7664524Y-4872143D01*
X7660714Y-4874048D01*
X7645476Y-4874048D01*
X7687381Y-4893095D02*
X7695000Y-4893095D01*
X7698810Y-4891190D01*
X7700714Y-4889286D01*
X7704524Y-4883571D01*
X7706429Y-4875952D01*
X7706429Y-4860714D01*
X7704524Y-4856905D01*
X7702619Y-4855000D01*
X7698810Y-4853095D01*
X7691191Y-4853095D01*
X7687381Y-4855000D01*
X7685476Y-4856905D01*
X7683571Y-4860714D01*
X7683571Y-4870238D01*
X7685476Y-4874048D01*
X7687381Y-4875952D01*
X7691191Y-4877857D01*
X7698810Y-4877857D01*
X7702619Y-4875952D01*
X7704524Y-4874048D01*
X7706429Y-4870238D01*
X7696667Y-4366190D02*
X7702381Y-4368095D01*
X7711905Y-4368095D01*
X7715714Y-4366190D01*
X7717619Y-4364286D01*
X7719524Y-4360476D01*
X7719524Y-4356667D01*
X7717619Y-4352857D01*
X7715714Y-4350952D01*
X7711905Y-4349048D01*
X7704286Y-4347143D01*
X7700476Y-4345238D01*
X7698571Y-4343333D01*
X7696667Y-4339524D01*
X7696667Y-4335714D01*
X7698571Y-4331905D01*
X7700476Y-4330000D01*
X7704286Y-4328095D01*
X7713810Y-4328095D01*
X7719524Y-4330000D01*
X7732857Y-4328095D02*
X7742381Y-4368095D01*
X7750000Y-4339524D01*
X7757619Y-4368095D01*
X7767143Y-4328095D01*
X7803333Y-4368095D02*
X7780476Y-4368095D01*
X7791905Y-4368095D02*
X7791905Y-4328095D01*
X7788095Y-4333810D01*
X7784286Y-4337619D01*
X7780476Y-4339524D01*
X5594524Y-4078095D02*
X5594524Y-4110476D01*
X5596429Y-4114286D01*
X5598333Y-4116190D01*
X5602143Y-4118095D01*
X5609762Y-4118095D01*
X5613571Y-4116190D01*
X5615476Y-4114286D01*
X5617381Y-4110476D01*
X5617381Y-4078095D01*
X5657381Y-4118095D02*
X5634524Y-4118095D01*
X5645952Y-4118095D02*
X5645952Y-4078095D01*
X5642143Y-4083810D01*
X5638333Y-4087619D01*
X5634524Y-4089524D01*
X4970524Y-5276095D02*
X4970524Y-5308476D01*
X4972429Y-5312286D01*
X4974333Y-5314190D01*
X4978143Y-5316095D01*
X4985762Y-5316095D01*
X4989571Y-5314190D01*
X4991476Y-5312286D01*
X4993381Y-5308476D01*
X4993381Y-5276095D01*
X5010524Y-5279905D02*
X5012429Y-5278000D01*
X5016238Y-5276095D01*
X5025762Y-5276095D01*
X5029571Y-5278000D01*
X5031476Y-5279905D01*
X5033381Y-5283714D01*
X5033381Y-5287524D01*
X5031476Y-5293238D01*
X5008619Y-5316095D01*
X5033381Y-5316095D01*
X5144524Y-5803095D02*
X5144524Y-5835476D01*
X5146429Y-5839286D01*
X5148333Y-5841190D01*
X5152143Y-5843095D01*
X5159762Y-5843095D01*
X5163571Y-5841190D01*
X5165476Y-5839286D01*
X5167381Y-5835476D01*
X5167381Y-5803095D01*
X5182619Y-5803095D02*
X5207381Y-5803095D01*
X5194048Y-5818333D01*
X5199762Y-5818333D01*
X5203571Y-5820238D01*
X5205476Y-5822143D01*
X5207381Y-5825952D01*
X5207381Y-5835476D01*
X5205476Y-5839286D01*
X5203571Y-5841190D01*
X5199762Y-5843095D01*
X5188333Y-5843095D01*
X5184524Y-5841190D01*
X5182619Y-5839286D01*
X4321124Y-4351695D02*
X4321124Y-4384076D01*
X4323029Y-4387886D01*
X4324933Y-4389790D01*
X4328743Y-4391695D01*
X4336362Y-4391695D01*
X4340171Y-4389790D01*
X4342076Y-4387886D01*
X4343981Y-4384076D01*
X4343981Y-4351695D01*
X4380171Y-4365029D02*
X4380171Y-4391695D01*
X4370648Y-4349790D02*
X4361124Y-4378362D01*
X4385886Y-4378362D01*
X6492524Y-3984295D02*
X6492524Y-4016676D01*
X6494429Y-4020486D01*
X6496333Y-4022390D01*
X6500143Y-4024295D01*
X6507762Y-4024295D01*
X6511571Y-4022390D01*
X6513476Y-4020486D01*
X6515381Y-4016676D01*
X6515381Y-3984295D01*
X6553476Y-3984295D02*
X6534429Y-3984295D01*
X6532524Y-4003343D01*
X6534429Y-4001438D01*
X6538238Y-3999533D01*
X6547762Y-3999533D01*
X6551571Y-4001438D01*
X6553476Y-4003343D01*
X6555381Y-4007152D01*
X6555381Y-4016676D01*
X6553476Y-4020486D01*
X6551571Y-4022390D01*
X6547762Y-4024295D01*
X6538238Y-4024295D01*
X6534429Y-4022390D01*
X6532524Y-4020486D01*
X6107619Y-5333095D02*
X6134286Y-5373095D01*
X6134286Y-5333095D02*
X6107619Y-5373095D01*
X6170476Y-5373095D02*
X6147619Y-5373095D01*
X6159048Y-5373095D02*
X6159048Y-5333095D01*
X6155238Y-5338810D01*
X6151429Y-5342619D01*
X6147619Y-5344524D01*
M02*
