%FSLAX36Y36*%
G04 Gerber Fmt 3.6, Leading zero omitted, Abs format (unit inch)*
G04 Created by KiCad (PCBNEW (2014-jul-16 BZR unknown)-product) date Mon 02 Feb 2015 12:29:57 PM PST*
%MOIN*%
G01*
G04 APERTURE LIST*
%ADD10C,0.003937*%
%ADD11C,0.059100*%
%ADD12C,0.078700*%
%ADD13R,0.078700X0.078700*%
%ADD14C,0.060000*%
%ADD15C,0.236220*%
%ADD16R,0.068000X0.068000*%
%ADD17C,0.068000*%
%ADD18R,0.060000X0.060000*%
%ADD19O,0.068000X0.068000*%
%ADD20R,0.055000X0.055000*%
%ADD21C,0.055000*%
%ADD22O,0.137800X0.066900*%
%ADD23R,0.620000X0.380000*%
%ADD24C,0.035000*%
%ADD25C,0.008000*%
%ADD26C,0.040000*%
%ADD27C,0.010000*%
G04 APERTURE END LIST*
D10*
D11*
X6275000Y-4750000D03*
X6275000Y-4650000D03*
X6775000Y-4950000D03*
X6775000Y-4850000D03*
X5225000Y-5725000D03*
X5225000Y-5625000D03*
X5750000Y-4025000D03*
X5850000Y-4025000D03*
X5125000Y-5400000D03*
X5225000Y-5400000D03*
X5175000Y-4825000D03*
X5275000Y-4825000D03*
X5400000Y-4475000D03*
X5400000Y-4375000D03*
X6075000Y-4700000D03*
X6075000Y-4600000D03*
X5275000Y-4225000D03*
X5175000Y-4225000D03*
X6275000Y-4950000D03*
X6275000Y-4850000D03*
X6275000Y-5050000D03*
X6275000Y-5150000D03*
D12*
X6875000Y-4250000D03*
D13*
X6875000Y-4650000D03*
D14*
X7720000Y-5265000D03*
X7720000Y-5365000D03*
D15*
X4133858Y-4133858D03*
X7677165Y-4133858D03*
X4133858Y-5708661D03*
X7677165Y-5708661D03*
D16*
X4500000Y-5695000D03*
D17*
X4500000Y-5595000D03*
X4500000Y-5495000D03*
D18*
X4113780Y-4721260D03*
D14*
X4213780Y-4721260D03*
X4113780Y-4821260D03*
X4213780Y-4821260D03*
X4113780Y-4921260D03*
X4213780Y-4921260D03*
X4113780Y-5021260D03*
X4213780Y-5021260D03*
X4113780Y-5121260D03*
X4213780Y-5121260D03*
D16*
X4450000Y-4035000D03*
D17*
X4550000Y-4035000D03*
X4650000Y-4035000D03*
X4750000Y-4035000D03*
X4850000Y-4035000D03*
X4950000Y-4035000D03*
D16*
X7433071Y-4828976D03*
D17*
X7433071Y-4728976D03*
X7433071Y-4628976D03*
X7433071Y-4528976D03*
X7433071Y-4428976D03*
X7433071Y-4328976D03*
X7433071Y-4228976D03*
X7433071Y-4128976D03*
D16*
X7433071Y-5688976D03*
D17*
X7433071Y-5588976D03*
X7433071Y-5488976D03*
X7433071Y-5388976D03*
X7433071Y-5288976D03*
X7433071Y-5188976D03*
X7433071Y-5088976D03*
X7433071Y-4988976D03*
D16*
X5533071Y-5688976D03*
D17*
X5533071Y-5588976D03*
X5533071Y-5488976D03*
X5533071Y-5388976D03*
X5533071Y-5288976D03*
X5533071Y-5188976D03*
D16*
X5533071Y-4988976D03*
D17*
X5533071Y-4888976D03*
X5533071Y-4788976D03*
X5533071Y-4688976D03*
X5533071Y-4588976D03*
X5533071Y-4488976D03*
D16*
X6631102Y-5694488D03*
D19*
X6631102Y-5794488D03*
X6531102Y-5694488D03*
X6531102Y-5794488D03*
X6431102Y-5694488D03*
X6431102Y-5794488D03*
D12*
X4550000Y-4150000D03*
X4950000Y-4150000D03*
X4550000Y-4275000D03*
X4950000Y-4275000D03*
X4650000Y-5425000D03*
X4650000Y-5825000D03*
X5100000Y-4035000D03*
X5500000Y-4035000D03*
X5400000Y-5050000D03*
X5400000Y-4650000D03*
X6100000Y-4425000D03*
X6100000Y-4025000D03*
X6225000Y-4425000D03*
X6225000Y-4025000D03*
X7075000Y-4250000D03*
X7075000Y-4650000D03*
X7580000Y-5075000D03*
X7580000Y-4675000D03*
D13*
X7740000Y-4683000D03*
D12*
X7740000Y-4427000D03*
D20*
X5650000Y-4200000D03*
D21*
X5650000Y-4300000D03*
X5650000Y-4400000D03*
X5650000Y-4500000D03*
X5650000Y-4600000D03*
X5650000Y-4700000D03*
X5650000Y-4800000D03*
X5950000Y-4800000D03*
X5950000Y-4700000D03*
X5950000Y-4600000D03*
X5950000Y-4500000D03*
X5950000Y-4400000D03*
X5950000Y-4300000D03*
X5950000Y-4200000D03*
D22*
X5200000Y-5050000D03*
X5200000Y-5150000D03*
X5200000Y-4950000D03*
D23*
X4730000Y-5050000D03*
D20*
X4775000Y-5825000D03*
D21*
X4875000Y-5825000D03*
X4975000Y-5825000D03*
X5075000Y-5825000D03*
X5075000Y-5525000D03*
X4975000Y-5525000D03*
X4875000Y-5525000D03*
X4775000Y-5525000D03*
D22*
X5200000Y-4575000D03*
X5200000Y-4675000D03*
X5200000Y-4475000D03*
D23*
X4730000Y-4575000D03*
D21*
X6375000Y-4250000D03*
X6375000Y-4350000D03*
X6375000Y-4450000D03*
X6375000Y-4550000D03*
X6375000Y-4650000D03*
X6375000Y-4750000D03*
X6375000Y-4850000D03*
X6375000Y-4950000D03*
X6375000Y-5050000D03*
X6375000Y-5150000D03*
X6375000Y-5250000D03*
X6375000Y-5350000D03*
X6375000Y-5450000D03*
D20*
X6375000Y-4150000D03*
D21*
X6675000Y-5450000D03*
X6675000Y-5350000D03*
X6675000Y-5250000D03*
X6675000Y-5150000D03*
X6675000Y-5050000D03*
X6675000Y-4950000D03*
X6675000Y-4850000D03*
X6675000Y-4750000D03*
X6675000Y-4650000D03*
X6675000Y-4550000D03*
X6675000Y-4450000D03*
X6675000Y-4350000D03*
X6675000Y-4250000D03*
X6675000Y-4150000D03*
D11*
X6120000Y-4998900D03*
X6120000Y-5191100D03*
D24*
X6972000Y-5537000D03*
X6838000Y-4389000D03*
X7530000Y-4493000D03*
X7384000Y-4679000D03*
X7114000Y-5299000D03*
X7114000Y-5089000D03*
X7362000Y-5343000D03*
X7312000Y-5495000D03*
X7270000Y-4729000D03*
X7270000Y-5449000D03*
X7236000Y-5349000D03*
X7236000Y-4629000D03*
X6508000Y-5253000D03*
X7236000Y-4575000D03*
X7202000Y-5253000D03*
X7168000Y-5149000D03*
X7296000Y-4441000D03*
X6552000Y-5049000D03*
X5640000Y-5445000D03*
X5611000Y-5345000D03*
X5638500Y-5577000D03*
X5319300Y-4680900D03*
X5354000Y-4750000D03*
X5360900Y-4957200D03*
X6596000Y-4799000D03*
X6938000Y-4805000D03*
X7048000Y-4803000D03*
X7046000Y-4961000D03*
X6900000Y-5097000D03*
X6920000Y-4979000D03*
X6878000Y-4533000D03*
X7222000Y-4193000D03*
X7076000Y-4451000D03*
X7072000Y-4535000D03*
X6484000Y-4601000D03*
X6546000Y-4077000D03*
X6496000Y-4341000D03*
X6482000Y-4469000D03*
X6060000Y-4341000D03*
X6330000Y-4033000D03*
X6266000Y-4145000D03*
X6190000Y-4237000D03*
X5398000Y-4043000D03*
X5400000Y-4165000D03*
X5888000Y-4445000D03*
X5824000Y-4321000D03*
X5762000Y-4495000D03*
X4700000Y-4109000D03*
X4510000Y-5815000D03*
X4634000Y-5521000D03*
X4640000Y-5677000D03*
X5100000Y-4309000D03*
X6448000Y-4095000D03*
X6316000Y-4497000D03*
X7354000Y-4765000D03*
X5558000Y-4261000D03*
X6580000Y-5625000D03*
X6350000Y-5633000D03*
X6592000Y-4449000D03*
X6582000Y-4551000D03*
X6428000Y-5599000D03*
X6560000Y-4651000D03*
X6382000Y-5567000D03*
X6720000Y-5689000D03*
D25*
X7385047Y-5537000D02*
X6972000Y-5537000D01*
X6838000Y-4389000D02*
X6770000Y-4389000D01*
X6770000Y-4389000D02*
X6760000Y-4399000D01*
X6760000Y-4399000D02*
X6426000Y-4399000D01*
X6426000Y-4399000D02*
X6375000Y-4450000D01*
X7433071Y-5488976D02*
X7385047Y-5537000D01*
X6483000Y-4550000D02*
X6534000Y-4499000D01*
X6534000Y-4499000D02*
X7304000Y-4499000D01*
X7304000Y-4499000D02*
X7324000Y-4479000D01*
X7324000Y-4479000D02*
X7516000Y-4479000D01*
X7516000Y-4479000D02*
X7530000Y-4493000D01*
X6375000Y-4550000D02*
X6483000Y-4550000D01*
X7384000Y-4679000D02*
X7162000Y-4679000D01*
X7162000Y-4679000D02*
X7112000Y-4729000D01*
X7112000Y-4729000D02*
X6804000Y-4729000D01*
X6804000Y-4729000D02*
X6774000Y-4699000D01*
X6774000Y-4699000D02*
X6528000Y-4699000D01*
X6528000Y-4699000D02*
X6479000Y-4650000D01*
X6479000Y-4650000D02*
X6375000Y-4650000D01*
X6426000Y-5201000D02*
X7286000Y-5201000D01*
X7286000Y-5201000D02*
X7298024Y-5188976D01*
X7298024Y-5188976D02*
X7433071Y-5188976D01*
X6375000Y-5150000D02*
X6426000Y-5201000D01*
X7433047Y-5089000D02*
X7433071Y-5088976D01*
X6424000Y-5299000D02*
X7114000Y-5299000D01*
X7114000Y-5089000D02*
X7433047Y-5089000D01*
X6375000Y-5250000D02*
X6424000Y-5299000D01*
X7362000Y-5343000D02*
X7306000Y-5399000D01*
X7306000Y-5399000D02*
X6544000Y-5399000D01*
X6544000Y-5399000D02*
X6495000Y-5350000D01*
X6495000Y-5350000D02*
X6375000Y-5350000D01*
X6581000Y-5450000D02*
X6626000Y-5495000D01*
X6626000Y-5495000D02*
X7312000Y-5495000D01*
X6375000Y-5450000D02*
X6581000Y-5450000D01*
X6676000Y-5449000D02*
X6675000Y-5450000D01*
X7270024Y-4728976D02*
X7270000Y-4729000D01*
X7270000Y-5449000D02*
X6676000Y-5449000D01*
X7433071Y-4728976D02*
X7270024Y-4728976D01*
X7433047Y-4629000D02*
X7433071Y-4628976D01*
X7235000Y-5350000D02*
X7236000Y-5349000D01*
X7236000Y-4629000D02*
X7433047Y-4629000D01*
X6675000Y-5350000D02*
X7235000Y-5350000D01*
X6672000Y-5253000D02*
X6675000Y-5250000D01*
X6508000Y-5253000D02*
X6672000Y-5253000D01*
X6678000Y-5253000D02*
X6675000Y-5250000D01*
X7282024Y-4528976D02*
X7236000Y-4575000D01*
X7202000Y-5253000D02*
X6678000Y-5253000D01*
X7433071Y-4528976D02*
X7282024Y-4528976D01*
X7167000Y-5150000D02*
X7168000Y-5149000D01*
X7296000Y-4441000D02*
X7308024Y-4428976D01*
X7308024Y-4428976D02*
X7433071Y-4428976D01*
X6675000Y-5150000D02*
X7167000Y-5150000D01*
X6552000Y-5049000D02*
X6553000Y-5050000D01*
X6553000Y-5050000D02*
X6675000Y-5050000D01*
X7051000Y-5050000D02*
X7190000Y-4911000D01*
X7190000Y-4911000D02*
X7508000Y-4911000D01*
X7508000Y-4911000D02*
X7580000Y-4839000D01*
X7580000Y-4839000D02*
X7580000Y-4675000D01*
X6675000Y-5050000D02*
X7051000Y-5050000D01*
D26*
X5400000Y-5050000D02*
X5360900Y-5010900D01*
X5354000Y-4715600D02*
X5319300Y-4680900D01*
X5354000Y-4750000D02*
X5354000Y-4715600D01*
X5360900Y-5010900D02*
X5360900Y-4957200D01*
X6675000Y-4750000D02*
X6645000Y-4750000D01*
X6645000Y-4750000D02*
X6596000Y-4799000D01*
X6938000Y-4805000D02*
X7046000Y-4805000D01*
X7046000Y-4805000D02*
X7048000Y-4803000D01*
X7070000Y-4533000D02*
X6878000Y-4533000D01*
X7397094Y-4193000D02*
X7222000Y-4193000D01*
X7433071Y-4228976D02*
X7397094Y-4193000D01*
X7072000Y-4535000D02*
X7070000Y-4533000D01*
X7106000Y-4077000D02*
X6546000Y-4077000D01*
X7222000Y-4193000D02*
X7106000Y-4077000D01*
X6502000Y-4033000D02*
X6330000Y-4033000D01*
X6546000Y-4077000D02*
X6502000Y-4033000D01*
X5812000Y-4445000D02*
X5888000Y-4445000D01*
X5762000Y-4495000D02*
X5812000Y-4445000D01*
X4775000Y-5525000D02*
X4771000Y-5521000D01*
D25*
X4510000Y-5807000D02*
X4510000Y-5815000D01*
D26*
X4771000Y-5521000D02*
X4634000Y-5521000D01*
D25*
X4640000Y-5677000D02*
X4510000Y-5807000D01*
X6375000Y-4950000D02*
X6275000Y-4950000D01*
X6168900Y-4950000D02*
X6120000Y-4998900D01*
X6275000Y-4950000D02*
X6168900Y-4950000D01*
X6875000Y-4250000D02*
X7075000Y-4250000D01*
X7255000Y-4250000D02*
X7285000Y-4280000D01*
X7285000Y-4280000D02*
X7593000Y-4280000D01*
X7593000Y-4280000D02*
X7740000Y-4427000D01*
X7075000Y-4250000D02*
X7255000Y-4250000D01*
X6481000Y-4150000D02*
X6375000Y-4150000D01*
X6531000Y-4200000D02*
X6481000Y-4150000D01*
X6825000Y-4200000D02*
X6531000Y-4200000D01*
X6875000Y-4250000D02*
X6825000Y-4200000D01*
X5761000Y-4550000D02*
X6025000Y-4550000D01*
X6025000Y-4550000D02*
X6075000Y-4600000D01*
X5571047Y-4451000D02*
X5662000Y-4451000D01*
X5662000Y-4451000D02*
X5761000Y-4550000D01*
X5533071Y-4488976D02*
X5571047Y-4451000D01*
X6036000Y-4425000D02*
X6011000Y-4400000D01*
X6011000Y-4400000D02*
X5950000Y-4400000D01*
X6100000Y-4425000D02*
X6036000Y-4425000D01*
X4928000Y-4213000D02*
X5042000Y-4213000D01*
X5042000Y-4213000D02*
X5102000Y-4153000D01*
X5102000Y-4153000D02*
X5312000Y-4153000D01*
X5312000Y-4153000D02*
X5510000Y-4351000D01*
X5510000Y-4351000D02*
X5704000Y-4351000D01*
X5704000Y-4351000D02*
X5753000Y-4400000D01*
X5753000Y-4400000D02*
X5950000Y-4400000D01*
X4750000Y-4035000D02*
X4928000Y-4213000D01*
X4950000Y-4275000D02*
X4825000Y-4150000D01*
X4825000Y-4150000D02*
X4550000Y-4150000D01*
X4950000Y-4275000D02*
X4950000Y-4275000D01*
X4950000Y-4035000D02*
X5100000Y-4035000D01*
X5755000Y-4600000D02*
X5706000Y-4551000D01*
X5706000Y-4551000D02*
X5600000Y-4551000D01*
X5600000Y-4551000D02*
X5586000Y-4537000D01*
X5586000Y-4537000D02*
X5492000Y-4537000D01*
X5492000Y-4537000D02*
X5456000Y-4501000D01*
X5456000Y-4501000D02*
X5456000Y-4467000D01*
X5456000Y-4467000D02*
X5414000Y-4425000D01*
X5414000Y-4425000D02*
X5338000Y-4425000D01*
X5338000Y-4425000D02*
X5222000Y-4309000D01*
X5222000Y-4309000D02*
X5100000Y-4309000D01*
X5950000Y-4600000D02*
X5755000Y-4600000D01*
X4950000Y-4150000D02*
X4984500Y-4115500D01*
X6243500Y-4115500D02*
X6264000Y-4095000D01*
X6264000Y-4095000D02*
X6448000Y-4095000D01*
X4984500Y-4115500D02*
X6243500Y-4115500D01*
X6313000Y-4500000D02*
X6316000Y-4497000D01*
X5950000Y-4500000D02*
X6313000Y-4500000D01*
X4805000Y-5595000D02*
X4500000Y-5595000D01*
X4875000Y-5525000D02*
X4805000Y-5595000D01*
X4213780Y-5021260D02*
X4113780Y-5021260D01*
X4213780Y-5121260D02*
X4113780Y-5121260D01*
D26*
X5272047Y-4950000D02*
X5533071Y-4688976D01*
X5200000Y-4950000D02*
X5272047Y-4950000D01*
X5600000Y-4035000D02*
X5610000Y-4025000D01*
X5610000Y-4025000D02*
X5750000Y-4025000D01*
X5500000Y-4035000D02*
X5600000Y-4035000D01*
X5950000Y-4200000D02*
X5650000Y-4200000D01*
X6100000Y-4025000D02*
X6225000Y-4025000D01*
X6025000Y-4775000D02*
X6160000Y-4775000D01*
X6160000Y-4775000D02*
X6185000Y-4750000D01*
X6185000Y-4750000D02*
X6275000Y-4750000D01*
X5950000Y-4700000D02*
X6025000Y-4775000D01*
X6275000Y-4750000D02*
X6375000Y-4750000D01*
X6435000Y-4750000D02*
X6635000Y-4950000D01*
X6635000Y-4950000D02*
X6675000Y-4950000D01*
X6375000Y-4750000D02*
X6435000Y-4750000D01*
X6675000Y-4950000D02*
X6775000Y-4950000D01*
X7075000Y-4650000D02*
X6875000Y-4650000D01*
X5075000Y-5725000D02*
X5225000Y-5725000D01*
X4975000Y-5825000D02*
X5075000Y-5725000D01*
X4213780Y-4721260D02*
X4261460Y-4721260D01*
X4261460Y-4721260D02*
X4350000Y-4809800D01*
X4113780Y-4721260D02*
X4213780Y-4721260D01*
X5533071Y-5041929D02*
X5533071Y-4988976D01*
X5425000Y-5150000D02*
X5533071Y-5041929D01*
X5200000Y-5150000D02*
X5425000Y-5150000D01*
X4350000Y-4809800D02*
X4350000Y-5250000D01*
X4400000Y-5300000D02*
X5125000Y-5300000D01*
X4350000Y-5250000D02*
X4400000Y-5300000D01*
X5125000Y-5300000D02*
X5200000Y-5225000D01*
X5200000Y-5225000D02*
X5200000Y-5150000D01*
X5125000Y-5400000D02*
X5125000Y-5300000D01*
X5519094Y-4575000D02*
X5533071Y-4588976D01*
X5275000Y-4475000D02*
X5375000Y-4575000D01*
X5375000Y-4575000D02*
X5519094Y-4575000D01*
X5200000Y-4475000D02*
X5275000Y-4475000D01*
D25*
X6375000Y-5050000D02*
X6275000Y-5050000D01*
X4875000Y-5425000D02*
X4975000Y-5525000D01*
X4650000Y-5425000D02*
X4875000Y-5425000D01*
X6726000Y-4901000D02*
X7108000Y-4901000D01*
X7108000Y-4901000D02*
X7244000Y-4765000D01*
X7244000Y-4765000D02*
X7354000Y-4765000D01*
X6675000Y-4850000D02*
X6726000Y-4901000D01*
X6547000Y-4250000D02*
X6498000Y-4201000D01*
X6498000Y-4201000D02*
X6084000Y-4201000D01*
X6084000Y-4201000D02*
X6034000Y-4251000D01*
X6034000Y-4251000D02*
X5568000Y-4251000D01*
X5568000Y-4251000D02*
X5558000Y-4261000D01*
X6675000Y-4250000D02*
X6547000Y-4250000D01*
X6546000Y-5745000D02*
X6580000Y-5711000D01*
X6580000Y-5711000D02*
X6580000Y-5625000D01*
X6396000Y-5745000D02*
X6304000Y-5653000D01*
X6304000Y-5653000D02*
X5916000Y-5653000D01*
X5916000Y-5653000D02*
X5751976Y-5488976D01*
X5751976Y-5488976D02*
X5533071Y-5488976D01*
X6546000Y-5745000D02*
X6396000Y-5745000D01*
X6593000Y-4450000D02*
X6675000Y-4450000D01*
X6592000Y-4449000D02*
X6593000Y-4450000D01*
X5679976Y-5388976D02*
X5924000Y-5633000D01*
X5924000Y-5633000D02*
X6350000Y-5633000D01*
X5533071Y-5388976D02*
X5679976Y-5388976D01*
X6583000Y-4550000D02*
X6675000Y-4550000D01*
X6582000Y-4551000D02*
X6583000Y-4550000D01*
X5605976Y-5288976D02*
X5916000Y-5599000D01*
X5916000Y-5599000D02*
X6428000Y-5599000D01*
X5533071Y-5288976D02*
X5605976Y-5288976D01*
X6560000Y-4651000D02*
X6561000Y-4650000D01*
X6561000Y-4650000D02*
X6675000Y-4650000D01*
X5911094Y-5567000D02*
X6382000Y-5567000D01*
X5533071Y-5188976D02*
X5911094Y-5567000D01*
X6100000Y-4300000D02*
X6225000Y-4425000D01*
X5950000Y-4300000D02*
X6100000Y-4300000D01*
X5701094Y-5857000D02*
X5533071Y-5688976D01*
X6648000Y-5857000D02*
X6720000Y-5785000D01*
X6720000Y-5785000D02*
X6720000Y-5689000D01*
X5701094Y-5857000D02*
X6648000Y-5857000D01*
X6024000Y-4649000D02*
X5926000Y-4649000D01*
X5926000Y-4649000D02*
X5904000Y-4671000D01*
X5904000Y-4671000D02*
X5904000Y-4754000D01*
X5904000Y-4754000D02*
X5950000Y-4800000D01*
X6075000Y-4700000D02*
X6024000Y-4649000D01*
D27*
G36*
X4794988Y-4121000D02*
X4607644Y-4121000D01*
X4604585Y-4113596D01*
X4586499Y-4095479D01*
X4572350Y-4089603D01*
X4583377Y-4085047D01*
X4599989Y-4068464D01*
X4600004Y-4068428D01*
X4616536Y-4084989D01*
X4638213Y-4093990D01*
X4661684Y-4094010D01*
X4683377Y-4085047D01*
X4699989Y-4068464D01*
X4700004Y-4068428D01*
X4716536Y-4084989D01*
X4738213Y-4093990D01*
X4761684Y-4094010D01*
X4766152Y-4092164D01*
X4794988Y-4121000D01*
X4794988Y-4121000D01*
G37*
X4794988Y-4121000D02*
X4607644Y-4121000D01*
X4604585Y-4113596D01*
X4586499Y-4095479D01*
X4572350Y-4089603D01*
X4583377Y-4085047D01*
X4599989Y-4068464D01*
X4600004Y-4068428D01*
X4616536Y-4084989D01*
X4638213Y-4093990D01*
X4661684Y-4094010D01*
X4683377Y-4085047D01*
X4699989Y-4068464D01*
X4700004Y-4068428D01*
X4716536Y-4084989D01*
X4738213Y-4093990D01*
X4761684Y-4094010D01*
X4766152Y-4092164D01*
X4794988Y-4121000D01*
G36*
X5635964Y-5359976D02*
X5584926Y-5359976D01*
X5583118Y-5355599D01*
X5566535Y-5338988D01*
X5566499Y-5338973D01*
X5583059Y-5322441D01*
X5584913Y-5317976D01*
X5593964Y-5317976D01*
X5635964Y-5359976D01*
X5635964Y-5359976D01*
G37*
X5635964Y-5359976D02*
X5584926Y-5359976D01*
X5583118Y-5355599D01*
X5566535Y-5338988D01*
X5566499Y-5338973D01*
X5583059Y-5322441D01*
X5584913Y-5317976D01*
X5593964Y-5317976D01*
X5635964Y-5359976D01*
G36*
X5709964Y-5459976D02*
X5584926Y-5459976D01*
X5583118Y-5455599D01*
X5566535Y-5438988D01*
X5566499Y-5438973D01*
X5583059Y-5422441D01*
X5584913Y-5417976D01*
X5667964Y-5417976D01*
X5709964Y-5459976D01*
X5709964Y-5459976D01*
G37*
X5709964Y-5459976D02*
X5584926Y-5459976D01*
X5583118Y-5455599D01*
X5566535Y-5438988D01*
X5566499Y-5438973D01*
X5583059Y-5422441D01*
X5584913Y-5417976D01*
X5667964Y-5417976D01*
X5709964Y-5459976D01*
G36*
X5933521Y-4350004D02*
X5920300Y-4355467D01*
X5905519Y-4370222D01*
X5905196Y-4371000D01*
X5765012Y-4371000D01*
X5724506Y-4330494D01*
X5715098Y-4324207D01*
X5704000Y-4322000D01*
X5697711Y-4322000D01*
X5702491Y-4310489D01*
X5702509Y-4289603D01*
X5698541Y-4280000D01*
X5901459Y-4280000D01*
X5897509Y-4289511D01*
X5897491Y-4310397D01*
X5905467Y-4329700D01*
X5920222Y-4344481D01*
X5933521Y-4350004D01*
X5933521Y-4350004D01*
G37*
X5933521Y-4350004D02*
X5920300Y-4355467D01*
X5905519Y-4370222D01*
X5905196Y-4371000D01*
X5765012Y-4371000D01*
X5724506Y-4330494D01*
X5715098Y-4324207D01*
X5704000Y-4322000D01*
X5697711Y-4322000D01*
X5702491Y-4310489D01*
X5702509Y-4289603D01*
X5698541Y-4280000D01*
X5901459Y-4280000D01*
X5897509Y-4289511D01*
X5897491Y-4310397D01*
X5905467Y-4329700D01*
X5920222Y-4344481D01*
X5933521Y-4350004D01*
G36*
X5933521Y-4450004D02*
X5920300Y-4455467D01*
X5905519Y-4470222D01*
X5897509Y-4489511D01*
X5897491Y-4510397D01*
X5901872Y-4521000D01*
X5773012Y-4521000D01*
X5688130Y-4436118D01*
X5694481Y-4429778D01*
X5702491Y-4410489D01*
X5702508Y-4390520D01*
X5732494Y-4420506D01*
X5741902Y-4426793D01*
X5753000Y-4429000D01*
X5905177Y-4429000D01*
X5905467Y-4429700D01*
X5920222Y-4444481D01*
X5933521Y-4450004D01*
X5933521Y-4450004D01*
G37*
X5933521Y-4450004D02*
X5920300Y-4455467D01*
X5905519Y-4470222D01*
X5897509Y-4489511D01*
X5897491Y-4510397D01*
X5901872Y-4521000D01*
X5773012Y-4521000D01*
X5688130Y-4436118D01*
X5694481Y-4429778D01*
X5702491Y-4410489D01*
X5702508Y-4390520D01*
X5732494Y-4420506D01*
X5741902Y-4426793D01*
X5753000Y-4429000D01*
X5905177Y-4429000D01*
X5905467Y-4429700D01*
X5920222Y-4444481D01*
X5933521Y-4450004D01*
G36*
X6124472Y-4365485D02*
X6112856Y-4360661D01*
X6087256Y-4360639D01*
X6063596Y-4370415D01*
X6045479Y-4388501D01*
X6044022Y-4392009D01*
X6031506Y-4379494D01*
X6022098Y-4373207D01*
X6011000Y-4371000D01*
X5994823Y-4371000D01*
X5994533Y-4370300D01*
X5979778Y-4355519D01*
X5966478Y-4349996D01*
X5979700Y-4344533D01*
X5994481Y-4329778D01*
X5994804Y-4329000D01*
X6087988Y-4329000D01*
X6124472Y-4365485D01*
X6124472Y-4365485D01*
G37*
X6124472Y-4365485D02*
X6112856Y-4360661D01*
X6087256Y-4360639D01*
X6063596Y-4370415D01*
X6045479Y-4388501D01*
X6044022Y-4392009D01*
X6031506Y-4379494D01*
X6022098Y-4373207D01*
X6011000Y-4371000D01*
X5994823Y-4371000D01*
X5994533Y-4370300D01*
X5979778Y-4355519D01*
X5966478Y-4349996D01*
X5979700Y-4344533D01*
X5994481Y-4329778D01*
X5994804Y-4329000D01*
X6087988Y-4329000D01*
X6124472Y-4365485D01*
G36*
X6322500Y-4172000D02*
X6084000Y-4172000D01*
X6072902Y-4174207D01*
X6063494Y-4180494D01*
X6021988Y-4222000D01*
X5997711Y-4222000D01*
X6002491Y-4210489D01*
X6002509Y-4189603D01*
X5994533Y-4170300D01*
X5979778Y-4155519D01*
X5960489Y-4147509D01*
X5939603Y-4147491D01*
X5921429Y-4155000D01*
X5695355Y-4155000D01*
X5691661Y-4151306D01*
X5682473Y-4147500D01*
X5672527Y-4147500D01*
X5617527Y-4147500D01*
X5608339Y-4151306D01*
X5601306Y-4158339D01*
X5597500Y-4167527D01*
X5597500Y-4177473D01*
X5597500Y-4222000D01*
X5574902Y-4222000D01*
X5566491Y-4218507D01*
X5549583Y-4218493D01*
X5533957Y-4224949D01*
X5521991Y-4236894D01*
X5515507Y-4252509D01*
X5515493Y-4269417D01*
X5521949Y-4285043D01*
X5533894Y-4297009D01*
X5549509Y-4303493D01*
X5566417Y-4303507D01*
X5582043Y-4297051D01*
X5594009Y-4285106D01*
X5596129Y-4280000D01*
X5601459Y-4280000D01*
X5597509Y-4289511D01*
X5597491Y-4310397D01*
X5602285Y-4322000D01*
X5522012Y-4322000D01*
X5344512Y-4144500D01*
X6243500Y-4144500D01*
X6254598Y-4142293D01*
X6264006Y-4136006D01*
X6276012Y-4124000D01*
X6322500Y-4124000D01*
X6322500Y-4127473D01*
X6322500Y-4172000D01*
X6322500Y-4172000D01*
G37*
X6322500Y-4172000D02*
X6084000Y-4172000D01*
X6072902Y-4174207D01*
X6063494Y-4180494D01*
X6021988Y-4222000D01*
X5997711Y-4222000D01*
X6002491Y-4210489D01*
X6002509Y-4189603D01*
X5994533Y-4170300D01*
X5979778Y-4155519D01*
X5960489Y-4147509D01*
X5939603Y-4147491D01*
X5921429Y-4155000D01*
X5695355Y-4155000D01*
X5691661Y-4151306D01*
X5682473Y-4147500D01*
X5672527Y-4147500D01*
X5617527Y-4147500D01*
X5608339Y-4151306D01*
X5601306Y-4158339D01*
X5597500Y-4167527D01*
X5597500Y-4177473D01*
X5597500Y-4222000D01*
X5574902Y-4222000D01*
X5566491Y-4218507D01*
X5549583Y-4218493D01*
X5533957Y-4224949D01*
X5521991Y-4236894D01*
X5515507Y-4252509D01*
X5515493Y-4269417D01*
X5521949Y-4285043D01*
X5533894Y-4297009D01*
X5549509Y-4303493D01*
X5566417Y-4303507D01*
X5582043Y-4297051D01*
X5594009Y-4285106D01*
X5596129Y-4280000D01*
X5601459Y-4280000D01*
X5597509Y-4289511D01*
X5597491Y-4310397D01*
X5602285Y-4322000D01*
X5522012Y-4322000D01*
X5344512Y-4144500D01*
X6243500Y-4144500D01*
X6254598Y-4142293D01*
X6264006Y-4136006D01*
X6276012Y-4124000D01*
X6322500Y-4124000D01*
X6322500Y-4127473D01*
X6322500Y-4172000D01*
G36*
X6358521Y-4400004D02*
X6345300Y-4405467D01*
X6330519Y-4420222D01*
X6322509Y-4439511D01*
X6322496Y-4454506D01*
X6307583Y-4454493D01*
X6291957Y-4460949D01*
X6281889Y-4471000D01*
X6270004Y-4471000D01*
X6279521Y-4461499D01*
X6289339Y-4437856D01*
X6289361Y-4412256D01*
X6279585Y-4388596D01*
X6261499Y-4370479D01*
X6237856Y-4360661D01*
X6212256Y-4360639D01*
X6204752Y-4363740D01*
X6120506Y-4279494D01*
X6111098Y-4273207D01*
X6100000Y-4271000D01*
X6055012Y-4271000D01*
X6096012Y-4230000D01*
X6326459Y-4230000D01*
X6322509Y-4239511D01*
X6322491Y-4260397D01*
X6330467Y-4279700D01*
X6345222Y-4294481D01*
X6358521Y-4300004D01*
X6345300Y-4305467D01*
X6330519Y-4320222D01*
X6322509Y-4339511D01*
X6322491Y-4360397D01*
X6330467Y-4379700D01*
X6345222Y-4394481D01*
X6358521Y-4400004D01*
X6358521Y-4400004D01*
G37*
X6358521Y-4400004D02*
X6345300Y-4405467D01*
X6330519Y-4420222D01*
X6322509Y-4439511D01*
X6322496Y-4454506D01*
X6307583Y-4454493D01*
X6291957Y-4460949D01*
X6281889Y-4471000D01*
X6270004Y-4471000D01*
X6279521Y-4461499D01*
X6289339Y-4437856D01*
X6289361Y-4412256D01*
X6279585Y-4388596D01*
X6261499Y-4370479D01*
X6237856Y-4360661D01*
X6212256Y-4360639D01*
X6204752Y-4363740D01*
X6120506Y-4279494D01*
X6111098Y-4273207D01*
X6100000Y-4271000D01*
X6055012Y-4271000D01*
X6096012Y-4230000D01*
X6326459Y-4230000D01*
X6322509Y-4239511D01*
X6322491Y-4260397D01*
X6330467Y-4279700D01*
X6345222Y-4294481D01*
X6358521Y-4300004D01*
X6345300Y-4305467D01*
X6330519Y-4320222D01*
X6322509Y-4339511D01*
X6322491Y-4360397D01*
X6330467Y-4379700D01*
X6345222Y-4394481D01*
X6358521Y-4400004D01*
G36*
X6358521Y-4700004D02*
X6346429Y-4705000D01*
X6311116Y-4705000D01*
X6312871Y-4703827D01*
X6314637Y-4691052D01*
X6275000Y-4651414D01*
X6273586Y-4652828D01*
X6273586Y-4650000D01*
X6233948Y-4610363D01*
X6221173Y-4612129D01*
X6210778Y-4635610D01*
X6210160Y-4661282D01*
X6219413Y-4685237D01*
X6221173Y-4687871D01*
X6233948Y-4689637D01*
X6273586Y-4650000D01*
X6273586Y-4652828D01*
X6235363Y-4691052D01*
X6237129Y-4703827D01*
X6239779Y-4705000D01*
X6185000Y-4705000D01*
X6167779Y-4708425D01*
X6153180Y-4718180D01*
X6141360Y-4730000D01*
X6121609Y-4730000D01*
X6129541Y-4710898D01*
X6129559Y-4689197D01*
X6121272Y-4669140D01*
X6105940Y-4653782D01*
X6096835Y-4650001D01*
X6105860Y-4646272D01*
X6121218Y-4630940D01*
X6129541Y-4610898D01*
X6129559Y-4589197D01*
X6121272Y-4569140D01*
X6105940Y-4553782D01*
X6085898Y-4545459D01*
X6064197Y-4545441D01*
X6062255Y-4546243D01*
X6045506Y-4529494D01*
X6044767Y-4529000D01*
X6287892Y-4529000D01*
X6291894Y-4533009D01*
X6307509Y-4539493D01*
X6322511Y-4539506D01*
X6322509Y-4539511D01*
X6322491Y-4560397D01*
X6330467Y-4579700D01*
X6345222Y-4594481D01*
X6358521Y-4600004D01*
X6345300Y-4605467D01*
X6332090Y-4618654D01*
X6330587Y-4614763D01*
X6328827Y-4612129D01*
X6316052Y-4610363D01*
X6314637Y-4611777D01*
X6314637Y-4608948D01*
X6312871Y-4596173D01*
X6289390Y-4585778D01*
X6263718Y-4585160D01*
X6239763Y-4594413D01*
X6237129Y-4596173D01*
X6235363Y-4608948D01*
X6275000Y-4648586D01*
X6314637Y-4608948D01*
X6314637Y-4611777D01*
X6276414Y-4650000D01*
X6316052Y-4689637D01*
X6328827Y-4687871D01*
X6331837Y-4681072D01*
X6345222Y-4694481D01*
X6358521Y-4700004D01*
X6358521Y-4700004D01*
G37*
X6358521Y-4700004D02*
X6346429Y-4705000D01*
X6311116Y-4705000D01*
X6312871Y-4703827D01*
X6314637Y-4691052D01*
X6275000Y-4651414D01*
X6273586Y-4652828D01*
X6273586Y-4650000D01*
X6233948Y-4610363D01*
X6221173Y-4612129D01*
X6210778Y-4635610D01*
X6210160Y-4661282D01*
X6219413Y-4685237D01*
X6221173Y-4687871D01*
X6233948Y-4689637D01*
X6273586Y-4650000D01*
X6273586Y-4652828D01*
X6235363Y-4691052D01*
X6237129Y-4703827D01*
X6239779Y-4705000D01*
X6185000Y-4705000D01*
X6167779Y-4708425D01*
X6153180Y-4718180D01*
X6141360Y-4730000D01*
X6121609Y-4730000D01*
X6129541Y-4710898D01*
X6129559Y-4689197D01*
X6121272Y-4669140D01*
X6105940Y-4653782D01*
X6096835Y-4650001D01*
X6105860Y-4646272D01*
X6121218Y-4630940D01*
X6129541Y-4610898D01*
X6129559Y-4589197D01*
X6121272Y-4569140D01*
X6105940Y-4553782D01*
X6085898Y-4545459D01*
X6064197Y-4545441D01*
X6062255Y-4546243D01*
X6045506Y-4529494D01*
X6044767Y-4529000D01*
X6287892Y-4529000D01*
X6291894Y-4533009D01*
X6307509Y-4539493D01*
X6322511Y-4539506D01*
X6322509Y-4539511D01*
X6322491Y-4560397D01*
X6330467Y-4579700D01*
X6345222Y-4594481D01*
X6358521Y-4600004D01*
X6345300Y-4605467D01*
X6332090Y-4618654D01*
X6330587Y-4614763D01*
X6328827Y-4612129D01*
X6316052Y-4610363D01*
X6314637Y-4611777D01*
X6314637Y-4608948D01*
X6312871Y-4596173D01*
X6289390Y-4585778D01*
X6263718Y-4585160D01*
X6239763Y-4594413D01*
X6237129Y-4596173D01*
X6235363Y-4608948D01*
X6275000Y-4648586D01*
X6314637Y-4608948D01*
X6314637Y-4611777D01*
X6276414Y-4650000D01*
X6316052Y-4689637D01*
X6328827Y-4687871D01*
X6331837Y-4681072D01*
X6345222Y-4694481D01*
X6358521Y-4700004D01*
G36*
X6432889Y-5795488D02*
X6432102Y-5795488D01*
X6432102Y-5796276D01*
X6430102Y-5796276D01*
X6430102Y-5795488D01*
X6370860Y-5795488D01*
X6363115Y-5806269D01*
X6363782Y-5809622D01*
X6371933Y-5828000D01*
X5713107Y-5828000D01*
X5592071Y-5706964D01*
X5592071Y-5650004D01*
X5588265Y-5640815D01*
X5581232Y-5633782D01*
X5574494Y-5630991D01*
X5583059Y-5622441D01*
X5592061Y-5600764D01*
X5592081Y-5577292D01*
X5583118Y-5555599D01*
X5566535Y-5538988D01*
X5566499Y-5538973D01*
X5583059Y-5522441D01*
X5584913Y-5517976D01*
X5739964Y-5517976D01*
X5895494Y-5673506D01*
X5904902Y-5679793D01*
X5904902Y-5679793D01*
X5906743Y-5680159D01*
X5916000Y-5682000D01*
X5916000Y-5682000D01*
X5916000Y-5682000D01*
X6291988Y-5682000D01*
X6371636Y-5761648D01*
X6363782Y-5779355D01*
X6363115Y-5782708D01*
X6370860Y-5793488D01*
X6430102Y-5793488D01*
X6430102Y-5792701D01*
X6432102Y-5792701D01*
X6432102Y-5793488D01*
X6432889Y-5793488D01*
X6432889Y-5795488D01*
X6432889Y-5795488D01*
G37*
X6432889Y-5795488D02*
X6432102Y-5795488D01*
X6432102Y-5796276D01*
X6430102Y-5796276D01*
X6430102Y-5795488D01*
X6370860Y-5795488D01*
X6363115Y-5806269D01*
X6363782Y-5809622D01*
X6371933Y-5828000D01*
X5713107Y-5828000D01*
X5592071Y-5706964D01*
X5592071Y-5650004D01*
X5588265Y-5640815D01*
X5581232Y-5633782D01*
X5574494Y-5630991D01*
X5583059Y-5622441D01*
X5592061Y-5600764D01*
X5592081Y-5577292D01*
X5583118Y-5555599D01*
X5566535Y-5538988D01*
X5566499Y-5538973D01*
X5583059Y-5522441D01*
X5584913Y-5517976D01*
X5739964Y-5517976D01*
X5895494Y-5673506D01*
X5904902Y-5679793D01*
X5904902Y-5679793D01*
X5906743Y-5680159D01*
X5916000Y-5682000D01*
X5916000Y-5682000D01*
X5916000Y-5682000D01*
X6291988Y-5682000D01*
X6371636Y-5761648D01*
X6363782Y-5779355D01*
X6363115Y-5782708D01*
X6370860Y-5793488D01*
X6430102Y-5793488D01*
X6430102Y-5792701D01*
X6432102Y-5792701D01*
X6432102Y-5793488D01*
X6432889Y-5793488D01*
X6432889Y-5795488D01*
G36*
X6554702Y-4428000D02*
X6549507Y-4440509D01*
X6549493Y-4457417D01*
X6554692Y-4470000D01*
X6534000Y-4470000D01*
X6522902Y-4472207D01*
X6513494Y-4478494D01*
X6470988Y-4521000D01*
X6419823Y-4521000D01*
X6419533Y-4520300D01*
X6404778Y-4505519D01*
X6391478Y-4499996D01*
X6404700Y-4494533D01*
X6419481Y-4479778D01*
X6427491Y-4460489D01*
X6427509Y-4439603D01*
X6427188Y-4438825D01*
X6438012Y-4428000D01*
X6554702Y-4428000D01*
X6554702Y-4428000D01*
G37*
X6554702Y-4428000D02*
X6549507Y-4440509D01*
X6549493Y-4457417D01*
X6554692Y-4470000D01*
X6534000Y-4470000D01*
X6522902Y-4472207D01*
X6513494Y-4478494D01*
X6470988Y-4521000D01*
X6419823Y-4521000D01*
X6419533Y-4520300D01*
X6404778Y-4505519D01*
X6391478Y-4499996D01*
X6404700Y-4494533D01*
X6419481Y-4479778D01*
X6427491Y-4460489D01*
X6427509Y-4439603D01*
X6427188Y-4438825D01*
X6438012Y-4428000D01*
X6554702Y-4428000D01*
G36*
X6658521Y-4300004D02*
X6645300Y-4305467D01*
X6630519Y-4320222D01*
X6622509Y-4339511D01*
X6622491Y-4360397D01*
X6626459Y-4370000D01*
X6426000Y-4370000D01*
X6423320Y-4370533D01*
X6427491Y-4360489D01*
X6427509Y-4339603D01*
X6419533Y-4320300D01*
X6404778Y-4305519D01*
X6391478Y-4299996D01*
X6404700Y-4294533D01*
X6419481Y-4279778D01*
X6427491Y-4260489D01*
X6427509Y-4239603D01*
X6423541Y-4230000D01*
X6485988Y-4230000D01*
X6526494Y-4270506D01*
X6535902Y-4276793D01*
X6547000Y-4279000D01*
X6630177Y-4279000D01*
X6630467Y-4279700D01*
X6645222Y-4294481D01*
X6658521Y-4300004D01*
X6658521Y-4300004D01*
G37*
X6658521Y-4300004D02*
X6645300Y-4305467D01*
X6630519Y-4320222D01*
X6622509Y-4339511D01*
X6622491Y-4360397D01*
X6626459Y-4370000D01*
X6426000Y-4370000D01*
X6423320Y-4370533D01*
X6427491Y-4360489D01*
X6427509Y-4339603D01*
X6419533Y-4320300D01*
X6404778Y-4305519D01*
X6391478Y-4299996D01*
X6404700Y-4294533D01*
X6419481Y-4279778D01*
X6427491Y-4260489D01*
X6427509Y-4239603D01*
X6423541Y-4230000D01*
X6485988Y-4230000D01*
X6526494Y-4270506D01*
X6535902Y-4276793D01*
X6547000Y-4279000D01*
X6630177Y-4279000D01*
X6630467Y-4279700D01*
X6645222Y-4294481D01*
X6658521Y-4300004D01*
G36*
X6658521Y-4600004D02*
X6645300Y-4605467D01*
X6630519Y-4620222D01*
X6630196Y-4621000D01*
X6590104Y-4621000D01*
X6584106Y-4614991D01*
X6568491Y-4608507D01*
X6551583Y-4608493D01*
X6535957Y-4614949D01*
X6523991Y-4626894D01*
X6517507Y-4642509D01*
X6517503Y-4647491D01*
X6499506Y-4629494D01*
X6490098Y-4623207D01*
X6479000Y-4621000D01*
X6419823Y-4621000D01*
X6419533Y-4620300D01*
X6404778Y-4605519D01*
X6391478Y-4599996D01*
X6404700Y-4594533D01*
X6419481Y-4579778D01*
X6419804Y-4579000D01*
X6483000Y-4579000D01*
X6494098Y-4576793D01*
X6503506Y-4570506D01*
X6545191Y-4528821D01*
X6539507Y-4542509D01*
X6539493Y-4559417D01*
X6545949Y-4575043D01*
X6557894Y-4587009D01*
X6573509Y-4593493D01*
X6590417Y-4593507D01*
X6606043Y-4587051D01*
X6614108Y-4579000D01*
X6630177Y-4579000D01*
X6630467Y-4579700D01*
X6645222Y-4594481D01*
X6658521Y-4600004D01*
X6658521Y-4600004D01*
G37*
X6658521Y-4600004D02*
X6645300Y-4605467D01*
X6630519Y-4620222D01*
X6630196Y-4621000D01*
X6590104Y-4621000D01*
X6584106Y-4614991D01*
X6568491Y-4608507D01*
X6551583Y-4608493D01*
X6535957Y-4614949D01*
X6523991Y-4626894D01*
X6517507Y-4642509D01*
X6517503Y-4647491D01*
X6499506Y-4629494D01*
X6490098Y-4623207D01*
X6479000Y-4621000D01*
X6419823Y-4621000D01*
X6419533Y-4620300D01*
X6404778Y-4605519D01*
X6391478Y-4599996D01*
X6404700Y-4594533D01*
X6419481Y-4579778D01*
X6419804Y-4579000D01*
X6483000Y-4579000D01*
X6494098Y-4576793D01*
X6503506Y-4570506D01*
X6545191Y-4528821D01*
X6539507Y-4542509D01*
X6539493Y-4559417D01*
X6545949Y-4575043D01*
X6557894Y-4587009D01*
X6573509Y-4593493D01*
X6590417Y-4593507D01*
X6606043Y-4587051D01*
X6614108Y-4579000D01*
X6630177Y-4579000D01*
X6630467Y-4579700D01*
X6645222Y-4594481D01*
X6658521Y-4600004D01*
G36*
X7232702Y-4708000D02*
X7227507Y-4720509D01*
X7227493Y-4737417D01*
X7228919Y-4740869D01*
X7223494Y-4744494D01*
X7095988Y-4872000D01*
X6835853Y-4872000D01*
X6839222Y-4864390D01*
X6839840Y-4838718D01*
X6830587Y-4814763D01*
X6828827Y-4812129D01*
X6816052Y-4810363D01*
X6814637Y-4811777D01*
X6814637Y-4808948D01*
X6812871Y-4796173D01*
X6789390Y-4785778D01*
X6763718Y-4785160D01*
X6739763Y-4794413D01*
X6737129Y-4796173D01*
X6735363Y-4808948D01*
X6775000Y-4848586D01*
X6814637Y-4808948D01*
X6814637Y-4811777D01*
X6776414Y-4850000D01*
X6776971Y-4850557D01*
X6775557Y-4851971D01*
X6775000Y-4851414D01*
X6774443Y-4851971D01*
X6773029Y-4850557D01*
X6773586Y-4850000D01*
X6733948Y-4810363D01*
X6721173Y-4812129D01*
X6718163Y-4818928D01*
X6704778Y-4805519D01*
X6704747Y-4805506D01*
X6709145Y-4803805D01*
X6711643Y-4802136D01*
X6713159Y-4789573D01*
X6675000Y-4751414D01*
X6636841Y-4789573D01*
X6638357Y-4802136D01*
X6645606Y-4805340D01*
X6645300Y-4805467D01*
X6630519Y-4820222D01*
X6622509Y-4839511D01*
X6622491Y-4860397D01*
X6630467Y-4879700D01*
X6645222Y-4894481D01*
X6658521Y-4900004D01*
X6651531Y-4902892D01*
X6466820Y-4718180D01*
X6452221Y-4708425D01*
X6435000Y-4705000D01*
X6403529Y-4705000D01*
X6391478Y-4699996D01*
X6404700Y-4694533D01*
X6419481Y-4679778D01*
X6419804Y-4679000D01*
X6466988Y-4679000D01*
X6507494Y-4719506D01*
X6516902Y-4725793D01*
X6528000Y-4728000D01*
X6616391Y-4728000D01*
X6612810Y-4736098D01*
X6612224Y-4760955D01*
X6621195Y-4784145D01*
X6622864Y-4786643D01*
X6635427Y-4788159D01*
X6673586Y-4750000D01*
X6673029Y-4749443D01*
X6674443Y-4748029D01*
X6675000Y-4748586D01*
X6675557Y-4748029D01*
X6676971Y-4749443D01*
X6676414Y-4750000D01*
X6714573Y-4788159D01*
X6727136Y-4786643D01*
X6737190Y-4763902D01*
X6737776Y-4739045D01*
X6733503Y-4728000D01*
X6761988Y-4728000D01*
X6783494Y-4749506D01*
X6792902Y-4755793D01*
X6792902Y-4755793D01*
X6804000Y-4758000D01*
X7112000Y-4758000D01*
X7123098Y-4755793D01*
X7132506Y-4749506D01*
X7174012Y-4708000D01*
X7232702Y-4708000D01*
X7232702Y-4708000D01*
G37*
X7232702Y-4708000D02*
X7227507Y-4720509D01*
X7227493Y-4737417D01*
X7228919Y-4740869D01*
X7223494Y-4744494D01*
X7095988Y-4872000D01*
X6835853Y-4872000D01*
X6839222Y-4864390D01*
X6839840Y-4838718D01*
X6830587Y-4814763D01*
X6828827Y-4812129D01*
X6816052Y-4810363D01*
X6814637Y-4811777D01*
X6814637Y-4808948D01*
X6812871Y-4796173D01*
X6789390Y-4785778D01*
X6763718Y-4785160D01*
X6739763Y-4794413D01*
X6737129Y-4796173D01*
X6735363Y-4808948D01*
X6775000Y-4848586D01*
X6814637Y-4808948D01*
X6814637Y-4811777D01*
X6776414Y-4850000D01*
X6776971Y-4850557D01*
X6775557Y-4851971D01*
X6775000Y-4851414D01*
X6774443Y-4851971D01*
X6773029Y-4850557D01*
X6773586Y-4850000D01*
X6733948Y-4810363D01*
X6721173Y-4812129D01*
X6718163Y-4818928D01*
X6704778Y-4805519D01*
X6704747Y-4805506D01*
X6709145Y-4803805D01*
X6711643Y-4802136D01*
X6713159Y-4789573D01*
X6675000Y-4751414D01*
X6636841Y-4789573D01*
X6638357Y-4802136D01*
X6645606Y-4805340D01*
X6645300Y-4805467D01*
X6630519Y-4820222D01*
X6622509Y-4839511D01*
X6622491Y-4860397D01*
X6630467Y-4879700D01*
X6645222Y-4894481D01*
X6658521Y-4900004D01*
X6651531Y-4902892D01*
X6466820Y-4718180D01*
X6452221Y-4708425D01*
X6435000Y-4705000D01*
X6403529Y-4705000D01*
X6391478Y-4699996D01*
X6404700Y-4694533D01*
X6419481Y-4679778D01*
X6419804Y-4679000D01*
X6466988Y-4679000D01*
X6507494Y-4719506D01*
X6516902Y-4725793D01*
X6528000Y-4728000D01*
X6616391Y-4728000D01*
X6612810Y-4736098D01*
X6612224Y-4760955D01*
X6621195Y-4784145D01*
X6622864Y-4786643D01*
X6635427Y-4788159D01*
X6673586Y-4750000D01*
X6673029Y-4749443D01*
X6674443Y-4748029D01*
X6675000Y-4748586D01*
X6675557Y-4748029D01*
X6676971Y-4749443D01*
X6676414Y-4750000D01*
X6714573Y-4788159D01*
X6727136Y-4786643D01*
X6737190Y-4763902D01*
X6737776Y-4739045D01*
X6733503Y-4728000D01*
X6761988Y-4728000D01*
X6783494Y-4749506D01*
X6792902Y-4755793D01*
X6792902Y-4755793D01*
X6804000Y-4758000D01*
X7112000Y-4758000D01*
X7123098Y-4755793D01*
X7132506Y-4749506D01*
X7174012Y-4708000D01*
X7232702Y-4708000D01*
G36*
X7241988Y-4528000D02*
X7237486Y-4532501D01*
X7227583Y-4532493D01*
X7211957Y-4538949D01*
X7199991Y-4550894D01*
X7193507Y-4566509D01*
X7193493Y-4583417D01*
X7199949Y-4599043D01*
X7202896Y-4601995D01*
X7199991Y-4604894D01*
X7193507Y-4620509D01*
X7193493Y-4637417D01*
X7198692Y-4650000D01*
X7162000Y-4650000D01*
X7150902Y-4652207D01*
X7141494Y-4658494D01*
X7139341Y-4660647D01*
X7139361Y-4637256D01*
X7129585Y-4613596D01*
X7111499Y-4595479D01*
X7087856Y-4585661D01*
X7062256Y-4585639D01*
X7038596Y-4595415D01*
X7028994Y-4605000D01*
X6939069Y-4605000D01*
X6935544Y-4596489D01*
X6928511Y-4589456D01*
X6919323Y-4585650D01*
X6909377Y-4585650D01*
X6830677Y-4585650D01*
X6821489Y-4589456D01*
X6814456Y-4596489D01*
X6810650Y-4605677D01*
X6810650Y-4615623D01*
X6810650Y-4694323D01*
X6810873Y-4694861D01*
X6794506Y-4678494D01*
X6785098Y-4672207D01*
X6774000Y-4670000D01*
X6723541Y-4670000D01*
X6727491Y-4660489D01*
X6727509Y-4639603D01*
X6719533Y-4620300D01*
X6704778Y-4605519D01*
X6691478Y-4599996D01*
X6704700Y-4594533D01*
X6719481Y-4579778D01*
X6727491Y-4560489D01*
X6727509Y-4539603D01*
X6722715Y-4528000D01*
X7241988Y-4528000D01*
X7241988Y-4528000D01*
G37*
X7241988Y-4528000D02*
X7237486Y-4532501D01*
X7227583Y-4532493D01*
X7211957Y-4538949D01*
X7199991Y-4550894D01*
X7193507Y-4566509D01*
X7193493Y-4583417D01*
X7199949Y-4599043D01*
X7202896Y-4601995D01*
X7199991Y-4604894D01*
X7193507Y-4620509D01*
X7193493Y-4637417D01*
X7198692Y-4650000D01*
X7162000Y-4650000D01*
X7150902Y-4652207D01*
X7141494Y-4658494D01*
X7139341Y-4660647D01*
X7139361Y-4637256D01*
X7129585Y-4613596D01*
X7111499Y-4595479D01*
X7087856Y-4585661D01*
X7062256Y-4585639D01*
X7038596Y-4595415D01*
X7028994Y-4605000D01*
X6939069Y-4605000D01*
X6935544Y-4596489D01*
X6928511Y-4589456D01*
X6919323Y-4585650D01*
X6909377Y-4585650D01*
X6830677Y-4585650D01*
X6821489Y-4589456D01*
X6814456Y-4596489D01*
X6810650Y-4605677D01*
X6810650Y-4615623D01*
X6810650Y-4694323D01*
X6810873Y-4694861D01*
X6794506Y-4678494D01*
X6785098Y-4672207D01*
X6774000Y-4670000D01*
X6723541Y-4670000D01*
X6727491Y-4660489D01*
X6727509Y-4639603D01*
X6719533Y-4620300D01*
X6704778Y-4605519D01*
X6691478Y-4599996D01*
X6704700Y-4594533D01*
X6719481Y-4579778D01*
X6727491Y-4560489D01*
X6727509Y-4539603D01*
X6722715Y-4528000D01*
X7241988Y-4528000D01*
G36*
X7382739Y-4882000D02*
X7190000Y-4882000D01*
X7178902Y-4884207D01*
X7169494Y-4890494D01*
X7038988Y-5021000D01*
X6719823Y-5021000D01*
X6719533Y-5020300D01*
X6704778Y-5005519D01*
X6691478Y-4999996D01*
X6703571Y-4995000D01*
X6742843Y-4995000D01*
X6744060Y-4996218D01*
X6764102Y-5004541D01*
X6785803Y-5004559D01*
X6805860Y-4996272D01*
X6821218Y-4980940D01*
X6829541Y-4960898D01*
X6829559Y-4939197D01*
X6825759Y-4930000D01*
X7108000Y-4930000D01*
X7119098Y-4927793D01*
X7128506Y-4921506D01*
X7256012Y-4794000D01*
X7322898Y-4794000D01*
X7329894Y-4801009D01*
X7345509Y-4807493D01*
X7362417Y-4807507D01*
X7374071Y-4802692D01*
X7374071Y-4867949D01*
X7377877Y-4877138D01*
X7382739Y-4882000D01*
X7382739Y-4882000D01*
G37*
X7382739Y-4882000D02*
X7190000Y-4882000D01*
X7178902Y-4884207D01*
X7169494Y-4890494D01*
X7038988Y-5021000D01*
X6719823Y-5021000D01*
X6719533Y-5020300D01*
X6704778Y-5005519D01*
X6691478Y-4999996D01*
X6703571Y-4995000D01*
X6742843Y-4995000D01*
X6744060Y-4996218D01*
X6764102Y-5004541D01*
X6785803Y-5004559D01*
X6805860Y-4996272D01*
X6821218Y-4980940D01*
X6829541Y-4960898D01*
X6829559Y-4939197D01*
X6825759Y-4930000D01*
X7108000Y-4930000D01*
X7119098Y-4927793D01*
X7128506Y-4921506D01*
X7256012Y-4794000D01*
X7322898Y-4794000D01*
X7329894Y-4801009D01*
X7345509Y-4807493D01*
X7362417Y-4807507D01*
X7374071Y-4802692D01*
X7374071Y-4867949D01*
X7377877Y-4877138D01*
X7382739Y-4882000D01*
G36*
X7399643Y-4378980D02*
X7383082Y-4395512D01*
X7381228Y-4399976D01*
X7308029Y-4399976D01*
X7304491Y-4398507D01*
X7287583Y-4398493D01*
X7271957Y-4404949D01*
X7259991Y-4416894D01*
X7253507Y-4432509D01*
X7253493Y-4449417D01*
X7259949Y-4465043D01*
X7264898Y-4470000D01*
X6723541Y-4470000D01*
X6727491Y-4460489D01*
X6727509Y-4439603D01*
X6722715Y-4428000D01*
X6760000Y-4428000D01*
X6771098Y-4425793D01*
X6780506Y-4419506D01*
X6782012Y-4418000D01*
X6806898Y-4418000D01*
X6813894Y-4425009D01*
X6829509Y-4431493D01*
X6846417Y-4431507D01*
X6862043Y-4425051D01*
X6874009Y-4413106D01*
X6880493Y-4397491D01*
X6880507Y-4380583D01*
X6874051Y-4364957D01*
X6862106Y-4352991D01*
X6846491Y-4346507D01*
X6829583Y-4346493D01*
X6813957Y-4352949D01*
X6806894Y-4360000D01*
X6770000Y-4360000D01*
X6758902Y-4362207D01*
X6749494Y-4368494D01*
X6747988Y-4370000D01*
X6723541Y-4370000D01*
X6727491Y-4360489D01*
X6727509Y-4339603D01*
X6719533Y-4320300D01*
X6704778Y-4305519D01*
X6691478Y-4299996D01*
X6704700Y-4294533D01*
X6719481Y-4279778D01*
X6727491Y-4260489D01*
X6727509Y-4239603D01*
X6723128Y-4229000D01*
X6812988Y-4229000D01*
X6813733Y-4229745D01*
X6810661Y-4237144D01*
X6810639Y-4262744D01*
X6820415Y-4286404D01*
X6838501Y-4304521D01*
X6862144Y-4314339D01*
X6887744Y-4314361D01*
X6911404Y-4304585D01*
X6929521Y-4286499D01*
X6932635Y-4279000D01*
X7017356Y-4279000D01*
X7020415Y-4286404D01*
X7038501Y-4304521D01*
X7062144Y-4314339D01*
X7087744Y-4314361D01*
X7111404Y-4304585D01*
X7129521Y-4286499D01*
X7132635Y-4279000D01*
X7242988Y-4279000D01*
X7264494Y-4300506D01*
X7273902Y-4306793D01*
X7273902Y-4306793D01*
X7285000Y-4309000D01*
X7377482Y-4309000D01*
X7374081Y-4317189D01*
X7374061Y-4340661D01*
X7383024Y-4362354D01*
X7399606Y-4378965D01*
X7399643Y-4378980D01*
X7399643Y-4378980D01*
G37*
X7399643Y-4378980D02*
X7383082Y-4395512D01*
X7381228Y-4399976D01*
X7308029Y-4399976D01*
X7304491Y-4398507D01*
X7287583Y-4398493D01*
X7271957Y-4404949D01*
X7259991Y-4416894D01*
X7253507Y-4432509D01*
X7253493Y-4449417D01*
X7259949Y-4465043D01*
X7264898Y-4470000D01*
X6723541Y-4470000D01*
X6727491Y-4460489D01*
X6727509Y-4439603D01*
X6722715Y-4428000D01*
X6760000Y-4428000D01*
X6771098Y-4425793D01*
X6780506Y-4419506D01*
X6782012Y-4418000D01*
X6806898Y-4418000D01*
X6813894Y-4425009D01*
X6829509Y-4431493D01*
X6846417Y-4431507D01*
X6862043Y-4425051D01*
X6874009Y-4413106D01*
X6880493Y-4397491D01*
X6880507Y-4380583D01*
X6874051Y-4364957D01*
X6862106Y-4352991D01*
X6846491Y-4346507D01*
X6829583Y-4346493D01*
X6813957Y-4352949D01*
X6806894Y-4360000D01*
X6770000Y-4360000D01*
X6758902Y-4362207D01*
X6749494Y-4368494D01*
X6747988Y-4370000D01*
X6723541Y-4370000D01*
X6727491Y-4360489D01*
X6727509Y-4339603D01*
X6719533Y-4320300D01*
X6704778Y-4305519D01*
X6691478Y-4299996D01*
X6704700Y-4294533D01*
X6719481Y-4279778D01*
X6727491Y-4260489D01*
X6727509Y-4239603D01*
X6723128Y-4229000D01*
X6812988Y-4229000D01*
X6813733Y-4229745D01*
X6810661Y-4237144D01*
X6810639Y-4262744D01*
X6820415Y-4286404D01*
X6838501Y-4304521D01*
X6862144Y-4314339D01*
X6887744Y-4314361D01*
X6911404Y-4304585D01*
X6929521Y-4286499D01*
X6932635Y-4279000D01*
X7017356Y-4279000D01*
X7020415Y-4286404D01*
X7038501Y-4304521D01*
X7062144Y-4314339D01*
X7087744Y-4314361D01*
X7111404Y-4304585D01*
X7129521Y-4286499D01*
X7132635Y-4279000D01*
X7242988Y-4279000D01*
X7264494Y-4300506D01*
X7273902Y-4306793D01*
X7273902Y-4306793D01*
X7285000Y-4309000D01*
X7377482Y-4309000D01*
X7374081Y-4317189D01*
X7374061Y-4340661D01*
X7383024Y-4362354D01*
X7399606Y-4378965D01*
X7399643Y-4378980D01*
G36*
X7399643Y-5038980D02*
X7383082Y-5055512D01*
X7381219Y-5060000D01*
X7145102Y-5060000D01*
X7138106Y-5052991D01*
X7122491Y-5046507D01*
X7105583Y-5046493D01*
X7089957Y-5052949D01*
X7077991Y-5064894D01*
X7071507Y-5080509D01*
X7071493Y-5097417D01*
X7077949Y-5113043D01*
X7085892Y-5121000D01*
X6719823Y-5121000D01*
X6719533Y-5120300D01*
X6704778Y-5105519D01*
X6691478Y-5099996D01*
X6704700Y-5094533D01*
X6719481Y-5079778D01*
X6719804Y-5079000D01*
X7051000Y-5079000D01*
X7062098Y-5076793D01*
X7071506Y-5070506D01*
X7202012Y-4940000D01*
X7398621Y-4940000D01*
X7383082Y-4955512D01*
X7374081Y-4977189D01*
X7374061Y-5000661D01*
X7383024Y-5022354D01*
X7399606Y-5038965D01*
X7399643Y-5038980D01*
X7399643Y-5038980D01*
G37*
X7399643Y-5038980D02*
X7383082Y-5055512D01*
X7381219Y-5060000D01*
X7145102Y-5060000D01*
X7138106Y-5052991D01*
X7122491Y-5046507D01*
X7105583Y-5046493D01*
X7089957Y-5052949D01*
X7077991Y-5064894D01*
X7071507Y-5080509D01*
X7071493Y-5097417D01*
X7077949Y-5113043D01*
X7085892Y-5121000D01*
X6719823Y-5121000D01*
X6719533Y-5120300D01*
X6704778Y-5105519D01*
X6691478Y-5099996D01*
X6704700Y-5094533D01*
X6719481Y-5079778D01*
X6719804Y-5079000D01*
X7051000Y-5079000D01*
X7062098Y-5076793D01*
X7071506Y-5070506D01*
X7202012Y-4940000D01*
X7398621Y-4940000D01*
X7383082Y-4955512D01*
X7374081Y-4977189D01*
X7374061Y-5000661D01*
X7383024Y-5022354D01*
X7399606Y-5038965D01*
X7399643Y-5038980D01*
G36*
X7847047Y-5878543D02*
X7820300Y-5878543D01*
X7820300Y-5680320D01*
X7814350Y-5665919D01*
X7814350Y-4729312D01*
X7814350Y-4692750D01*
X7814350Y-4673250D01*
X7814350Y-4636688D01*
X7809022Y-4623824D01*
X7799176Y-4613978D01*
X7786312Y-4608650D01*
X7772388Y-4608650D01*
X7749750Y-4608650D01*
X7741000Y-4617400D01*
X7741000Y-4682000D01*
X7805600Y-4682000D01*
X7814350Y-4673250D01*
X7814350Y-4692750D01*
X7805600Y-4684000D01*
X7741000Y-4684000D01*
X7741000Y-4748600D01*
X7749750Y-4757350D01*
X7772388Y-4757350D01*
X7786312Y-4757350D01*
X7799176Y-4752022D01*
X7809022Y-4742176D01*
X7814350Y-4729312D01*
X7814350Y-5665919D01*
X7798559Y-5627702D01*
X7785294Y-5614413D01*
X7785294Y-5353646D01*
X7775978Y-5329524D01*
X7775010Y-5328073D01*
X7775010Y-5254108D01*
X7766654Y-5233886D01*
X7751196Y-5218400D01*
X7739000Y-5213336D01*
X7739000Y-4748600D01*
X7739000Y-4684000D01*
X7739000Y-4682000D01*
X7739000Y-4617400D01*
X7730250Y-4608650D01*
X7707612Y-4608650D01*
X7693688Y-4608650D01*
X7680824Y-4613978D01*
X7670978Y-4623824D01*
X7665650Y-4636688D01*
X7665650Y-4673250D01*
X7674400Y-4682000D01*
X7739000Y-4682000D01*
X7739000Y-4684000D01*
X7674400Y-4684000D01*
X7665650Y-4692750D01*
X7665650Y-4729312D01*
X7670978Y-4742176D01*
X7680824Y-4752022D01*
X7693688Y-4757350D01*
X7707612Y-4757350D01*
X7730250Y-4757350D01*
X7739000Y-4748600D01*
X7739000Y-5213336D01*
X7730988Y-5210010D01*
X7709108Y-5209990D01*
X7688886Y-5218346D01*
X7673400Y-5233804D01*
X7665010Y-5254012D01*
X7664990Y-5275892D01*
X7673346Y-5296114D01*
X7685756Y-5308546D01*
X7684524Y-5309022D01*
X7681859Y-5310802D01*
X7680038Y-5323624D01*
X7720000Y-5363586D01*
X7759962Y-5323624D01*
X7758141Y-5310802D01*
X7753865Y-5308908D01*
X7766600Y-5296196D01*
X7774990Y-5275988D01*
X7775010Y-5254108D01*
X7775010Y-5328073D01*
X7774198Y-5326859D01*
X7761376Y-5325038D01*
X7721414Y-5365000D01*
X7761376Y-5404962D01*
X7774198Y-5403141D01*
X7784668Y-5379497D01*
X7785294Y-5353646D01*
X7785294Y-5614413D01*
X7759962Y-5589037D01*
X7759962Y-5406376D01*
X7720000Y-5366414D01*
X7718586Y-5367828D01*
X7718586Y-5365000D01*
X7678624Y-5325038D01*
X7665802Y-5326859D01*
X7655332Y-5350503D01*
X7654706Y-5376354D01*
X7664022Y-5400476D01*
X7665802Y-5403141D01*
X7678624Y-5404962D01*
X7718586Y-5365000D01*
X7718586Y-5367828D01*
X7680038Y-5406376D01*
X7681859Y-5419198D01*
X7705503Y-5429668D01*
X7731354Y-5430294D01*
X7755476Y-5420978D01*
X7758141Y-5419198D01*
X7759962Y-5406376D01*
X7759962Y-5589037D01*
X7758337Y-5587409D01*
X7705757Y-5565576D01*
X7648824Y-5565526D01*
X7644361Y-5567370D01*
X7644361Y-5062256D01*
X7634585Y-5038596D01*
X7616499Y-5020479D01*
X7592856Y-5010661D01*
X7567256Y-5010639D01*
X7543596Y-5020415D01*
X7525479Y-5038501D01*
X7515661Y-5062144D01*
X7515639Y-5087744D01*
X7525415Y-5111404D01*
X7543501Y-5129521D01*
X7567144Y-5139339D01*
X7592744Y-5139361D01*
X7616404Y-5129585D01*
X7634521Y-5111499D01*
X7644339Y-5087856D01*
X7644361Y-5062256D01*
X7644361Y-5567370D01*
X7596206Y-5587268D01*
X7555913Y-5627490D01*
X7534080Y-5680070D01*
X7534030Y-5737003D01*
X7555772Y-5789621D01*
X7595994Y-5829914D01*
X7648574Y-5851747D01*
X7705507Y-5851796D01*
X7758125Y-5830055D01*
X7798418Y-5789833D01*
X7820251Y-5737253D01*
X7820300Y-5680320D01*
X7820300Y-5878543D01*
X6666954Y-5878543D01*
X6668506Y-5877506D01*
X6740506Y-5805506D01*
X6746793Y-5796098D01*
X6746793Y-5796098D01*
X6749000Y-5785000D01*
X6749000Y-5720102D01*
X6756009Y-5713106D01*
X6762493Y-5697491D01*
X6762507Y-5680583D01*
X6756051Y-5664957D01*
X6744106Y-5652991D01*
X6728491Y-5646507D01*
X6711583Y-5646493D01*
X6695957Y-5652949D01*
X6690102Y-5658794D01*
X6690102Y-5655516D01*
X6686296Y-5646327D01*
X6679263Y-5639294D01*
X6670075Y-5635488D01*
X6660129Y-5635488D01*
X6621663Y-5635488D01*
X6622493Y-5633491D01*
X6622507Y-5616583D01*
X6616051Y-5600957D01*
X6604106Y-5588991D01*
X6588491Y-5582507D01*
X6571583Y-5582493D01*
X6555957Y-5588949D01*
X6543991Y-5600894D01*
X6537507Y-5616509D01*
X6537493Y-5633417D01*
X6538894Y-5636808D01*
X6532258Y-5635488D01*
X6529946Y-5635488D01*
X6507368Y-5639979D01*
X6488227Y-5652769D01*
X6481102Y-5663432D01*
X6473977Y-5652769D01*
X6454836Y-5639979D01*
X6444898Y-5638003D01*
X6452043Y-5635051D01*
X6464009Y-5623106D01*
X6470493Y-5607491D01*
X6470507Y-5590583D01*
X6464051Y-5574957D01*
X6452106Y-5562991D01*
X6436491Y-5556507D01*
X6423645Y-5556496D01*
X6418051Y-5542957D01*
X6406106Y-5530991D01*
X6390491Y-5524507D01*
X6373583Y-5524493D01*
X6357957Y-5530949D01*
X6350894Y-5538000D01*
X6314637Y-5538000D01*
X6314637Y-5191052D01*
X6275000Y-5151414D01*
X6273586Y-5152828D01*
X6273586Y-5150000D01*
X6233948Y-5110363D01*
X6221173Y-5112129D01*
X6210778Y-5135610D01*
X6210160Y-5161282D01*
X6219413Y-5185237D01*
X6221173Y-5187871D01*
X6233948Y-5189637D01*
X6273586Y-5150000D01*
X6273586Y-5152828D01*
X6235363Y-5191052D01*
X6237129Y-5203827D01*
X6260610Y-5214222D01*
X6286282Y-5214840D01*
X6310237Y-5205587D01*
X6312871Y-5203827D01*
X6314637Y-5191052D01*
X6314637Y-5538000D01*
X6174559Y-5538000D01*
X6174559Y-5180297D01*
X6166272Y-5160240D01*
X6150940Y-5144882D01*
X6130898Y-5136559D01*
X6109197Y-5136541D01*
X6089140Y-5144828D01*
X6073782Y-5160160D01*
X6065459Y-5180202D01*
X6065441Y-5201903D01*
X6073728Y-5221960D01*
X6089060Y-5237318D01*
X6109102Y-5245641D01*
X6130803Y-5245659D01*
X6150860Y-5237372D01*
X6166218Y-5222040D01*
X6174541Y-5201998D01*
X6174559Y-5180297D01*
X6174559Y-5538000D01*
X5923107Y-5538000D01*
X5712776Y-5327669D01*
X5712776Y-4789045D01*
X5703805Y-4765855D01*
X5702136Y-4763357D01*
X5689573Y-4761841D01*
X5651414Y-4800000D01*
X5689573Y-4838159D01*
X5702136Y-4836643D01*
X5712190Y-4813902D01*
X5712776Y-4789045D01*
X5712776Y-5327669D01*
X5688159Y-5303053D01*
X5688159Y-4839573D01*
X5650000Y-4801414D01*
X5648586Y-4802828D01*
X5648586Y-4800000D01*
X5610427Y-4761841D01*
X5597864Y-4763357D01*
X5597480Y-4764228D01*
X5592527Y-4751369D01*
X5590569Y-4748438D01*
X5577331Y-4746130D01*
X5534485Y-4788976D01*
X5577331Y-4831823D01*
X5590569Y-4829515D01*
X5592618Y-4824898D01*
X5596195Y-4834145D01*
X5597864Y-4836643D01*
X5610427Y-4838159D01*
X5648586Y-4800000D01*
X5648586Y-4802828D01*
X5611841Y-4839573D01*
X5613357Y-4852136D01*
X5636098Y-4862190D01*
X5660955Y-4862776D01*
X5684145Y-4853805D01*
X5686643Y-4852136D01*
X5688159Y-4839573D01*
X5688159Y-5303053D01*
X5602393Y-5217286D01*
X5590244Y-5205138D01*
X5592061Y-5200764D01*
X5592081Y-5177292D01*
X5583118Y-5155599D01*
X5566535Y-5138988D01*
X5544858Y-5129987D01*
X5521387Y-5129966D01*
X5499722Y-5138918D01*
X5564891Y-5073749D01*
X5574645Y-5059150D01*
X5577301Y-5045799D01*
X5581232Y-5044170D01*
X5588265Y-5037138D01*
X5592071Y-5027949D01*
X5592071Y-5018004D01*
X5592071Y-4950004D01*
X5588265Y-4940815D01*
X5581232Y-4933782D01*
X5577919Y-4932410D01*
X5577331Y-4931823D01*
X5590569Y-4929515D01*
X5601705Y-4904426D01*
X5602393Y-4876984D01*
X5592527Y-4851369D01*
X5590569Y-4848438D01*
X5577331Y-4846130D01*
X5575917Y-4847544D01*
X5575917Y-4844716D01*
X5574916Y-4838976D01*
X5575917Y-4833237D01*
X5533071Y-4790391D01*
X5490225Y-4833237D01*
X5491225Y-4838976D01*
X5490225Y-4844716D01*
X5533071Y-4887562D01*
X5575917Y-4844716D01*
X5575917Y-4847544D01*
X5534485Y-4888976D01*
X5535042Y-4889533D01*
X5533628Y-4890947D01*
X5533071Y-4890391D01*
X5532514Y-4890947D01*
X5531657Y-4890090D01*
X5531100Y-4889533D01*
X5531657Y-4888976D01*
X5488810Y-4846130D01*
X5475573Y-4848438D01*
X5464436Y-4873527D01*
X5463749Y-4900968D01*
X5473615Y-4926584D01*
X5475573Y-4929515D01*
X5488810Y-4931823D01*
X5488223Y-4932410D01*
X5484910Y-4933782D01*
X5477877Y-4940815D01*
X5474071Y-4950004D01*
X5474071Y-4959949D01*
X5474071Y-5027949D01*
X5476807Y-5034554D01*
X5474570Y-5036790D01*
X5464108Y-5009542D01*
X5461911Y-5006255D01*
X5448118Y-5003296D01*
X5446704Y-5004710D01*
X5446704Y-5001882D01*
X5443745Y-4988089D01*
X5416723Y-4976061D01*
X5387155Y-4975290D01*
X5359542Y-4985892D01*
X5356255Y-4988089D01*
X5353296Y-5001882D01*
X5400000Y-5048586D01*
X5446704Y-5001882D01*
X5446704Y-5004710D01*
X5401414Y-5050000D01*
X5401971Y-5050557D01*
X5400557Y-5051971D01*
X5400000Y-5051414D01*
X5398586Y-5052828D01*
X5398586Y-5050000D01*
X5351882Y-5003296D01*
X5338089Y-5006255D01*
X5326061Y-5033277D01*
X5325290Y-5062845D01*
X5335892Y-5090458D01*
X5338089Y-5093745D01*
X5351882Y-5096704D01*
X5398586Y-5050000D01*
X5398586Y-5052828D01*
X5353296Y-5098118D01*
X5354772Y-5105000D01*
X5273963Y-5105000D01*
X5284559Y-5097694D01*
X5299072Y-5075271D01*
X5302894Y-5061694D01*
X5295142Y-5051000D01*
X5201000Y-5051000D01*
X5201000Y-5051787D01*
X5199000Y-5051787D01*
X5199000Y-5051000D01*
X5104858Y-5051000D01*
X5097106Y-5061694D01*
X5100928Y-5075271D01*
X5115441Y-5097694D01*
X5126448Y-5105283D01*
X5121380Y-5108670D01*
X5108710Y-5127632D01*
X5104260Y-5150000D01*
X5108710Y-5172368D01*
X5121380Y-5191330D01*
X5140343Y-5204001D01*
X5154536Y-5206824D01*
X5106360Y-5255000D01*
X5071671Y-5255000D01*
X5075000Y-5246962D01*
X5075000Y-5233038D01*
X5075000Y-5059750D01*
X5075000Y-5040250D01*
X5075000Y-4866962D01*
X5075000Y-4853038D01*
X5075000Y-4771962D01*
X5075000Y-4758038D01*
X5075000Y-4584750D01*
X5075000Y-4565250D01*
X5075000Y-4391962D01*
X5075000Y-4378038D01*
X5069672Y-4365174D01*
X5059826Y-4355328D01*
X5046962Y-4350000D01*
X4739750Y-4350000D01*
X4731000Y-4358750D01*
X4731000Y-4574000D01*
X5066250Y-4574000D01*
X5075000Y-4565250D01*
X5075000Y-4584750D01*
X5066250Y-4576000D01*
X4731000Y-4576000D01*
X4731000Y-4791250D01*
X4739750Y-4800000D01*
X5046962Y-4800000D01*
X5059826Y-4794672D01*
X5069672Y-4784826D01*
X5075000Y-4771962D01*
X5075000Y-4853038D01*
X5069672Y-4840174D01*
X5059826Y-4830328D01*
X5046962Y-4825000D01*
X4739750Y-4825000D01*
X4731000Y-4833750D01*
X4731000Y-5049000D01*
X5066250Y-5049000D01*
X5075000Y-5040250D01*
X5075000Y-5059750D01*
X5066250Y-5051000D01*
X4731000Y-5051000D01*
X4731000Y-5051787D01*
X4729000Y-5051787D01*
X4729000Y-5051000D01*
X4728213Y-5051000D01*
X4728213Y-5049000D01*
X4729000Y-5049000D01*
X4729000Y-4833750D01*
X4729000Y-4791250D01*
X4729000Y-4576000D01*
X4729000Y-4574000D01*
X4729000Y-4358750D01*
X4720250Y-4350000D01*
X4624710Y-4350000D01*
X4624710Y-4262155D01*
X4614108Y-4234542D01*
X4611911Y-4231255D01*
X4598118Y-4228296D01*
X4551414Y-4275000D01*
X4598118Y-4321704D01*
X4611911Y-4318745D01*
X4623939Y-4291723D01*
X4624710Y-4262155D01*
X4624710Y-4350000D01*
X4596704Y-4350000D01*
X4596704Y-4323118D01*
X4550000Y-4276414D01*
X4548586Y-4277828D01*
X4548586Y-4275000D01*
X4501882Y-4228296D01*
X4488089Y-4231255D01*
X4476061Y-4258277D01*
X4475290Y-4287845D01*
X4485892Y-4315458D01*
X4488089Y-4318745D01*
X4501882Y-4321704D01*
X4548586Y-4275000D01*
X4548586Y-4277828D01*
X4503296Y-4323118D01*
X4506255Y-4336911D01*
X4533277Y-4348939D01*
X4562845Y-4349710D01*
X4590458Y-4339108D01*
X4593745Y-4336911D01*
X4596704Y-4323118D01*
X4596704Y-4350000D01*
X4449000Y-4350000D01*
X4449000Y-4095250D01*
X4449000Y-4036000D01*
X4449000Y-4034000D01*
X4449000Y-3974750D01*
X4440250Y-3966000D01*
X4409038Y-3966000D01*
X4396174Y-3971328D01*
X4386328Y-3981174D01*
X4381000Y-3994038D01*
X4381000Y-4007962D01*
X4381000Y-4025250D01*
X4389750Y-4034000D01*
X4449000Y-4034000D01*
X4449000Y-4036000D01*
X4389750Y-4036000D01*
X4381000Y-4044750D01*
X4381000Y-4062038D01*
X4381000Y-4075962D01*
X4386328Y-4088826D01*
X4396174Y-4098672D01*
X4409038Y-4104000D01*
X4440250Y-4104000D01*
X4449000Y-4095250D01*
X4449000Y-4350000D01*
X4413038Y-4350000D01*
X4400174Y-4355328D01*
X4390328Y-4365174D01*
X4385000Y-4378038D01*
X4385000Y-4391962D01*
X4385000Y-4565250D01*
X4393750Y-4574000D01*
X4729000Y-4574000D01*
X4729000Y-4576000D01*
X4393750Y-4576000D01*
X4385000Y-4584750D01*
X4385000Y-4758038D01*
X4385000Y-4771962D01*
X4390328Y-4784826D01*
X4400174Y-4794672D01*
X4413038Y-4800000D01*
X4720250Y-4800000D01*
X4729000Y-4791250D01*
X4729000Y-4833750D01*
X4720250Y-4825000D01*
X4413038Y-4825000D01*
X4400174Y-4830328D01*
X4395000Y-4835503D01*
X4395000Y-4809800D01*
X4391575Y-4792579D01*
X4381820Y-4777980D01*
X4293280Y-4689440D01*
X4278681Y-4679685D01*
X4276993Y-4679350D01*
X4276993Y-4105517D01*
X4255252Y-4052899D01*
X4215030Y-4012606D01*
X4162450Y-3990773D01*
X4105517Y-3990723D01*
X4052899Y-4012465D01*
X4012606Y-4052687D01*
X3990773Y-4105267D01*
X3990723Y-4162200D01*
X4012465Y-4214818D01*
X4052687Y-4255110D01*
X4105267Y-4276944D01*
X4162200Y-4276993D01*
X4214818Y-4255252D01*
X4255110Y-4215030D01*
X4276944Y-4162450D01*
X4276993Y-4105517D01*
X4276993Y-4679350D01*
X4261460Y-4676260D01*
X4246572Y-4676260D01*
X4244975Y-4674660D01*
X4224768Y-4666269D01*
X4202887Y-4666250D01*
X4182665Y-4674606D01*
X4181008Y-4676260D01*
X4164135Y-4676260D01*
X4157941Y-4670066D01*
X4148752Y-4666260D01*
X4138807Y-4666260D01*
X4078807Y-4666260D01*
X4069618Y-4670066D01*
X4062586Y-4677098D01*
X4058780Y-4686287D01*
X4058780Y-4696233D01*
X4058780Y-4756233D01*
X4062586Y-4765421D01*
X4069618Y-4772454D01*
X4074581Y-4774509D01*
X4073818Y-4779884D01*
X4113780Y-4819846D01*
X4153741Y-4779884D01*
X4152978Y-4774509D01*
X4157941Y-4772454D01*
X4164135Y-4766260D01*
X4176839Y-4766260D01*
X4175638Y-4767062D01*
X4173818Y-4779884D01*
X4213780Y-4819846D01*
X4214336Y-4819289D01*
X4215751Y-4820703D01*
X4215194Y-4821260D01*
X4255156Y-4861222D01*
X4267978Y-4859401D01*
X4278448Y-4835757D01*
X4279073Y-4809906D01*
X4274422Y-4797862D01*
X4305000Y-4828440D01*
X4305000Y-5250000D01*
X4308425Y-5267221D01*
X4318180Y-5281820D01*
X4368180Y-5331820D01*
X4382779Y-5341575D01*
X4400000Y-5345000D01*
X5080000Y-5345000D01*
X5080000Y-5367843D01*
X5078782Y-5369060D01*
X5070459Y-5389102D01*
X5070441Y-5410803D01*
X5078728Y-5430860D01*
X5094060Y-5446218D01*
X5114102Y-5454541D01*
X5135803Y-5454559D01*
X5155860Y-5446272D01*
X5168718Y-5433437D01*
X5169413Y-5435237D01*
X5171173Y-5437871D01*
X5183948Y-5439637D01*
X5223586Y-5400000D01*
X5183948Y-5360363D01*
X5171173Y-5362129D01*
X5170000Y-5364779D01*
X5170000Y-5318640D01*
X5231820Y-5256820D01*
X5241575Y-5242221D01*
X5245000Y-5225000D01*
X5245000Y-5206916D01*
X5259657Y-5204001D01*
X5273128Y-5195000D01*
X5425000Y-5195000D01*
X5442221Y-5191575D01*
X5456820Y-5181820D01*
X5483050Y-5155590D01*
X5474081Y-5177189D01*
X5474061Y-5200661D01*
X5483024Y-5222354D01*
X5499606Y-5238965D01*
X5499643Y-5238980D01*
X5483082Y-5255512D01*
X5474081Y-5277189D01*
X5474061Y-5300661D01*
X5483024Y-5322354D01*
X5499606Y-5338965D01*
X5499643Y-5338980D01*
X5483082Y-5355512D01*
X5474081Y-5377189D01*
X5474061Y-5400661D01*
X5483024Y-5422354D01*
X5499606Y-5438965D01*
X5499643Y-5438980D01*
X5483082Y-5455512D01*
X5474081Y-5477189D01*
X5474061Y-5500661D01*
X5483024Y-5522354D01*
X5499606Y-5538965D01*
X5499643Y-5538980D01*
X5483082Y-5555512D01*
X5474081Y-5577189D01*
X5474061Y-5600661D01*
X5483024Y-5622354D01*
X5491647Y-5630992D01*
X5484910Y-5633782D01*
X5477877Y-5640815D01*
X5474071Y-5650004D01*
X5474071Y-5659949D01*
X5474071Y-5727949D01*
X5477877Y-5737138D01*
X5484909Y-5744170D01*
X5494098Y-5747976D01*
X5504044Y-5747976D01*
X5551059Y-5747976D01*
X5680588Y-5877506D01*
X5682141Y-5878543D01*
X5289840Y-5878543D01*
X5289840Y-5613718D01*
X5289840Y-5388718D01*
X5280587Y-5364763D01*
X5278827Y-5362129D01*
X5266052Y-5360363D01*
X5264637Y-5361777D01*
X5264637Y-5358948D01*
X5262871Y-5346173D01*
X5239390Y-5335778D01*
X5213718Y-5335160D01*
X5189763Y-5344413D01*
X5187129Y-5346173D01*
X5185363Y-5358948D01*
X5225000Y-5398586D01*
X5264637Y-5358948D01*
X5264637Y-5361777D01*
X5226414Y-5400000D01*
X5266052Y-5439637D01*
X5278827Y-5437871D01*
X5289222Y-5414390D01*
X5289840Y-5388718D01*
X5289840Y-5613718D01*
X5280587Y-5589763D01*
X5278827Y-5587129D01*
X5266052Y-5585363D01*
X5264637Y-5586777D01*
X5264637Y-5583948D01*
X5264637Y-5441052D01*
X5225000Y-5401414D01*
X5185363Y-5441052D01*
X5187129Y-5453827D01*
X5210610Y-5464222D01*
X5236282Y-5464840D01*
X5260237Y-5455587D01*
X5262871Y-5453827D01*
X5264637Y-5441052D01*
X5264637Y-5583948D01*
X5262871Y-5571173D01*
X5239390Y-5560778D01*
X5213718Y-5560160D01*
X5189763Y-5569413D01*
X5187129Y-5571173D01*
X5185363Y-5583948D01*
X5225000Y-5623586D01*
X5264637Y-5583948D01*
X5264637Y-5586777D01*
X5226414Y-5625000D01*
X5266052Y-5664637D01*
X5278827Y-5662871D01*
X5289222Y-5639390D01*
X5289840Y-5613718D01*
X5289840Y-5878543D01*
X5279559Y-5878543D01*
X5279559Y-5714197D01*
X5271272Y-5694140D01*
X5258437Y-5681282D01*
X5260237Y-5680587D01*
X5262871Y-5678827D01*
X5264637Y-5666052D01*
X5225000Y-5626414D01*
X5223586Y-5627828D01*
X5223586Y-5625000D01*
X5183948Y-5585363D01*
X5171173Y-5587129D01*
X5160778Y-5610610D01*
X5160160Y-5636282D01*
X5169413Y-5660237D01*
X5171173Y-5662871D01*
X5183948Y-5664637D01*
X5223586Y-5625000D01*
X5223586Y-5627828D01*
X5185363Y-5666052D01*
X5187129Y-5678827D01*
X5189779Y-5680000D01*
X5127509Y-5680000D01*
X5127509Y-5514603D01*
X5119533Y-5495300D01*
X5104778Y-5480519D01*
X5085489Y-5472509D01*
X5064603Y-5472491D01*
X5045300Y-5480467D01*
X5030519Y-5495222D01*
X5024996Y-5508521D01*
X5019533Y-5495300D01*
X5004778Y-5480519D01*
X4985489Y-5472509D01*
X4964603Y-5472491D01*
X4963825Y-5472812D01*
X4895506Y-5404494D01*
X4886098Y-5398207D01*
X4875000Y-5396000D01*
X4707644Y-5396000D01*
X4704585Y-5388596D01*
X4686499Y-5370479D01*
X4662856Y-5360661D01*
X4637256Y-5360639D01*
X4613596Y-5370415D01*
X4595479Y-5388501D01*
X4585661Y-5412144D01*
X4585639Y-5437744D01*
X4595415Y-5461404D01*
X4613501Y-5479521D01*
X4637144Y-5489339D01*
X4662744Y-5489361D01*
X4686404Y-5479585D01*
X4704521Y-5461499D01*
X4707635Y-5454000D01*
X4862988Y-5454000D01*
X4881493Y-5472506D01*
X4864603Y-5472491D01*
X4845300Y-5480467D01*
X4830519Y-5495222D01*
X4830506Y-5495253D01*
X4828805Y-5490855D01*
X4827136Y-5488357D01*
X4814573Y-5486841D01*
X4813159Y-5488255D01*
X4813159Y-5485427D01*
X4811643Y-5472864D01*
X4788902Y-5462810D01*
X4764045Y-5462224D01*
X4740855Y-5471195D01*
X4738357Y-5472864D01*
X4736841Y-5485427D01*
X4775000Y-5523586D01*
X4813159Y-5485427D01*
X4813159Y-5488255D01*
X4776414Y-5525000D01*
X4776971Y-5525557D01*
X4775557Y-5526971D01*
X4775000Y-5526414D01*
X4774443Y-5526971D01*
X4773586Y-5526114D01*
X4773029Y-5525557D01*
X4773586Y-5525000D01*
X4735427Y-5486841D01*
X4722864Y-5488357D01*
X4712810Y-5511098D01*
X4712224Y-5535955D01*
X4721195Y-5559145D01*
X4722864Y-5561643D01*
X4735426Y-5563159D01*
X4732586Y-5566000D01*
X4551856Y-5566000D01*
X4550047Y-5561623D01*
X4533464Y-5545011D01*
X4533428Y-5544996D01*
X4549989Y-5528464D01*
X4558990Y-5506787D01*
X4559010Y-5483316D01*
X4550047Y-5461623D01*
X4533464Y-5445011D01*
X4511787Y-5436010D01*
X4488316Y-5435990D01*
X4466623Y-5444953D01*
X4450011Y-5461536D01*
X4441010Y-5483213D01*
X4440990Y-5506684D01*
X4449953Y-5528377D01*
X4466536Y-5544989D01*
X4466572Y-5545004D01*
X4450011Y-5561536D01*
X4441010Y-5583213D01*
X4440990Y-5606684D01*
X4449953Y-5628377D01*
X4458576Y-5637015D01*
X4451839Y-5639806D01*
X4444806Y-5646839D01*
X4441000Y-5656027D01*
X4441000Y-5665973D01*
X4441000Y-5733973D01*
X4444806Y-5743161D01*
X4451839Y-5750194D01*
X4461027Y-5754000D01*
X4470973Y-5754000D01*
X4538973Y-5754000D01*
X4548161Y-5750194D01*
X4555194Y-5743161D01*
X4559000Y-5733973D01*
X4559000Y-5724027D01*
X4559000Y-5656027D01*
X4555194Y-5646839D01*
X4548161Y-5639806D01*
X4541423Y-5637015D01*
X4549989Y-5628464D01*
X4551842Y-5624000D01*
X4805000Y-5624000D01*
X4816098Y-5621793D01*
X4825506Y-5615506D01*
X4863812Y-5577200D01*
X4864511Y-5577491D01*
X4885397Y-5577509D01*
X4904700Y-5569533D01*
X4919481Y-5554778D01*
X4925004Y-5541478D01*
X4930467Y-5554700D01*
X4945222Y-5569481D01*
X4964511Y-5577491D01*
X4985397Y-5577509D01*
X5004700Y-5569533D01*
X5019481Y-5554778D01*
X5025004Y-5541478D01*
X5030467Y-5554700D01*
X5045222Y-5569481D01*
X5064511Y-5577491D01*
X5085397Y-5577509D01*
X5104700Y-5569533D01*
X5119481Y-5554778D01*
X5127491Y-5535489D01*
X5127509Y-5514603D01*
X5127509Y-5680000D01*
X5075000Y-5680000D01*
X5057779Y-5683425D01*
X5043180Y-5693180D01*
X4963353Y-5773007D01*
X4945300Y-5780467D01*
X4930519Y-5795222D01*
X4930506Y-5795253D01*
X4928805Y-5790855D01*
X4927136Y-5788357D01*
X4914573Y-5786841D01*
X4913159Y-5788255D01*
X4913159Y-5785427D01*
X4911643Y-5772864D01*
X4888902Y-5762810D01*
X4864045Y-5762224D01*
X4840855Y-5771195D01*
X4838357Y-5772864D01*
X4836841Y-5785427D01*
X4875000Y-5823586D01*
X4913159Y-5785427D01*
X4913159Y-5788255D01*
X4876414Y-5825000D01*
X4914573Y-5863159D01*
X4927136Y-5861643D01*
X4930340Y-5854394D01*
X4930467Y-5854700D01*
X4945222Y-5869481D01*
X4964511Y-5877491D01*
X4985397Y-5877509D01*
X5004700Y-5869533D01*
X5019481Y-5854778D01*
X5025004Y-5841478D01*
X5030467Y-5854700D01*
X5045222Y-5869481D01*
X5064511Y-5877491D01*
X5085397Y-5877509D01*
X5104700Y-5869533D01*
X5119481Y-5854778D01*
X5127491Y-5835489D01*
X5127509Y-5814603D01*
X5119533Y-5795300D01*
X5104778Y-5780519D01*
X5089475Y-5774164D01*
X5093640Y-5770000D01*
X5192843Y-5770000D01*
X5194060Y-5771218D01*
X5214102Y-5779541D01*
X5235803Y-5779559D01*
X5255860Y-5771272D01*
X5271218Y-5755940D01*
X5279541Y-5735898D01*
X5279559Y-5714197D01*
X5279559Y-5878543D01*
X4909536Y-5878543D01*
X4911643Y-5877136D01*
X4913159Y-5864573D01*
X4875000Y-5826414D01*
X4873586Y-5827828D01*
X4873586Y-5825000D01*
X4835427Y-5786841D01*
X4825634Y-5788023D01*
X4823694Y-5783339D01*
X4816661Y-5776306D01*
X4807473Y-5772500D01*
X4797527Y-5772500D01*
X4742527Y-5772500D01*
X4733339Y-5776306D01*
X4726306Y-5783339D01*
X4722500Y-5792527D01*
X4722500Y-5802473D01*
X4722500Y-5857473D01*
X4726306Y-5866661D01*
X4733339Y-5873694D01*
X4742527Y-5877500D01*
X4752473Y-5877500D01*
X4807473Y-5877500D01*
X4816661Y-5873694D01*
X4823694Y-5866661D01*
X4825634Y-5861977D01*
X4835427Y-5863159D01*
X4873586Y-5825000D01*
X4873586Y-5827828D01*
X4836841Y-5864573D01*
X4838357Y-5877136D01*
X4841541Y-5878543D01*
X4687447Y-5878543D01*
X4704521Y-5861499D01*
X4714339Y-5837856D01*
X4714361Y-5812256D01*
X4704585Y-5788596D01*
X4686499Y-5770479D01*
X4662856Y-5760661D01*
X4637256Y-5760639D01*
X4613596Y-5770415D01*
X4595479Y-5788501D01*
X4585661Y-5812144D01*
X4585639Y-5837744D01*
X4595415Y-5861404D01*
X4612525Y-5878543D01*
X4276993Y-5878543D01*
X4276993Y-5680320D01*
X4268789Y-5660464D01*
X4268789Y-5110368D01*
X4260433Y-5090146D01*
X4244975Y-5074660D01*
X4236791Y-5071262D01*
X4244894Y-5067914D01*
X4260379Y-5052456D01*
X4268770Y-5032248D01*
X4268789Y-5010368D01*
X4260433Y-4990146D01*
X4244975Y-4974660D01*
X4236791Y-4971262D01*
X4244894Y-4967914D01*
X4260379Y-4952456D01*
X4268770Y-4932248D01*
X4268789Y-4910368D01*
X4260433Y-4890146D01*
X4248024Y-4877714D01*
X4249256Y-4877238D01*
X4251921Y-4875458D01*
X4253741Y-4862636D01*
X4213780Y-4822674D01*
X4212365Y-4824088D01*
X4212365Y-4821260D01*
X4172403Y-4781298D01*
X4163780Y-4782523D01*
X4155156Y-4781298D01*
X4115194Y-4821260D01*
X4155156Y-4861222D01*
X4163780Y-4859997D01*
X4172403Y-4861222D01*
X4212365Y-4821260D01*
X4212365Y-4824088D01*
X4173818Y-4862636D01*
X4175638Y-4875458D01*
X4179915Y-4877352D01*
X4167180Y-4890064D01*
X4163781Y-4898249D01*
X4160433Y-4890146D01*
X4148024Y-4877714D01*
X4149256Y-4877238D01*
X4151921Y-4875458D01*
X4153741Y-4862636D01*
X4113780Y-4822674D01*
X4112365Y-4824088D01*
X4112365Y-4821260D01*
X4072403Y-4781298D01*
X4059582Y-4783119D01*
X4049111Y-4806763D01*
X4048486Y-4832614D01*
X4057801Y-4856736D01*
X4059582Y-4859401D01*
X4072403Y-4861222D01*
X4112365Y-4821260D01*
X4112365Y-4824088D01*
X4073818Y-4862636D01*
X4075638Y-4875458D01*
X4079915Y-4877352D01*
X4067180Y-4890064D01*
X4058789Y-4910272D01*
X4058770Y-4932152D01*
X4067126Y-4952374D01*
X4082584Y-4967859D01*
X4090768Y-4971258D01*
X4082665Y-4974606D01*
X4067180Y-4990064D01*
X4058789Y-5010272D01*
X4058770Y-5032152D01*
X4067126Y-5052374D01*
X4082584Y-5067859D01*
X4090768Y-5071258D01*
X4082665Y-5074606D01*
X4067180Y-5090064D01*
X4058789Y-5110272D01*
X4058770Y-5132152D01*
X4067126Y-5152374D01*
X4082584Y-5167859D01*
X4102791Y-5176250D01*
X4124672Y-5176269D01*
X4144894Y-5167914D01*
X4160379Y-5152456D01*
X4161291Y-5150260D01*
X4166252Y-5150260D01*
X4167126Y-5152374D01*
X4182584Y-5167859D01*
X4202791Y-5176250D01*
X4224672Y-5176269D01*
X4244894Y-5167914D01*
X4260379Y-5152456D01*
X4268770Y-5132248D01*
X4268789Y-5110368D01*
X4268789Y-5660464D01*
X4255252Y-5627702D01*
X4215030Y-5587409D01*
X4162450Y-5565576D01*
X4105517Y-5565526D01*
X4052899Y-5587268D01*
X4012606Y-5627490D01*
X3990773Y-5680070D01*
X3990723Y-5737003D01*
X4012465Y-5789621D01*
X4052687Y-5829914D01*
X4105267Y-5851747D01*
X4162200Y-5851796D01*
X4214818Y-5830055D01*
X4255110Y-5789833D01*
X4276944Y-5737253D01*
X4276993Y-5680320D01*
X4276993Y-5878543D01*
X3963976Y-5878543D01*
X3963976Y-3963976D01*
X5828837Y-3963976D01*
X5814763Y-3969413D01*
X5812129Y-3971173D01*
X5810363Y-3983948D01*
X5850000Y-4023586D01*
X5889637Y-3983948D01*
X5887871Y-3971173D01*
X5871615Y-3963976D01*
X6079179Y-3963976D01*
X6063596Y-3970415D01*
X6045479Y-3988501D01*
X6035661Y-4012144D01*
X6035639Y-4037744D01*
X6045415Y-4061404D01*
X6063501Y-4079521D01*
X6080307Y-4086500D01*
X5914840Y-4086500D01*
X5914840Y-4013718D01*
X5905587Y-3989763D01*
X5903827Y-3987129D01*
X5891052Y-3985363D01*
X5851414Y-4025000D01*
X5891052Y-4064637D01*
X5903827Y-4062871D01*
X5914222Y-4039390D01*
X5914840Y-4013718D01*
X5914840Y-4086500D01*
X5869930Y-4086500D01*
X5885237Y-4080587D01*
X5887871Y-4078827D01*
X5889637Y-4066052D01*
X5850000Y-4026414D01*
X5810363Y-4066052D01*
X5812129Y-4078827D01*
X5829461Y-4086500D01*
X5539494Y-4086500D01*
X5546006Y-4080000D01*
X5600000Y-4080000D01*
X5617221Y-4076575D01*
X5627060Y-4070000D01*
X5717843Y-4070000D01*
X5719060Y-4071218D01*
X5739102Y-4079541D01*
X5760803Y-4079559D01*
X5780860Y-4071272D01*
X5793718Y-4058437D01*
X5794413Y-4060237D01*
X5796173Y-4062871D01*
X5808948Y-4064637D01*
X5848586Y-4025000D01*
X5808948Y-3985363D01*
X5796173Y-3987129D01*
X5794053Y-3991917D01*
X5780940Y-3978782D01*
X5760898Y-3970459D01*
X5739197Y-3970441D01*
X5719140Y-3978728D01*
X5717866Y-3980000D01*
X5610000Y-3980000D01*
X5592779Y-3983425D01*
X5582940Y-3990000D01*
X5546004Y-3990000D01*
X5536499Y-3980479D01*
X5512856Y-3970661D01*
X5487256Y-3970639D01*
X5463596Y-3980415D01*
X5445479Y-3998501D01*
X5435661Y-4022144D01*
X5435639Y-4047744D01*
X5445415Y-4071404D01*
X5460485Y-4086500D01*
X5139494Y-4086500D01*
X5154521Y-4071499D01*
X5164339Y-4047856D01*
X5164361Y-4022256D01*
X5154585Y-3998596D01*
X5136499Y-3980479D01*
X5112856Y-3970661D01*
X5087256Y-3970639D01*
X5063596Y-3980415D01*
X5045479Y-3998501D01*
X5042365Y-4006000D01*
X5001856Y-4006000D01*
X5000047Y-4001623D01*
X4983464Y-3985011D01*
X4961787Y-3976010D01*
X4938316Y-3975990D01*
X4916623Y-3984953D01*
X4900011Y-4001536D01*
X4899996Y-4001572D01*
X4883464Y-3985011D01*
X4861787Y-3976010D01*
X4838316Y-3975990D01*
X4816623Y-3984953D01*
X4800011Y-4001536D01*
X4799996Y-4001572D01*
X4783464Y-3985011D01*
X4761787Y-3976010D01*
X4738316Y-3975990D01*
X4716623Y-3984953D01*
X4700011Y-4001536D01*
X4699996Y-4001572D01*
X4683464Y-3985011D01*
X4661787Y-3976010D01*
X4638316Y-3975990D01*
X4616623Y-3984953D01*
X4600011Y-4001536D01*
X4599996Y-4001572D01*
X4583464Y-3985011D01*
X4561787Y-3976010D01*
X4538316Y-3975990D01*
X4516623Y-3984953D01*
X4515642Y-3985932D01*
X4513672Y-3981174D01*
X4503826Y-3971328D01*
X4490962Y-3966000D01*
X4459750Y-3966000D01*
X4451000Y-3974750D01*
X4451000Y-4034000D01*
X4451787Y-4034000D01*
X4451787Y-4036000D01*
X4451000Y-4036000D01*
X4451000Y-4095250D01*
X4459750Y-4104000D01*
X4490962Y-4104000D01*
X4503826Y-4098672D01*
X4513672Y-4088826D01*
X4515635Y-4084086D01*
X4516536Y-4084989D01*
X4527655Y-4089606D01*
X4513596Y-4095415D01*
X4495479Y-4113501D01*
X4485661Y-4137144D01*
X4485639Y-4162744D01*
X4495415Y-4186404D01*
X4513501Y-4204521D01*
X4519570Y-4207042D01*
X4509542Y-4210892D01*
X4506255Y-4213089D01*
X4503296Y-4226882D01*
X4550000Y-4273586D01*
X4596704Y-4226882D01*
X4593745Y-4213089D01*
X4580303Y-4207106D01*
X4586404Y-4204585D01*
X4604521Y-4186499D01*
X4607635Y-4179000D01*
X4812988Y-4179000D01*
X4888733Y-4254745D01*
X4885661Y-4262144D01*
X4885639Y-4287744D01*
X4895415Y-4311404D01*
X4913501Y-4329521D01*
X4937144Y-4339339D01*
X4962744Y-4339361D01*
X4986404Y-4329585D01*
X5004521Y-4311499D01*
X5014339Y-4287856D01*
X5014361Y-4262256D01*
X5005991Y-4242000D01*
X5042000Y-4242000D01*
X5053098Y-4239793D01*
X5062506Y-4233506D01*
X5114012Y-4182000D01*
X5130586Y-4182000D01*
X5133948Y-4185363D01*
X5121173Y-4187129D01*
X5110778Y-4210610D01*
X5110160Y-4236282D01*
X5119413Y-4260237D01*
X5121173Y-4262871D01*
X5133948Y-4264637D01*
X5173586Y-4225000D01*
X5173029Y-4224443D01*
X5174443Y-4223029D01*
X5175000Y-4223586D01*
X5175557Y-4223029D01*
X5176971Y-4224443D01*
X5176414Y-4225000D01*
X5216052Y-4264637D01*
X5228827Y-4262871D01*
X5230947Y-4258083D01*
X5244060Y-4271218D01*
X5264102Y-4279541D01*
X5285803Y-4279559D01*
X5305860Y-4271272D01*
X5321218Y-4255940D01*
X5329541Y-4235898D01*
X5329559Y-4214197D01*
X5327711Y-4209723D01*
X5489494Y-4371506D01*
X5498902Y-4377793D01*
X5498902Y-4377793D01*
X5510000Y-4380000D01*
X5601459Y-4380000D01*
X5597509Y-4389511D01*
X5597491Y-4410397D01*
X5602285Y-4422000D01*
X5571047Y-4422000D01*
X5559949Y-4424207D01*
X5550541Y-4430494D01*
X5549232Y-4431803D01*
X5544858Y-4429987D01*
X5521387Y-4429966D01*
X5499694Y-4438929D01*
X5483082Y-4455512D01*
X5482834Y-4456110D01*
X5482793Y-4455902D01*
X5476506Y-4446494D01*
X5444213Y-4414200D01*
X5453827Y-4412871D01*
X5464222Y-4389390D01*
X5464840Y-4363718D01*
X5455587Y-4339763D01*
X5453827Y-4337129D01*
X5441052Y-4335363D01*
X5439637Y-4336777D01*
X5439637Y-4333948D01*
X5437871Y-4321173D01*
X5414390Y-4310778D01*
X5388718Y-4310160D01*
X5364763Y-4319413D01*
X5362129Y-4321173D01*
X5360363Y-4333948D01*
X5400000Y-4373586D01*
X5439637Y-4333948D01*
X5439637Y-4336777D01*
X5401414Y-4375000D01*
X5401971Y-4375557D01*
X5400557Y-4376971D01*
X5400000Y-4376414D01*
X5399443Y-4376971D01*
X5398029Y-4375557D01*
X5398586Y-4375000D01*
X5358948Y-4335363D01*
X5346173Y-4337129D01*
X5335778Y-4360610D01*
X5335280Y-4381268D01*
X5242506Y-4288494D01*
X5233098Y-4282207D01*
X5222000Y-4280000D01*
X5211116Y-4280000D01*
X5212871Y-4278827D01*
X5214637Y-4266052D01*
X5175000Y-4226414D01*
X5173586Y-4227828D01*
X5135363Y-4266052D01*
X5137129Y-4278827D01*
X5139779Y-4280000D01*
X5131102Y-4280000D01*
X5124106Y-4272991D01*
X5108491Y-4266507D01*
X5091583Y-4266493D01*
X5075957Y-4272949D01*
X5063991Y-4284894D01*
X5057507Y-4300509D01*
X5057493Y-4317417D01*
X5063949Y-4333043D01*
X5075894Y-4345009D01*
X5091509Y-4351493D01*
X5108417Y-4351507D01*
X5124043Y-4345051D01*
X5131106Y-4338000D01*
X5209988Y-4338000D01*
X5317494Y-4445506D01*
X5326902Y-4451793D01*
X5326902Y-4451793D01*
X5338000Y-4454000D01*
X5349654Y-4454000D01*
X5345459Y-4464102D01*
X5345444Y-4481804D01*
X5306820Y-4443180D01*
X5292221Y-4433425D01*
X5275000Y-4430000D01*
X5273128Y-4430000D01*
X5259657Y-4420999D01*
X5237290Y-4416550D01*
X5162710Y-4416550D01*
X5140343Y-4420999D01*
X5121380Y-4433670D01*
X5108710Y-4452632D01*
X5104260Y-4475000D01*
X5108710Y-4497368D01*
X5121380Y-4516330D01*
X5126448Y-4519717D01*
X5115441Y-4527306D01*
X5100928Y-4549729D01*
X5097106Y-4563306D01*
X5104858Y-4574000D01*
X5199000Y-4574000D01*
X5199000Y-4573213D01*
X5201000Y-4573213D01*
X5201000Y-4574000D01*
X5295142Y-4574000D01*
X5301537Y-4565177D01*
X5343180Y-4606820D01*
X5348566Y-4610419D01*
X5345479Y-4613501D01*
X5335661Y-4637144D01*
X5335639Y-4662744D01*
X5345415Y-4686404D01*
X5363501Y-4704521D01*
X5387144Y-4714339D01*
X5412744Y-4714361D01*
X5436404Y-4704585D01*
X5454521Y-4686499D01*
X5464339Y-4662856D01*
X5464361Y-4637256D01*
X5457231Y-4620000D01*
X5482051Y-4620000D01*
X5483024Y-4622354D01*
X5499606Y-4638965D01*
X5499643Y-4638980D01*
X5483082Y-4655512D01*
X5474081Y-4677189D01*
X5474075Y-4684333D01*
X5329547Y-4828861D01*
X5329559Y-4814197D01*
X5321272Y-4794140D01*
X5305940Y-4778782D01*
X5302894Y-4777517D01*
X5302894Y-4586694D01*
X5295142Y-4576000D01*
X5201000Y-4576000D01*
X5201000Y-4576787D01*
X5199000Y-4576787D01*
X5199000Y-4576000D01*
X5104858Y-4576000D01*
X5097106Y-4586694D01*
X5100928Y-4600271D01*
X5115441Y-4622694D01*
X5126448Y-4630283D01*
X5121380Y-4633670D01*
X5108710Y-4652632D01*
X5104260Y-4675000D01*
X5108710Y-4697368D01*
X5121380Y-4716330D01*
X5140343Y-4729001D01*
X5162710Y-4733450D01*
X5237290Y-4733450D01*
X5259657Y-4729001D01*
X5278620Y-4716330D01*
X5291290Y-4697368D01*
X5295740Y-4675000D01*
X5291290Y-4652632D01*
X5278620Y-4633670D01*
X5273552Y-4630283D01*
X5284559Y-4622694D01*
X5299072Y-4600271D01*
X5302894Y-4586694D01*
X5302894Y-4777517D01*
X5285898Y-4770459D01*
X5264197Y-4770441D01*
X5244140Y-4778728D01*
X5228782Y-4794060D01*
X5225001Y-4803165D01*
X5221272Y-4794140D01*
X5205940Y-4778782D01*
X5185898Y-4770459D01*
X5164197Y-4770441D01*
X5144140Y-4778728D01*
X5128782Y-4794060D01*
X5120459Y-4814102D01*
X5120441Y-4835803D01*
X5128728Y-4855860D01*
X5144060Y-4871218D01*
X5164102Y-4879541D01*
X5185803Y-4879559D01*
X5205860Y-4871272D01*
X5221218Y-4855940D01*
X5224999Y-4846835D01*
X5228728Y-4855860D01*
X5244060Y-4871218D01*
X5264102Y-4879541D01*
X5278854Y-4879553D01*
X5261306Y-4897101D01*
X5259657Y-4895999D01*
X5237290Y-4891550D01*
X5162710Y-4891550D01*
X5140343Y-4895999D01*
X5121380Y-4908670D01*
X5108710Y-4927632D01*
X5104260Y-4950000D01*
X5108710Y-4972368D01*
X5121380Y-4991330D01*
X5126448Y-4994717D01*
X5115441Y-5002306D01*
X5100928Y-5024729D01*
X5097106Y-5038306D01*
X5104858Y-5049000D01*
X5199000Y-5049000D01*
X5199000Y-5048213D01*
X5201000Y-5048213D01*
X5201000Y-5049000D01*
X5295142Y-5049000D01*
X5302894Y-5038306D01*
X5299072Y-5024729D01*
X5284559Y-5002306D01*
X5273552Y-4994717D01*
X5273586Y-4994694D01*
X5289268Y-4991575D01*
X5303867Y-4981820D01*
X5469580Y-4816107D01*
X5473615Y-4826584D01*
X5475573Y-4829515D01*
X5488810Y-4831823D01*
X5531657Y-4788976D01*
X5531100Y-4788420D01*
X5532514Y-4787005D01*
X5533071Y-4787562D01*
X5575917Y-4744716D01*
X5573668Y-4731816D01*
X5583059Y-4722441D01*
X5592061Y-4700764D01*
X5592081Y-4677292D01*
X5583118Y-4655599D01*
X5566535Y-4638988D01*
X5566499Y-4638973D01*
X5583059Y-4622441D01*
X5592061Y-4600764D01*
X5592080Y-4578425D01*
X5600000Y-4580000D01*
X5601459Y-4580000D01*
X5597509Y-4589511D01*
X5597491Y-4610397D01*
X5605467Y-4629700D01*
X5620222Y-4644481D01*
X5633521Y-4650004D01*
X5620300Y-4655467D01*
X5605519Y-4670222D01*
X5597509Y-4689511D01*
X5597491Y-4710397D01*
X5605467Y-4729700D01*
X5620222Y-4744481D01*
X5620253Y-4744494D01*
X5615855Y-4746195D01*
X5613357Y-4747864D01*
X5611841Y-4760427D01*
X5650000Y-4798586D01*
X5688159Y-4760427D01*
X5686643Y-4747864D01*
X5679394Y-4744660D01*
X5679700Y-4744533D01*
X5694481Y-4729778D01*
X5702491Y-4710489D01*
X5702509Y-4689603D01*
X5694533Y-4670300D01*
X5679778Y-4655519D01*
X5666478Y-4649996D01*
X5679700Y-4644533D01*
X5694481Y-4629778D01*
X5702491Y-4610489D01*
X5702509Y-4589603D01*
X5701747Y-4587760D01*
X5734494Y-4620506D01*
X5743902Y-4626793D01*
X5755000Y-4629000D01*
X5904988Y-4629000D01*
X5883494Y-4650494D01*
X5877207Y-4659902D01*
X5875000Y-4671000D01*
X5875000Y-4754000D01*
X5877207Y-4765098D01*
X5883494Y-4774506D01*
X5897800Y-4788812D01*
X5897509Y-4789511D01*
X5897491Y-4810397D01*
X5905467Y-4829700D01*
X5920222Y-4844481D01*
X5939511Y-4852491D01*
X5960397Y-4852509D01*
X5979700Y-4844533D01*
X5994481Y-4829778D01*
X6001661Y-4812487D01*
X6007779Y-4816575D01*
X6025000Y-4820000D01*
X6160000Y-4820000D01*
X6177221Y-4816575D01*
X6191820Y-4806820D01*
X6203640Y-4795000D01*
X6238884Y-4795000D01*
X6237129Y-4796173D01*
X6235363Y-4808948D01*
X6275000Y-4848586D01*
X6314637Y-4808948D01*
X6312871Y-4796173D01*
X6310221Y-4795000D01*
X6343945Y-4795000D01*
X6340855Y-4796195D01*
X6338357Y-4797864D01*
X6336841Y-4810427D01*
X6375000Y-4848586D01*
X6413159Y-4810427D01*
X6411643Y-4797864D01*
X6405164Y-4795000D01*
X6416360Y-4795000D01*
X6603180Y-4981820D01*
X6617779Y-4991575D01*
X6635000Y-4995000D01*
X6646471Y-4995000D01*
X6658521Y-5000004D01*
X6645300Y-5005467D01*
X6630519Y-5020222D01*
X6630196Y-5021000D01*
X6584101Y-5021000D01*
X6576106Y-5012991D01*
X6560491Y-5006507D01*
X6543583Y-5006493D01*
X6527957Y-5012949D01*
X6515991Y-5024894D01*
X6509507Y-5040509D01*
X6509493Y-5057417D01*
X6515949Y-5073043D01*
X6527894Y-5085009D01*
X6543509Y-5091493D01*
X6560417Y-5091507D01*
X6576043Y-5085051D01*
X6582104Y-5079000D01*
X6630177Y-5079000D01*
X6630467Y-5079700D01*
X6645222Y-5094481D01*
X6658521Y-5100004D01*
X6645300Y-5105467D01*
X6630519Y-5120222D01*
X6622509Y-5139511D01*
X6622491Y-5160397D01*
X6627285Y-5172000D01*
X6438012Y-5172000D01*
X6437776Y-5171764D01*
X6437776Y-4839045D01*
X6428805Y-4815855D01*
X6427136Y-4813357D01*
X6414573Y-4811841D01*
X6376414Y-4850000D01*
X6414573Y-4888159D01*
X6427136Y-4886643D01*
X6437190Y-4863902D01*
X6437776Y-4839045D01*
X6437776Y-5171764D01*
X6427200Y-5161188D01*
X6427491Y-5160489D01*
X6427509Y-5139603D01*
X6419533Y-5120300D01*
X6404778Y-5105519D01*
X6391478Y-5099996D01*
X6404700Y-5094533D01*
X6419481Y-5079778D01*
X6427491Y-5060489D01*
X6427509Y-5039603D01*
X6419533Y-5020300D01*
X6404778Y-5005519D01*
X6391478Y-4999996D01*
X6404700Y-4994533D01*
X6419481Y-4979778D01*
X6427491Y-4960489D01*
X6427509Y-4939603D01*
X6419533Y-4920300D01*
X6404778Y-4905519D01*
X6404747Y-4905506D01*
X6409145Y-4903805D01*
X6411643Y-4902136D01*
X6413159Y-4889573D01*
X6375000Y-4851414D01*
X6373586Y-4852828D01*
X6373586Y-4850000D01*
X6335427Y-4811841D01*
X6329141Y-4812599D01*
X6328827Y-4812129D01*
X6316052Y-4810363D01*
X6276414Y-4850000D01*
X6316052Y-4889637D01*
X6328827Y-4887871D01*
X6329041Y-4887388D01*
X6335427Y-4888159D01*
X6373586Y-4850000D01*
X6373586Y-4852828D01*
X6336841Y-4889573D01*
X6338357Y-4902136D01*
X6345606Y-4905340D01*
X6345300Y-4905467D01*
X6330519Y-4920222D01*
X6330196Y-4921000D01*
X6322041Y-4921000D01*
X6321272Y-4919140D01*
X6308437Y-4906282D01*
X6310237Y-4905587D01*
X6312871Y-4903827D01*
X6314637Y-4891052D01*
X6275000Y-4851414D01*
X6273586Y-4852828D01*
X6273586Y-4850000D01*
X6233948Y-4810363D01*
X6221173Y-4812129D01*
X6210778Y-4835610D01*
X6210160Y-4861282D01*
X6219413Y-4885237D01*
X6221173Y-4887871D01*
X6233948Y-4889637D01*
X6273586Y-4850000D01*
X6273586Y-4852828D01*
X6235363Y-4891052D01*
X6237129Y-4903827D01*
X6241917Y-4905947D01*
X6228782Y-4919060D01*
X6227976Y-4921000D01*
X6168900Y-4921000D01*
X6157802Y-4923207D01*
X6148394Y-4929494D01*
X6132757Y-4945131D01*
X6130898Y-4944359D01*
X6109197Y-4944341D01*
X6089140Y-4952628D01*
X6073782Y-4967960D01*
X6065459Y-4988002D01*
X6065441Y-5009703D01*
X6073728Y-5029760D01*
X6089060Y-5045118D01*
X6109102Y-5053441D01*
X6130803Y-5053459D01*
X6150860Y-5045172D01*
X6166218Y-5029840D01*
X6174541Y-5009798D01*
X6174559Y-4988097D01*
X6173757Y-4986155D01*
X6180912Y-4979000D01*
X6227959Y-4979000D01*
X6228728Y-4980860D01*
X6244060Y-4996218D01*
X6253165Y-4999999D01*
X6244140Y-5003728D01*
X6228782Y-5019060D01*
X6220459Y-5039102D01*
X6220441Y-5060803D01*
X6228728Y-5080860D01*
X6241563Y-5093718D01*
X6239763Y-5094413D01*
X6237129Y-5096173D01*
X6235363Y-5108948D01*
X6275000Y-5148586D01*
X6314637Y-5108948D01*
X6312871Y-5096173D01*
X6308083Y-5094053D01*
X6321218Y-5080940D01*
X6322024Y-5079000D01*
X6330177Y-5079000D01*
X6330467Y-5079700D01*
X6345222Y-5094481D01*
X6358521Y-5100004D01*
X6345300Y-5105467D01*
X6332090Y-5118654D01*
X6330587Y-5114763D01*
X6328827Y-5112129D01*
X6316052Y-5110363D01*
X6276414Y-5150000D01*
X6316052Y-5189637D01*
X6328827Y-5187871D01*
X6331837Y-5181072D01*
X6345222Y-5194481D01*
X6358521Y-5200004D01*
X6345300Y-5205467D01*
X6330519Y-5220222D01*
X6322509Y-5239511D01*
X6322491Y-5260397D01*
X6330467Y-5279700D01*
X6345222Y-5294481D01*
X6358521Y-5300004D01*
X6345300Y-5305467D01*
X6330519Y-5320222D01*
X6322509Y-5339511D01*
X6322491Y-5360397D01*
X6330467Y-5379700D01*
X6345222Y-5394481D01*
X6358521Y-5400004D01*
X6345300Y-5405467D01*
X6330519Y-5420222D01*
X6322509Y-5439511D01*
X6322491Y-5460397D01*
X6330467Y-5479700D01*
X6345222Y-5494481D01*
X6364511Y-5502491D01*
X6385397Y-5502509D01*
X6404700Y-5494533D01*
X6419481Y-5479778D01*
X6419804Y-5479000D01*
X6568988Y-5479000D01*
X6605494Y-5515506D01*
X6614902Y-5521793D01*
X6626000Y-5524000D01*
X6931380Y-5524000D01*
X6929507Y-5528509D01*
X6929493Y-5545417D01*
X6935949Y-5561043D01*
X6947894Y-5573009D01*
X6963509Y-5579493D01*
X6980417Y-5579507D01*
X6996043Y-5573051D01*
X7003106Y-5566000D01*
X7378727Y-5566000D01*
X7374081Y-5577189D01*
X7374061Y-5600661D01*
X7383024Y-5622354D01*
X7391647Y-5630992D01*
X7384910Y-5633782D01*
X7377877Y-5640815D01*
X7374071Y-5650004D01*
X7374071Y-5659949D01*
X7374071Y-5727949D01*
X7377877Y-5737138D01*
X7384909Y-5744170D01*
X7394098Y-5747976D01*
X7404044Y-5747976D01*
X7472044Y-5747976D01*
X7481232Y-5744170D01*
X7488265Y-5737138D01*
X7492071Y-5727949D01*
X7492071Y-5718004D01*
X7492071Y-5650004D01*
X7488265Y-5640815D01*
X7481232Y-5633782D01*
X7474494Y-5630991D01*
X7483059Y-5622441D01*
X7492061Y-5600764D01*
X7492081Y-5577292D01*
X7483118Y-5555599D01*
X7466535Y-5538988D01*
X7466499Y-5538973D01*
X7483059Y-5522441D01*
X7492061Y-5500764D01*
X7492081Y-5477292D01*
X7483118Y-5455599D01*
X7466535Y-5438988D01*
X7466499Y-5438973D01*
X7483059Y-5422441D01*
X7492061Y-5400764D01*
X7492081Y-5377292D01*
X7483118Y-5355599D01*
X7466535Y-5338988D01*
X7466499Y-5338973D01*
X7483059Y-5322441D01*
X7492061Y-5300764D01*
X7492081Y-5277292D01*
X7483118Y-5255599D01*
X7466535Y-5238988D01*
X7466499Y-5238973D01*
X7483059Y-5222441D01*
X7492061Y-5200764D01*
X7492081Y-5177292D01*
X7483118Y-5155599D01*
X7466535Y-5138988D01*
X7466499Y-5138973D01*
X7483059Y-5122441D01*
X7492061Y-5100764D01*
X7492081Y-5077292D01*
X7483118Y-5055599D01*
X7466535Y-5038988D01*
X7466499Y-5038973D01*
X7483059Y-5022441D01*
X7492061Y-5000764D01*
X7492081Y-4977292D01*
X7483118Y-4955599D01*
X7467546Y-4940000D01*
X7508000Y-4940000D01*
X7519098Y-4937793D01*
X7528506Y-4931506D01*
X7600506Y-4859506D01*
X7606793Y-4850098D01*
X7606793Y-4850098D01*
X7609000Y-4839000D01*
X7609000Y-4732644D01*
X7616404Y-4729585D01*
X7634521Y-4711499D01*
X7644339Y-4687856D01*
X7644361Y-4662256D01*
X7634585Y-4638596D01*
X7616499Y-4620479D01*
X7592856Y-4610661D01*
X7567256Y-4610639D01*
X7543596Y-4620415D01*
X7525479Y-4638501D01*
X7515661Y-4662144D01*
X7515639Y-4687744D01*
X7525415Y-4711404D01*
X7543501Y-4729521D01*
X7551000Y-4732635D01*
X7551000Y-4826988D01*
X7495988Y-4882000D01*
X7483403Y-4882000D01*
X7488265Y-4877138D01*
X7492071Y-4867949D01*
X7492071Y-4858004D01*
X7492071Y-4790004D01*
X7488265Y-4780815D01*
X7481232Y-4773782D01*
X7474494Y-4770991D01*
X7483059Y-4762441D01*
X7492061Y-4740764D01*
X7492081Y-4717292D01*
X7483118Y-4695599D01*
X7466535Y-4678988D01*
X7466499Y-4678973D01*
X7483059Y-4662441D01*
X7492061Y-4640764D01*
X7492081Y-4617292D01*
X7483118Y-4595599D01*
X7466535Y-4578988D01*
X7466499Y-4578973D01*
X7483059Y-4562441D01*
X7492061Y-4540764D01*
X7492081Y-4517292D01*
X7488242Y-4508000D01*
X7490213Y-4508000D01*
X7493949Y-4517043D01*
X7505894Y-4529009D01*
X7521509Y-4535493D01*
X7538417Y-4535507D01*
X7554043Y-4529051D01*
X7566009Y-4517106D01*
X7572493Y-4501491D01*
X7572507Y-4484583D01*
X7566051Y-4468957D01*
X7554106Y-4456991D01*
X7538491Y-4450507D01*
X7521583Y-4450493D01*
X7520574Y-4450910D01*
X7516000Y-4450000D01*
X7488225Y-4450000D01*
X7492061Y-4440764D01*
X7492081Y-4417292D01*
X7483118Y-4395599D01*
X7466535Y-4378988D01*
X7466499Y-4378973D01*
X7483059Y-4362441D01*
X7492061Y-4340764D01*
X7492081Y-4317292D01*
X7488655Y-4309000D01*
X7580988Y-4309000D01*
X7678733Y-4406745D01*
X7675661Y-4414144D01*
X7675639Y-4439744D01*
X7685415Y-4463404D01*
X7703501Y-4481521D01*
X7727144Y-4491339D01*
X7752744Y-4491361D01*
X7776404Y-4481585D01*
X7794521Y-4463499D01*
X7804339Y-4439856D01*
X7804361Y-4414256D01*
X7794585Y-4390596D01*
X7776499Y-4372479D01*
X7752856Y-4362661D01*
X7727256Y-4362639D01*
X7719752Y-4365740D01*
X7618445Y-4264433D01*
X7648574Y-4276944D01*
X7705507Y-4276993D01*
X7758125Y-4255252D01*
X7798418Y-4215030D01*
X7820251Y-4162450D01*
X7820300Y-4105517D01*
X7798559Y-4052899D01*
X7758337Y-4012606D01*
X7705757Y-3990773D01*
X7648824Y-3990723D01*
X7596206Y-4012465D01*
X7555913Y-4052687D01*
X7534080Y-4105267D01*
X7534030Y-4162200D01*
X7555772Y-4214818D01*
X7591891Y-4251000D01*
X7498787Y-4251000D01*
X7501705Y-4244426D01*
X7502393Y-4216984D01*
X7492527Y-4191369D01*
X7492081Y-4190701D01*
X7492081Y-4117292D01*
X7483118Y-4095599D01*
X7466535Y-4078988D01*
X7444858Y-4069987D01*
X7421387Y-4069966D01*
X7399694Y-4078929D01*
X7383082Y-4095512D01*
X7374081Y-4117189D01*
X7374061Y-4140661D01*
X7383024Y-4162354D01*
X7392473Y-4171819D01*
X7390225Y-4184716D01*
X7433071Y-4227562D01*
X7475917Y-4184716D01*
X7473668Y-4171816D01*
X7483059Y-4162441D01*
X7492061Y-4140764D01*
X7492081Y-4117292D01*
X7492081Y-4190701D01*
X7490569Y-4188438D01*
X7477331Y-4186130D01*
X7434485Y-4228976D01*
X7435042Y-4229533D01*
X7433628Y-4230947D01*
X7433071Y-4230391D01*
X7432514Y-4230947D01*
X7431100Y-4229533D01*
X7431657Y-4228976D01*
X7388810Y-4186130D01*
X7375573Y-4188438D01*
X7364436Y-4213527D01*
X7363749Y-4240968D01*
X7367612Y-4251000D01*
X7297012Y-4251000D01*
X7275506Y-4229494D01*
X7266098Y-4223207D01*
X7255000Y-4221000D01*
X7132644Y-4221000D01*
X7129585Y-4213596D01*
X7111499Y-4195479D01*
X7087856Y-4185661D01*
X7062256Y-4185639D01*
X7038596Y-4195415D01*
X7020479Y-4213501D01*
X7017365Y-4221000D01*
X6932644Y-4221000D01*
X6929585Y-4213596D01*
X6911499Y-4195479D01*
X6887856Y-4185661D01*
X6862256Y-4185639D01*
X6854752Y-4188740D01*
X6845506Y-4179494D01*
X6836098Y-4173207D01*
X6825000Y-4171000D01*
X6723126Y-4171000D01*
X6727491Y-4160489D01*
X6727509Y-4139603D01*
X6719533Y-4120300D01*
X6704778Y-4105519D01*
X6685489Y-4097509D01*
X6664603Y-4097491D01*
X6645300Y-4105467D01*
X6630519Y-4120222D01*
X6622509Y-4139511D01*
X6622491Y-4160397D01*
X6626872Y-4171000D01*
X6543012Y-4171000D01*
X6501506Y-4129494D01*
X6492098Y-4123207D01*
X6481927Y-4121184D01*
X6484009Y-4119106D01*
X6490493Y-4103491D01*
X6490507Y-4086583D01*
X6484051Y-4070957D01*
X6472106Y-4058991D01*
X6456491Y-4052507D01*
X6439583Y-4052493D01*
X6423957Y-4058949D01*
X6416894Y-4066000D01*
X6275013Y-4066000D01*
X6279521Y-4061499D01*
X6289339Y-4037856D01*
X6289361Y-4012256D01*
X6279585Y-3988596D01*
X6261499Y-3970479D01*
X6245840Y-3963976D01*
X7847047Y-3963976D01*
X7847047Y-5878543D01*
X7847047Y-5878543D01*
G37*
X7847047Y-5878543D02*
X7820300Y-5878543D01*
X7820300Y-5680320D01*
X7814350Y-5665919D01*
X7814350Y-4729312D01*
X7814350Y-4692750D01*
X7814350Y-4673250D01*
X7814350Y-4636688D01*
X7809022Y-4623824D01*
X7799176Y-4613978D01*
X7786312Y-4608650D01*
X7772388Y-4608650D01*
X7749750Y-4608650D01*
X7741000Y-4617400D01*
X7741000Y-4682000D01*
X7805600Y-4682000D01*
X7814350Y-4673250D01*
X7814350Y-4692750D01*
X7805600Y-4684000D01*
X7741000Y-4684000D01*
X7741000Y-4748600D01*
X7749750Y-4757350D01*
X7772388Y-4757350D01*
X7786312Y-4757350D01*
X7799176Y-4752022D01*
X7809022Y-4742176D01*
X7814350Y-4729312D01*
X7814350Y-5665919D01*
X7798559Y-5627702D01*
X7785294Y-5614413D01*
X7785294Y-5353646D01*
X7775978Y-5329524D01*
X7775010Y-5328073D01*
X7775010Y-5254108D01*
X7766654Y-5233886D01*
X7751196Y-5218400D01*
X7739000Y-5213336D01*
X7739000Y-4748600D01*
X7739000Y-4684000D01*
X7739000Y-4682000D01*
X7739000Y-4617400D01*
X7730250Y-4608650D01*
X7707612Y-4608650D01*
X7693688Y-4608650D01*
X7680824Y-4613978D01*
X7670978Y-4623824D01*
X7665650Y-4636688D01*
X7665650Y-4673250D01*
X7674400Y-4682000D01*
X7739000Y-4682000D01*
X7739000Y-4684000D01*
X7674400Y-4684000D01*
X7665650Y-4692750D01*
X7665650Y-4729312D01*
X7670978Y-4742176D01*
X7680824Y-4752022D01*
X7693688Y-4757350D01*
X7707612Y-4757350D01*
X7730250Y-4757350D01*
X7739000Y-4748600D01*
X7739000Y-5213336D01*
X7730988Y-5210010D01*
X7709108Y-5209990D01*
X7688886Y-5218346D01*
X7673400Y-5233804D01*
X7665010Y-5254012D01*
X7664990Y-5275892D01*
X7673346Y-5296114D01*
X7685756Y-5308546D01*
X7684524Y-5309022D01*
X7681859Y-5310802D01*
X7680038Y-5323624D01*
X7720000Y-5363586D01*
X7759962Y-5323624D01*
X7758141Y-5310802D01*
X7753865Y-5308908D01*
X7766600Y-5296196D01*
X7774990Y-5275988D01*
X7775010Y-5254108D01*
X7775010Y-5328073D01*
X7774198Y-5326859D01*
X7761376Y-5325038D01*
X7721414Y-5365000D01*
X7761376Y-5404962D01*
X7774198Y-5403141D01*
X7784668Y-5379497D01*
X7785294Y-5353646D01*
X7785294Y-5614413D01*
X7759962Y-5589037D01*
X7759962Y-5406376D01*
X7720000Y-5366414D01*
X7718586Y-5367828D01*
X7718586Y-5365000D01*
X7678624Y-5325038D01*
X7665802Y-5326859D01*
X7655332Y-5350503D01*
X7654706Y-5376354D01*
X7664022Y-5400476D01*
X7665802Y-5403141D01*
X7678624Y-5404962D01*
X7718586Y-5365000D01*
X7718586Y-5367828D01*
X7680038Y-5406376D01*
X7681859Y-5419198D01*
X7705503Y-5429668D01*
X7731354Y-5430294D01*
X7755476Y-5420978D01*
X7758141Y-5419198D01*
X7759962Y-5406376D01*
X7759962Y-5589037D01*
X7758337Y-5587409D01*
X7705757Y-5565576D01*
X7648824Y-5565526D01*
X7644361Y-5567370D01*
X7644361Y-5062256D01*
X7634585Y-5038596D01*
X7616499Y-5020479D01*
X7592856Y-5010661D01*
X7567256Y-5010639D01*
X7543596Y-5020415D01*
X7525479Y-5038501D01*
X7515661Y-5062144D01*
X7515639Y-5087744D01*
X7525415Y-5111404D01*
X7543501Y-5129521D01*
X7567144Y-5139339D01*
X7592744Y-5139361D01*
X7616404Y-5129585D01*
X7634521Y-5111499D01*
X7644339Y-5087856D01*
X7644361Y-5062256D01*
X7644361Y-5567370D01*
X7596206Y-5587268D01*
X7555913Y-5627490D01*
X7534080Y-5680070D01*
X7534030Y-5737003D01*
X7555772Y-5789621D01*
X7595994Y-5829914D01*
X7648574Y-5851747D01*
X7705507Y-5851796D01*
X7758125Y-5830055D01*
X7798418Y-5789833D01*
X7820251Y-5737253D01*
X7820300Y-5680320D01*
X7820300Y-5878543D01*
X6666954Y-5878543D01*
X6668506Y-5877506D01*
X6740506Y-5805506D01*
X6746793Y-5796098D01*
X6746793Y-5796098D01*
X6749000Y-5785000D01*
X6749000Y-5720102D01*
X6756009Y-5713106D01*
X6762493Y-5697491D01*
X6762507Y-5680583D01*
X6756051Y-5664957D01*
X6744106Y-5652991D01*
X6728491Y-5646507D01*
X6711583Y-5646493D01*
X6695957Y-5652949D01*
X6690102Y-5658794D01*
X6690102Y-5655516D01*
X6686296Y-5646327D01*
X6679263Y-5639294D01*
X6670075Y-5635488D01*
X6660129Y-5635488D01*
X6621663Y-5635488D01*
X6622493Y-5633491D01*
X6622507Y-5616583D01*
X6616051Y-5600957D01*
X6604106Y-5588991D01*
X6588491Y-5582507D01*
X6571583Y-5582493D01*
X6555957Y-5588949D01*
X6543991Y-5600894D01*
X6537507Y-5616509D01*
X6537493Y-5633417D01*
X6538894Y-5636808D01*
X6532258Y-5635488D01*
X6529946Y-5635488D01*
X6507368Y-5639979D01*
X6488227Y-5652769D01*
X6481102Y-5663432D01*
X6473977Y-5652769D01*
X6454836Y-5639979D01*
X6444898Y-5638003D01*
X6452043Y-5635051D01*
X6464009Y-5623106D01*
X6470493Y-5607491D01*
X6470507Y-5590583D01*
X6464051Y-5574957D01*
X6452106Y-5562991D01*
X6436491Y-5556507D01*
X6423645Y-5556496D01*
X6418051Y-5542957D01*
X6406106Y-5530991D01*
X6390491Y-5524507D01*
X6373583Y-5524493D01*
X6357957Y-5530949D01*
X6350894Y-5538000D01*
X6314637Y-5538000D01*
X6314637Y-5191052D01*
X6275000Y-5151414D01*
X6273586Y-5152828D01*
X6273586Y-5150000D01*
X6233948Y-5110363D01*
X6221173Y-5112129D01*
X6210778Y-5135610D01*
X6210160Y-5161282D01*
X6219413Y-5185237D01*
X6221173Y-5187871D01*
X6233948Y-5189637D01*
X6273586Y-5150000D01*
X6273586Y-5152828D01*
X6235363Y-5191052D01*
X6237129Y-5203827D01*
X6260610Y-5214222D01*
X6286282Y-5214840D01*
X6310237Y-5205587D01*
X6312871Y-5203827D01*
X6314637Y-5191052D01*
X6314637Y-5538000D01*
X6174559Y-5538000D01*
X6174559Y-5180297D01*
X6166272Y-5160240D01*
X6150940Y-5144882D01*
X6130898Y-5136559D01*
X6109197Y-5136541D01*
X6089140Y-5144828D01*
X6073782Y-5160160D01*
X6065459Y-5180202D01*
X6065441Y-5201903D01*
X6073728Y-5221960D01*
X6089060Y-5237318D01*
X6109102Y-5245641D01*
X6130803Y-5245659D01*
X6150860Y-5237372D01*
X6166218Y-5222040D01*
X6174541Y-5201998D01*
X6174559Y-5180297D01*
X6174559Y-5538000D01*
X5923107Y-5538000D01*
X5712776Y-5327669D01*
X5712776Y-4789045D01*
X5703805Y-4765855D01*
X5702136Y-4763357D01*
X5689573Y-4761841D01*
X5651414Y-4800000D01*
X5689573Y-4838159D01*
X5702136Y-4836643D01*
X5712190Y-4813902D01*
X5712776Y-4789045D01*
X5712776Y-5327669D01*
X5688159Y-5303053D01*
X5688159Y-4839573D01*
X5650000Y-4801414D01*
X5648586Y-4802828D01*
X5648586Y-4800000D01*
X5610427Y-4761841D01*
X5597864Y-4763357D01*
X5597480Y-4764228D01*
X5592527Y-4751369D01*
X5590569Y-4748438D01*
X5577331Y-4746130D01*
X5534485Y-4788976D01*
X5577331Y-4831823D01*
X5590569Y-4829515D01*
X5592618Y-4824898D01*
X5596195Y-4834145D01*
X5597864Y-4836643D01*
X5610427Y-4838159D01*
X5648586Y-4800000D01*
X5648586Y-4802828D01*
X5611841Y-4839573D01*
X5613357Y-4852136D01*
X5636098Y-4862190D01*
X5660955Y-4862776D01*
X5684145Y-4853805D01*
X5686643Y-4852136D01*
X5688159Y-4839573D01*
X5688159Y-5303053D01*
X5602393Y-5217286D01*
X5590244Y-5205138D01*
X5592061Y-5200764D01*
X5592081Y-5177292D01*
X5583118Y-5155599D01*
X5566535Y-5138988D01*
X5544858Y-5129987D01*
X5521387Y-5129966D01*
X5499722Y-5138918D01*
X5564891Y-5073749D01*
X5574645Y-5059150D01*
X5577301Y-5045799D01*
X5581232Y-5044170D01*
X5588265Y-5037138D01*
X5592071Y-5027949D01*
X5592071Y-5018004D01*
X5592071Y-4950004D01*
X5588265Y-4940815D01*
X5581232Y-4933782D01*
X5577919Y-4932410D01*
X5577331Y-4931823D01*
X5590569Y-4929515D01*
X5601705Y-4904426D01*
X5602393Y-4876984D01*
X5592527Y-4851369D01*
X5590569Y-4848438D01*
X5577331Y-4846130D01*
X5575917Y-4847544D01*
X5575917Y-4844716D01*
X5574916Y-4838976D01*
X5575917Y-4833237D01*
X5533071Y-4790391D01*
X5490225Y-4833237D01*
X5491225Y-4838976D01*
X5490225Y-4844716D01*
X5533071Y-4887562D01*
X5575917Y-4844716D01*
X5575917Y-4847544D01*
X5534485Y-4888976D01*
X5535042Y-4889533D01*
X5533628Y-4890947D01*
X5533071Y-4890391D01*
X5532514Y-4890947D01*
X5531657Y-4890090D01*
X5531100Y-4889533D01*
X5531657Y-4888976D01*
X5488810Y-4846130D01*
X5475573Y-4848438D01*
X5464436Y-4873527D01*
X5463749Y-4900968D01*
X5473615Y-4926584D01*
X5475573Y-4929515D01*
X5488810Y-4931823D01*
X5488223Y-4932410D01*
X5484910Y-4933782D01*
X5477877Y-4940815D01*
X5474071Y-4950004D01*
X5474071Y-4959949D01*
X5474071Y-5027949D01*
X5476807Y-5034554D01*
X5474570Y-5036790D01*
X5464108Y-5009542D01*
X5461911Y-5006255D01*
X5448118Y-5003296D01*
X5446704Y-5004710D01*
X5446704Y-5001882D01*
X5443745Y-4988089D01*
X5416723Y-4976061D01*
X5387155Y-4975290D01*
X5359542Y-4985892D01*
X5356255Y-4988089D01*
X5353296Y-5001882D01*
X5400000Y-5048586D01*
X5446704Y-5001882D01*
X5446704Y-5004710D01*
X5401414Y-5050000D01*
X5401971Y-5050557D01*
X5400557Y-5051971D01*
X5400000Y-5051414D01*
X5398586Y-5052828D01*
X5398586Y-5050000D01*
X5351882Y-5003296D01*
X5338089Y-5006255D01*
X5326061Y-5033277D01*
X5325290Y-5062845D01*
X5335892Y-5090458D01*
X5338089Y-5093745D01*
X5351882Y-5096704D01*
X5398586Y-5050000D01*
X5398586Y-5052828D01*
X5353296Y-5098118D01*
X5354772Y-5105000D01*
X5273963Y-5105000D01*
X5284559Y-5097694D01*
X5299072Y-5075271D01*
X5302894Y-5061694D01*
X5295142Y-5051000D01*
X5201000Y-5051000D01*
X5201000Y-5051787D01*
X5199000Y-5051787D01*
X5199000Y-5051000D01*
X5104858Y-5051000D01*
X5097106Y-5061694D01*
X5100928Y-5075271D01*
X5115441Y-5097694D01*
X5126448Y-5105283D01*
X5121380Y-5108670D01*
X5108710Y-5127632D01*
X5104260Y-5150000D01*
X5108710Y-5172368D01*
X5121380Y-5191330D01*
X5140343Y-5204001D01*
X5154536Y-5206824D01*
X5106360Y-5255000D01*
X5071671Y-5255000D01*
X5075000Y-5246962D01*
X5075000Y-5233038D01*
X5075000Y-5059750D01*
X5075000Y-5040250D01*
X5075000Y-4866962D01*
X5075000Y-4853038D01*
X5075000Y-4771962D01*
X5075000Y-4758038D01*
X5075000Y-4584750D01*
X5075000Y-4565250D01*
X5075000Y-4391962D01*
X5075000Y-4378038D01*
X5069672Y-4365174D01*
X5059826Y-4355328D01*
X5046962Y-4350000D01*
X4739750Y-4350000D01*
X4731000Y-4358750D01*
X4731000Y-4574000D01*
X5066250Y-4574000D01*
X5075000Y-4565250D01*
X5075000Y-4584750D01*
X5066250Y-4576000D01*
X4731000Y-4576000D01*
X4731000Y-4791250D01*
X4739750Y-4800000D01*
X5046962Y-4800000D01*
X5059826Y-4794672D01*
X5069672Y-4784826D01*
X5075000Y-4771962D01*
X5075000Y-4853038D01*
X5069672Y-4840174D01*
X5059826Y-4830328D01*
X5046962Y-4825000D01*
X4739750Y-4825000D01*
X4731000Y-4833750D01*
X4731000Y-5049000D01*
X5066250Y-5049000D01*
X5075000Y-5040250D01*
X5075000Y-5059750D01*
X5066250Y-5051000D01*
X4731000Y-5051000D01*
X4731000Y-5051787D01*
X4729000Y-5051787D01*
X4729000Y-5051000D01*
X4728213Y-5051000D01*
X4728213Y-5049000D01*
X4729000Y-5049000D01*
X4729000Y-4833750D01*
X4729000Y-4791250D01*
X4729000Y-4576000D01*
X4729000Y-4574000D01*
X4729000Y-4358750D01*
X4720250Y-4350000D01*
X4624710Y-4350000D01*
X4624710Y-4262155D01*
X4614108Y-4234542D01*
X4611911Y-4231255D01*
X4598118Y-4228296D01*
X4551414Y-4275000D01*
X4598118Y-4321704D01*
X4611911Y-4318745D01*
X4623939Y-4291723D01*
X4624710Y-4262155D01*
X4624710Y-4350000D01*
X4596704Y-4350000D01*
X4596704Y-4323118D01*
X4550000Y-4276414D01*
X4548586Y-4277828D01*
X4548586Y-4275000D01*
X4501882Y-4228296D01*
X4488089Y-4231255D01*
X4476061Y-4258277D01*
X4475290Y-4287845D01*
X4485892Y-4315458D01*
X4488089Y-4318745D01*
X4501882Y-4321704D01*
X4548586Y-4275000D01*
X4548586Y-4277828D01*
X4503296Y-4323118D01*
X4506255Y-4336911D01*
X4533277Y-4348939D01*
X4562845Y-4349710D01*
X4590458Y-4339108D01*
X4593745Y-4336911D01*
X4596704Y-4323118D01*
X4596704Y-4350000D01*
X4449000Y-4350000D01*
X4449000Y-4095250D01*
X4449000Y-4036000D01*
X4449000Y-4034000D01*
X4449000Y-3974750D01*
X4440250Y-3966000D01*
X4409038Y-3966000D01*
X4396174Y-3971328D01*
X4386328Y-3981174D01*
X4381000Y-3994038D01*
X4381000Y-4007962D01*
X4381000Y-4025250D01*
X4389750Y-4034000D01*
X4449000Y-4034000D01*
X4449000Y-4036000D01*
X4389750Y-4036000D01*
X4381000Y-4044750D01*
X4381000Y-4062038D01*
X4381000Y-4075962D01*
X4386328Y-4088826D01*
X4396174Y-4098672D01*
X4409038Y-4104000D01*
X4440250Y-4104000D01*
X4449000Y-4095250D01*
X4449000Y-4350000D01*
X4413038Y-4350000D01*
X4400174Y-4355328D01*
X4390328Y-4365174D01*
X4385000Y-4378038D01*
X4385000Y-4391962D01*
X4385000Y-4565250D01*
X4393750Y-4574000D01*
X4729000Y-4574000D01*
X4729000Y-4576000D01*
X4393750Y-4576000D01*
X4385000Y-4584750D01*
X4385000Y-4758038D01*
X4385000Y-4771962D01*
X4390328Y-4784826D01*
X4400174Y-4794672D01*
X4413038Y-4800000D01*
X4720250Y-4800000D01*
X4729000Y-4791250D01*
X4729000Y-4833750D01*
X4720250Y-4825000D01*
X4413038Y-4825000D01*
X4400174Y-4830328D01*
X4395000Y-4835503D01*
X4395000Y-4809800D01*
X4391575Y-4792579D01*
X4381820Y-4777980D01*
X4293280Y-4689440D01*
X4278681Y-4679685D01*
X4276993Y-4679350D01*
X4276993Y-4105517D01*
X4255252Y-4052899D01*
X4215030Y-4012606D01*
X4162450Y-3990773D01*
X4105517Y-3990723D01*
X4052899Y-4012465D01*
X4012606Y-4052687D01*
X3990773Y-4105267D01*
X3990723Y-4162200D01*
X4012465Y-4214818D01*
X4052687Y-4255110D01*
X4105267Y-4276944D01*
X4162200Y-4276993D01*
X4214818Y-4255252D01*
X4255110Y-4215030D01*
X4276944Y-4162450D01*
X4276993Y-4105517D01*
X4276993Y-4679350D01*
X4261460Y-4676260D01*
X4246572Y-4676260D01*
X4244975Y-4674660D01*
X4224768Y-4666269D01*
X4202887Y-4666250D01*
X4182665Y-4674606D01*
X4181008Y-4676260D01*
X4164135Y-4676260D01*
X4157941Y-4670066D01*
X4148752Y-4666260D01*
X4138807Y-4666260D01*
X4078807Y-4666260D01*
X4069618Y-4670066D01*
X4062586Y-4677098D01*
X4058780Y-4686287D01*
X4058780Y-4696233D01*
X4058780Y-4756233D01*
X4062586Y-4765421D01*
X4069618Y-4772454D01*
X4074581Y-4774509D01*
X4073818Y-4779884D01*
X4113780Y-4819846D01*
X4153741Y-4779884D01*
X4152978Y-4774509D01*
X4157941Y-4772454D01*
X4164135Y-4766260D01*
X4176839Y-4766260D01*
X4175638Y-4767062D01*
X4173818Y-4779884D01*
X4213780Y-4819846D01*
X4214336Y-4819289D01*
X4215751Y-4820703D01*
X4215194Y-4821260D01*
X4255156Y-4861222D01*
X4267978Y-4859401D01*
X4278448Y-4835757D01*
X4279073Y-4809906D01*
X4274422Y-4797862D01*
X4305000Y-4828440D01*
X4305000Y-5250000D01*
X4308425Y-5267221D01*
X4318180Y-5281820D01*
X4368180Y-5331820D01*
X4382779Y-5341575D01*
X4400000Y-5345000D01*
X5080000Y-5345000D01*
X5080000Y-5367843D01*
X5078782Y-5369060D01*
X5070459Y-5389102D01*
X5070441Y-5410803D01*
X5078728Y-5430860D01*
X5094060Y-5446218D01*
X5114102Y-5454541D01*
X5135803Y-5454559D01*
X5155860Y-5446272D01*
X5168718Y-5433437D01*
X5169413Y-5435237D01*
X5171173Y-5437871D01*
X5183948Y-5439637D01*
X5223586Y-5400000D01*
X5183948Y-5360363D01*
X5171173Y-5362129D01*
X5170000Y-5364779D01*
X5170000Y-5318640D01*
X5231820Y-5256820D01*
X5241575Y-5242221D01*
X5245000Y-5225000D01*
X5245000Y-5206916D01*
X5259657Y-5204001D01*
X5273128Y-5195000D01*
X5425000Y-5195000D01*
X5442221Y-5191575D01*
X5456820Y-5181820D01*
X5483050Y-5155590D01*
X5474081Y-5177189D01*
X5474061Y-5200661D01*
X5483024Y-5222354D01*
X5499606Y-5238965D01*
X5499643Y-5238980D01*
X5483082Y-5255512D01*
X5474081Y-5277189D01*
X5474061Y-5300661D01*
X5483024Y-5322354D01*
X5499606Y-5338965D01*
X5499643Y-5338980D01*
X5483082Y-5355512D01*
X5474081Y-5377189D01*
X5474061Y-5400661D01*
X5483024Y-5422354D01*
X5499606Y-5438965D01*
X5499643Y-5438980D01*
X5483082Y-5455512D01*
X5474081Y-5477189D01*
X5474061Y-5500661D01*
X5483024Y-5522354D01*
X5499606Y-5538965D01*
X5499643Y-5538980D01*
X5483082Y-5555512D01*
X5474081Y-5577189D01*
X5474061Y-5600661D01*
X5483024Y-5622354D01*
X5491647Y-5630992D01*
X5484910Y-5633782D01*
X5477877Y-5640815D01*
X5474071Y-5650004D01*
X5474071Y-5659949D01*
X5474071Y-5727949D01*
X5477877Y-5737138D01*
X5484909Y-5744170D01*
X5494098Y-5747976D01*
X5504044Y-5747976D01*
X5551059Y-5747976D01*
X5680588Y-5877506D01*
X5682141Y-5878543D01*
X5289840Y-5878543D01*
X5289840Y-5613718D01*
X5289840Y-5388718D01*
X5280587Y-5364763D01*
X5278827Y-5362129D01*
X5266052Y-5360363D01*
X5264637Y-5361777D01*
X5264637Y-5358948D01*
X5262871Y-5346173D01*
X5239390Y-5335778D01*
X5213718Y-5335160D01*
X5189763Y-5344413D01*
X5187129Y-5346173D01*
X5185363Y-5358948D01*
X5225000Y-5398586D01*
X5264637Y-5358948D01*
X5264637Y-5361777D01*
X5226414Y-5400000D01*
X5266052Y-5439637D01*
X5278827Y-5437871D01*
X5289222Y-5414390D01*
X5289840Y-5388718D01*
X5289840Y-5613718D01*
X5280587Y-5589763D01*
X5278827Y-5587129D01*
X5266052Y-5585363D01*
X5264637Y-5586777D01*
X5264637Y-5583948D01*
X5264637Y-5441052D01*
X5225000Y-5401414D01*
X5185363Y-5441052D01*
X5187129Y-5453827D01*
X5210610Y-5464222D01*
X5236282Y-5464840D01*
X5260237Y-5455587D01*
X5262871Y-5453827D01*
X5264637Y-5441052D01*
X5264637Y-5583948D01*
X5262871Y-5571173D01*
X5239390Y-5560778D01*
X5213718Y-5560160D01*
X5189763Y-5569413D01*
X5187129Y-5571173D01*
X5185363Y-5583948D01*
X5225000Y-5623586D01*
X5264637Y-5583948D01*
X5264637Y-5586777D01*
X5226414Y-5625000D01*
X5266052Y-5664637D01*
X5278827Y-5662871D01*
X5289222Y-5639390D01*
X5289840Y-5613718D01*
X5289840Y-5878543D01*
X5279559Y-5878543D01*
X5279559Y-5714197D01*
X5271272Y-5694140D01*
X5258437Y-5681282D01*
X5260237Y-5680587D01*
X5262871Y-5678827D01*
X5264637Y-5666052D01*
X5225000Y-5626414D01*
X5223586Y-5627828D01*
X5223586Y-5625000D01*
X5183948Y-5585363D01*
X5171173Y-5587129D01*
X5160778Y-5610610D01*
X5160160Y-5636282D01*
X5169413Y-5660237D01*
X5171173Y-5662871D01*
X5183948Y-5664637D01*
X5223586Y-5625000D01*
X5223586Y-5627828D01*
X5185363Y-5666052D01*
X5187129Y-5678827D01*
X5189779Y-5680000D01*
X5127509Y-5680000D01*
X5127509Y-5514603D01*
X5119533Y-5495300D01*
X5104778Y-5480519D01*
X5085489Y-5472509D01*
X5064603Y-5472491D01*
X5045300Y-5480467D01*
X5030519Y-5495222D01*
X5024996Y-5508521D01*
X5019533Y-5495300D01*
X5004778Y-5480519D01*
X4985489Y-5472509D01*
X4964603Y-5472491D01*
X4963825Y-5472812D01*
X4895506Y-5404494D01*
X4886098Y-5398207D01*
X4875000Y-5396000D01*
X4707644Y-5396000D01*
X4704585Y-5388596D01*
X4686499Y-5370479D01*
X4662856Y-5360661D01*
X4637256Y-5360639D01*
X4613596Y-5370415D01*
X4595479Y-5388501D01*
X4585661Y-5412144D01*
X4585639Y-5437744D01*
X4595415Y-5461404D01*
X4613501Y-5479521D01*
X4637144Y-5489339D01*
X4662744Y-5489361D01*
X4686404Y-5479585D01*
X4704521Y-5461499D01*
X4707635Y-5454000D01*
X4862988Y-5454000D01*
X4881493Y-5472506D01*
X4864603Y-5472491D01*
X4845300Y-5480467D01*
X4830519Y-5495222D01*
X4830506Y-5495253D01*
X4828805Y-5490855D01*
X4827136Y-5488357D01*
X4814573Y-5486841D01*
X4813159Y-5488255D01*
X4813159Y-5485427D01*
X4811643Y-5472864D01*
X4788902Y-5462810D01*
X4764045Y-5462224D01*
X4740855Y-5471195D01*
X4738357Y-5472864D01*
X4736841Y-5485427D01*
X4775000Y-5523586D01*
X4813159Y-5485427D01*
X4813159Y-5488255D01*
X4776414Y-5525000D01*
X4776971Y-5525557D01*
X4775557Y-5526971D01*
X4775000Y-5526414D01*
X4774443Y-5526971D01*
X4773586Y-5526114D01*
X4773029Y-5525557D01*
X4773586Y-5525000D01*
X4735427Y-5486841D01*
X4722864Y-5488357D01*
X4712810Y-5511098D01*
X4712224Y-5535955D01*
X4721195Y-5559145D01*
X4722864Y-5561643D01*
X4735426Y-5563159D01*
X4732586Y-5566000D01*
X4551856Y-5566000D01*
X4550047Y-5561623D01*
X4533464Y-5545011D01*
X4533428Y-5544996D01*
X4549989Y-5528464D01*
X4558990Y-5506787D01*
X4559010Y-5483316D01*
X4550047Y-5461623D01*
X4533464Y-5445011D01*
X4511787Y-5436010D01*
X4488316Y-5435990D01*
X4466623Y-5444953D01*
X4450011Y-5461536D01*
X4441010Y-5483213D01*
X4440990Y-5506684D01*
X4449953Y-5528377D01*
X4466536Y-5544989D01*
X4466572Y-5545004D01*
X4450011Y-5561536D01*
X4441010Y-5583213D01*
X4440990Y-5606684D01*
X4449953Y-5628377D01*
X4458576Y-5637015D01*
X4451839Y-5639806D01*
X4444806Y-5646839D01*
X4441000Y-5656027D01*
X4441000Y-5665973D01*
X4441000Y-5733973D01*
X4444806Y-5743161D01*
X4451839Y-5750194D01*
X4461027Y-5754000D01*
X4470973Y-5754000D01*
X4538973Y-5754000D01*
X4548161Y-5750194D01*
X4555194Y-5743161D01*
X4559000Y-5733973D01*
X4559000Y-5724027D01*
X4559000Y-5656027D01*
X4555194Y-5646839D01*
X4548161Y-5639806D01*
X4541423Y-5637015D01*
X4549989Y-5628464D01*
X4551842Y-5624000D01*
X4805000Y-5624000D01*
X4816098Y-5621793D01*
X4825506Y-5615506D01*
X4863812Y-5577200D01*
X4864511Y-5577491D01*
X4885397Y-5577509D01*
X4904700Y-5569533D01*
X4919481Y-5554778D01*
X4925004Y-5541478D01*
X4930467Y-5554700D01*
X4945222Y-5569481D01*
X4964511Y-5577491D01*
X4985397Y-5577509D01*
X5004700Y-5569533D01*
X5019481Y-5554778D01*
X5025004Y-5541478D01*
X5030467Y-5554700D01*
X5045222Y-5569481D01*
X5064511Y-5577491D01*
X5085397Y-5577509D01*
X5104700Y-5569533D01*
X5119481Y-5554778D01*
X5127491Y-5535489D01*
X5127509Y-5514603D01*
X5127509Y-5680000D01*
X5075000Y-5680000D01*
X5057779Y-5683425D01*
X5043180Y-5693180D01*
X4963353Y-5773007D01*
X4945300Y-5780467D01*
X4930519Y-5795222D01*
X4930506Y-5795253D01*
X4928805Y-5790855D01*
X4927136Y-5788357D01*
X4914573Y-5786841D01*
X4913159Y-5788255D01*
X4913159Y-5785427D01*
X4911643Y-5772864D01*
X4888902Y-5762810D01*
X4864045Y-5762224D01*
X4840855Y-5771195D01*
X4838357Y-5772864D01*
X4836841Y-5785427D01*
X4875000Y-5823586D01*
X4913159Y-5785427D01*
X4913159Y-5788255D01*
X4876414Y-5825000D01*
X4914573Y-5863159D01*
X4927136Y-5861643D01*
X4930340Y-5854394D01*
X4930467Y-5854700D01*
X4945222Y-5869481D01*
X4964511Y-5877491D01*
X4985397Y-5877509D01*
X5004700Y-5869533D01*
X5019481Y-5854778D01*
X5025004Y-5841478D01*
X5030467Y-5854700D01*
X5045222Y-5869481D01*
X5064511Y-5877491D01*
X5085397Y-5877509D01*
X5104700Y-5869533D01*
X5119481Y-5854778D01*
X5127491Y-5835489D01*
X5127509Y-5814603D01*
X5119533Y-5795300D01*
X5104778Y-5780519D01*
X5089475Y-5774164D01*
X5093640Y-5770000D01*
X5192843Y-5770000D01*
X5194060Y-5771218D01*
X5214102Y-5779541D01*
X5235803Y-5779559D01*
X5255860Y-5771272D01*
X5271218Y-5755940D01*
X5279541Y-5735898D01*
X5279559Y-5714197D01*
X5279559Y-5878543D01*
X4909536Y-5878543D01*
X4911643Y-5877136D01*
X4913159Y-5864573D01*
X4875000Y-5826414D01*
X4873586Y-5827828D01*
X4873586Y-5825000D01*
X4835427Y-5786841D01*
X4825634Y-5788023D01*
X4823694Y-5783339D01*
X4816661Y-5776306D01*
X4807473Y-5772500D01*
X4797527Y-5772500D01*
X4742527Y-5772500D01*
X4733339Y-5776306D01*
X4726306Y-5783339D01*
X4722500Y-5792527D01*
X4722500Y-5802473D01*
X4722500Y-5857473D01*
X4726306Y-5866661D01*
X4733339Y-5873694D01*
X4742527Y-5877500D01*
X4752473Y-5877500D01*
X4807473Y-5877500D01*
X4816661Y-5873694D01*
X4823694Y-5866661D01*
X4825634Y-5861977D01*
X4835427Y-5863159D01*
X4873586Y-5825000D01*
X4873586Y-5827828D01*
X4836841Y-5864573D01*
X4838357Y-5877136D01*
X4841541Y-5878543D01*
X4687447Y-5878543D01*
X4704521Y-5861499D01*
X4714339Y-5837856D01*
X4714361Y-5812256D01*
X4704585Y-5788596D01*
X4686499Y-5770479D01*
X4662856Y-5760661D01*
X4637256Y-5760639D01*
X4613596Y-5770415D01*
X4595479Y-5788501D01*
X4585661Y-5812144D01*
X4585639Y-5837744D01*
X4595415Y-5861404D01*
X4612525Y-5878543D01*
X4276993Y-5878543D01*
X4276993Y-5680320D01*
X4268789Y-5660464D01*
X4268789Y-5110368D01*
X4260433Y-5090146D01*
X4244975Y-5074660D01*
X4236791Y-5071262D01*
X4244894Y-5067914D01*
X4260379Y-5052456D01*
X4268770Y-5032248D01*
X4268789Y-5010368D01*
X4260433Y-4990146D01*
X4244975Y-4974660D01*
X4236791Y-4971262D01*
X4244894Y-4967914D01*
X4260379Y-4952456D01*
X4268770Y-4932248D01*
X4268789Y-4910368D01*
X4260433Y-4890146D01*
X4248024Y-4877714D01*
X4249256Y-4877238D01*
X4251921Y-4875458D01*
X4253741Y-4862636D01*
X4213780Y-4822674D01*
X4212365Y-4824088D01*
X4212365Y-4821260D01*
X4172403Y-4781298D01*
X4163780Y-4782523D01*
X4155156Y-4781298D01*
X4115194Y-4821260D01*
X4155156Y-4861222D01*
X4163780Y-4859997D01*
X4172403Y-4861222D01*
X4212365Y-4821260D01*
X4212365Y-4824088D01*
X4173818Y-4862636D01*
X4175638Y-4875458D01*
X4179915Y-4877352D01*
X4167180Y-4890064D01*
X4163781Y-4898249D01*
X4160433Y-4890146D01*
X4148024Y-4877714D01*
X4149256Y-4877238D01*
X4151921Y-4875458D01*
X4153741Y-4862636D01*
X4113780Y-4822674D01*
X4112365Y-4824088D01*
X4112365Y-4821260D01*
X4072403Y-4781298D01*
X4059582Y-4783119D01*
X4049111Y-4806763D01*
X4048486Y-4832614D01*
X4057801Y-4856736D01*
X4059582Y-4859401D01*
X4072403Y-4861222D01*
X4112365Y-4821260D01*
X4112365Y-4824088D01*
X4073818Y-4862636D01*
X4075638Y-4875458D01*
X4079915Y-4877352D01*
X4067180Y-4890064D01*
X4058789Y-4910272D01*
X4058770Y-4932152D01*
X4067126Y-4952374D01*
X4082584Y-4967859D01*
X4090768Y-4971258D01*
X4082665Y-4974606D01*
X4067180Y-4990064D01*
X4058789Y-5010272D01*
X4058770Y-5032152D01*
X4067126Y-5052374D01*
X4082584Y-5067859D01*
X4090768Y-5071258D01*
X4082665Y-5074606D01*
X4067180Y-5090064D01*
X4058789Y-5110272D01*
X4058770Y-5132152D01*
X4067126Y-5152374D01*
X4082584Y-5167859D01*
X4102791Y-5176250D01*
X4124672Y-5176269D01*
X4144894Y-5167914D01*
X4160379Y-5152456D01*
X4161291Y-5150260D01*
X4166252Y-5150260D01*
X4167126Y-5152374D01*
X4182584Y-5167859D01*
X4202791Y-5176250D01*
X4224672Y-5176269D01*
X4244894Y-5167914D01*
X4260379Y-5152456D01*
X4268770Y-5132248D01*
X4268789Y-5110368D01*
X4268789Y-5660464D01*
X4255252Y-5627702D01*
X4215030Y-5587409D01*
X4162450Y-5565576D01*
X4105517Y-5565526D01*
X4052899Y-5587268D01*
X4012606Y-5627490D01*
X3990773Y-5680070D01*
X3990723Y-5737003D01*
X4012465Y-5789621D01*
X4052687Y-5829914D01*
X4105267Y-5851747D01*
X4162200Y-5851796D01*
X4214818Y-5830055D01*
X4255110Y-5789833D01*
X4276944Y-5737253D01*
X4276993Y-5680320D01*
X4276993Y-5878543D01*
X3963976Y-5878543D01*
X3963976Y-3963976D01*
X5828837Y-3963976D01*
X5814763Y-3969413D01*
X5812129Y-3971173D01*
X5810363Y-3983948D01*
X5850000Y-4023586D01*
X5889637Y-3983948D01*
X5887871Y-3971173D01*
X5871615Y-3963976D01*
X6079179Y-3963976D01*
X6063596Y-3970415D01*
X6045479Y-3988501D01*
X6035661Y-4012144D01*
X6035639Y-4037744D01*
X6045415Y-4061404D01*
X6063501Y-4079521D01*
X6080307Y-4086500D01*
X5914840Y-4086500D01*
X5914840Y-4013718D01*
X5905587Y-3989763D01*
X5903827Y-3987129D01*
X5891052Y-3985363D01*
X5851414Y-4025000D01*
X5891052Y-4064637D01*
X5903827Y-4062871D01*
X5914222Y-4039390D01*
X5914840Y-4013718D01*
X5914840Y-4086500D01*
X5869930Y-4086500D01*
X5885237Y-4080587D01*
X5887871Y-4078827D01*
X5889637Y-4066052D01*
X5850000Y-4026414D01*
X5810363Y-4066052D01*
X5812129Y-4078827D01*
X5829461Y-4086500D01*
X5539494Y-4086500D01*
X5546006Y-4080000D01*
X5600000Y-4080000D01*
X5617221Y-4076575D01*
X5627060Y-4070000D01*
X5717843Y-4070000D01*
X5719060Y-4071218D01*
X5739102Y-4079541D01*
X5760803Y-4079559D01*
X5780860Y-4071272D01*
X5793718Y-4058437D01*
X5794413Y-4060237D01*
X5796173Y-4062871D01*
X5808948Y-4064637D01*
X5848586Y-4025000D01*
X5808948Y-3985363D01*
X5796173Y-3987129D01*
X5794053Y-3991917D01*
X5780940Y-3978782D01*
X5760898Y-3970459D01*
X5739197Y-3970441D01*
X5719140Y-3978728D01*
X5717866Y-3980000D01*
X5610000Y-3980000D01*
X5592779Y-3983425D01*
X5582940Y-3990000D01*
X5546004Y-3990000D01*
X5536499Y-3980479D01*
X5512856Y-3970661D01*
X5487256Y-3970639D01*
X5463596Y-3980415D01*
X5445479Y-3998501D01*
X5435661Y-4022144D01*
X5435639Y-4047744D01*
X5445415Y-4071404D01*
X5460485Y-4086500D01*
X5139494Y-4086500D01*
X5154521Y-4071499D01*
X5164339Y-4047856D01*
X5164361Y-4022256D01*
X5154585Y-3998596D01*
X5136499Y-3980479D01*
X5112856Y-3970661D01*
X5087256Y-3970639D01*
X5063596Y-3980415D01*
X5045479Y-3998501D01*
X5042365Y-4006000D01*
X5001856Y-4006000D01*
X5000047Y-4001623D01*
X4983464Y-3985011D01*
X4961787Y-3976010D01*
X4938316Y-3975990D01*
X4916623Y-3984953D01*
X4900011Y-4001536D01*
X4899996Y-4001572D01*
X4883464Y-3985011D01*
X4861787Y-3976010D01*
X4838316Y-3975990D01*
X4816623Y-3984953D01*
X4800011Y-4001536D01*
X4799996Y-4001572D01*
X4783464Y-3985011D01*
X4761787Y-3976010D01*
X4738316Y-3975990D01*
X4716623Y-3984953D01*
X4700011Y-4001536D01*
X4699996Y-4001572D01*
X4683464Y-3985011D01*
X4661787Y-3976010D01*
X4638316Y-3975990D01*
X4616623Y-3984953D01*
X4600011Y-4001536D01*
X4599996Y-4001572D01*
X4583464Y-3985011D01*
X4561787Y-3976010D01*
X4538316Y-3975990D01*
X4516623Y-3984953D01*
X4515642Y-3985932D01*
X4513672Y-3981174D01*
X4503826Y-3971328D01*
X4490962Y-3966000D01*
X4459750Y-3966000D01*
X4451000Y-3974750D01*
X4451000Y-4034000D01*
X4451787Y-4034000D01*
X4451787Y-4036000D01*
X4451000Y-4036000D01*
X4451000Y-4095250D01*
X4459750Y-4104000D01*
X4490962Y-4104000D01*
X4503826Y-4098672D01*
X4513672Y-4088826D01*
X4515635Y-4084086D01*
X4516536Y-4084989D01*
X4527655Y-4089606D01*
X4513596Y-4095415D01*
X4495479Y-4113501D01*
X4485661Y-4137144D01*
X4485639Y-4162744D01*
X4495415Y-4186404D01*
X4513501Y-4204521D01*
X4519570Y-4207042D01*
X4509542Y-4210892D01*
X4506255Y-4213089D01*
X4503296Y-4226882D01*
X4550000Y-4273586D01*
X4596704Y-4226882D01*
X4593745Y-4213089D01*
X4580303Y-4207106D01*
X4586404Y-4204585D01*
X4604521Y-4186499D01*
X4607635Y-4179000D01*
X4812988Y-4179000D01*
X4888733Y-4254745D01*
X4885661Y-4262144D01*
X4885639Y-4287744D01*
X4895415Y-4311404D01*
X4913501Y-4329521D01*
X4937144Y-4339339D01*
X4962744Y-4339361D01*
X4986404Y-4329585D01*
X5004521Y-4311499D01*
X5014339Y-4287856D01*
X5014361Y-4262256D01*
X5005991Y-4242000D01*
X5042000Y-4242000D01*
X5053098Y-4239793D01*
X5062506Y-4233506D01*
X5114012Y-4182000D01*
X5130586Y-4182000D01*
X5133948Y-4185363D01*
X5121173Y-4187129D01*
X5110778Y-4210610D01*
X5110160Y-4236282D01*
X5119413Y-4260237D01*
X5121173Y-4262871D01*
X5133948Y-4264637D01*
X5173586Y-4225000D01*
X5173029Y-4224443D01*
X5174443Y-4223029D01*
X5175000Y-4223586D01*
X5175557Y-4223029D01*
X5176971Y-4224443D01*
X5176414Y-4225000D01*
X5216052Y-4264637D01*
X5228827Y-4262871D01*
X5230947Y-4258083D01*
X5244060Y-4271218D01*
X5264102Y-4279541D01*
X5285803Y-4279559D01*
X5305860Y-4271272D01*
X5321218Y-4255940D01*
X5329541Y-4235898D01*
X5329559Y-4214197D01*
X5327711Y-4209723D01*
X5489494Y-4371506D01*
X5498902Y-4377793D01*
X5498902Y-4377793D01*
X5510000Y-4380000D01*
X5601459Y-4380000D01*
X5597509Y-4389511D01*
X5597491Y-4410397D01*
X5602285Y-4422000D01*
X5571047Y-4422000D01*
X5559949Y-4424207D01*
X5550541Y-4430494D01*
X5549232Y-4431803D01*
X5544858Y-4429987D01*
X5521387Y-4429966D01*
X5499694Y-4438929D01*
X5483082Y-4455512D01*
X5482834Y-4456110D01*
X5482793Y-4455902D01*
X5476506Y-4446494D01*
X5444213Y-4414200D01*
X5453827Y-4412871D01*
X5464222Y-4389390D01*
X5464840Y-4363718D01*
X5455587Y-4339763D01*
X5453827Y-4337129D01*
X5441052Y-4335363D01*
X5439637Y-4336777D01*
X5439637Y-4333948D01*
X5437871Y-4321173D01*
X5414390Y-4310778D01*
X5388718Y-4310160D01*
X5364763Y-4319413D01*
X5362129Y-4321173D01*
X5360363Y-4333948D01*
X5400000Y-4373586D01*
X5439637Y-4333948D01*
X5439637Y-4336777D01*
X5401414Y-4375000D01*
X5401971Y-4375557D01*
X5400557Y-4376971D01*
X5400000Y-4376414D01*
X5399443Y-4376971D01*
X5398029Y-4375557D01*
X5398586Y-4375000D01*
X5358948Y-4335363D01*
X5346173Y-4337129D01*
X5335778Y-4360610D01*
X5335280Y-4381268D01*
X5242506Y-4288494D01*
X5233098Y-4282207D01*
X5222000Y-4280000D01*
X5211116Y-4280000D01*
X5212871Y-4278827D01*
X5214637Y-4266052D01*
X5175000Y-4226414D01*
X5173586Y-4227828D01*
X5135363Y-4266052D01*
X5137129Y-4278827D01*
X5139779Y-4280000D01*
X5131102Y-4280000D01*
X5124106Y-4272991D01*
X5108491Y-4266507D01*
X5091583Y-4266493D01*
X5075957Y-4272949D01*
X5063991Y-4284894D01*
X5057507Y-4300509D01*
X5057493Y-4317417D01*
X5063949Y-4333043D01*
X5075894Y-4345009D01*
X5091509Y-4351493D01*
X5108417Y-4351507D01*
X5124043Y-4345051D01*
X5131106Y-4338000D01*
X5209988Y-4338000D01*
X5317494Y-4445506D01*
X5326902Y-4451793D01*
X5326902Y-4451793D01*
X5338000Y-4454000D01*
X5349654Y-4454000D01*
X5345459Y-4464102D01*
X5345444Y-4481804D01*
X5306820Y-4443180D01*
X5292221Y-4433425D01*
X5275000Y-4430000D01*
X5273128Y-4430000D01*
X5259657Y-4420999D01*
X5237290Y-4416550D01*
X5162710Y-4416550D01*
X5140343Y-4420999D01*
X5121380Y-4433670D01*
X5108710Y-4452632D01*
X5104260Y-4475000D01*
X5108710Y-4497368D01*
X5121380Y-4516330D01*
X5126448Y-4519717D01*
X5115441Y-4527306D01*
X5100928Y-4549729D01*
X5097106Y-4563306D01*
X5104858Y-4574000D01*
X5199000Y-4574000D01*
X5199000Y-4573213D01*
X5201000Y-4573213D01*
X5201000Y-4574000D01*
X5295142Y-4574000D01*
X5301537Y-4565177D01*
X5343180Y-4606820D01*
X5348566Y-4610419D01*
X5345479Y-4613501D01*
X5335661Y-4637144D01*
X5335639Y-4662744D01*
X5345415Y-4686404D01*
X5363501Y-4704521D01*
X5387144Y-4714339D01*
X5412744Y-4714361D01*
X5436404Y-4704585D01*
X5454521Y-4686499D01*
X5464339Y-4662856D01*
X5464361Y-4637256D01*
X5457231Y-4620000D01*
X5482051Y-4620000D01*
X5483024Y-4622354D01*
X5499606Y-4638965D01*
X5499643Y-4638980D01*
X5483082Y-4655512D01*
X5474081Y-4677189D01*
X5474075Y-4684333D01*
X5329547Y-4828861D01*
X5329559Y-4814197D01*
X5321272Y-4794140D01*
X5305940Y-4778782D01*
X5302894Y-4777517D01*
X5302894Y-4586694D01*
X5295142Y-4576000D01*
X5201000Y-4576000D01*
X5201000Y-4576787D01*
X5199000Y-4576787D01*
X5199000Y-4576000D01*
X5104858Y-4576000D01*
X5097106Y-4586694D01*
X5100928Y-4600271D01*
X5115441Y-4622694D01*
X5126448Y-4630283D01*
X5121380Y-4633670D01*
X5108710Y-4652632D01*
X5104260Y-4675000D01*
X5108710Y-4697368D01*
X5121380Y-4716330D01*
X5140343Y-4729001D01*
X5162710Y-4733450D01*
X5237290Y-4733450D01*
X5259657Y-4729001D01*
X5278620Y-4716330D01*
X5291290Y-4697368D01*
X5295740Y-4675000D01*
X5291290Y-4652632D01*
X5278620Y-4633670D01*
X5273552Y-4630283D01*
X5284559Y-4622694D01*
X5299072Y-4600271D01*
X5302894Y-4586694D01*
X5302894Y-4777517D01*
X5285898Y-4770459D01*
X5264197Y-4770441D01*
X5244140Y-4778728D01*
X5228782Y-4794060D01*
X5225001Y-4803165D01*
X5221272Y-4794140D01*
X5205940Y-4778782D01*
X5185898Y-4770459D01*
X5164197Y-4770441D01*
X5144140Y-4778728D01*
X5128782Y-4794060D01*
X5120459Y-4814102D01*
X5120441Y-4835803D01*
X5128728Y-4855860D01*
X5144060Y-4871218D01*
X5164102Y-4879541D01*
X5185803Y-4879559D01*
X5205860Y-4871272D01*
X5221218Y-4855940D01*
X5224999Y-4846835D01*
X5228728Y-4855860D01*
X5244060Y-4871218D01*
X5264102Y-4879541D01*
X5278854Y-4879553D01*
X5261306Y-4897101D01*
X5259657Y-4895999D01*
X5237290Y-4891550D01*
X5162710Y-4891550D01*
X5140343Y-4895999D01*
X5121380Y-4908670D01*
X5108710Y-4927632D01*
X5104260Y-4950000D01*
X5108710Y-4972368D01*
X5121380Y-4991330D01*
X5126448Y-4994717D01*
X5115441Y-5002306D01*
X5100928Y-5024729D01*
X5097106Y-5038306D01*
X5104858Y-5049000D01*
X5199000Y-5049000D01*
X5199000Y-5048213D01*
X5201000Y-5048213D01*
X5201000Y-5049000D01*
X5295142Y-5049000D01*
X5302894Y-5038306D01*
X5299072Y-5024729D01*
X5284559Y-5002306D01*
X5273552Y-4994717D01*
X5273586Y-4994694D01*
X5289268Y-4991575D01*
X5303867Y-4981820D01*
X5469580Y-4816107D01*
X5473615Y-4826584D01*
X5475573Y-4829515D01*
X5488810Y-4831823D01*
X5531657Y-4788976D01*
X5531100Y-4788420D01*
X5532514Y-4787005D01*
X5533071Y-4787562D01*
X5575917Y-4744716D01*
X5573668Y-4731816D01*
X5583059Y-4722441D01*
X5592061Y-4700764D01*
X5592081Y-4677292D01*
X5583118Y-4655599D01*
X5566535Y-4638988D01*
X5566499Y-4638973D01*
X5583059Y-4622441D01*
X5592061Y-4600764D01*
X5592080Y-4578425D01*
X5600000Y-4580000D01*
X5601459Y-4580000D01*
X5597509Y-4589511D01*
X5597491Y-4610397D01*
X5605467Y-4629700D01*
X5620222Y-4644481D01*
X5633521Y-4650004D01*
X5620300Y-4655467D01*
X5605519Y-4670222D01*
X5597509Y-4689511D01*
X5597491Y-4710397D01*
X5605467Y-4729700D01*
X5620222Y-4744481D01*
X5620253Y-4744494D01*
X5615855Y-4746195D01*
X5613357Y-4747864D01*
X5611841Y-4760427D01*
X5650000Y-4798586D01*
X5688159Y-4760427D01*
X5686643Y-4747864D01*
X5679394Y-4744660D01*
X5679700Y-4744533D01*
X5694481Y-4729778D01*
X5702491Y-4710489D01*
X5702509Y-4689603D01*
X5694533Y-4670300D01*
X5679778Y-4655519D01*
X5666478Y-4649996D01*
X5679700Y-4644533D01*
X5694481Y-4629778D01*
X5702491Y-4610489D01*
X5702509Y-4589603D01*
X5701747Y-4587760D01*
X5734494Y-4620506D01*
X5743902Y-4626793D01*
X5755000Y-4629000D01*
X5904988Y-4629000D01*
X5883494Y-4650494D01*
X5877207Y-4659902D01*
X5875000Y-4671000D01*
X5875000Y-4754000D01*
X5877207Y-4765098D01*
X5883494Y-4774506D01*
X5897800Y-4788812D01*
X5897509Y-4789511D01*
X5897491Y-4810397D01*
X5905467Y-4829700D01*
X5920222Y-4844481D01*
X5939511Y-4852491D01*
X5960397Y-4852509D01*
X5979700Y-4844533D01*
X5994481Y-4829778D01*
X6001661Y-4812487D01*
X6007779Y-4816575D01*
X6025000Y-4820000D01*
X6160000Y-4820000D01*
X6177221Y-4816575D01*
X6191820Y-4806820D01*
X6203640Y-4795000D01*
X6238884Y-4795000D01*
X6237129Y-4796173D01*
X6235363Y-4808948D01*
X6275000Y-4848586D01*
X6314637Y-4808948D01*
X6312871Y-4796173D01*
X6310221Y-4795000D01*
X6343945Y-4795000D01*
X6340855Y-4796195D01*
X6338357Y-4797864D01*
X6336841Y-4810427D01*
X6375000Y-4848586D01*
X6413159Y-4810427D01*
X6411643Y-4797864D01*
X6405164Y-4795000D01*
X6416360Y-4795000D01*
X6603180Y-4981820D01*
X6617779Y-4991575D01*
X6635000Y-4995000D01*
X6646471Y-4995000D01*
X6658521Y-5000004D01*
X6645300Y-5005467D01*
X6630519Y-5020222D01*
X6630196Y-5021000D01*
X6584101Y-5021000D01*
X6576106Y-5012991D01*
X6560491Y-5006507D01*
X6543583Y-5006493D01*
X6527957Y-5012949D01*
X6515991Y-5024894D01*
X6509507Y-5040509D01*
X6509493Y-5057417D01*
X6515949Y-5073043D01*
X6527894Y-5085009D01*
X6543509Y-5091493D01*
X6560417Y-5091507D01*
X6576043Y-5085051D01*
X6582104Y-5079000D01*
X6630177Y-5079000D01*
X6630467Y-5079700D01*
X6645222Y-5094481D01*
X6658521Y-5100004D01*
X6645300Y-5105467D01*
X6630519Y-5120222D01*
X6622509Y-5139511D01*
X6622491Y-5160397D01*
X6627285Y-5172000D01*
X6438012Y-5172000D01*
X6437776Y-5171764D01*
X6437776Y-4839045D01*
X6428805Y-4815855D01*
X6427136Y-4813357D01*
X6414573Y-4811841D01*
X6376414Y-4850000D01*
X6414573Y-4888159D01*
X6427136Y-4886643D01*
X6437190Y-4863902D01*
X6437776Y-4839045D01*
X6437776Y-5171764D01*
X6427200Y-5161188D01*
X6427491Y-5160489D01*
X6427509Y-5139603D01*
X6419533Y-5120300D01*
X6404778Y-5105519D01*
X6391478Y-5099996D01*
X6404700Y-5094533D01*
X6419481Y-5079778D01*
X6427491Y-5060489D01*
X6427509Y-5039603D01*
X6419533Y-5020300D01*
X6404778Y-5005519D01*
X6391478Y-4999996D01*
X6404700Y-4994533D01*
X6419481Y-4979778D01*
X6427491Y-4960489D01*
X6427509Y-4939603D01*
X6419533Y-4920300D01*
X6404778Y-4905519D01*
X6404747Y-4905506D01*
X6409145Y-4903805D01*
X6411643Y-4902136D01*
X6413159Y-4889573D01*
X6375000Y-4851414D01*
X6373586Y-4852828D01*
X6373586Y-4850000D01*
X6335427Y-4811841D01*
X6329141Y-4812599D01*
X6328827Y-4812129D01*
X6316052Y-4810363D01*
X6276414Y-4850000D01*
X6316052Y-4889637D01*
X6328827Y-4887871D01*
X6329041Y-4887388D01*
X6335427Y-4888159D01*
X6373586Y-4850000D01*
X6373586Y-4852828D01*
X6336841Y-4889573D01*
X6338357Y-4902136D01*
X6345606Y-4905340D01*
X6345300Y-4905467D01*
X6330519Y-4920222D01*
X6330196Y-4921000D01*
X6322041Y-4921000D01*
X6321272Y-4919140D01*
X6308437Y-4906282D01*
X6310237Y-4905587D01*
X6312871Y-4903827D01*
X6314637Y-4891052D01*
X6275000Y-4851414D01*
X6273586Y-4852828D01*
X6273586Y-4850000D01*
X6233948Y-4810363D01*
X6221173Y-4812129D01*
X6210778Y-4835610D01*
X6210160Y-4861282D01*
X6219413Y-4885237D01*
X6221173Y-4887871D01*
X6233948Y-4889637D01*
X6273586Y-4850000D01*
X6273586Y-4852828D01*
X6235363Y-4891052D01*
X6237129Y-4903827D01*
X6241917Y-4905947D01*
X6228782Y-4919060D01*
X6227976Y-4921000D01*
X6168900Y-4921000D01*
X6157802Y-4923207D01*
X6148394Y-4929494D01*
X6132757Y-4945131D01*
X6130898Y-4944359D01*
X6109197Y-4944341D01*
X6089140Y-4952628D01*
X6073782Y-4967960D01*
X6065459Y-4988002D01*
X6065441Y-5009703D01*
X6073728Y-5029760D01*
X6089060Y-5045118D01*
X6109102Y-5053441D01*
X6130803Y-5053459D01*
X6150860Y-5045172D01*
X6166218Y-5029840D01*
X6174541Y-5009798D01*
X6174559Y-4988097D01*
X6173757Y-4986155D01*
X6180912Y-4979000D01*
X6227959Y-4979000D01*
X6228728Y-4980860D01*
X6244060Y-4996218D01*
X6253165Y-4999999D01*
X6244140Y-5003728D01*
X6228782Y-5019060D01*
X6220459Y-5039102D01*
X6220441Y-5060803D01*
X6228728Y-5080860D01*
X6241563Y-5093718D01*
X6239763Y-5094413D01*
X6237129Y-5096173D01*
X6235363Y-5108948D01*
X6275000Y-5148586D01*
X6314637Y-5108948D01*
X6312871Y-5096173D01*
X6308083Y-5094053D01*
X6321218Y-5080940D01*
X6322024Y-5079000D01*
X6330177Y-5079000D01*
X6330467Y-5079700D01*
X6345222Y-5094481D01*
X6358521Y-5100004D01*
X6345300Y-5105467D01*
X6332090Y-5118654D01*
X6330587Y-5114763D01*
X6328827Y-5112129D01*
X6316052Y-5110363D01*
X6276414Y-5150000D01*
X6316052Y-5189637D01*
X6328827Y-5187871D01*
X6331837Y-5181072D01*
X6345222Y-5194481D01*
X6358521Y-5200004D01*
X6345300Y-5205467D01*
X6330519Y-5220222D01*
X6322509Y-5239511D01*
X6322491Y-5260397D01*
X6330467Y-5279700D01*
X6345222Y-5294481D01*
X6358521Y-5300004D01*
X6345300Y-5305467D01*
X6330519Y-5320222D01*
X6322509Y-5339511D01*
X6322491Y-5360397D01*
X6330467Y-5379700D01*
X6345222Y-5394481D01*
X6358521Y-5400004D01*
X6345300Y-5405467D01*
X6330519Y-5420222D01*
X6322509Y-5439511D01*
X6322491Y-5460397D01*
X6330467Y-5479700D01*
X6345222Y-5494481D01*
X6364511Y-5502491D01*
X6385397Y-5502509D01*
X6404700Y-5494533D01*
X6419481Y-5479778D01*
X6419804Y-5479000D01*
X6568988Y-5479000D01*
X6605494Y-5515506D01*
X6614902Y-5521793D01*
X6626000Y-5524000D01*
X6931380Y-5524000D01*
X6929507Y-5528509D01*
X6929493Y-5545417D01*
X6935949Y-5561043D01*
X6947894Y-5573009D01*
X6963509Y-5579493D01*
X6980417Y-5579507D01*
X6996043Y-5573051D01*
X7003106Y-5566000D01*
X7378727Y-5566000D01*
X7374081Y-5577189D01*
X7374061Y-5600661D01*
X7383024Y-5622354D01*
X7391647Y-5630992D01*
X7384910Y-5633782D01*
X7377877Y-5640815D01*
X7374071Y-5650004D01*
X7374071Y-5659949D01*
X7374071Y-5727949D01*
X7377877Y-5737138D01*
X7384909Y-5744170D01*
X7394098Y-5747976D01*
X7404044Y-5747976D01*
X7472044Y-5747976D01*
X7481232Y-5744170D01*
X7488265Y-5737138D01*
X7492071Y-5727949D01*
X7492071Y-5718004D01*
X7492071Y-5650004D01*
X7488265Y-5640815D01*
X7481232Y-5633782D01*
X7474494Y-5630991D01*
X7483059Y-5622441D01*
X7492061Y-5600764D01*
X7492081Y-5577292D01*
X7483118Y-5555599D01*
X7466535Y-5538988D01*
X7466499Y-5538973D01*
X7483059Y-5522441D01*
X7492061Y-5500764D01*
X7492081Y-5477292D01*
X7483118Y-5455599D01*
X7466535Y-5438988D01*
X7466499Y-5438973D01*
X7483059Y-5422441D01*
X7492061Y-5400764D01*
X7492081Y-5377292D01*
X7483118Y-5355599D01*
X7466535Y-5338988D01*
X7466499Y-5338973D01*
X7483059Y-5322441D01*
X7492061Y-5300764D01*
X7492081Y-5277292D01*
X7483118Y-5255599D01*
X7466535Y-5238988D01*
X7466499Y-5238973D01*
X7483059Y-5222441D01*
X7492061Y-5200764D01*
X7492081Y-5177292D01*
X7483118Y-5155599D01*
X7466535Y-5138988D01*
X7466499Y-5138973D01*
X7483059Y-5122441D01*
X7492061Y-5100764D01*
X7492081Y-5077292D01*
X7483118Y-5055599D01*
X7466535Y-5038988D01*
X7466499Y-5038973D01*
X7483059Y-5022441D01*
X7492061Y-5000764D01*
X7492081Y-4977292D01*
X7483118Y-4955599D01*
X7467546Y-4940000D01*
X7508000Y-4940000D01*
X7519098Y-4937793D01*
X7528506Y-4931506D01*
X7600506Y-4859506D01*
X7606793Y-4850098D01*
X7606793Y-4850098D01*
X7609000Y-4839000D01*
X7609000Y-4732644D01*
X7616404Y-4729585D01*
X7634521Y-4711499D01*
X7644339Y-4687856D01*
X7644361Y-4662256D01*
X7634585Y-4638596D01*
X7616499Y-4620479D01*
X7592856Y-4610661D01*
X7567256Y-4610639D01*
X7543596Y-4620415D01*
X7525479Y-4638501D01*
X7515661Y-4662144D01*
X7515639Y-4687744D01*
X7525415Y-4711404D01*
X7543501Y-4729521D01*
X7551000Y-4732635D01*
X7551000Y-4826988D01*
X7495988Y-4882000D01*
X7483403Y-4882000D01*
X7488265Y-4877138D01*
X7492071Y-4867949D01*
X7492071Y-4858004D01*
X7492071Y-4790004D01*
X7488265Y-4780815D01*
X7481232Y-4773782D01*
X7474494Y-4770991D01*
X7483059Y-4762441D01*
X7492061Y-4740764D01*
X7492081Y-4717292D01*
X7483118Y-4695599D01*
X7466535Y-4678988D01*
X7466499Y-4678973D01*
X7483059Y-4662441D01*
X7492061Y-4640764D01*
X7492081Y-4617292D01*
X7483118Y-4595599D01*
X7466535Y-4578988D01*
X7466499Y-4578973D01*
X7483059Y-4562441D01*
X7492061Y-4540764D01*
X7492081Y-4517292D01*
X7488242Y-4508000D01*
X7490213Y-4508000D01*
X7493949Y-4517043D01*
X7505894Y-4529009D01*
X7521509Y-4535493D01*
X7538417Y-4535507D01*
X7554043Y-4529051D01*
X7566009Y-4517106D01*
X7572493Y-4501491D01*
X7572507Y-4484583D01*
X7566051Y-4468957D01*
X7554106Y-4456991D01*
X7538491Y-4450507D01*
X7521583Y-4450493D01*
X7520574Y-4450910D01*
X7516000Y-4450000D01*
X7488225Y-4450000D01*
X7492061Y-4440764D01*
X7492081Y-4417292D01*
X7483118Y-4395599D01*
X7466535Y-4378988D01*
X7466499Y-4378973D01*
X7483059Y-4362441D01*
X7492061Y-4340764D01*
X7492081Y-4317292D01*
X7488655Y-4309000D01*
X7580988Y-4309000D01*
X7678733Y-4406745D01*
X7675661Y-4414144D01*
X7675639Y-4439744D01*
X7685415Y-4463404D01*
X7703501Y-4481521D01*
X7727144Y-4491339D01*
X7752744Y-4491361D01*
X7776404Y-4481585D01*
X7794521Y-4463499D01*
X7804339Y-4439856D01*
X7804361Y-4414256D01*
X7794585Y-4390596D01*
X7776499Y-4372479D01*
X7752856Y-4362661D01*
X7727256Y-4362639D01*
X7719752Y-4365740D01*
X7618445Y-4264433D01*
X7648574Y-4276944D01*
X7705507Y-4276993D01*
X7758125Y-4255252D01*
X7798418Y-4215030D01*
X7820251Y-4162450D01*
X7820300Y-4105517D01*
X7798559Y-4052899D01*
X7758337Y-4012606D01*
X7705757Y-3990773D01*
X7648824Y-3990723D01*
X7596206Y-4012465D01*
X7555913Y-4052687D01*
X7534080Y-4105267D01*
X7534030Y-4162200D01*
X7555772Y-4214818D01*
X7591891Y-4251000D01*
X7498787Y-4251000D01*
X7501705Y-4244426D01*
X7502393Y-4216984D01*
X7492527Y-4191369D01*
X7492081Y-4190701D01*
X7492081Y-4117292D01*
X7483118Y-4095599D01*
X7466535Y-4078988D01*
X7444858Y-4069987D01*
X7421387Y-4069966D01*
X7399694Y-4078929D01*
X7383082Y-4095512D01*
X7374081Y-4117189D01*
X7374061Y-4140661D01*
X7383024Y-4162354D01*
X7392473Y-4171819D01*
X7390225Y-4184716D01*
X7433071Y-4227562D01*
X7475917Y-4184716D01*
X7473668Y-4171816D01*
X7483059Y-4162441D01*
X7492061Y-4140764D01*
X7492081Y-4117292D01*
X7492081Y-4190701D01*
X7490569Y-4188438D01*
X7477331Y-4186130D01*
X7434485Y-4228976D01*
X7435042Y-4229533D01*
X7433628Y-4230947D01*
X7433071Y-4230391D01*
X7432514Y-4230947D01*
X7431100Y-4229533D01*
X7431657Y-4228976D01*
X7388810Y-4186130D01*
X7375573Y-4188438D01*
X7364436Y-4213527D01*
X7363749Y-4240968D01*
X7367612Y-4251000D01*
X7297012Y-4251000D01*
X7275506Y-4229494D01*
X7266098Y-4223207D01*
X7255000Y-4221000D01*
X7132644Y-4221000D01*
X7129585Y-4213596D01*
X7111499Y-4195479D01*
X7087856Y-4185661D01*
X7062256Y-4185639D01*
X7038596Y-4195415D01*
X7020479Y-4213501D01*
X7017365Y-4221000D01*
X6932644Y-4221000D01*
X6929585Y-4213596D01*
X6911499Y-4195479D01*
X6887856Y-4185661D01*
X6862256Y-4185639D01*
X6854752Y-4188740D01*
X6845506Y-4179494D01*
X6836098Y-4173207D01*
X6825000Y-4171000D01*
X6723126Y-4171000D01*
X6727491Y-4160489D01*
X6727509Y-4139603D01*
X6719533Y-4120300D01*
X6704778Y-4105519D01*
X6685489Y-4097509D01*
X6664603Y-4097491D01*
X6645300Y-4105467D01*
X6630519Y-4120222D01*
X6622509Y-4139511D01*
X6622491Y-4160397D01*
X6626872Y-4171000D01*
X6543012Y-4171000D01*
X6501506Y-4129494D01*
X6492098Y-4123207D01*
X6481927Y-4121184D01*
X6484009Y-4119106D01*
X6490493Y-4103491D01*
X6490507Y-4086583D01*
X6484051Y-4070957D01*
X6472106Y-4058991D01*
X6456491Y-4052507D01*
X6439583Y-4052493D01*
X6423957Y-4058949D01*
X6416894Y-4066000D01*
X6275013Y-4066000D01*
X6279521Y-4061499D01*
X6289339Y-4037856D01*
X6289361Y-4012256D01*
X6279585Y-3988596D01*
X6261499Y-3970479D01*
X6245840Y-3963976D01*
X7847047Y-3963976D01*
X7847047Y-5878543D01*
M02*
