%FSLAX36Y36*%
G04 Gerber Fmt 3.6, Leading zero omitted, Abs format (unit inch)*
G04 Created by KiCad (PCBNEW (2014-jul-16 BZR unknown)-product) date Mon 09 Feb 2015 12:25:07 PM PST*
%MOIN*%
G01*
G04 APERTURE LIST*
%ADD10C,0.003937*%
%ADD11C,0.059100*%
%ADD12C,0.078700*%
%ADD13R,0.078700X0.078700*%
%ADD14C,0.060000*%
%ADD15C,0.236220*%
%ADD16R,0.068000X0.068000*%
%ADD17C,0.068000*%
%ADD18R,0.060000X0.060000*%
%ADD19O,0.068000X0.068000*%
%ADD20R,0.055000X0.055000*%
%ADD21C,0.055000*%
%ADD22O,0.137800X0.066900*%
%ADD23R,0.620000X0.380000*%
%ADD24C,0.035000*%
%ADD25C,0.008000*%
%ADD26C,0.040000*%
%ADD27C,0.010000*%
G04 APERTURE END LIST*
D10*
D11*
X6275000Y-4750000D03*
X6275000Y-4650000D03*
X6775000Y-4950000D03*
X6775000Y-4850000D03*
X5225000Y-5725000D03*
X5225000Y-5625000D03*
X5750000Y-4025000D03*
X5850000Y-4025000D03*
X5125000Y-5400000D03*
X5225000Y-5400000D03*
X5175000Y-4825000D03*
X5275000Y-4825000D03*
X5400000Y-4475000D03*
X5400000Y-4375000D03*
X6075000Y-4700000D03*
X6075000Y-4600000D03*
X5275000Y-4225000D03*
X5175000Y-4225000D03*
X6275000Y-4950000D03*
X6275000Y-4850000D03*
X6275000Y-5050000D03*
X6275000Y-5150000D03*
D12*
X6875000Y-4250000D03*
D13*
X6875000Y-4650000D03*
D14*
X7720000Y-5265000D03*
X7720000Y-5365000D03*
D15*
X4133858Y-4133858D03*
X7677165Y-4133858D03*
X4133858Y-5708661D03*
X7677165Y-5708661D03*
D16*
X4500000Y-5695000D03*
D17*
X4500000Y-5595000D03*
X4500000Y-5495000D03*
D18*
X4113780Y-4721260D03*
D14*
X4213780Y-4721260D03*
X4113780Y-4821260D03*
X4213780Y-4821260D03*
X4113780Y-4921260D03*
X4213780Y-4921260D03*
X4113780Y-5021260D03*
X4213780Y-5021260D03*
X4113780Y-5121260D03*
X4213780Y-5121260D03*
D16*
X4450000Y-4035000D03*
D17*
X4550000Y-4035000D03*
X4650000Y-4035000D03*
X4750000Y-4035000D03*
X4850000Y-4035000D03*
X4950000Y-4035000D03*
D16*
X7433071Y-4828976D03*
D17*
X7433071Y-4728976D03*
X7433071Y-4628976D03*
X7433071Y-4528976D03*
X7433071Y-4428976D03*
X7433071Y-4328976D03*
X7433071Y-4228976D03*
X7433071Y-4128976D03*
D16*
X7433071Y-5688976D03*
D17*
X7433071Y-5588976D03*
X7433071Y-5488976D03*
X7433071Y-5388976D03*
X7433071Y-5288976D03*
X7433071Y-5188976D03*
X7433071Y-5088976D03*
X7433071Y-4988976D03*
D16*
X5533071Y-5688976D03*
D17*
X5533071Y-5588976D03*
X5533071Y-5488976D03*
X5533071Y-5388976D03*
X5533071Y-5288976D03*
X5533071Y-5188976D03*
D16*
X5533071Y-4988976D03*
D17*
X5533071Y-4888976D03*
X5533071Y-4788976D03*
X5533071Y-4688976D03*
X5533071Y-4588976D03*
X5533071Y-4488976D03*
D16*
X6631102Y-5694488D03*
D19*
X6631102Y-5794488D03*
X6531102Y-5694488D03*
X6531102Y-5794488D03*
X6431102Y-5694488D03*
X6431102Y-5794488D03*
D13*
X7740000Y-4683000D03*
D12*
X7740000Y-4427000D03*
D20*
X5650000Y-4200000D03*
D21*
X5650000Y-4300000D03*
X5650000Y-4400000D03*
X5650000Y-4500000D03*
X5650000Y-4600000D03*
X5650000Y-4700000D03*
X5650000Y-4800000D03*
X5950000Y-4800000D03*
X5950000Y-4700000D03*
X5950000Y-4600000D03*
X5950000Y-4500000D03*
X5950000Y-4400000D03*
X5950000Y-4300000D03*
X5950000Y-4200000D03*
D22*
X5200000Y-5050000D03*
X5200000Y-5150000D03*
X5200000Y-4950000D03*
D23*
X4730000Y-5050000D03*
D20*
X4775000Y-5825000D03*
D21*
X4875000Y-5825000D03*
X4975000Y-5825000D03*
X5075000Y-5825000D03*
X5075000Y-5525000D03*
X4975000Y-5525000D03*
X4875000Y-5525000D03*
X4775000Y-5525000D03*
D22*
X5200000Y-4575000D03*
X5200000Y-4675000D03*
X5200000Y-4475000D03*
D23*
X4730000Y-4575000D03*
D21*
X6375000Y-4250000D03*
X6375000Y-4350000D03*
X6375000Y-4450000D03*
X6375000Y-4550000D03*
X6375000Y-4650000D03*
X6375000Y-4750000D03*
X6375000Y-4850000D03*
X6375000Y-4950000D03*
X6375000Y-5050000D03*
X6375000Y-5150000D03*
X6375000Y-5250000D03*
X6375000Y-5350000D03*
X6375000Y-5450000D03*
D20*
X6375000Y-4150000D03*
D21*
X6675000Y-5450000D03*
X6675000Y-5350000D03*
X6675000Y-5250000D03*
X6675000Y-5150000D03*
X6675000Y-5050000D03*
X6675000Y-4950000D03*
X6675000Y-4850000D03*
X6675000Y-4750000D03*
X6675000Y-4650000D03*
X6675000Y-4550000D03*
X6675000Y-4450000D03*
X6675000Y-4350000D03*
X6675000Y-4250000D03*
X6675000Y-4150000D03*
D11*
X6120000Y-4998900D03*
X6120000Y-5191100D03*
X5525000Y-5800000D03*
X5425000Y-5800000D03*
D20*
X5650000Y-5100000D03*
D21*
X5650000Y-5200000D03*
X5650000Y-5300000D03*
X5650000Y-5400000D03*
X5650000Y-5500000D03*
X5650000Y-5600000D03*
X5650000Y-5700000D03*
X5950000Y-5700000D03*
X5950000Y-5600000D03*
X5950000Y-5500000D03*
X5950000Y-5400000D03*
X5950000Y-5300000D03*
X5950000Y-5200000D03*
X5950000Y-5100000D03*
D17*
X6275000Y-5400000D03*
X6275000Y-5800000D03*
X6150000Y-5800000D03*
X6150000Y-5400000D03*
X7580000Y-5075000D03*
X7580000Y-4675000D03*
X7075000Y-4250000D03*
X7075000Y-4650000D03*
X6225000Y-4425000D03*
X6225000Y-4025000D03*
X6100000Y-4425000D03*
X6100000Y-4025000D03*
X5400000Y-5050000D03*
X5400000Y-4650000D03*
X5100000Y-4035000D03*
X5500000Y-4035000D03*
X4650000Y-5425000D03*
X4650000Y-5825000D03*
X4550000Y-4275000D03*
X4950000Y-4275000D03*
X4550000Y-4150000D03*
X4950000Y-4150000D03*
D24*
X6838000Y-4389000D03*
X6972000Y-5537000D03*
X7530000Y-4493000D03*
X7384000Y-4679000D03*
X7175000Y-5100000D03*
X7175000Y-5300000D03*
X7350000Y-5375000D03*
X7325000Y-5475000D03*
X7300000Y-4725000D03*
X7275000Y-5450000D03*
X7325000Y-4625000D03*
X7225000Y-5350000D03*
X7225000Y-5250000D03*
X7325000Y-4525000D03*
X6525000Y-5250000D03*
X7200000Y-5150000D03*
X7250000Y-4425000D03*
X6575000Y-5150000D03*
X6675000Y-5550000D03*
X6075000Y-5675000D03*
X5745000Y-5795000D03*
X6575000Y-5550000D03*
X6450000Y-5550000D03*
X6250000Y-5625000D03*
X6900000Y-5550000D03*
X5750000Y-5185000D03*
X5835000Y-5325000D03*
X5755000Y-5540000D03*
X5750000Y-5025000D03*
X5750000Y-5275000D03*
X6575000Y-4800000D03*
X4640000Y-5677000D03*
X4634000Y-5521000D03*
X4510000Y-5815000D03*
X4700000Y-4109000D03*
X5762000Y-4495000D03*
X5824000Y-4321000D03*
X5888000Y-4445000D03*
X5400000Y-4165000D03*
X5398000Y-4043000D03*
X6190000Y-4237000D03*
X6266000Y-4145000D03*
X6330000Y-4033000D03*
X6060000Y-4341000D03*
X6482000Y-4469000D03*
X6496000Y-4341000D03*
X6546000Y-4077000D03*
X6484000Y-4601000D03*
X7072000Y-4535000D03*
X7076000Y-4451000D03*
X7222000Y-4193000D03*
X6878000Y-4533000D03*
X6920000Y-4979000D03*
X6900000Y-5097000D03*
X7046000Y-4961000D03*
X7048000Y-4803000D03*
X6938000Y-4805000D03*
X5360900Y-4957200D03*
X5354000Y-4750000D03*
X5319300Y-4680900D03*
X5100000Y-4309000D03*
X6448000Y-4095000D03*
X6316000Y-4497000D03*
X7325000Y-4775000D03*
X5558000Y-4261000D03*
X6575000Y-5500000D03*
X6375000Y-5525000D03*
X6550000Y-4450000D03*
X6550000Y-4550000D03*
X6200000Y-5475000D03*
X6525000Y-4650000D03*
X6325000Y-5300000D03*
X6725000Y-5700000D03*
X6800000Y-5625000D03*
D25*
X6972000Y-4523000D02*
X6838000Y-4389000D01*
X6972000Y-5537000D02*
X6972000Y-4523000D01*
X7522000Y-5300047D02*
X7433071Y-5388976D01*
X7522000Y-4501000D02*
X7522000Y-5300047D01*
X7530000Y-4493000D02*
X7522000Y-4501000D01*
X7433071Y-5288976D02*
X7500000Y-5222047D01*
X7464000Y-4679000D02*
X7384000Y-4679000D01*
X7500000Y-4715000D02*
X7464000Y-4679000D01*
X7500000Y-5222047D02*
X7500000Y-4715000D01*
X7175000Y-5300000D02*
X7175000Y-5200000D01*
X7175000Y-5200000D02*
X7150000Y-5175000D01*
X7150000Y-5125000D02*
X7175000Y-5100000D01*
X7150000Y-5175000D02*
X7150000Y-5125000D01*
X7433071Y-4988976D02*
X7433071Y-4991929D01*
X7433071Y-4991929D02*
X7350000Y-5075000D01*
X7350000Y-5075000D02*
X7350000Y-5375000D01*
X7433071Y-4828976D02*
X7325000Y-4937047D01*
X7325000Y-5450000D02*
X7325000Y-5475000D01*
X7300000Y-5425000D02*
X7325000Y-5450000D01*
X7300000Y-5375000D02*
X7300000Y-5425000D01*
X7325000Y-5350000D02*
X7300000Y-5375000D01*
X7325000Y-4937047D02*
X7325000Y-5350000D01*
X7275000Y-5350000D02*
X7300000Y-5325000D01*
X7300000Y-4825000D02*
X7275000Y-4800000D01*
X7300000Y-5325000D02*
X7300000Y-4825000D01*
X7275000Y-4750000D02*
X7300000Y-4725000D01*
X7275000Y-5450000D02*
X7275000Y-5350000D01*
X7275000Y-4800000D02*
X7275000Y-4750000D01*
X7225000Y-5350000D02*
X7275000Y-5300000D01*
X7275000Y-4850000D02*
X7250000Y-4825000D01*
X7275000Y-5300000D02*
X7275000Y-4850000D01*
X7250000Y-4700000D02*
X7325000Y-4625000D01*
X7250000Y-4825000D02*
X7250000Y-4700000D01*
X7250000Y-4875000D02*
X7225000Y-4850000D01*
X7250000Y-5225000D02*
X7250000Y-4875000D01*
X7225000Y-5250000D02*
X7250000Y-5225000D01*
X7225000Y-4625000D02*
X7325000Y-4525000D01*
X7225000Y-4850000D02*
X7225000Y-4625000D01*
X6525000Y-5450000D02*
X6500000Y-5475000D01*
X6525000Y-5250000D02*
X6525000Y-5450000D01*
X6531102Y-5794488D02*
X6484000Y-5747387D01*
X6484000Y-5627000D02*
X6500000Y-5611000D01*
X6500000Y-5611000D02*
X6500000Y-5475000D01*
X6484000Y-5747387D02*
X6484000Y-5627000D01*
X7225000Y-4900000D02*
X7200000Y-4875000D01*
X7225000Y-5125000D02*
X7225000Y-4900000D01*
X7200000Y-5150000D02*
X7225000Y-5125000D01*
X7200000Y-4475000D02*
X7250000Y-4425000D01*
X7200000Y-4875000D02*
X7200000Y-4475000D01*
X6631102Y-5694488D02*
X6631102Y-5193898D01*
X6631102Y-5193898D02*
X6675000Y-5150000D01*
X6525000Y-5500000D02*
X6575000Y-5450000D01*
X6575000Y-5450000D02*
X6575000Y-5150000D01*
X6531102Y-5631102D02*
X6525000Y-5625000D01*
X6531102Y-5631102D02*
X6531102Y-5694488D01*
X6525000Y-5500000D02*
X6525000Y-5625000D01*
X7433071Y-4328976D02*
X7580000Y-4475906D01*
X7580000Y-4475906D02*
X7580000Y-4675000D01*
D26*
X5955000Y-5795000D02*
X6075000Y-5675000D01*
X5745000Y-5795000D02*
X5955000Y-5795000D01*
X6375000Y-5625000D02*
X6450000Y-5550000D01*
X6250000Y-5625000D02*
X6375000Y-5625000D01*
X5755000Y-5405000D02*
X5835000Y-5325000D01*
X5650000Y-5700000D02*
X5755000Y-5595000D01*
X5755000Y-5595000D02*
X5755000Y-5540000D01*
X5755000Y-5540000D02*
X5755000Y-5405000D01*
X5750000Y-5275000D02*
X5750000Y-5185000D01*
X5750000Y-5185000D02*
X5750000Y-5025000D01*
X4634000Y-5671000D02*
X4640000Y-5677000D01*
X4634000Y-5521000D02*
X4634000Y-5671000D01*
X4510000Y-5815000D02*
X4516000Y-5815000D01*
X4550000Y-4275000D02*
X4700000Y-4125000D01*
X4700000Y-4125000D02*
X4700000Y-4109000D01*
X5762000Y-4688000D02*
X5762000Y-4495000D01*
X5650000Y-4800000D02*
X5762000Y-4688000D01*
X5824000Y-4381000D02*
X5824000Y-4321000D01*
X5888000Y-4445000D02*
X5824000Y-4381000D01*
X5400000Y-4165000D02*
X5398000Y-4163000D01*
X5400000Y-4375000D02*
X5400000Y-4165000D01*
X5398000Y-4163000D02*
X5398000Y-4043000D01*
X6190000Y-4237000D02*
X6164000Y-4237000D01*
X6266000Y-4161000D02*
X6190000Y-4237000D01*
X6266000Y-4109000D02*
X6266000Y-4145000D01*
X6330000Y-4045000D02*
X6266000Y-4109000D01*
X6330000Y-4033000D02*
X6330000Y-4045000D01*
X6266000Y-4145000D02*
X6266000Y-4161000D01*
X6164000Y-4237000D02*
X6060000Y-4341000D01*
X6482000Y-4469000D02*
X6484000Y-4471000D01*
X6482000Y-4355000D02*
X6482000Y-4469000D01*
X6538000Y-4299000D02*
X6496000Y-4341000D01*
X6546000Y-4299000D02*
X6538000Y-4299000D01*
X6546000Y-4077000D02*
X6546000Y-4299000D01*
X6496000Y-4341000D02*
X6482000Y-4355000D01*
X6484000Y-4471000D02*
X6484000Y-4601000D01*
X7072000Y-4455000D02*
X7072000Y-4535000D01*
X7222000Y-4305000D02*
X7076000Y-4451000D01*
X7222000Y-4193000D02*
X7222000Y-4305000D01*
X7076000Y-4451000D02*
X7072000Y-4455000D01*
X6878000Y-4533000D02*
X6878000Y-4527000D01*
X6920000Y-4979000D02*
X6938000Y-4961000D01*
X6900000Y-4999000D02*
X6920000Y-4979000D01*
X6431102Y-5794488D02*
X6497613Y-5861000D01*
X6900000Y-5751000D02*
X6900000Y-5550000D01*
X6900000Y-5550000D02*
X6900000Y-5097000D01*
X6790000Y-5861000D02*
X6900000Y-5751000D01*
X6497613Y-5861000D02*
X6790000Y-5861000D01*
X6900000Y-5097000D02*
X6900000Y-4999000D01*
X7048000Y-4959000D02*
X7046000Y-4961000D01*
X7048000Y-4803000D02*
X7048000Y-4959000D01*
X6938000Y-4961000D02*
X6938000Y-4805000D01*
X5360900Y-4957200D02*
X5360900Y-4756900D01*
X5360900Y-4756900D02*
X5354000Y-4750000D01*
D25*
X5950000Y-5400000D02*
X6244488Y-5694488D01*
X6244488Y-5694488D02*
X6431102Y-5694488D01*
X5950000Y-5400000D02*
X6000000Y-5400000D01*
X6000000Y-5400000D02*
X6025000Y-5375000D01*
X6025000Y-4650000D02*
X6075000Y-4600000D01*
X6025000Y-5375000D02*
X6025000Y-4650000D01*
X6075000Y-4600000D02*
X6165000Y-4510000D01*
X6165000Y-4360000D02*
X6375000Y-4150000D01*
X6165000Y-4510000D02*
X6165000Y-4360000D01*
X4850000Y-4035000D02*
X4850000Y-4175000D01*
X4850000Y-4175000D02*
X4950000Y-4275000D01*
X5100000Y-4309000D02*
X5100000Y-4035000D01*
X6448000Y-4277000D02*
X6375000Y-4350000D01*
X6448000Y-4095000D02*
X6448000Y-4277000D01*
X4775000Y-5825000D02*
X4716000Y-5766000D01*
X5020000Y-4220000D02*
X4950000Y-4150000D01*
X5020000Y-4307000D02*
X5020000Y-4220000D01*
X4982000Y-4345000D02*
X5020000Y-4307000D01*
X4408000Y-4345000D02*
X4982000Y-4345000D01*
X4360000Y-4393000D02*
X4408000Y-4345000D01*
X4360000Y-5273000D02*
X4360000Y-4393000D01*
X4422000Y-5335000D02*
X4360000Y-5273000D01*
X4642000Y-5335000D02*
X4422000Y-5335000D01*
X4716000Y-5409000D02*
X4642000Y-5335000D01*
X4716000Y-5766000D02*
X4716000Y-5409000D01*
X6316000Y-4309000D02*
X6375000Y-4250000D01*
X6316000Y-4497000D02*
X6316000Y-4309000D01*
X4500000Y-5695000D02*
X4630000Y-5825000D01*
X4630000Y-5825000D02*
X4650000Y-5825000D01*
X4500000Y-5595000D02*
X4164000Y-5259000D01*
X4164000Y-5259000D02*
X4164000Y-4971000D01*
X4163520Y-4971000D02*
X4164000Y-4971000D01*
X4113780Y-4921260D02*
X4163520Y-4971000D01*
X7720000Y-5265000D02*
X7720000Y-5215000D01*
X7720000Y-5215000D02*
X7580000Y-5075000D01*
D26*
X5200000Y-4475000D02*
X5200000Y-4405000D01*
X5275000Y-4330000D02*
X5275000Y-4225000D01*
X5200000Y-4405000D02*
X5275000Y-4330000D01*
D25*
X6120000Y-5191100D02*
X6261100Y-5050000D01*
X6261100Y-5050000D02*
X6275000Y-5050000D01*
X4650000Y-5425000D02*
X4374000Y-5425000D01*
X4374000Y-5425000D02*
X4266000Y-5317000D01*
X4266000Y-4973480D02*
X4266000Y-5317000D01*
X4213780Y-4921260D02*
X4266000Y-4973480D01*
X7350000Y-4650000D02*
X7375000Y-4625000D01*
X7375000Y-4187047D02*
X7433071Y-4128976D01*
X7375000Y-4625000D02*
X7375000Y-4187047D01*
X7350000Y-4750000D02*
X7350000Y-4650000D01*
X7325000Y-4775000D02*
X7350000Y-4750000D01*
X5462000Y-5517906D02*
X5533071Y-5588976D01*
X5462000Y-4479000D02*
X5462000Y-5517906D01*
X5558000Y-4383000D02*
X5462000Y-4479000D01*
X5558000Y-4261000D02*
X5558000Y-4383000D01*
X6575000Y-5500000D02*
X6600000Y-5475000D01*
X6600000Y-5475000D02*
X6600000Y-5175000D01*
X6600000Y-5175000D02*
X6625000Y-5150000D01*
X6675000Y-4350000D02*
X6625000Y-4400000D01*
X6625000Y-4400000D02*
X6625000Y-5150000D01*
X6475000Y-5425000D02*
X6375000Y-5525000D01*
X6475000Y-4825000D02*
X6475000Y-5425000D01*
X6600000Y-4700000D02*
X6475000Y-4825000D01*
X6600000Y-4500000D02*
X6600000Y-4700000D01*
X6550000Y-4450000D02*
X6600000Y-4500000D01*
X6575000Y-4575000D02*
X6575000Y-4675000D01*
X6550000Y-4550000D02*
X6575000Y-4575000D01*
X6450000Y-4800000D02*
X6450000Y-5375000D01*
X6575000Y-4675000D02*
X6450000Y-4800000D01*
X6450000Y-5375000D02*
X6425000Y-5400000D01*
X6275000Y-5475000D02*
X6200000Y-5475000D01*
X6350000Y-5400000D02*
X6275000Y-5475000D01*
X6425000Y-5400000D02*
X6350000Y-5400000D01*
X6450000Y-5375000D02*
X6425000Y-5400000D01*
X6425000Y-4750000D02*
X6425000Y-5275000D01*
X6525000Y-4650000D02*
X6425000Y-4750000D01*
X6400000Y-5300000D02*
X6325000Y-5300000D01*
X6425000Y-5275000D02*
X6400000Y-5300000D01*
X5925000Y-5150000D02*
X5850000Y-5225000D01*
X5700000Y-5400000D02*
X5650000Y-5400000D01*
X5850000Y-5250000D02*
X5700000Y-5400000D01*
X5850000Y-5225000D02*
X5850000Y-5250000D01*
X5650000Y-5500000D02*
X5600000Y-5550000D01*
X5600000Y-5550000D02*
X5600000Y-5725000D01*
X5300000Y-5750000D02*
X5225000Y-5825000D01*
X5575000Y-5750000D02*
X5300000Y-5750000D01*
X5600000Y-5725000D02*
X5575000Y-5750000D01*
X5225000Y-5825000D02*
X5075000Y-5825000D01*
X5650000Y-5400000D02*
X5650000Y-5500000D01*
X5950000Y-4300000D02*
X6000000Y-4350000D01*
X5975000Y-5150000D02*
X5925000Y-5150000D01*
X6000000Y-5125000D02*
X5975000Y-5150000D01*
X6000000Y-4350000D02*
X6000000Y-5125000D01*
X5675000Y-5400000D02*
X5650000Y-5400000D01*
X5650000Y-4500000D02*
X5650000Y-4600000D01*
X5650000Y-4400000D02*
X5650000Y-4500000D01*
X6675000Y-4150000D02*
X6725000Y-4200000D01*
X6725000Y-4200000D02*
X6725000Y-5700000D01*
X5275000Y-4825000D02*
X5275000Y-4775000D01*
X5275000Y-4775000D02*
X5400000Y-4650000D01*
D26*
X6799000Y-5701000D02*
X6705512Y-5794488D01*
X6800000Y-5701000D02*
X6799000Y-5701000D01*
X6800000Y-5625000D02*
X6800000Y-5701000D01*
X5650000Y-5200000D02*
X5650000Y-5100000D01*
X5950000Y-4700000D02*
X5875000Y-4775000D01*
X5875000Y-5025000D02*
X5950000Y-5100000D01*
X5875000Y-4775000D02*
X5875000Y-5025000D01*
X6631102Y-5794488D02*
X6705512Y-5794488D01*
X6705512Y-5794488D02*
X6706512Y-5794488D01*
X6706512Y-5794488D02*
X6794000Y-5707000D01*
X6794000Y-5707000D02*
X6794000Y-5604000D01*
X6794000Y-5604000D02*
X6775000Y-5585000D01*
X6775000Y-5585000D02*
X6775000Y-5575000D01*
X6775000Y-5575000D02*
X6775000Y-4950000D01*
X5225000Y-5725000D02*
X5075000Y-5575000D01*
X5075000Y-5575000D02*
X5075000Y-5525000D01*
X5200000Y-4950000D02*
X5269000Y-4950000D01*
X5214000Y-5525000D02*
X5075000Y-5525000D01*
X5310000Y-5429000D02*
X5214000Y-5525000D01*
X5310000Y-4991000D02*
X5310000Y-5429000D01*
X5269000Y-4950000D02*
X5310000Y-4991000D01*
X6775000Y-4950000D02*
X6805000Y-4950000D01*
X6875000Y-4880000D02*
X6875000Y-4650000D01*
X6805000Y-4950000D02*
X6875000Y-4880000D01*
X5650000Y-4300000D02*
X5884000Y-4534000D01*
X5884000Y-4634000D02*
X5950000Y-4700000D01*
X5884000Y-4534000D02*
X5884000Y-4634000D01*
X5950000Y-4200000D02*
X6100000Y-4050000D01*
X6100000Y-4050000D02*
X6100000Y-4025000D01*
X5650000Y-4200000D02*
X5750000Y-4100000D01*
X5750000Y-4100000D02*
X5750000Y-4025000D01*
X5400000Y-4475000D02*
X5500000Y-4375000D01*
X5500000Y-4375000D02*
X5500000Y-4035000D01*
X5650000Y-4300000D02*
X5650000Y-4200000D01*
X5200000Y-4675000D02*
X5250000Y-4675000D01*
X5250000Y-4675000D02*
X5400000Y-4525000D01*
X5400000Y-4525000D02*
X5400000Y-4475000D01*
X5175000Y-4825000D02*
X5175000Y-4775000D01*
X5200000Y-4750000D02*
X5200000Y-4675000D01*
X5175000Y-4775000D02*
X5200000Y-4750000D01*
X5200000Y-4950000D02*
X5200000Y-4900000D01*
X5175000Y-4875000D02*
X5175000Y-4825000D01*
X5200000Y-4900000D02*
X5175000Y-4875000D01*
D25*
X5525000Y-5800000D02*
X5650000Y-5800000D01*
X5850000Y-5400000D02*
X5950000Y-5300000D01*
X5850000Y-5600000D02*
X5850000Y-5400000D01*
X5650000Y-5800000D02*
X5850000Y-5600000D01*
X5950000Y-5200000D02*
X5950000Y-5300000D01*
X5950000Y-5500000D02*
X5950000Y-5600000D01*
D27*
G36*
X5342836Y-4666152D02*
X5254494Y-4754494D01*
X5248207Y-4763902D01*
X5246000Y-4775000D01*
X5246000Y-4777959D01*
X5244140Y-4778728D01*
X5228782Y-4794060D01*
X5225001Y-4803165D01*
X5221272Y-4794140D01*
X5220387Y-4793253D01*
X5231820Y-4781820D01*
X5241575Y-4767221D01*
X5245000Y-4750000D01*
X5245000Y-4731916D01*
X5259657Y-4729001D01*
X5278620Y-4716330D01*
X5291290Y-4697368D01*
X5291295Y-4697345D01*
X5341002Y-4647638D01*
X5340990Y-4661684D01*
X5342836Y-4666152D01*
X5342836Y-4666152D01*
G37*
X5342836Y-4666152D02*
X5254494Y-4754494D01*
X5248207Y-4763902D01*
X5246000Y-4775000D01*
X5246000Y-4777959D01*
X5244140Y-4778728D01*
X5228782Y-4794060D01*
X5225001Y-4803165D01*
X5221272Y-4794140D01*
X5220387Y-4793253D01*
X5231820Y-4781820D01*
X5241575Y-4767221D01*
X5245000Y-4750000D01*
X5245000Y-4731916D01*
X5259657Y-4729001D01*
X5278620Y-4716330D01*
X5291290Y-4697368D01*
X5291295Y-4697345D01*
X5341002Y-4647638D01*
X5340990Y-4661684D01*
X5342836Y-4666152D01*
G36*
X5401971Y-5050557D02*
X5400557Y-5051971D01*
X5400000Y-5051414D01*
X5399443Y-5051971D01*
X5398029Y-5050557D01*
X5398586Y-5050000D01*
X5398029Y-5049443D01*
X5399443Y-5048029D01*
X5400000Y-5048586D01*
X5400557Y-5048029D01*
X5401971Y-5049443D01*
X5401414Y-5050000D01*
X5401971Y-5050557D01*
X5401971Y-5050557D01*
G37*
X5401971Y-5050557D02*
X5400557Y-5051971D01*
X5400000Y-5051414D01*
X5399443Y-5051971D01*
X5398029Y-5050557D01*
X5398586Y-5050000D01*
X5398029Y-5049443D01*
X5399443Y-5048029D01*
X5400000Y-5048586D01*
X5400557Y-5048029D01*
X5401971Y-5049443D01*
X5401414Y-5050000D01*
X5401971Y-5050557D01*
G36*
X5433000Y-4989156D02*
X5415449Y-4981366D01*
X5388008Y-4980678D01*
X5362392Y-4990544D01*
X5359461Y-4992502D01*
X5357154Y-5005739D01*
X5355000Y-5003586D01*
X5355000Y-4991000D01*
X5351575Y-4973779D01*
X5341820Y-4959180D01*
X5300820Y-4918180D01*
X5286221Y-4908425D01*
X5274878Y-4906169D01*
X5259657Y-4895999D01*
X5243568Y-4892799D01*
X5241575Y-4882779D01*
X5231820Y-4868180D01*
X5220398Y-4856759D01*
X5221218Y-4855940D01*
X5224999Y-4846835D01*
X5228728Y-4855860D01*
X5244060Y-4871218D01*
X5264102Y-4879541D01*
X5285803Y-4879559D01*
X5305860Y-4871272D01*
X5321218Y-4855940D01*
X5329541Y-4835898D01*
X5329559Y-4814197D01*
X5321272Y-4794140D01*
X5309083Y-4781929D01*
X5383839Y-4707173D01*
X5388213Y-4708990D01*
X5411684Y-4709010D01*
X5433000Y-4700203D01*
X5433000Y-4989156D01*
X5433000Y-4989156D01*
G37*
X5433000Y-4989156D02*
X5415449Y-4981366D01*
X5388008Y-4980678D01*
X5362392Y-4990544D01*
X5359461Y-4992502D01*
X5357154Y-5005739D01*
X5355000Y-5003586D01*
X5355000Y-4991000D01*
X5351575Y-4973779D01*
X5341820Y-4959180D01*
X5300820Y-4918180D01*
X5286221Y-4908425D01*
X5274878Y-4906169D01*
X5259657Y-4895999D01*
X5243568Y-4892799D01*
X5241575Y-4882779D01*
X5231820Y-4868180D01*
X5220398Y-4856759D01*
X5221218Y-4855940D01*
X5224999Y-4846835D01*
X5228728Y-4855860D01*
X5244060Y-4871218D01*
X5264102Y-4879541D01*
X5285803Y-4879559D01*
X5305860Y-4871272D01*
X5321218Y-4855940D01*
X5329541Y-4835898D01*
X5329559Y-4814197D01*
X5321272Y-4794140D01*
X5309083Y-4781929D01*
X5383839Y-4707173D01*
X5388213Y-4708990D01*
X5411684Y-4709010D01*
X5433000Y-4700203D01*
X5433000Y-4989156D01*
G36*
X5491647Y-5630992D02*
X5484910Y-5633782D01*
X5477877Y-5640815D01*
X5474071Y-5650004D01*
X5474071Y-5659949D01*
X5474071Y-5721000D01*
X5300000Y-5721000D01*
X5289840Y-5723021D01*
X5289840Y-5613718D01*
X5280587Y-5589763D01*
X5278827Y-5587129D01*
X5266052Y-5585363D01*
X5226414Y-5625000D01*
X5266052Y-5664637D01*
X5278827Y-5662871D01*
X5289222Y-5639390D01*
X5289840Y-5613718D01*
X5289840Y-5723021D01*
X5288902Y-5723207D01*
X5279546Y-5729459D01*
X5279559Y-5714197D01*
X5271272Y-5694140D01*
X5258437Y-5681282D01*
X5260237Y-5680587D01*
X5262871Y-5678827D01*
X5264637Y-5666052D01*
X5225000Y-5626414D01*
X5224443Y-5626971D01*
X5223029Y-5625557D01*
X5223586Y-5625000D01*
X5183948Y-5585363D01*
X5171173Y-5587129D01*
X5164912Y-5601272D01*
X5133640Y-5570000D01*
X5188884Y-5570000D01*
X5187129Y-5571173D01*
X5185363Y-5583948D01*
X5225000Y-5623586D01*
X5264637Y-5583948D01*
X5262871Y-5571173D01*
X5239694Y-5560913D01*
X5245820Y-5556820D01*
X5341820Y-5460820D01*
X5351575Y-5446221D01*
X5355000Y-5429000D01*
X5355000Y-5096414D01*
X5357154Y-5094260D01*
X5359461Y-5107498D01*
X5384551Y-5118634D01*
X5411992Y-5119322D01*
X5433000Y-5111231D01*
X5433000Y-5517906D01*
X5435207Y-5529003D01*
X5441494Y-5538412D01*
X5475897Y-5572815D01*
X5474081Y-5577189D01*
X5474061Y-5600661D01*
X5483024Y-5622354D01*
X5491647Y-5630992D01*
X5491647Y-5630992D01*
G37*
X5491647Y-5630992D02*
X5484910Y-5633782D01*
X5477877Y-5640815D01*
X5474071Y-5650004D01*
X5474071Y-5659949D01*
X5474071Y-5721000D01*
X5300000Y-5721000D01*
X5289840Y-5723021D01*
X5289840Y-5613718D01*
X5280587Y-5589763D01*
X5278827Y-5587129D01*
X5266052Y-5585363D01*
X5226414Y-5625000D01*
X5266052Y-5664637D01*
X5278827Y-5662871D01*
X5289222Y-5639390D01*
X5289840Y-5613718D01*
X5289840Y-5723021D01*
X5288902Y-5723207D01*
X5279546Y-5729459D01*
X5279559Y-5714197D01*
X5271272Y-5694140D01*
X5258437Y-5681282D01*
X5260237Y-5680587D01*
X5262871Y-5678827D01*
X5264637Y-5666052D01*
X5225000Y-5626414D01*
X5224443Y-5626971D01*
X5223029Y-5625557D01*
X5223586Y-5625000D01*
X5183948Y-5585363D01*
X5171173Y-5587129D01*
X5164912Y-5601272D01*
X5133640Y-5570000D01*
X5188884Y-5570000D01*
X5187129Y-5571173D01*
X5185363Y-5583948D01*
X5225000Y-5623586D01*
X5264637Y-5583948D01*
X5262871Y-5571173D01*
X5239694Y-5560913D01*
X5245820Y-5556820D01*
X5341820Y-5460820D01*
X5351575Y-5446221D01*
X5355000Y-5429000D01*
X5355000Y-5096414D01*
X5357154Y-5094260D01*
X5359461Y-5107498D01*
X5384551Y-5118634D01*
X5411992Y-5119322D01*
X5433000Y-5111231D01*
X5433000Y-5517906D01*
X5435207Y-5529003D01*
X5441494Y-5538412D01*
X5475897Y-5572815D01*
X5474081Y-5577189D01*
X5474061Y-5600661D01*
X5483024Y-5622354D01*
X5491647Y-5630992D01*
G36*
X5921000Y-5255177D02*
X5920300Y-5255467D01*
X5905519Y-5270222D01*
X5897509Y-5289511D01*
X5897491Y-5310397D01*
X5897812Y-5311175D01*
X5829494Y-5379494D01*
X5823207Y-5388902D01*
X5821000Y-5400000D01*
X5821000Y-5587988D01*
X5712603Y-5696385D01*
X5712776Y-5689045D01*
X5703805Y-5665855D01*
X5702136Y-5663357D01*
X5689573Y-5661841D01*
X5651414Y-5700000D01*
X5651971Y-5700557D01*
X5650557Y-5701971D01*
X5650000Y-5701414D01*
X5649443Y-5701971D01*
X5648029Y-5700557D01*
X5648586Y-5700000D01*
X5648029Y-5699443D01*
X5649443Y-5698029D01*
X5650000Y-5698586D01*
X5688159Y-5660427D01*
X5686643Y-5647864D01*
X5679394Y-5644660D01*
X5679700Y-5644533D01*
X5694481Y-5629778D01*
X5702491Y-5610489D01*
X5702509Y-5589603D01*
X5694533Y-5570300D01*
X5679778Y-5555519D01*
X5666478Y-5549996D01*
X5679700Y-5544533D01*
X5694481Y-5529778D01*
X5702491Y-5510489D01*
X5702509Y-5489603D01*
X5694533Y-5470300D01*
X5679778Y-5455519D01*
X5679000Y-5455196D01*
X5679000Y-5444823D01*
X5679700Y-5444533D01*
X5694481Y-5429778D01*
X5694804Y-5429000D01*
X5700000Y-5429000D01*
X5711098Y-5426793D01*
X5720506Y-5420506D01*
X5870506Y-5270506D01*
X5876793Y-5261098D01*
X5876793Y-5261098D01*
X5879000Y-5250000D01*
X5879000Y-5237012D01*
X5899866Y-5216146D01*
X5905467Y-5229700D01*
X5920222Y-5244481D01*
X5921000Y-5244804D01*
X5921000Y-5255177D01*
X5921000Y-5255177D01*
G37*
X5921000Y-5255177D02*
X5920300Y-5255467D01*
X5905519Y-5270222D01*
X5897509Y-5289511D01*
X5897491Y-5310397D01*
X5897812Y-5311175D01*
X5829494Y-5379494D01*
X5823207Y-5388902D01*
X5821000Y-5400000D01*
X5821000Y-5587988D01*
X5712603Y-5696385D01*
X5712776Y-5689045D01*
X5703805Y-5665855D01*
X5702136Y-5663357D01*
X5689573Y-5661841D01*
X5651414Y-5700000D01*
X5651971Y-5700557D01*
X5650557Y-5701971D01*
X5650000Y-5701414D01*
X5649443Y-5701971D01*
X5648029Y-5700557D01*
X5648586Y-5700000D01*
X5648029Y-5699443D01*
X5649443Y-5698029D01*
X5650000Y-5698586D01*
X5688159Y-5660427D01*
X5686643Y-5647864D01*
X5679394Y-5644660D01*
X5679700Y-5644533D01*
X5694481Y-5629778D01*
X5702491Y-5610489D01*
X5702509Y-5589603D01*
X5694533Y-5570300D01*
X5679778Y-5555519D01*
X5666478Y-5549996D01*
X5679700Y-5544533D01*
X5694481Y-5529778D01*
X5702491Y-5510489D01*
X5702509Y-5489603D01*
X5694533Y-5470300D01*
X5679778Y-5455519D01*
X5679000Y-5455196D01*
X5679000Y-5444823D01*
X5679700Y-5444533D01*
X5694481Y-5429778D01*
X5694804Y-5429000D01*
X5700000Y-5429000D01*
X5711098Y-5426793D01*
X5720506Y-5420506D01*
X5870506Y-5270506D01*
X5876793Y-5261098D01*
X5876793Y-5261098D01*
X5879000Y-5250000D01*
X5879000Y-5237012D01*
X5899866Y-5216146D01*
X5905467Y-5229700D01*
X5920222Y-5244481D01*
X5921000Y-5244804D01*
X5921000Y-5255177D01*
G36*
X6472238Y-5468774D02*
X6471000Y-5475000D01*
X6471000Y-5598988D01*
X6463494Y-5606494D01*
X6457207Y-5615902D01*
X6455000Y-5627000D01*
X6455000Y-5640089D01*
X6454836Y-5639979D01*
X6432258Y-5635488D01*
X6429946Y-5635488D01*
X6407368Y-5639979D01*
X6388227Y-5652769D01*
X6379728Y-5665488D01*
X6256501Y-5665488D01*
X6015118Y-5424106D01*
X6020506Y-5420506D01*
X6045506Y-5395506D01*
X6051793Y-5386098D01*
X6051793Y-5386098D01*
X6054000Y-5375000D01*
X6054000Y-4750346D01*
X6064102Y-4754541D01*
X6085803Y-4754559D01*
X6105860Y-4746272D01*
X6121218Y-4730940D01*
X6129541Y-4710898D01*
X6129559Y-4689197D01*
X6121272Y-4669140D01*
X6105940Y-4653782D01*
X6096835Y-4650001D01*
X6105860Y-4646272D01*
X6121218Y-4630940D01*
X6129541Y-4610898D01*
X6129559Y-4589197D01*
X6128757Y-4587255D01*
X6185506Y-4530506D01*
X6191793Y-4521098D01*
X6194000Y-4510000D01*
X6194000Y-4476012D01*
X6213213Y-4483990D01*
X6236684Y-4484010D01*
X6258377Y-4475047D01*
X6274989Y-4458464D01*
X6283990Y-4436787D01*
X6284010Y-4413316D01*
X6275047Y-4391623D01*
X6258464Y-4375011D01*
X6236787Y-4366010D01*
X6213316Y-4365990D01*
X6194000Y-4373971D01*
X6194000Y-4372012D01*
X6322506Y-4243507D01*
X6322491Y-4260397D01*
X6322812Y-4261175D01*
X6295494Y-4288494D01*
X6289207Y-4297902D01*
X6287000Y-4309000D01*
X6287000Y-4465898D01*
X6279991Y-4472894D01*
X6273507Y-4488509D01*
X6273493Y-4505417D01*
X6279949Y-4521043D01*
X6291894Y-4533009D01*
X6307509Y-4539493D01*
X6322511Y-4539506D01*
X6322509Y-4539511D01*
X6322491Y-4560397D01*
X6330467Y-4579700D01*
X6345222Y-4594481D01*
X6358521Y-4600004D01*
X6345300Y-4605467D01*
X6332090Y-4618654D01*
X6330587Y-4614763D01*
X6328827Y-4612129D01*
X6316052Y-4610363D01*
X6314637Y-4611777D01*
X6314637Y-4608948D01*
X6312871Y-4596173D01*
X6289390Y-4585778D01*
X6263718Y-4585160D01*
X6239763Y-4594413D01*
X6237129Y-4596173D01*
X6235363Y-4608948D01*
X6275000Y-4648586D01*
X6314637Y-4608948D01*
X6314637Y-4611777D01*
X6276414Y-4650000D01*
X6316052Y-4689637D01*
X6328827Y-4687871D01*
X6331837Y-4681072D01*
X6345222Y-4694481D01*
X6358521Y-4700004D01*
X6345300Y-4705467D01*
X6330519Y-4720222D01*
X6326108Y-4730844D01*
X6321272Y-4719140D01*
X6308437Y-4706282D01*
X6310237Y-4705587D01*
X6312871Y-4703827D01*
X6314637Y-4691052D01*
X6275000Y-4651414D01*
X6273586Y-4652828D01*
X6273586Y-4650000D01*
X6233948Y-4610363D01*
X6221173Y-4612129D01*
X6210778Y-4635610D01*
X6210160Y-4661282D01*
X6219413Y-4685237D01*
X6221173Y-4687871D01*
X6233948Y-4689637D01*
X6273586Y-4650000D01*
X6273586Y-4652828D01*
X6235363Y-4691052D01*
X6237129Y-4703827D01*
X6241917Y-4705947D01*
X6228782Y-4719060D01*
X6220459Y-4739102D01*
X6220441Y-4760803D01*
X6228728Y-4780860D01*
X6241563Y-4793718D01*
X6239763Y-4794413D01*
X6237129Y-4796173D01*
X6235363Y-4808948D01*
X6275000Y-4848586D01*
X6314637Y-4808948D01*
X6312871Y-4796173D01*
X6308083Y-4794053D01*
X6321218Y-4780940D01*
X6326111Y-4769158D01*
X6330467Y-4779700D01*
X6345222Y-4794481D01*
X6345253Y-4794494D01*
X6340855Y-4796195D01*
X6338357Y-4797864D01*
X6336841Y-4810427D01*
X6375000Y-4848586D01*
X6375557Y-4848029D01*
X6376971Y-4849443D01*
X6376414Y-4850000D01*
X6376971Y-4850557D01*
X6375557Y-4851971D01*
X6375000Y-4851414D01*
X6373586Y-4852828D01*
X6373586Y-4850000D01*
X6335427Y-4811841D01*
X6329141Y-4812599D01*
X6328827Y-4812129D01*
X6316052Y-4810363D01*
X6276414Y-4850000D01*
X6316052Y-4889637D01*
X6328827Y-4887871D01*
X6329041Y-4887388D01*
X6335427Y-4888159D01*
X6373586Y-4850000D01*
X6373586Y-4852828D01*
X6336841Y-4889573D01*
X6338357Y-4902136D01*
X6345606Y-4905340D01*
X6345300Y-4905467D01*
X6330519Y-4920222D01*
X6326108Y-4930844D01*
X6321272Y-4919140D01*
X6308437Y-4906282D01*
X6310237Y-4905587D01*
X6312871Y-4903827D01*
X6314637Y-4891052D01*
X6275000Y-4851414D01*
X6273586Y-4852828D01*
X6273586Y-4850000D01*
X6233948Y-4810363D01*
X6221173Y-4812129D01*
X6210778Y-4835610D01*
X6210160Y-4861282D01*
X6219413Y-4885237D01*
X6221173Y-4887871D01*
X6233948Y-4889637D01*
X6273586Y-4850000D01*
X6273586Y-4852828D01*
X6235363Y-4891052D01*
X6237129Y-4903827D01*
X6241917Y-4905947D01*
X6228782Y-4919060D01*
X6220459Y-4939102D01*
X6220441Y-4960803D01*
X6228728Y-4980860D01*
X6244060Y-4996218D01*
X6253165Y-4999999D01*
X6244140Y-5003728D01*
X6228782Y-5019060D01*
X6220459Y-5039102D01*
X6220450Y-5049637D01*
X6174559Y-5095528D01*
X6174559Y-4988097D01*
X6166272Y-4968040D01*
X6150940Y-4952682D01*
X6130898Y-4944359D01*
X6109197Y-4944341D01*
X6089140Y-4952628D01*
X6073782Y-4967960D01*
X6065459Y-4988002D01*
X6065441Y-5009703D01*
X6073728Y-5029760D01*
X6089060Y-5045118D01*
X6109102Y-5053441D01*
X6130803Y-5053459D01*
X6150860Y-5045172D01*
X6166218Y-5029840D01*
X6174541Y-5009798D01*
X6174559Y-4988097D01*
X6174559Y-5095528D01*
X6132757Y-5137331D01*
X6130898Y-5136559D01*
X6109197Y-5136541D01*
X6089140Y-5144828D01*
X6073782Y-5160160D01*
X6065459Y-5180202D01*
X6065441Y-5201903D01*
X6073728Y-5221960D01*
X6089060Y-5237318D01*
X6109102Y-5245641D01*
X6130803Y-5245659D01*
X6150860Y-5237372D01*
X6166218Y-5222040D01*
X6174541Y-5201998D01*
X6174559Y-5180297D01*
X6173757Y-5178355D01*
X6210637Y-5141476D01*
X6210160Y-5161282D01*
X6219413Y-5185237D01*
X6221173Y-5187871D01*
X6233948Y-5189637D01*
X6273586Y-5150000D01*
X6273029Y-5149443D01*
X6274443Y-5148029D01*
X6275000Y-5148586D01*
X6314637Y-5108948D01*
X6312871Y-5096173D01*
X6308083Y-5094053D01*
X6321218Y-5080940D01*
X6326111Y-5069158D01*
X6330467Y-5079700D01*
X6345222Y-5094481D01*
X6358521Y-5100004D01*
X6345300Y-5105467D01*
X6332090Y-5118654D01*
X6330587Y-5114763D01*
X6328827Y-5112129D01*
X6316052Y-5110363D01*
X6276414Y-5150000D01*
X6316052Y-5189637D01*
X6328827Y-5187871D01*
X6331837Y-5181072D01*
X6345222Y-5194481D01*
X6358521Y-5200004D01*
X6345300Y-5205467D01*
X6330519Y-5220222D01*
X6322509Y-5239511D01*
X6322493Y-5257498D01*
X6316583Y-5257493D01*
X6314637Y-5258297D01*
X6314637Y-5191052D01*
X6275000Y-5151414D01*
X6235363Y-5191052D01*
X6237129Y-5203827D01*
X6260610Y-5214222D01*
X6286282Y-5214840D01*
X6310237Y-5205587D01*
X6312871Y-5203827D01*
X6314637Y-5191052D01*
X6314637Y-5258297D01*
X6300957Y-5263949D01*
X6288991Y-5275894D01*
X6282507Y-5291509D01*
X6282493Y-5308417D01*
X6288949Y-5324043D01*
X6300894Y-5336009D01*
X6316509Y-5342493D01*
X6322506Y-5342498D01*
X6322491Y-5360397D01*
X6330189Y-5379029D01*
X6330177Y-5379038D01*
X6325047Y-5366623D01*
X6308464Y-5350011D01*
X6286787Y-5341010D01*
X6263316Y-5340990D01*
X6241623Y-5349953D01*
X6225011Y-5366536D01*
X6216010Y-5388213D01*
X6215990Y-5411684D01*
X6224953Y-5433377D01*
X6237554Y-5446000D01*
X6231102Y-5446000D01*
X6224106Y-5438991D01*
X6208491Y-5432507D01*
X6200389Y-5432500D01*
X6208990Y-5411787D01*
X6209010Y-5388316D01*
X6200047Y-5366623D01*
X6183464Y-5350011D01*
X6161787Y-5341010D01*
X6138316Y-5340990D01*
X6116623Y-5349953D01*
X6100011Y-5366536D01*
X6091010Y-5388213D01*
X6090990Y-5411684D01*
X6099953Y-5433377D01*
X6116536Y-5449989D01*
X6138213Y-5458990D01*
X6160622Y-5459009D01*
X6157507Y-5466509D01*
X6157493Y-5483417D01*
X6163949Y-5499043D01*
X6175894Y-5511009D01*
X6191509Y-5517493D01*
X6208417Y-5517507D01*
X6224043Y-5511051D01*
X6231106Y-5504000D01*
X6275000Y-5504000D01*
X6286098Y-5501793D01*
X6295506Y-5495506D01*
X6324866Y-5466146D01*
X6330467Y-5479700D01*
X6345222Y-5494481D01*
X6345359Y-5494538D01*
X6338991Y-5500894D01*
X6332507Y-5516509D01*
X6332493Y-5533417D01*
X6338949Y-5549043D01*
X6350894Y-5561009D01*
X6366509Y-5567493D01*
X6383417Y-5567507D01*
X6399043Y-5561051D01*
X6411009Y-5549106D01*
X6417493Y-5533491D01*
X6417501Y-5523511D01*
X6472238Y-5468774D01*
X6472238Y-5468774D01*
G37*
X6472238Y-5468774D02*
X6471000Y-5475000D01*
X6471000Y-5598988D01*
X6463494Y-5606494D01*
X6457207Y-5615902D01*
X6455000Y-5627000D01*
X6455000Y-5640089D01*
X6454836Y-5639979D01*
X6432258Y-5635488D01*
X6429946Y-5635488D01*
X6407368Y-5639979D01*
X6388227Y-5652769D01*
X6379728Y-5665488D01*
X6256501Y-5665488D01*
X6015118Y-5424106D01*
X6020506Y-5420506D01*
X6045506Y-5395506D01*
X6051793Y-5386098D01*
X6051793Y-5386098D01*
X6054000Y-5375000D01*
X6054000Y-4750346D01*
X6064102Y-4754541D01*
X6085803Y-4754559D01*
X6105860Y-4746272D01*
X6121218Y-4730940D01*
X6129541Y-4710898D01*
X6129559Y-4689197D01*
X6121272Y-4669140D01*
X6105940Y-4653782D01*
X6096835Y-4650001D01*
X6105860Y-4646272D01*
X6121218Y-4630940D01*
X6129541Y-4610898D01*
X6129559Y-4589197D01*
X6128757Y-4587255D01*
X6185506Y-4530506D01*
X6191793Y-4521098D01*
X6194000Y-4510000D01*
X6194000Y-4476012D01*
X6213213Y-4483990D01*
X6236684Y-4484010D01*
X6258377Y-4475047D01*
X6274989Y-4458464D01*
X6283990Y-4436787D01*
X6284010Y-4413316D01*
X6275047Y-4391623D01*
X6258464Y-4375011D01*
X6236787Y-4366010D01*
X6213316Y-4365990D01*
X6194000Y-4373971D01*
X6194000Y-4372012D01*
X6322506Y-4243507D01*
X6322491Y-4260397D01*
X6322812Y-4261175D01*
X6295494Y-4288494D01*
X6289207Y-4297902D01*
X6287000Y-4309000D01*
X6287000Y-4465898D01*
X6279991Y-4472894D01*
X6273507Y-4488509D01*
X6273493Y-4505417D01*
X6279949Y-4521043D01*
X6291894Y-4533009D01*
X6307509Y-4539493D01*
X6322511Y-4539506D01*
X6322509Y-4539511D01*
X6322491Y-4560397D01*
X6330467Y-4579700D01*
X6345222Y-4594481D01*
X6358521Y-4600004D01*
X6345300Y-4605467D01*
X6332090Y-4618654D01*
X6330587Y-4614763D01*
X6328827Y-4612129D01*
X6316052Y-4610363D01*
X6314637Y-4611777D01*
X6314637Y-4608948D01*
X6312871Y-4596173D01*
X6289390Y-4585778D01*
X6263718Y-4585160D01*
X6239763Y-4594413D01*
X6237129Y-4596173D01*
X6235363Y-4608948D01*
X6275000Y-4648586D01*
X6314637Y-4608948D01*
X6314637Y-4611777D01*
X6276414Y-4650000D01*
X6316052Y-4689637D01*
X6328827Y-4687871D01*
X6331837Y-4681072D01*
X6345222Y-4694481D01*
X6358521Y-4700004D01*
X6345300Y-4705467D01*
X6330519Y-4720222D01*
X6326108Y-4730844D01*
X6321272Y-4719140D01*
X6308437Y-4706282D01*
X6310237Y-4705587D01*
X6312871Y-4703827D01*
X6314637Y-4691052D01*
X6275000Y-4651414D01*
X6273586Y-4652828D01*
X6273586Y-4650000D01*
X6233948Y-4610363D01*
X6221173Y-4612129D01*
X6210778Y-4635610D01*
X6210160Y-4661282D01*
X6219413Y-4685237D01*
X6221173Y-4687871D01*
X6233948Y-4689637D01*
X6273586Y-4650000D01*
X6273586Y-4652828D01*
X6235363Y-4691052D01*
X6237129Y-4703827D01*
X6241917Y-4705947D01*
X6228782Y-4719060D01*
X6220459Y-4739102D01*
X6220441Y-4760803D01*
X6228728Y-4780860D01*
X6241563Y-4793718D01*
X6239763Y-4794413D01*
X6237129Y-4796173D01*
X6235363Y-4808948D01*
X6275000Y-4848586D01*
X6314637Y-4808948D01*
X6312871Y-4796173D01*
X6308083Y-4794053D01*
X6321218Y-4780940D01*
X6326111Y-4769158D01*
X6330467Y-4779700D01*
X6345222Y-4794481D01*
X6345253Y-4794494D01*
X6340855Y-4796195D01*
X6338357Y-4797864D01*
X6336841Y-4810427D01*
X6375000Y-4848586D01*
X6375557Y-4848029D01*
X6376971Y-4849443D01*
X6376414Y-4850000D01*
X6376971Y-4850557D01*
X6375557Y-4851971D01*
X6375000Y-4851414D01*
X6373586Y-4852828D01*
X6373586Y-4850000D01*
X6335427Y-4811841D01*
X6329141Y-4812599D01*
X6328827Y-4812129D01*
X6316052Y-4810363D01*
X6276414Y-4850000D01*
X6316052Y-4889637D01*
X6328827Y-4887871D01*
X6329041Y-4887388D01*
X6335427Y-4888159D01*
X6373586Y-4850000D01*
X6373586Y-4852828D01*
X6336841Y-4889573D01*
X6338357Y-4902136D01*
X6345606Y-4905340D01*
X6345300Y-4905467D01*
X6330519Y-4920222D01*
X6326108Y-4930844D01*
X6321272Y-4919140D01*
X6308437Y-4906282D01*
X6310237Y-4905587D01*
X6312871Y-4903827D01*
X6314637Y-4891052D01*
X6275000Y-4851414D01*
X6273586Y-4852828D01*
X6273586Y-4850000D01*
X6233948Y-4810363D01*
X6221173Y-4812129D01*
X6210778Y-4835610D01*
X6210160Y-4861282D01*
X6219413Y-4885237D01*
X6221173Y-4887871D01*
X6233948Y-4889637D01*
X6273586Y-4850000D01*
X6273586Y-4852828D01*
X6235363Y-4891052D01*
X6237129Y-4903827D01*
X6241917Y-4905947D01*
X6228782Y-4919060D01*
X6220459Y-4939102D01*
X6220441Y-4960803D01*
X6228728Y-4980860D01*
X6244060Y-4996218D01*
X6253165Y-4999999D01*
X6244140Y-5003728D01*
X6228782Y-5019060D01*
X6220459Y-5039102D01*
X6220450Y-5049637D01*
X6174559Y-5095528D01*
X6174559Y-4988097D01*
X6166272Y-4968040D01*
X6150940Y-4952682D01*
X6130898Y-4944359D01*
X6109197Y-4944341D01*
X6089140Y-4952628D01*
X6073782Y-4967960D01*
X6065459Y-4988002D01*
X6065441Y-5009703D01*
X6073728Y-5029760D01*
X6089060Y-5045118D01*
X6109102Y-5053441D01*
X6130803Y-5053459D01*
X6150860Y-5045172D01*
X6166218Y-5029840D01*
X6174541Y-5009798D01*
X6174559Y-4988097D01*
X6174559Y-5095528D01*
X6132757Y-5137331D01*
X6130898Y-5136559D01*
X6109197Y-5136541D01*
X6089140Y-5144828D01*
X6073782Y-5160160D01*
X6065459Y-5180202D01*
X6065441Y-5201903D01*
X6073728Y-5221960D01*
X6089060Y-5237318D01*
X6109102Y-5245641D01*
X6130803Y-5245659D01*
X6150860Y-5237372D01*
X6166218Y-5222040D01*
X6174541Y-5201998D01*
X6174559Y-5180297D01*
X6173757Y-5178355D01*
X6210637Y-5141476D01*
X6210160Y-5161282D01*
X6219413Y-5185237D01*
X6221173Y-5187871D01*
X6233948Y-5189637D01*
X6273586Y-5150000D01*
X6273029Y-5149443D01*
X6274443Y-5148029D01*
X6275000Y-5148586D01*
X6314637Y-5108948D01*
X6312871Y-5096173D01*
X6308083Y-5094053D01*
X6321218Y-5080940D01*
X6326111Y-5069158D01*
X6330467Y-5079700D01*
X6345222Y-5094481D01*
X6358521Y-5100004D01*
X6345300Y-5105467D01*
X6332090Y-5118654D01*
X6330587Y-5114763D01*
X6328827Y-5112129D01*
X6316052Y-5110363D01*
X6276414Y-5150000D01*
X6316052Y-5189637D01*
X6328827Y-5187871D01*
X6331837Y-5181072D01*
X6345222Y-5194481D01*
X6358521Y-5200004D01*
X6345300Y-5205467D01*
X6330519Y-5220222D01*
X6322509Y-5239511D01*
X6322493Y-5257498D01*
X6316583Y-5257493D01*
X6314637Y-5258297D01*
X6314637Y-5191052D01*
X6275000Y-5151414D01*
X6235363Y-5191052D01*
X6237129Y-5203827D01*
X6260610Y-5214222D01*
X6286282Y-5214840D01*
X6310237Y-5205587D01*
X6312871Y-5203827D01*
X6314637Y-5191052D01*
X6314637Y-5258297D01*
X6300957Y-5263949D01*
X6288991Y-5275894D01*
X6282507Y-5291509D01*
X6282493Y-5308417D01*
X6288949Y-5324043D01*
X6300894Y-5336009D01*
X6316509Y-5342493D01*
X6322506Y-5342498D01*
X6322491Y-5360397D01*
X6330189Y-5379029D01*
X6330177Y-5379038D01*
X6325047Y-5366623D01*
X6308464Y-5350011D01*
X6286787Y-5341010D01*
X6263316Y-5340990D01*
X6241623Y-5349953D01*
X6225011Y-5366536D01*
X6216010Y-5388213D01*
X6215990Y-5411684D01*
X6224953Y-5433377D01*
X6237554Y-5446000D01*
X6231102Y-5446000D01*
X6224106Y-5438991D01*
X6208491Y-5432507D01*
X6200389Y-5432500D01*
X6208990Y-5411787D01*
X6209010Y-5388316D01*
X6200047Y-5366623D01*
X6183464Y-5350011D01*
X6161787Y-5341010D01*
X6138316Y-5340990D01*
X6116623Y-5349953D01*
X6100011Y-5366536D01*
X6091010Y-5388213D01*
X6090990Y-5411684D01*
X6099953Y-5433377D01*
X6116536Y-5449989D01*
X6138213Y-5458990D01*
X6160622Y-5459009D01*
X6157507Y-5466509D01*
X6157493Y-5483417D01*
X6163949Y-5499043D01*
X6175894Y-5511009D01*
X6191509Y-5517493D01*
X6208417Y-5517507D01*
X6224043Y-5511051D01*
X6231106Y-5504000D01*
X6275000Y-5504000D01*
X6286098Y-5501793D01*
X6295506Y-5495506D01*
X6324866Y-5466146D01*
X6330467Y-5479700D01*
X6345222Y-5494481D01*
X6345359Y-5494538D01*
X6338991Y-5500894D01*
X6332507Y-5516509D01*
X6332493Y-5533417D01*
X6338949Y-5549043D01*
X6350894Y-5561009D01*
X6366509Y-5567493D01*
X6383417Y-5567507D01*
X6399043Y-5561051D01*
X6411009Y-5549106D01*
X6417493Y-5533491D01*
X6417501Y-5523511D01*
X6472238Y-5468774D01*
G36*
X6596000Y-5112702D02*
X6583491Y-5107507D01*
X6566583Y-5107493D01*
X6550957Y-5113949D01*
X6538991Y-5125894D01*
X6532507Y-5141509D01*
X6532493Y-5158417D01*
X6538949Y-5174043D01*
X6546000Y-5181106D01*
X6546000Y-5212702D01*
X6533491Y-5207507D01*
X6516583Y-5207493D01*
X6504000Y-5212692D01*
X6504000Y-4837012D01*
X6596000Y-4745012D01*
X6596000Y-5112702D01*
X6596000Y-5112702D01*
G37*
X6596000Y-5112702D02*
X6583491Y-5107507D01*
X6566583Y-5107493D01*
X6550957Y-5113949D01*
X6538991Y-5125894D01*
X6532507Y-5141509D01*
X6532493Y-5158417D01*
X6538949Y-5174043D01*
X6546000Y-5181106D01*
X6546000Y-5212702D01*
X6533491Y-5207507D01*
X6516583Y-5207493D01*
X6504000Y-5212692D01*
X6504000Y-4837012D01*
X6596000Y-4745012D01*
X6596000Y-5112702D01*
G36*
X6602102Y-5635488D02*
X6592129Y-5635488D01*
X6582941Y-5639294D01*
X6575908Y-5646327D01*
X6573399Y-5652383D01*
X6560102Y-5643498D01*
X6560102Y-5631102D01*
X6557894Y-5620004D01*
X6557894Y-5620004D01*
X6554000Y-5614176D01*
X6554000Y-5537298D01*
X6566509Y-5542493D01*
X6583417Y-5542507D01*
X6599043Y-5536051D01*
X6602102Y-5532997D01*
X6602102Y-5635488D01*
X6602102Y-5635488D01*
G37*
X6602102Y-5635488D02*
X6592129Y-5635488D01*
X6582941Y-5639294D01*
X6575908Y-5646327D01*
X6573399Y-5652383D01*
X6560102Y-5643498D01*
X6560102Y-5631102D01*
X6557894Y-5620004D01*
X6557894Y-5620004D01*
X6554000Y-5614176D01*
X6554000Y-5537298D01*
X6566509Y-5542493D01*
X6583417Y-5542507D01*
X6599043Y-5536051D01*
X6602102Y-5532997D01*
X6602102Y-5635488D01*
G36*
X6676971Y-4750557D02*
X6675557Y-4751971D01*
X6675000Y-4751414D01*
X6674443Y-4751971D01*
X6673029Y-4750557D01*
X6673586Y-4750000D01*
X6673029Y-4749443D01*
X6674443Y-4748029D01*
X6675000Y-4748586D01*
X6675557Y-4748029D01*
X6676971Y-4749443D01*
X6676414Y-4750000D01*
X6676971Y-4750557D01*
X6676971Y-4750557D01*
G37*
X6676971Y-4750557D02*
X6675557Y-4751971D01*
X6675000Y-4751414D01*
X6674443Y-4751971D01*
X6673029Y-4750557D01*
X6673586Y-4750000D01*
X6673029Y-4749443D01*
X6674443Y-4748029D01*
X6675000Y-4748586D01*
X6675557Y-4748029D01*
X6676971Y-4749443D01*
X6676414Y-4750000D01*
X6676971Y-4750557D01*
G36*
X6696000Y-5668898D02*
X6690102Y-5674786D01*
X6690102Y-5655516D01*
X6686296Y-5646327D01*
X6679263Y-5639294D01*
X6670075Y-5635488D01*
X6660129Y-5635488D01*
X6660102Y-5635488D01*
X6660102Y-5500660D01*
X6664511Y-5502491D01*
X6685397Y-5502509D01*
X6696000Y-5498128D01*
X6696000Y-5668898D01*
X6696000Y-5668898D01*
G37*
X6696000Y-5668898D02*
X6690102Y-5674786D01*
X6690102Y-5655516D01*
X6686296Y-5646327D01*
X6679263Y-5639294D01*
X6670075Y-5635488D01*
X6660129Y-5635488D01*
X6660102Y-5635488D01*
X6660102Y-5500660D01*
X6664511Y-5502491D01*
X6685397Y-5502509D01*
X6696000Y-5498128D01*
X6696000Y-5668898D01*
G36*
X7847047Y-5878543D02*
X7820300Y-5878543D01*
X7820300Y-5680320D01*
X7820300Y-4105517D01*
X7798559Y-4052899D01*
X7758337Y-4012606D01*
X7705757Y-3990773D01*
X7648824Y-3990723D01*
X7596206Y-4012465D01*
X7555913Y-4052687D01*
X7534080Y-4105267D01*
X7534030Y-4162200D01*
X7555772Y-4214818D01*
X7595994Y-4255110D01*
X7648574Y-4276944D01*
X7705507Y-4276993D01*
X7758125Y-4255252D01*
X7798418Y-4215030D01*
X7820251Y-4162450D01*
X7820300Y-4105517D01*
X7820300Y-5680320D01*
X7814350Y-5665919D01*
X7814350Y-4729312D01*
X7814350Y-4692750D01*
X7814350Y-4673250D01*
X7814350Y-4636688D01*
X7809022Y-4623824D01*
X7804361Y-4619164D01*
X7804361Y-4414256D01*
X7794585Y-4390596D01*
X7776499Y-4372479D01*
X7752856Y-4362661D01*
X7727256Y-4362639D01*
X7703596Y-4372415D01*
X7685479Y-4390501D01*
X7675661Y-4414144D01*
X7675639Y-4439744D01*
X7685415Y-4463404D01*
X7703501Y-4481521D01*
X7727144Y-4491339D01*
X7752744Y-4491361D01*
X7776404Y-4481585D01*
X7794521Y-4463499D01*
X7804339Y-4439856D01*
X7804361Y-4414256D01*
X7804361Y-4619164D01*
X7799176Y-4613978D01*
X7786312Y-4608650D01*
X7772388Y-4608650D01*
X7749750Y-4608650D01*
X7741000Y-4617400D01*
X7741000Y-4682000D01*
X7805600Y-4682000D01*
X7814350Y-4673250D01*
X7814350Y-4692750D01*
X7805600Y-4684000D01*
X7741000Y-4684000D01*
X7741000Y-4748600D01*
X7749750Y-4757350D01*
X7772388Y-4757350D01*
X7786312Y-4757350D01*
X7799176Y-4752022D01*
X7809022Y-4742176D01*
X7814350Y-4729312D01*
X7814350Y-5665919D01*
X7798559Y-5627702D01*
X7785294Y-5614413D01*
X7785294Y-5353646D01*
X7775978Y-5329524D01*
X7775010Y-5328073D01*
X7775010Y-5254108D01*
X7766654Y-5233886D01*
X7751196Y-5218400D01*
X7749000Y-5217489D01*
X7749000Y-5215000D01*
X7746793Y-5203902D01*
X7740506Y-5194494D01*
X7739000Y-5192988D01*
X7739000Y-4748600D01*
X7739000Y-4684000D01*
X7739000Y-4682000D01*
X7739000Y-4617400D01*
X7730250Y-4608650D01*
X7707612Y-4608650D01*
X7693688Y-4608650D01*
X7680824Y-4613978D01*
X7670978Y-4623824D01*
X7665650Y-4636688D01*
X7665650Y-4673250D01*
X7674400Y-4682000D01*
X7739000Y-4682000D01*
X7739000Y-4684000D01*
X7674400Y-4684000D01*
X7665650Y-4692750D01*
X7665650Y-4729312D01*
X7670978Y-4742176D01*
X7680824Y-4752022D01*
X7693688Y-4757350D01*
X7707612Y-4757350D01*
X7730250Y-4757350D01*
X7739000Y-4748600D01*
X7739000Y-5192988D01*
X7637173Y-5091161D01*
X7638990Y-5086787D01*
X7639010Y-5063316D01*
X7630047Y-5041623D01*
X7613464Y-5025011D01*
X7591787Y-5016010D01*
X7568316Y-5015990D01*
X7551000Y-5023144D01*
X7551000Y-4726842D01*
X7568213Y-4733990D01*
X7591684Y-4734010D01*
X7613377Y-4725047D01*
X7629989Y-4708464D01*
X7638990Y-4686787D01*
X7639010Y-4663316D01*
X7630047Y-4641623D01*
X7613464Y-4625011D01*
X7609000Y-4623158D01*
X7609000Y-4475906D01*
X7606793Y-4464808D01*
X7600506Y-4455399D01*
X7502393Y-4357286D01*
X7502393Y-4216984D01*
X7492527Y-4191369D01*
X7490569Y-4188438D01*
X7477331Y-4186130D01*
X7434485Y-4228976D01*
X7477331Y-4271823D01*
X7490569Y-4269515D01*
X7501705Y-4244426D01*
X7502393Y-4216984D01*
X7502393Y-4357286D01*
X7490244Y-4345138D01*
X7492061Y-4340764D01*
X7492081Y-4317292D01*
X7483118Y-4295599D01*
X7473669Y-4286134D01*
X7475917Y-4273237D01*
X7433071Y-4230391D01*
X7432514Y-4230947D01*
X7431100Y-4229533D01*
X7431657Y-4228976D01*
X7431100Y-4228420D01*
X7432514Y-4227005D01*
X7433071Y-4227562D01*
X7475917Y-4184716D01*
X7473668Y-4171816D01*
X7483059Y-4162441D01*
X7492061Y-4140764D01*
X7492081Y-4117292D01*
X7483118Y-4095599D01*
X7466535Y-4078988D01*
X7444858Y-4069987D01*
X7421387Y-4069966D01*
X7399694Y-4078929D01*
X7383082Y-4095512D01*
X7374081Y-4117189D01*
X7374061Y-4140661D01*
X7375907Y-4145128D01*
X7354494Y-4166541D01*
X7348207Y-4175949D01*
X7346000Y-4187047D01*
X7346000Y-4487702D01*
X7333491Y-4482507D01*
X7316583Y-4482493D01*
X7300957Y-4488949D01*
X7288991Y-4500894D01*
X7282507Y-4516509D01*
X7282499Y-4526489D01*
X7229000Y-4579988D01*
X7229000Y-4487012D01*
X7248513Y-4467499D01*
X7258417Y-4467507D01*
X7274043Y-4461051D01*
X7286009Y-4449106D01*
X7292493Y-4433491D01*
X7292507Y-4416583D01*
X7286051Y-4400957D01*
X7274106Y-4388991D01*
X7258491Y-4382507D01*
X7241583Y-4382493D01*
X7225957Y-4388949D01*
X7213991Y-4400894D01*
X7207507Y-4416509D01*
X7207499Y-4426489D01*
X7179494Y-4454494D01*
X7173207Y-4463902D01*
X7171000Y-4475000D01*
X7171000Y-4875000D01*
X7173207Y-4886098D01*
X7179494Y-4895506D01*
X7196000Y-4912012D01*
X7196000Y-5062702D01*
X7183491Y-5057507D01*
X7166583Y-5057493D01*
X7150957Y-5063949D01*
X7138991Y-5075894D01*
X7134010Y-5087890D01*
X7134010Y-4638316D01*
X7134010Y-4238316D01*
X7125047Y-4216623D01*
X7108464Y-4200011D01*
X7086787Y-4191010D01*
X7063316Y-4190990D01*
X7041623Y-4199953D01*
X7025011Y-4216536D01*
X7016010Y-4238213D01*
X7015990Y-4261684D01*
X7024953Y-4283377D01*
X7041536Y-4299989D01*
X7063213Y-4308990D01*
X7086684Y-4309010D01*
X7108377Y-4300047D01*
X7124989Y-4283464D01*
X7133990Y-4261787D01*
X7134010Y-4238316D01*
X7134010Y-4638316D01*
X7125047Y-4616623D01*
X7108464Y-4600011D01*
X7086787Y-4591010D01*
X7063316Y-4590990D01*
X7041623Y-4599953D01*
X7025011Y-4616536D01*
X7016010Y-4638213D01*
X7015990Y-4661684D01*
X7024953Y-4683377D01*
X7041536Y-4699989D01*
X7063213Y-4708990D01*
X7086684Y-4709010D01*
X7108377Y-4700047D01*
X7124989Y-4683464D01*
X7133990Y-4661787D01*
X7134010Y-4638316D01*
X7134010Y-5087890D01*
X7132507Y-5091509D01*
X7132499Y-5101489D01*
X7129494Y-5104494D01*
X7123207Y-5113902D01*
X7121000Y-5125000D01*
X7121000Y-5175000D01*
X7123207Y-5186098D01*
X7129494Y-5195506D01*
X7146000Y-5212012D01*
X7146000Y-5268898D01*
X7138991Y-5275894D01*
X7132507Y-5291509D01*
X7132493Y-5308417D01*
X7138949Y-5324043D01*
X7150894Y-5336009D01*
X7166509Y-5342493D01*
X7182506Y-5342507D01*
X7182493Y-5358417D01*
X7188949Y-5374043D01*
X7200894Y-5386009D01*
X7216509Y-5392493D01*
X7233417Y-5392507D01*
X7246000Y-5387308D01*
X7246000Y-5418898D01*
X7238991Y-5425894D01*
X7232507Y-5441509D01*
X7232493Y-5458417D01*
X7238949Y-5474043D01*
X7250894Y-5486009D01*
X7266509Y-5492493D01*
X7283417Y-5492507D01*
X7285836Y-5491508D01*
X7288949Y-5499043D01*
X7300894Y-5511009D01*
X7316509Y-5517493D01*
X7333417Y-5517507D01*
X7349043Y-5511051D01*
X7361009Y-5499106D01*
X7367493Y-5483491D01*
X7367507Y-5466583D01*
X7361051Y-5450957D01*
X7352483Y-5442375D01*
X7352483Y-5442375D01*
X7351793Y-5438902D01*
X7351793Y-5438902D01*
X7345506Y-5429494D01*
X7329000Y-5412988D01*
X7329000Y-5412298D01*
X7341509Y-5417493D01*
X7358417Y-5417507D01*
X7374043Y-5411051D01*
X7377095Y-5408004D01*
X7383024Y-5422354D01*
X7399606Y-5438965D01*
X7399643Y-5438980D01*
X7383082Y-5455512D01*
X7374081Y-5477189D01*
X7374061Y-5500661D01*
X7383024Y-5522354D01*
X7399606Y-5538965D01*
X7399643Y-5538980D01*
X7383082Y-5555512D01*
X7374081Y-5577189D01*
X7374061Y-5600661D01*
X7383024Y-5622354D01*
X7391647Y-5630992D01*
X7384910Y-5633782D01*
X7377877Y-5640815D01*
X7374071Y-5650004D01*
X7374071Y-5659949D01*
X7374071Y-5727949D01*
X7377877Y-5737138D01*
X7384909Y-5744170D01*
X7394098Y-5747976D01*
X7404044Y-5747976D01*
X7472044Y-5747976D01*
X7481232Y-5744170D01*
X7488265Y-5737138D01*
X7492071Y-5727949D01*
X7492071Y-5718004D01*
X7492071Y-5650004D01*
X7488265Y-5640815D01*
X7481232Y-5633782D01*
X7474494Y-5630991D01*
X7483059Y-5622441D01*
X7492061Y-5600764D01*
X7492081Y-5577292D01*
X7483118Y-5555599D01*
X7466535Y-5538988D01*
X7466499Y-5538973D01*
X7483059Y-5522441D01*
X7492061Y-5500764D01*
X7492081Y-5477292D01*
X7483118Y-5455599D01*
X7466535Y-5438988D01*
X7466499Y-5438973D01*
X7483059Y-5422441D01*
X7492061Y-5400764D01*
X7492081Y-5377292D01*
X7490235Y-5372824D01*
X7542506Y-5320553D01*
X7548793Y-5311145D01*
X7548793Y-5311145D01*
X7551000Y-5300047D01*
X7551000Y-5126842D01*
X7568213Y-5133990D01*
X7591684Y-5134010D01*
X7596152Y-5132164D01*
X7685607Y-5221619D01*
X7673400Y-5233804D01*
X7665010Y-5254012D01*
X7664990Y-5275892D01*
X7673346Y-5296114D01*
X7685756Y-5308546D01*
X7684524Y-5309022D01*
X7681859Y-5310802D01*
X7680038Y-5323624D01*
X7720000Y-5363586D01*
X7759962Y-5323624D01*
X7758141Y-5310802D01*
X7753865Y-5308908D01*
X7766600Y-5296196D01*
X7774990Y-5275988D01*
X7775010Y-5254108D01*
X7775010Y-5328073D01*
X7774198Y-5326859D01*
X7761376Y-5325038D01*
X7721414Y-5365000D01*
X7761376Y-5404962D01*
X7774198Y-5403141D01*
X7784668Y-5379497D01*
X7785294Y-5353646D01*
X7785294Y-5614413D01*
X7759962Y-5589037D01*
X7759962Y-5406376D01*
X7720000Y-5366414D01*
X7718586Y-5367828D01*
X7718586Y-5365000D01*
X7678624Y-5325038D01*
X7665802Y-5326859D01*
X7655332Y-5350503D01*
X7654706Y-5376354D01*
X7664022Y-5400476D01*
X7665802Y-5403141D01*
X7678624Y-5404962D01*
X7718586Y-5365000D01*
X7718586Y-5367828D01*
X7680038Y-5406376D01*
X7681859Y-5419198D01*
X7705503Y-5429668D01*
X7731354Y-5430294D01*
X7755476Y-5420978D01*
X7758141Y-5419198D01*
X7759962Y-5406376D01*
X7759962Y-5589037D01*
X7758337Y-5587409D01*
X7705757Y-5565576D01*
X7648824Y-5565526D01*
X7596206Y-5587268D01*
X7555913Y-5627490D01*
X7534080Y-5680070D01*
X7534030Y-5737003D01*
X7555772Y-5789621D01*
X7595994Y-5829914D01*
X7648574Y-5851747D01*
X7705507Y-5851796D01*
X7758125Y-5830055D01*
X7798418Y-5789833D01*
X7820251Y-5737253D01*
X7820300Y-5680320D01*
X7820300Y-5878543D01*
X7014507Y-5878543D01*
X7014507Y-5528583D01*
X7008051Y-5512957D01*
X7001000Y-5505894D01*
X7001000Y-4523000D01*
X6998793Y-4511902D01*
X6992506Y-4502494D01*
X6939361Y-4449349D01*
X6939361Y-4237256D01*
X6929585Y-4213596D01*
X6911499Y-4195479D01*
X6887856Y-4185661D01*
X6862256Y-4185639D01*
X6838596Y-4195415D01*
X6820479Y-4213501D01*
X6810661Y-4237144D01*
X6810639Y-4262744D01*
X6820415Y-4286404D01*
X6838501Y-4304521D01*
X6862144Y-4314339D01*
X6887744Y-4314361D01*
X6911404Y-4304585D01*
X6929521Y-4286499D01*
X6939339Y-4262856D01*
X6939361Y-4237256D01*
X6939361Y-4449349D01*
X6880499Y-4390486D01*
X6880507Y-4380583D01*
X6874051Y-4364957D01*
X6862106Y-4352991D01*
X6846491Y-4346507D01*
X6829583Y-4346493D01*
X6813957Y-4352949D01*
X6801991Y-4364894D01*
X6795507Y-4380509D01*
X6795493Y-4397417D01*
X6801949Y-4413043D01*
X6813894Y-4425009D01*
X6829509Y-4431493D01*
X6839489Y-4431501D01*
X6943000Y-4535012D01*
X6943000Y-5505898D01*
X6939350Y-5509541D01*
X6939350Y-4694323D01*
X6939350Y-4684377D01*
X6939350Y-4605677D01*
X6935544Y-4596489D01*
X6928511Y-4589456D01*
X6919323Y-4585650D01*
X6909377Y-4585650D01*
X6830677Y-4585650D01*
X6821489Y-4589456D01*
X6814456Y-4596489D01*
X6810650Y-4605677D01*
X6810650Y-4615623D01*
X6810650Y-4694323D01*
X6814456Y-4703511D01*
X6821489Y-4710544D01*
X6830000Y-4714069D01*
X6830000Y-4813884D01*
X6828827Y-4812129D01*
X6816052Y-4810363D01*
X6776414Y-4850000D01*
X6776971Y-4850557D01*
X6775557Y-4851971D01*
X6775000Y-4851414D01*
X6774443Y-4851971D01*
X6773029Y-4850557D01*
X6773586Y-4850000D01*
X6773029Y-4849443D01*
X6774443Y-4848029D01*
X6775000Y-4848586D01*
X6814637Y-4808948D01*
X6812871Y-4796173D01*
X6789390Y-4785778D01*
X6763718Y-4785160D01*
X6754000Y-4788913D01*
X6754000Y-4200000D01*
X6751793Y-4188902D01*
X6745506Y-4179494D01*
X6727200Y-4161188D01*
X6727491Y-4160489D01*
X6727509Y-4139603D01*
X6719533Y-4120300D01*
X6704778Y-4105519D01*
X6685489Y-4097509D01*
X6664603Y-4097491D01*
X6645300Y-4105467D01*
X6630519Y-4120222D01*
X6622509Y-4139511D01*
X6622491Y-4160397D01*
X6630467Y-4179700D01*
X6645222Y-4194481D01*
X6658521Y-4200004D01*
X6645300Y-4205467D01*
X6630519Y-4220222D01*
X6622509Y-4239511D01*
X6622491Y-4260397D01*
X6630467Y-4279700D01*
X6645222Y-4294481D01*
X6658521Y-4300004D01*
X6645300Y-4305467D01*
X6630519Y-4320222D01*
X6622509Y-4339511D01*
X6622491Y-4360397D01*
X6622812Y-4361175D01*
X6604494Y-4379494D01*
X6598207Y-4388902D01*
X6596000Y-4400000D01*
X6596000Y-4454988D01*
X6592499Y-4451486D01*
X6592507Y-4441583D01*
X6586051Y-4425957D01*
X6574106Y-4413991D01*
X6558491Y-4407507D01*
X6541583Y-4407493D01*
X6525957Y-4413949D01*
X6513991Y-4425894D01*
X6507507Y-4441509D01*
X6507493Y-4458417D01*
X6513949Y-4474043D01*
X6525894Y-4486009D01*
X6541509Y-4492493D01*
X6551489Y-4492501D01*
X6571000Y-4512012D01*
X6571000Y-4512702D01*
X6558491Y-4507507D01*
X6541583Y-4507493D01*
X6525957Y-4513949D01*
X6513991Y-4525894D01*
X6507507Y-4541509D01*
X6507493Y-4558417D01*
X6513949Y-4574043D01*
X6525894Y-4586009D01*
X6541509Y-4592493D01*
X6546000Y-4592497D01*
X6546000Y-4612702D01*
X6533491Y-4607507D01*
X6516583Y-4607493D01*
X6500957Y-4613949D01*
X6488991Y-4625894D01*
X6482507Y-4641509D01*
X6482499Y-4651489D01*
X6416613Y-4717375D01*
X6404778Y-4705519D01*
X6391478Y-4699996D01*
X6404700Y-4694533D01*
X6419481Y-4679778D01*
X6427491Y-4660489D01*
X6427509Y-4639603D01*
X6419533Y-4620300D01*
X6404778Y-4605519D01*
X6391478Y-4599996D01*
X6404700Y-4594533D01*
X6419481Y-4579778D01*
X6427491Y-4560489D01*
X6427509Y-4539603D01*
X6419533Y-4520300D01*
X6404778Y-4505519D01*
X6391478Y-4499996D01*
X6404700Y-4494533D01*
X6419481Y-4479778D01*
X6427491Y-4460489D01*
X6427509Y-4439603D01*
X6419533Y-4420300D01*
X6404778Y-4405519D01*
X6391478Y-4399996D01*
X6404700Y-4394533D01*
X6419481Y-4379778D01*
X6427491Y-4360489D01*
X6427509Y-4339603D01*
X6427188Y-4338825D01*
X6468506Y-4297506D01*
X6474793Y-4288098D01*
X6474793Y-4288098D01*
X6477000Y-4277000D01*
X6477000Y-4126102D01*
X6484009Y-4119106D01*
X6490493Y-4103491D01*
X6490507Y-4086583D01*
X6484051Y-4070957D01*
X6472106Y-4058991D01*
X6456491Y-4052507D01*
X6439583Y-4052493D01*
X6423957Y-4058949D01*
X6411991Y-4070894D01*
X6405507Y-4086509D01*
X6405498Y-4097500D01*
X6397527Y-4097500D01*
X6342527Y-4097500D01*
X6333339Y-4101306D01*
X6326306Y-4108339D01*
X6322500Y-4117527D01*
X6322500Y-4127473D01*
X6322500Y-4161488D01*
X6284010Y-4199978D01*
X6284010Y-4013316D01*
X6275047Y-3991623D01*
X6258464Y-3975011D01*
X6236787Y-3966010D01*
X6213316Y-3965990D01*
X6191623Y-3974953D01*
X6175011Y-3991536D01*
X6166010Y-4013213D01*
X6165990Y-4036684D01*
X6174953Y-4058377D01*
X6191536Y-4074989D01*
X6213213Y-4083990D01*
X6236684Y-4084010D01*
X6258377Y-4075047D01*
X6274989Y-4058464D01*
X6283990Y-4036787D01*
X6284010Y-4013316D01*
X6284010Y-4199978D01*
X6144494Y-4339494D01*
X6138207Y-4348902D01*
X6136000Y-4360000D01*
X6136000Y-4377551D01*
X6133464Y-4375011D01*
X6111787Y-4366010D01*
X6088316Y-4365990D01*
X6066623Y-4374953D01*
X6050011Y-4391536D01*
X6041010Y-4413213D01*
X6040990Y-4436684D01*
X6049953Y-4458377D01*
X6066536Y-4474989D01*
X6088213Y-4483990D01*
X6111684Y-4484010D01*
X6133377Y-4475047D01*
X6136000Y-4472429D01*
X6136000Y-4497988D01*
X6087757Y-4546231D01*
X6085898Y-4545459D01*
X6064197Y-4545441D01*
X6044140Y-4553728D01*
X6029000Y-4568842D01*
X6029000Y-4350000D01*
X6026793Y-4338902D01*
X6020506Y-4329494D01*
X6002200Y-4311188D01*
X6002491Y-4310489D01*
X6002509Y-4289603D01*
X5994533Y-4270300D01*
X5979778Y-4255519D01*
X5966478Y-4249996D01*
X5979700Y-4244533D01*
X5994481Y-4229778D01*
X6002022Y-4211617D01*
X6131820Y-4081820D01*
X6141575Y-4067221D01*
X6141663Y-4066775D01*
X6149989Y-4058464D01*
X6158990Y-4036787D01*
X6159010Y-4013316D01*
X6150047Y-3991623D01*
X6133464Y-3975011D01*
X6111787Y-3966010D01*
X6088316Y-3965990D01*
X6066623Y-3974953D01*
X6050011Y-3991536D01*
X6041010Y-4013213D01*
X6040990Y-4036684D01*
X6043529Y-4042831D01*
X5938353Y-4148007D01*
X5920300Y-4155467D01*
X5914840Y-4160917D01*
X5914840Y-4013718D01*
X5905587Y-3989763D01*
X5903827Y-3987129D01*
X5891052Y-3985363D01*
X5851414Y-4025000D01*
X5891052Y-4064637D01*
X5903827Y-4062871D01*
X5914222Y-4039390D01*
X5914840Y-4013718D01*
X5914840Y-4160917D01*
X5905519Y-4170222D01*
X5897509Y-4189511D01*
X5897491Y-4210397D01*
X5905467Y-4229700D01*
X5920222Y-4244481D01*
X5933521Y-4250004D01*
X5920300Y-4255467D01*
X5905519Y-4270222D01*
X5897509Y-4289511D01*
X5897491Y-4310397D01*
X5905467Y-4329700D01*
X5920222Y-4344481D01*
X5933521Y-4350004D01*
X5920300Y-4355467D01*
X5905519Y-4370222D01*
X5897509Y-4389511D01*
X5897491Y-4410397D01*
X5905467Y-4429700D01*
X5920222Y-4444481D01*
X5933521Y-4450004D01*
X5920300Y-4455467D01*
X5905519Y-4470222D01*
X5899164Y-4485525D01*
X5889637Y-4475998D01*
X5889637Y-4066052D01*
X5850000Y-4026414D01*
X5810363Y-4066052D01*
X5812129Y-4078827D01*
X5835610Y-4089222D01*
X5861282Y-4089840D01*
X5885237Y-4080587D01*
X5887871Y-4078827D01*
X5889637Y-4066052D01*
X5889637Y-4475998D01*
X5701993Y-4288353D01*
X5695000Y-4271429D01*
X5695000Y-4245355D01*
X5698694Y-4241661D01*
X5702500Y-4232473D01*
X5702500Y-4222527D01*
X5702500Y-4211140D01*
X5781820Y-4131820D01*
X5791575Y-4117221D01*
X5795000Y-4100000D01*
X5795000Y-4061116D01*
X5796173Y-4062871D01*
X5808948Y-4064637D01*
X5848586Y-4025000D01*
X5808948Y-3985363D01*
X5796173Y-3987129D01*
X5794053Y-3991917D01*
X5780940Y-3978782D01*
X5760898Y-3970459D01*
X5739197Y-3970441D01*
X5719140Y-3978728D01*
X5703782Y-3994060D01*
X5695459Y-4014102D01*
X5695441Y-4035803D01*
X5703728Y-4055860D01*
X5705000Y-4057134D01*
X5705000Y-4081360D01*
X5638860Y-4147500D01*
X5617527Y-4147500D01*
X5608339Y-4151306D01*
X5601306Y-4158339D01*
X5597500Y-4167527D01*
X5597500Y-4177473D01*
X5597500Y-4232473D01*
X5601306Y-4241661D01*
X5605000Y-4245355D01*
X5605000Y-4271471D01*
X5597509Y-4289511D01*
X5597491Y-4310397D01*
X5605467Y-4329700D01*
X5620222Y-4344481D01*
X5633521Y-4350004D01*
X5620300Y-4355467D01*
X5605519Y-4370222D01*
X5597509Y-4389511D01*
X5597491Y-4410397D01*
X5605467Y-4429700D01*
X5620222Y-4444481D01*
X5621000Y-4444804D01*
X5621000Y-4455177D01*
X5620300Y-4455467D01*
X5605519Y-4470222D01*
X5597509Y-4489511D01*
X5597491Y-4510397D01*
X5605467Y-4529700D01*
X5620222Y-4544481D01*
X5621000Y-4544804D01*
X5621000Y-4555177D01*
X5620300Y-4555467D01*
X5605519Y-4570222D01*
X5597509Y-4589511D01*
X5597491Y-4610397D01*
X5605467Y-4629700D01*
X5620222Y-4644481D01*
X5633521Y-4650004D01*
X5620300Y-4655467D01*
X5605519Y-4670222D01*
X5597509Y-4689511D01*
X5597491Y-4710397D01*
X5605467Y-4729700D01*
X5620222Y-4744481D01*
X5620253Y-4744494D01*
X5615855Y-4746195D01*
X5613357Y-4747864D01*
X5611841Y-4760427D01*
X5650000Y-4798586D01*
X5688159Y-4760427D01*
X5686643Y-4747864D01*
X5679394Y-4744660D01*
X5679700Y-4744533D01*
X5694481Y-4729778D01*
X5702491Y-4710489D01*
X5702509Y-4689603D01*
X5694533Y-4670300D01*
X5679778Y-4655519D01*
X5666478Y-4649996D01*
X5679700Y-4644533D01*
X5694481Y-4629778D01*
X5702491Y-4610489D01*
X5702509Y-4589603D01*
X5694533Y-4570300D01*
X5679778Y-4555519D01*
X5679000Y-4555196D01*
X5679000Y-4544823D01*
X5679700Y-4544533D01*
X5694481Y-4529778D01*
X5702491Y-4510489D01*
X5702509Y-4489603D01*
X5694533Y-4470300D01*
X5679778Y-4455519D01*
X5679000Y-4455196D01*
X5679000Y-4444823D01*
X5679700Y-4444533D01*
X5694481Y-4429778D01*
X5700836Y-4414475D01*
X5839000Y-4552640D01*
X5839000Y-4634000D01*
X5842425Y-4651221D01*
X5852180Y-4665820D01*
X5886360Y-4700000D01*
X5843180Y-4743180D01*
X5833425Y-4757779D01*
X5830000Y-4775000D01*
X5830000Y-5025000D01*
X5833425Y-5042221D01*
X5843180Y-5056820D01*
X5898007Y-5111647D01*
X5905189Y-5129029D01*
X5904494Y-5129494D01*
X5829494Y-5204494D01*
X5823207Y-5213902D01*
X5821000Y-5225000D01*
X5821000Y-5237988D01*
X5712776Y-5346212D01*
X5712776Y-4789045D01*
X5703805Y-4765855D01*
X5702136Y-4763357D01*
X5689573Y-4761841D01*
X5651414Y-4800000D01*
X5689573Y-4838159D01*
X5702136Y-4836643D01*
X5712190Y-4813902D01*
X5712776Y-4789045D01*
X5712776Y-5346212D01*
X5691613Y-5367375D01*
X5679778Y-5355519D01*
X5666478Y-5349996D01*
X5679700Y-5344533D01*
X5694481Y-5329778D01*
X5702491Y-5310489D01*
X5702509Y-5289603D01*
X5694533Y-5270300D01*
X5679778Y-5255519D01*
X5666478Y-5249996D01*
X5679700Y-5244533D01*
X5694481Y-5229778D01*
X5702491Y-5210489D01*
X5702509Y-5189603D01*
X5695000Y-5171429D01*
X5695000Y-5145355D01*
X5698694Y-5141661D01*
X5702500Y-5132473D01*
X5702500Y-5122527D01*
X5702500Y-5067527D01*
X5698694Y-5058339D01*
X5691661Y-5051306D01*
X5688159Y-5049855D01*
X5688159Y-4839573D01*
X5650000Y-4801414D01*
X5648586Y-4802828D01*
X5648586Y-4800000D01*
X5610427Y-4761841D01*
X5597864Y-4763357D01*
X5597480Y-4764228D01*
X5592527Y-4751369D01*
X5590569Y-4748438D01*
X5577331Y-4746130D01*
X5534485Y-4788976D01*
X5577331Y-4831823D01*
X5590569Y-4829515D01*
X5592618Y-4824898D01*
X5596195Y-4834145D01*
X5597864Y-4836643D01*
X5610427Y-4838159D01*
X5648586Y-4800000D01*
X5648586Y-4802828D01*
X5611841Y-4839573D01*
X5613357Y-4852136D01*
X5636098Y-4862190D01*
X5660955Y-4862776D01*
X5684145Y-4853805D01*
X5686643Y-4852136D01*
X5688159Y-4839573D01*
X5688159Y-5049855D01*
X5682473Y-5047500D01*
X5672527Y-5047500D01*
X5617527Y-5047500D01*
X5608339Y-5051306D01*
X5602393Y-5057252D01*
X5601306Y-5058339D01*
X5597500Y-5067527D01*
X5597500Y-5077473D01*
X5597500Y-5132473D01*
X5601306Y-5141661D01*
X5605000Y-5145355D01*
X5605000Y-5171471D01*
X5597509Y-5189511D01*
X5597491Y-5210397D01*
X5605467Y-5229700D01*
X5620222Y-5244481D01*
X5633521Y-5250004D01*
X5620300Y-5255467D01*
X5605519Y-5270222D01*
X5597509Y-5289511D01*
X5597491Y-5310397D01*
X5605467Y-5329700D01*
X5620222Y-5344481D01*
X5633521Y-5350004D01*
X5620300Y-5355467D01*
X5605519Y-5370222D01*
X5597509Y-5389511D01*
X5597491Y-5410397D01*
X5605467Y-5429700D01*
X5620222Y-5444481D01*
X5621000Y-5444804D01*
X5621000Y-5455177D01*
X5620300Y-5455467D01*
X5605519Y-5470222D01*
X5597509Y-5489511D01*
X5597491Y-5510397D01*
X5597812Y-5511175D01*
X5579494Y-5529494D01*
X5573207Y-5538902D01*
X5572085Y-5544547D01*
X5566535Y-5538988D01*
X5566499Y-5538973D01*
X5583059Y-5522441D01*
X5592061Y-5500764D01*
X5592081Y-5477292D01*
X5583118Y-5455599D01*
X5566535Y-5438988D01*
X5566499Y-5438973D01*
X5583059Y-5422441D01*
X5592061Y-5400764D01*
X5592081Y-5377292D01*
X5583118Y-5355599D01*
X5566535Y-5338988D01*
X5566499Y-5338973D01*
X5583059Y-5322441D01*
X5592061Y-5300764D01*
X5592081Y-5277292D01*
X5583118Y-5255599D01*
X5566535Y-5238988D01*
X5566499Y-5238973D01*
X5583059Y-5222441D01*
X5592061Y-5200764D01*
X5592081Y-5177292D01*
X5583118Y-5155599D01*
X5566535Y-5138988D01*
X5544858Y-5129987D01*
X5521387Y-5129966D01*
X5499694Y-5138929D01*
X5491000Y-5147608D01*
X5491000Y-5046693D01*
X5494098Y-5047976D01*
X5504044Y-5047976D01*
X5572044Y-5047976D01*
X5581232Y-5044170D01*
X5588265Y-5037138D01*
X5592071Y-5027949D01*
X5592071Y-5018004D01*
X5592071Y-4950004D01*
X5588265Y-4940815D01*
X5581232Y-4933782D01*
X5577919Y-4932410D01*
X5577331Y-4931823D01*
X5590569Y-4929515D01*
X5601705Y-4904426D01*
X5602393Y-4876984D01*
X5592527Y-4851369D01*
X5590569Y-4848438D01*
X5577331Y-4846130D01*
X5534485Y-4888976D01*
X5535042Y-4889533D01*
X5533628Y-4890947D01*
X5533071Y-4890391D01*
X5532514Y-4890947D01*
X5531100Y-4889533D01*
X5531657Y-4888976D01*
X5531100Y-4888420D01*
X5532514Y-4887005D01*
X5533071Y-4887562D01*
X5575917Y-4844716D01*
X5574916Y-4838976D01*
X5575917Y-4833237D01*
X5533071Y-4790391D01*
X5532514Y-4790947D01*
X5531100Y-4789533D01*
X5531657Y-4788976D01*
X5531100Y-4788420D01*
X5532514Y-4787005D01*
X5533071Y-4787562D01*
X5575917Y-4744716D01*
X5573668Y-4731816D01*
X5583059Y-4722441D01*
X5592061Y-4700764D01*
X5592081Y-4677292D01*
X5583118Y-4655599D01*
X5566535Y-4638988D01*
X5566499Y-4638973D01*
X5583059Y-4622441D01*
X5592061Y-4600764D01*
X5592081Y-4577292D01*
X5583118Y-4555599D01*
X5566535Y-4538988D01*
X5566499Y-4538973D01*
X5583059Y-4522441D01*
X5592061Y-4500764D01*
X5592081Y-4477292D01*
X5583118Y-4455599D01*
X5566535Y-4438988D01*
X5549923Y-4432090D01*
X5578506Y-4403506D01*
X5584793Y-4394098D01*
X5587000Y-4383000D01*
X5587000Y-4292102D01*
X5594009Y-4285106D01*
X5600493Y-4269491D01*
X5600507Y-4252583D01*
X5594051Y-4236957D01*
X5582106Y-4224991D01*
X5566491Y-4218507D01*
X5549583Y-4218493D01*
X5545000Y-4220386D01*
X5545000Y-4073444D01*
X5549989Y-4068464D01*
X5558990Y-4046787D01*
X5559010Y-4023316D01*
X5550047Y-4001623D01*
X5533464Y-3985011D01*
X5511787Y-3976010D01*
X5488316Y-3975990D01*
X5466623Y-3984953D01*
X5450011Y-4001536D01*
X5441010Y-4023213D01*
X5440990Y-4046684D01*
X5449953Y-4068377D01*
X5455000Y-4073433D01*
X5455000Y-4338884D01*
X5453827Y-4337129D01*
X5441052Y-4335363D01*
X5439637Y-4336777D01*
X5439637Y-4333948D01*
X5437871Y-4321173D01*
X5414390Y-4310778D01*
X5388718Y-4310160D01*
X5364763Y-4319413D01*
X5362129Y-4321173D01*
X5360363Y-4333948D01*
X5400000Y-4373586D01*
X5439637Y-4333948D01*
X5439637Y-4336777D01*
X5401414Y-4375000D01*
X5401971Y-4375557D01*
X5400557Y-4376971D01*
X5400000Y-4376414D01*
X5398586Y-4377828D01*
X5398586Y-4375000D01*
X5358948Y-4335363D01*
X5346173Y-4337129D01*
X5335778Y-4360610D01*
X5335160Y-4386282D01*
X5344413Y-4410237D01*
X5346173Y-4412871D01*
X5358948Y-4414637D01*
X5398586Y-4375000D01*
X5398586Y-4377828D01*
X5360363Y-4416052D01*
X5362129Y-4428827D01*
X5366917Y-4430947D01*
X5353782Y-4444060D01*
X5345459Y-4464102D01*
X5345441Y-4485803D01*
X5353728Y-4505860D01*
X5354613Y-4506747D01*
X5301831Y-4559530D01*
X5299072Y-4549729D01*
X5284559Y-4527306D01*
X5273552Y-4519717D01*
X5278620Y-4516330D01*
X5291290Y-4497368D01*
X5295740Y-4475000D01*
X5291290Y-4452632D01*
X5278620Y-4433670D01*
X5259657Y-4420999D01*
X5249634Y-4419005D01*
X5306820Y-4361820D01*
X5316575Y-4347221D01*
X5320000Y-4330000D01*
X5320000Y-4257157D01*
X5321218Y-4255940D01*
X5329541Y-4235898D01*
X5329559Y-4214197D01*
X5321272Y-4194140D01*
X5305940Y-4178782D01*
X5285898Y-4170459D01*
X5264197Y-4170441D01*
X5244140Y-4178728D01*
X5231282Y-4191563D01*
X5230587Y-4189763D01*
X5228827Y-4187129D01*
X5216052Y-4185363D01*
X5214637Y-4186777D01*
X5176414Y-4225000D01*
X5216052Y-4264637D01*
X5228827Y-4262871D01*
X5230000Y-4260221D01*
X5230000Y-4311360D01*
X5214637Y-4326723D01*
X5214637Y-4266052D01*
X5175000Y-4226414D01*
X5174443Y-4226971D01*
X5173586Y-4226114D01*
X5173029Y-4225557D01*
X5173586Y-4225000D01*
X5173029Y-4224443D01*
X5174443Y-4223029D01*
X5175000Y-4223586D01*
X5214637Y-4183948D01*
X5212871Y-4171173D01*
X5189390Y-4160778D01*
X5163718Y-4160160D01*
X5139763Y-4169413D01*
X5137129Y-4171173D01*
X5135363Y-4183948D01*
X5129238Y-4177824D01*
X5129000Y-4178063D01*
X5129000Y-4086856D01*
X5133377Y-4085047D01*
X5149989Y-4068464D01*
X5158990Y-4046787D01*
X5159010Y-4023316D01*
X5150047Y-4001623D01*
X5133464Y-3985011D01*
X5111787Y-3976010D01*
X5088316Y-3975990D01*
X5066623Y-3984953D01*
X5050011Y-4001536D01*
X5041010Y-4023213D01*
X5040990Y-4046684D01*
X5049953Y-4068377D01*
X5066536Y-4084989D01*
X5071000Y-4086842D01*
X5071000Y-4277898D01*
X5063991Y-4284894D01*
X5057507Y-4300509D01*
X5057493Y-4317417D01*
X5063949Y-4333043D01*
X5075894Y-4345009D01*
X5091509Y-4351493D01*
X5108417Y-4351507D01*
X5124043Y-4345051D01*
X5136009Y-4333106D01*
X5142493Y-4317491D01*
X5142507Y-4300583D01*
X5136051Y-4284957D01*
X5129000Y-4277894D01*
X5129000Y-4271937D01*
X5129238Y-4272176D01*
X5135363Y-4266052D01*
X5137129Y-4278827D01*
X5160610Y-4289222D01*
X5186282Y-4289840D01*
X5210237Y-4280587D01*
X5212871Y-4278827D01*
X5214637Y-4266052D01*
X5214637Y-4326723D01*
X5168180Y-4373180D01*
X5158425Y-4387779D01*
X5155000Y-4405000D01*
X5155000Y-4418084D01*
X5140343Y-4420999D01*
X5121380Y-4433670D01*
X5108710Y-4452632D01*
X5104260Y-4475000D01*
X5108710Y-4497368D01*
X5121380Y-4516330D01*
X5126448Y-4519717D01*
X5115441Y-4527306D01*
X5100928Y-4549729D01*
X5097106Y-4563306D01*
X5104858Y-4574000D01*
X5199000Y-4574000D01*
X5199000Y-4573213D01*
X5201000Y-4573213D01*
X5201000Y-4574000D01*
X5201787Y-4574000D01*
X5201787Y-4576000D01*
X5201000Y-4576000D01*
X5201000Y-4576787D01*
X5199000Y-4576787D01*
X5199000Y-4576000D01*
X5104858Y-4576000D01*
X5097106Y-4586694D01*
X5100928Y-4600271D01*
X5115441Y-4622694D01*
X5126448Y-4630283D01*
X5121380Y-4633670D01*
X5108710Y-4652632D01*
X5104260Y-4675000D01*
X5108710Y-4697368D01*
X5121380Y-4716330D01*
X5140343Y-4729001D01*
X5154536Y-4731824D01*
X5143180Y-4743180D01*
X5133425Y-4757779D01*
X5130000Y-4775000D01*
X5130000Y-4792843D01*
X5128782Y-4794060D01*
X5120459Y-4814102D01*
X5120441Y-4835803D01*
X5128728Y-4855860D01*
X5130000Y-4857134D01*
X5130000Y-4875000D01*
X5133425Y-4892221D01*
X5137306Y-4898028D01*
X5121380Y-4908670D01*
X5108710Y-4927632D01*
X5104260Y-4950000D01*
X5108710Y-4972368D01*
X5121380Y-4991330D01*
X5126448Y-4994717D01*
X5115441Y-5002306D01*
X5100928Y-5024729D01*
X5097106Y-5038306D01*
X5104858Y-5049000D01*
X5199000Y-5049000D01*
X5199000Y-5048213D01*
X5201000Y-5048213D01*
X5201000Y-5049000D01*
X5201787Y-5049000D01*
X5201787Y-5051000D01*
X5201000Y-5051000D01*
X5201000Y-5051787D01*
X5199000Y-5051787D01*
X5199000Y-5051000D01*
X5104858Y-5051000D01*
X5097106Y-5061694D01*
X5100928Y-5075271D01*
X5115441Y-5097694D01*
X5126448Y-5105283D01*
X5121380Y-5108670D01*
X5108710Y-5127632D01*
X5104260Y-5150000D01*
X5108710Y-5172368D01*
X5121380Y-5191330D01*
X5140343Y-5204001D01*
X5162710Y-5208450D01*
X5237290Y-5208450D01*
X5259657Y-5204001D01*
X5265000Y-5200431D01*
X5265000Y-5358586D01*
X5264637Y-5358948D01*
X5262871Y-5346173D01*
X5239390Y-5335778D01*
X5213718Y-5335160D01*
X5189763Y-5344413D01*
X5187129Y-5346173D01*
X5185363Y-5358948D01*
X5225000Y-5398586D01*
X5225557Y-5398029D01*
X5226971Y-5399443D01*
X5226414Y-5400000D01*
X5226971Y-5400557D01*
X5225557Y-5401971D01*
X5225000Y-5401414D01*
X5223586Y-5402828D01*
X5223586Y-5400000D01*
X5183948Y-5360363D01*
X5171173Y-5362129D01*
X5169053Y-5366917D01*
X5155940Y-5353782D01*
X5135898Y-5345459D01*
X5114197Y-5345441D01*
X5094140Y-5353728D01*
X5078782Y-5369060D01*
X5075000Y-5378167D01*
X5075000Y-5246962D01*
X5075000Y-5233038D01*
X5075000Y-5059750D01*
X5075000Y-5040250D01*
X5075000Y-4866962D01*
X5075000Y-4853038D01*
X5075000Y-4771962D01*
X5075000Y-4758038D01*
X5075000Y-4584750D01*
X5066250Y-4576000D01*
X4731000Y-4576000D01*
X4731000Y-4791250D01*
X4739750Y-4800000D01*
X5046962Y-4800000D01*
X5059826Y-4794672D01*
X5069672Y-4784826D01*
X5075000Y-4771962D01*
X5075000Y-4853038D01*
X5069672Y-4840174D01*
X5059826Y-4830328D01*
X5046962Y-4825000D01*
X4739750Y-4825000D01*
X4731000Y-4833750D01*
X4731000Y-5049000D01*
X5066250Y-5049000D01*
X5075000Y-5040250D01*
X5075000Y-5059750D01*
X5066250Y-5051000D01*
X4731000Y-5051000D01*
X4731000Y-5266250D01*
X4739750Y-5275000D01*
X5046962Y-5275000D01*
X5059826Y-5269672D01*
X5069672Y-5259826D01*
X5075000Y-5246962D01*
X5075000Y-5378167D01*
X5070459Y-5389102D01*
X5070441Y-5410803D01*
X5078728Y-5430860D01*
X5094060Y-5446218D01*
X5114102Y-5454541D01*
X5135803Y-5454559D01*
X5155860Y-5446272D01*
X5168718Y-5433437D01*
X5169413Y-5435237D01*
X5171173Y-5437871D01*
X5183948Y-5439637D01*
X5223586Y-5400000D01*
X5223586Y-5402828D01*
X5185363Y-5441052D01*
X5187129Y-5453827D01*
X5210610Y-5464222D01*
X5211126Y-5464235D01*
X5195360Y-5480000D01*
X5103529Y-5480000D01*
X5085489Y-5472509D01*
X5064603Y-5472491D01*
X5045300Y-5480467D01*
X5030519Y-5495222D01*
X5024996Y-5508521D01*
X5019533Y-5495300D01*
X5004778Y-5480519D01*
X4985489Y-5472509D01*
X4964603Y-5472491D01*
X4945300Y-5480467D01*
X4930519Y-5495222D01*
X4924996Y-5508521D01*
X4919533Y-5495300D01*
X4904778Y-5480519D01*
X4885489Y-5472509D01*
X4864603Y-5472491D01*
X4845300Y-5480467D01*
X4830519Y-5495222D01*
X4830506Y-5495253D01*
X4828805Y-5490855D01*
X4827136Y-5488357D01*
X4814573Y-5486841D01*
X4776414Y-5525000D01*
X4814573Y-5563159D01*
X4827136Y-5561643D01*
X4830340Y-5554394D01*
X4830467Y-5554700D01*
X4845222Y-5569481D01*
X4864511Y-5577491D01*
X4885397Y-5577509D01*
X4904700Y-5569533D01*
X4919481Y-5554778D01*
X4925004Y-5541478D01*
X4930467Y-5554700D01*
X4945222Y-5569481D01*
X4964511Y-5577491D01*
X4985397Y-5577509D01*
X5004700Y-5569533D01*
X5019481Y-5554778D01*
X5025004Y-5541478D01*
X5030000Y-5553571D01*
X5030000Y-5575000D01*
X5033425Y-5592221D01*
X5043180Y-5606820D01*
X5170442Y-5734082D01*
X5170441Y-5735803D01*
X5178728Y-5755860D01*
X5194060Y-5771218D01*
X5214102Y-5779541D01*
X5229434Y-5779554D01*
X5212988Y-5796000D01*
X5119823Y-5796000D01*
X5119533Y-5795300D01*
X5104778Y-5780519D01*
X5085489Y-5772509D01*
X5064603Y-5772491D01*
X5045300Y-5780467D01*
X5030519Y-5795222D01*
X5024996Y-5808521D01*
X5019533Y-5795300D01*
X5004778Y-5780519D01*
X4985489Y-5772509D01*
X4964603Y-5772491D01*
X4945300Y-5780467D01*
X4930519Y-5795222D01*
X4930506Y-5795253D01*
X4928805Y-5790855D01*
X4927136Y-5788357D01*
X4914573Y-5786841D01*
X4913159Y-5788255D01*
X4913159Y-5785427D01*
X4911643Y-5772864D01*
X4888902Y-5762810D01*
X4864045Y-5762224D01*
X4840855Y-5771195D01*
X4838357Y-5772864D01*
X4836841Y-5785427D01*
X4875000Y-5823586D01*
X4913159Y-5785427D01*
X4913159Y-5788255D01*
X4876414Y-5825000D01*
X4914573Y-5863159D01*
X4927136Y-5861643D01*
X4930340Y-5854394D01*
X4930467Y-5854700D01*
X4945222Y-5869481D01*
X4964511Y-5877491D01*
X4985397Y-5877509D01*
X5004700Y-5869533D01*
X5019481Y-5854778D01*
X5025004Y-5841478D01*
X5030467Y-5854700D01*
X5045222Y-5869481D01*
X5064511Y-5877491D01*
X5085397Y-5877509D01*
X5104700Y-5869533D01*
X5119481Y-5854778D01*
X5119804Y-5854000D01*
X5225000Y-5854000D01*
X5236098Y-5851793D01*
X5245506Y-5845506D01*
X5312012Y-5779000D01*
X5363704Y-5779000D01*
X5360778Y-5785610D01*
X5360160Y-5811282D01*
X5369413Y-5835237D01*
X5371173Y-5837871D01*
X5383948Y-5839637D01*
X5423586Y-5800000D01*
X5423029Y-5799443D01*
X5424443Y-5798029D01*
X5425000Y-5798586D01*
X5425557Y-5798029D01*
X5426971Y-5799443D01*
X5426414Y-5800000D01*
X5466052Y-5839637D01*
X5478827Y-5837871D01*
X5480947Y-5833083D01*
X5494060Y-5846218D01*
X5514102Y-5854541D01*
X5535803Y-5854559D01*
X5555860Y-5846272D01*
X5571218Y-5830940D01*
X5572024Y-5829000D01*
X5650000Y-5829000D01*
X5661098Y-5826793D01*
X5670506Y-5820506D01*
X5870506Y-5620506D01*
X5876793Y-5611098D01*
X5879000Y-5600000D01*
X5879000Y-5412012D01*
X5897506Y-5393507D01*
X5897491Y-5410397D01*
X5905467Y-5429700D01*
X5920222Y-5444481D01*
X5933521Y-5450004D01*
X5920300Y-5455467D01*
X5905519Y-5470222D01*
X5897509Y-5489511D01*
X5897491Y-5510397D01*
X5905467Y-5529700D01*
X5920222Y-5544481D01*
X5921000Y-5544804D01*
X5921000Y-5555177D01*
X5920300Y-5555467D01*
X5905519Y-5570222D01*
X5897509Y-5589511D01*
X5897491Y-5610397D01*
X5905467Y-5629700D01*
X5920222Y-5644481D01*
X5933521Y-5650004D01*
X5920300Y-5655467D01*
X5905519Y-5670222D01*
X5897509Y-5689511D01*
X5897491Y-5710397D01*
X5905467Y-5729700D01*
X5920222Y-5744481D01*
X5939511Y-5752491D01*
X5960397Y-5752509D01*
X5979700Y-5744533D01*
X5994481Y-5729778D01*
X6002491Y-5710489D01*
X6002509Y-5689603D01*
X5994533Y-5670300D01*
X5979778Y-5655519D01*
X5966478Y-5649996D01*
X5979700Y-5644533D01*
X5994481Y-5629778D01*
X6002491Y-5610489D01*
X6002509Y-5589603D01*
X5994533Y-5570300D01*
X5979778Y-5555519D01*
X5979000Y-5555196D01*
X5979000Y-5544823D01*
X5979700Y-5544533D01*
X5994481Y-5529778D01*
X6002491Y-5510489D01*
X6002506Y-5493518D01*
X6223982Y-5714994D01*
X6233391Y-5721281D01*
X6233391Y-5721281D01*
X6244488Y-5723488D01*
X6244488Y-5723488D01*
X6244489Y-5723488D01*
X6379728Y-5723488D01*
X6388227Y-5736208D01*
X6391722Y-5738543D01*
X6374698Y-5754744D01*
X6363782Y-5779355D01*
X6363115Y-5782708D01*
X6370860Y-5793488D01*
X6430102Y-5793488D01*
X6430102Y-5792701D01*
X6432102Y-5792701D01*
X6432102Y-5793488D01*
X6432889Y-5793488D01*
X6432889Y-5795488D01*
X6432102Y-5795488D01*
X6432102Y-5854731D01*
X6442882Y-5862475D01*
X6468003Y-5852792D01*
X6487140Y-5834581D01*
X6488227Y-5836208D01*
X6507368Y-5848997D01*
X6529946Y-5853488D01*
X6532258Y-5853488D01*
X6554836Y-5848997D01*
X6573977Y-5836208D01*
X6581102Y-5825545D01*
X6588227Y-5836208D01*
X6607368Y-5848997D01*
X6629946Y-5853488D01*
X6632258Y-5853488D01*
X6654836Y-5848997D01*
X6669067Y-5839488D01*
X6705512Y-5839488D01*
X6706512Y-5839488D01*
X6723732Y-5836063D01*
X6738331Y-5826308D01*
X6825820Y-5738820D01*
X6827833Y-5735806D01*
X6828806Y-5734833D01*
X6831820Y-5732820D01*
X6841575Y-5718221D01*
X6845000Y-5701000D01*
X6845000Y-5625000D01*
X6841575Y-5607779D01*
X6838979Y-5603895D01*
X6835575Y-5586779D01*
X6825820Y-5572180D01*
X6820000Y-5566360D01*
X6820000Y-4992016D01*
X6822221Y-4991575D01*
X6836820Y-4981820D01*
X6906820Y-4911820D01*
X6916575Y-4897221D01*
X6920000Y-4880000D01*
X6920000Y-4714069D01*
X6928511Y-4710544D01*
X6935544Y-4703511D01*
X6939350Y-4694323D01*
X6939350Y-5509541D01*
X6935991Y-5512894D01*
X6929507Y-5528509D01*
X6929493Y-5545417D01*
X6935949Y-5561043D01*
X6947894Y-5573009D01*
X6963509Y-5579493D01*
X6980417Y-5579507D01*
X6996043Y-5573051D01*
X7008009Y-5561106D01*
X7014493Y-5545491D01*
X7014507Y-5528583D01*
X7014507Y-5878543D01*
X6430102Y-5878543D01*
X6430102Y-5854731D01*
X6430102Y-5795488D01*
X6370860Y-5795488D01*
X6363115Y-5806269D01*
X6363782Y-5809622D01*
X6374698Y-5834232D01*
X6394201Y-5852792D01*
X6419321Y-5862475D01*
X6430102Y-5854731D01*
X6430102Y-5878543D01*
X6334010Y-5878543D01*
X6334010Y-5788316D01*
X6325047Y-5766623D01*
X6308464Y-5750011D01*
X6286787Y-5741010D01*
X6263316Y-5740990D01*
X6241623Y-5749953D01*
X6225011Y-5766536D01*
X6216010Y-5788213D01*
X6215990Y-5811684D01*
X6224953Y-5833377D01*
X6241536Y-5849989D01*
X6263213Y-5858990D01*
X6286684Y-5859010D01*
X6308377Y-5850047D01*
X6324989Y-5833464D01*
X6333990Y-5811787D01*
X6334010Y-5788316D01*
X6334010Y-5878543D01*
X6209010Y-5878543D01*
X6209010Y-5788316D01*
X6200047Y-5766623D01*
X6183464Y-5750011D01*
X6161787Y-5741010D01*
X6138316Y-5740990D01*
X6116623Y-5749953D01*
X6100011Y-5766536D01*
X6091010Y-5788213D01*
X6090990Y-5811684D01*
X6099953Y-5833377D01*
X6116536Y-5849989D01*
X6138213Y-5858990D01*
X6161684Y-5859010D01*
X6183377Y-5850047D01*
X6199989Y-5833464D01*
X6208990Y-5811787D01*
X6209010Y-5788316D01*
X6209010Y-5878543D01*
X5464637Y-5878543D01*
X5464637Y-5841052D01*
X5425000Y-5801414D01*
X5385363Y-5841052D01*
X5387129Y-5853827D01*
X5410610Y-5864222D01*
X5436282Y-5864840D01*
X5460237Y-5855587D01*
X5462871Y-5853827D01*
X5464637Y-5841052D01*
X5464637Y-5878543D01*
X4909536Y-5878543D01*
X4911643Y-5877136D01*
X4913159Y-5864573D01*
X4875000Y-5826414D01*
X4836841Y-5864573D01*
X4838357Y-5877136D01*
X4841541Y-5878543D01*
X4674915Y-5878543D01*
X4683377Y-5875047D01*
X4699989Y-5858464D01*
X4708990Y-5836787D01*
X4709010Y-5813316D01*
X4700047Y-5791623D01*
X4683464Y-5775011D01*
X4661787Y-5766010D01*
X4638316Y-5765990D01*
X4619696Y-5773683D01*
X4559000Y-5712988D01*
X4559000Y-5656027D01*
X4555194Y-5646839D01*
X4548161Y-5639806D01*
X4541423Y-5637015D01*
X4549989Y-5628464D01*
X4558990Y-5606787D01*
X4559010Y-5583316D01*
X4550047Y-5561623D01*
X4533464Y-5545011D01*
X4533428Y-5544996D01*
X4549989Y-5528464D01*
X4558990Y-5506787D01*
X4559010Y-5483316D01*
X4550047Y-5461623D01*
X4542437Y-5454000D01*
X4598144Y-5454000D01*
X4599953Y-5458377D01*
X4616536Y-5474989D01*
X4638213Y-5483990D01*
X4661684Y-5484010D01*
X4683377Y-5475047D01*
X4687000Y-5471430D01*
X4687000Y-5766000D01*
X4689207Y-5777098D01*
X4695494Y-5786506D01*
X4722500Y-5813512D01*
X4722500Y-5857473D01*
X4726306Y-5866661D01*
X4733339Y-5873694D01*
X4742527Y-5877500D01*
X4752473Y-5877500D01*
X4807473Y-5877500D01*
X4816661Y-5873694D01*
X4823694Y-5866661D01*
X4825634Y-5861977D01*
X4835427Y-5863159D01*
X4873586Y-5825000D01*
X4835427Y-5786841D01*
X4825634Y-5788023D01*
X4823694Y-5783339D01*
X4816661Y-5776306D01*
X4807473Y-5772500D01*
X4797527Y-5772500D01*
X4763512Y-5772500D01*
X4745000Y-5753988D01*
X4745000Y-5580072D01*
X4761098Y-5587190D01*
X4785955Y-5587776D01*
X4809145Y-5578805D01*
X4811643Y-5577136D01*
X4813159Y-5564573D01*
X4775000Y-5526414D01*
X4774443Y-5526971D01*
X4773029Y-5525557D01*
X4773586Y-5525000D01*
X4773029Y-5524443D01*
X4774443Y-5523029D01*
X4775000Y-5523586D01*
X4813159Y-5485427D01*
X4811643Y-5472864D01*
X4788902Y-5462810D01*
X4764045Y-5462224D01*
X4745000Y-5469592D01*
X4745000Y-5409000D01*
X4742793Y-5397902D01*
X4742793Y-5397902D01*
X4736506Y-5388494D01*
X4662506Y-5314494D01*
X4653098Y-5308207D01*
X4642000Y-5306000D01*
X4434012Y-5306000D01*
X4389000Y-5260988D01*
X4389000Y-5256619D01*
X4390328Y-5259826D01*
X4400174Y-5269672D01*
X4413038Y-5275000D01*
X4720250Y-5275000D01*
X4729000Y-5266250D01*
X4729000Y-5051000D01*
X4728213Y-5051000D01*
X4728213Y-5049000D01*
X4729000Y-5049000D01*
X4729000Y-4833750D01*
X4720250Y-4825000D01*
X4413038Y-4825000D01*
X4400174Y-4830328D01*
X4390328Y-4840174D01*
X4389000Y-4843381D01*
X4389000Y-4781619D01*
X4390328Y-4784826D01*
X4400174Y-4794672D01*
X4413038Y-4800000D01*
X4720250Y-4800000D01*
X4729000Y-4791250D01*
X4729000Y-4576000D01*
X4728213Y-4576000D01*
X4728213Y-4574000D01*
X4729000Y-4574000D01*
X4729000Y-4573213D01*
X4731000Y-4573213D01*
X4731000Y-4574000D01*
X5066250Y-4574000D01*
X5075000Y-4565250D01*
X5075000Y-4391962D01*
X5075000Y-4378038D01*
X5069672Y-4365174D01*
X5059826Y-4355328D01*
X5046962Y-4350000D01*
X5018012Y-4350000D01*
X5040506Y-4327506D01*
X5046793Y-4318098D01*
X5049000Y-4307000D01*
X5049000Y-4220000D01*
X5046793Y-4208902D01*
X5046793Y-4208902D01*
X5040506Y-4199494D01*
X5007173Y-4166161D01*
X5008990Y-4161787D01*
X5009010Y-4138316D01*
X5000047Y-4116623D01*
X4983464Y-4100011D01*
X4965357Y-4092493D01*
X4983377Y-4085047D01*
X4999989Y-4068464D01*
X5008990Y-4046787D01*
X5009010Y-4023316D01*
X5000047Y-4001623D01*
X4983464Y-3985011D01*
X4961787Y-3976010D01*
X4938316Y-3975990D01*
X4916623Y-3984953D01*
X4900011Y-4001536D01*
X4899996Y-4001572D01*
X4883464Y-3985011D01*
X4861787Y-3976010D01*
X4838316Y-3975990D01*
X4816623Y-3984953D01*
X4800011Y-4001536D01*
X4799996Y-4001572D01*
X4783464Y-3985011D01*
X4761787Y-3976010D01*
X4738316Y-3975990D01*
X4716623Y-3984953D01*
X4700011Y-4001536D01*
X4699996Y-4001572D01*
X4683464Y-3985011D01*
X4661787Y-3976010D01*
X4638316Y-3975990D01*
X4616623Y-3984953D01*
X4600011Y-4001536D01*
X4599996Y-4001572D01*
X4583464Y-3985011D01*
X4561787Y-3976010D01*
X4538316Y-3975990D01*
X4516623Y-3984953D01*
X4515642Y-3985932D01*
X4513672Y-3981174D01*
X4503826Y-3971328D01*
X4490962Y-3966000D01*
X4459750Y-3966000D01*
X4451000Y-3974750D01*
X4451000Y-4034000D01*
X4451787Y-4034000D01*
X4451787Y-4036000D01*
X4451000Y-4036000D01*
X4451000Y-4095250D01*
X4459750Y-4104000D01*
X4490962Y-4104000D01*
X4503826Y-4098672D01*
X4513672Y-4088826D01*
X4515635Y-4084086D01*
X4516536Y-4084989D01*
X4534643Y-4092507D01*
X4516623Y-4099953D01*
X4500011Y-4116536D01*
X4491010Y-4138213D01*
X4490990Y-4161684D01*
X4499953Y-4183377D01*
X4516536Y-4199989D01*
X4533976Y-4207231D01*
X4512392Y-4215544D01*
X4509461Y-4217502D01*
X4507154Y-4230740D01*
X4550000Y-4273586D01*
X4592846Y-4230740D01*
X4590539Y-4217502D01*
X4566720Y-4206930D01*
X4583377Y-4200047D01*
X4599989Y-4183464D01*
X4608990Y-4161787D01*
X4609010Y-4138316D01*
X4600047Y-4116623D01*
X4583464Y-4100011D01*
X4565357Y-4092493D01*
X4583377Y-4085047D01*
X4599989Y-4068464D01*
X4600004Y-4068428D01*
X4616536Y-4084989D01*
X4638213Y-4093990D01*
X4661684Y-4094010D01*
X4683377Y-4085047D01*
X4699989Y-4068464D01*
X4700004Y-4068428D01*
X4716536Y-4084989D01*
X4738213Y-4093990D01*
X4761684Y-4094010D01*
X4783377Y-4085047D01*
X4799989Y-4068464D01*
X4800004Y-4068428D01*
X4816536Y-4084989D01*
X4821000Y-4086842D01*
X4821000Y-4175000D01*
X4823207Y-4186098D01*
X4829494Y-4195506D01*
X4892826Y-4258839D01*
X4891010Y-4263213D01*
X4890990Y-4286684D01*
X4899953Y-4308377D01*
X4907563Y-4316000D01*
X4604851Y-4316000D01*
X4607498Y-4315539D01*
X4618634Y-4290449D01*
X4619322Y-4263008D01*
X4609456Y-4237392D01*
X4607498Y-4234461D01*
X4594260Y-4232154D01*
X4551414Y-4275000D01*
X4551971Y-4275557D01*
X4550557Y-4276971D01*
X4550000Y-4276414D01*
X4549443Y-4276971D01*
X4548029Y-4275557D01*
X4548586Y-4275000D01*
X4505740Y-4232154D01*
X4492502Y-4234461D01*
X4481366Y-4259551D01*
X4480678Y-4286992D01*
X4490544Y-4312608D01*
X4492502Y-4315539D01*
X4495149Y-4316000D01*
X4449000Y-4316000D01*
X4449000Y-4095250D01*
X4449000Y-4036000D01*
X4449000Y-4034000D01*
X4449000Y-3974750D01*
X4440250Y-3966000D01*
X4409038Y-3966000D01*
X4396174Y-3971328D01*
X4386328Y-3981174D01*
X4381000Y-3994038D01*
X4381000Y-4007962D01*
X4381000Y-4025250D01*
X4389750Y-4034000D01*
X4449000Y-4034000D01*
X4449000Y-4036000D01*
X4389750Y-4036000D01*
X4381000Y-4044750D01*
X4381000Y-4062038D01*
X4381000Y-4075962D01*
X4386328Y-4088826D01*
X4396174Y-4098672D01*
X4409038Y-4104000D01*
X4440250Y-4104000D01*
X4449000Y-4095250D01*
X4449000Y-4316000D01*
X4408000Y-4316000D01*
X4396902Y-4318207D01*
X4387494Y-4324494D01*
X4339494Y-4372494D01*
X4333207Y-4381902D01*
X4331000Y-4393000D01*
X4331000Y-5273000D01*
X4333207Y-5284098D01*
X4339494Y-5293506D01*
X4401494Y-5355506D01*
X4410902Y-5361793D01*
X4410902Y-5361793D01*
X4422000Y-5364000D01*
X4422000Y-5364000D01*
X4422000Y-5364000D01*
X4629988Y-5364000D01*
X4633831Y-5367843D01*
X4616623Y-5374953D01*
X4600011Y-5391536D01*
X4598158Y-5396000D01*
X4386012Y-5396000D01*
X4295000Y-5304988D01*
X4295000Y-4973480D01*
X4292793Y-4962383D01*
X4292793Y-4962382D01*
X4286506Y-4952974D01*
X4279073Y-4945541D01*
X4279073Y-4809906D01*
X4276993Y-4804520D01*
X4276993Y-4105517D01*
X4255252Y-4052899D01*
X4215030Y-4012606D01*
X4162450Y-3990773D01*
X4105517Y-3990723D01*
X4052899Y-4012465D01*
X4012606Y-4052687D01*
X3990773Y-4105267D01*
X3990723Y-4162200D01*
X4012465Y-4214818D01*
X4052687Y-4255110D01*
X4105267Y-4276944D01*
X4162200Y-4276993D01*
X4214818Y-4255252D01*
X4255110Y-4215030D01*
X4276944Y-4162450D01*
X4276993Y-4105517D01*
X4276993Y-4804520D01*
X4269758Y-4785783D01*
X4268789Y-4784333D01*
X4268789Y-4710368D01*
X4260433Y-4690146D01*
X4244975Y-4674660D01*
X4224768Y-4666269D01*
X4202887Y-4666250D01*
X4182665Y-4674606D01*
X4168780Y-4688467D01*
X4168780Y-4686287D01*
X4164974Y-4677099D01*
X4157941Y-4670066D01*
X4148752Y-4666260D01*
X4138807Y-4666260D01*
X4078807Y-4666260D01*
X4069618Y-4670066D01*
X4062586Y-4677098D01*
X4058780Y-4686287D01*
X4058780Y-4696233D01*
X4058780Y-4756233D01*
X4062586Y-4765421D01*
X4069618Y-4772454D01*
X4074581Y-4774509D01*
X4073818Y-4779884D01*
X4113780Y-4819846D01*
X4153741Y-4779884D01*
X4152978Y-4774509D01*
X4157941Y-4772454D01*
X4164974Y-4765421D01*
X4168780Y-4756233D01*
X4168780Y-4754031D01*
X4179535Y-4764806D01*
X4178303Y-4765281D01*
X4175638Y-4767062D01*
X4173818Y-4779884D01*
X4213780Y-4819846D01*
X4253741Y-4779884D01*
X4251921Y-4767062D01*
X4247644Y-4765168D01*
X4260379Y-4752456D01*
X4268770Y-4732248D01*
X4268789Y-4710368D01*
X4268789Y-4784333D01*
X4267978Y-4783119D01*
X4255156Y-4781298D01*
X4215194Y-4821260D01*
X4255156Y-4861222D01*
X4267978Y-4859401D01*
X4278448Y-4835757D01*
X4279073Y-4809906D01*
X4279073Y-4945541D01*
X4267893Y-4934361D01*
X4268770Y-4932248D01*
X4268789Y-4910368D01*
X4260433Y-4890146D01*
X4248024Y-4877714D01*
X4249256Y-4877238D01*
X4251921Y-4875458D01*
X4253741Y-4862636D01*
X4213780Y-4822674D01*
X4212365Y-4824088D01*
X4212365Y-4821260D01*
X4172403Y-4781298D01*
X4163780Y-4782523D01*
X4155156Y-4781298D01*
X4115194Y-4821260D01*
X4155156Y-4861222D01*
X4163780Y-4859997D01*
X4172403Y-4861222D01*
X4212365Y-4821260D01*
X4212365Y-4824088D01*
X4173818Y-4862636D01*
X4175638Y-4875458D01*
X4179915Y-4877352D01*
X4167180Y-4890064D01*
X4163781Y-4898249D01*
X4160433Y-4890146D01*
X4148024Y-4877714D01*
X4149256Y-4877238D01*
X4151921Y-4875458D01*
X4153741Y-4862636D01*
X4113780Y-4822674D01*
X4112365Y-4824088D01*
X4112365Y-4821260D01*
X4072403Y-4781298D01*
X4059582Y-4783119D01*
X4049111Y-4806763D01*
X4048486Y-4832614D01*
X4057801Y-4856736D01*
X4059582Y-4859401D01*
X4072403Y-4861222D01*
X4112365Y-4821260D01*
X4112365Y-4824088D01*
X4073818Y-4862636D01*
X4075638Y-4875458D01*
X4079915Y-4877352D01*
X4067180Y-4890064D01*
X4058789Y-4910272D01*
X4058770Y-4932152D01*
X4067126Y-4952374D01*
X4082584Y-4967859D01*
X4090768Y-4971258D01*
X4082665Y-4974606D01*
X4067180Y-4990064D01*
X4058789Y-5010272D01*
X4058770Y-5032152D01*
X4067126Y-5052374D01*
X4082584Y-5067859D01*
X4090768Y-5071258D01*
X4082665Y-5074606D01*
X4067180Y-5090064D01*
X4058789Y-5110272D01*
X4058770Y-5132152D01*
X4067126Y-5152374D01*
X4082584Y-5167859D01*
X4102791Y-5176250D01*
X4124672Y-5176269D01*
X4135000Y-5172002D01*
X4135000Y-5259000D01*
X4137207Y-5270098D01*
X4143494Y-5279506D01*
X4442826Y-5578839D01*
X4441010Y-5583213D01*
X4440990Y-5606684D01*
X4449953Y-5628377D01*
X4458576Y-5637015D01*
X4451839Y-5639806D01*
X4444806Y-5646839D01*
X4441000Y-5656027D01*
X4441000Y-5665973D01*
X4441000Y-5733973D01*
X4444806Y-5743161D01*
X4451839Y-5750194D01*
X4461027Y-5754000D01*
X4470973Y-5754000D01*
X4517988Y-5754000D01*
X4590998Y-5827010D01*
X4590990Y-5836684D01*
X4599953Y-5858377D01*
X4616536Y-5874989D01*
X4625096Y-5878543D01*
X4276993Y-5878543D01*
X4276993Y-5680320D01*
X4255252Y-5627702D01*
X4215030Y-5587409D01*
X4162450Y-5565576D01*
X4105517Y-5565526D01*
X4052899Y-5587268D01*
X4012606Y-5627490D01*
X3990773Y-5680070D01*
X3990723Y-5737003D01*
X4012465Y-5789621D01*
X4052687Y-5829914D01*
X4105267Y-5851747D01*
X4162200Y-5851796D01*
X4214818Y-5830055D01*
X4255110Y-5789833D01*
X4276944Y-5737253D01*
X4276993Y-5680320D01*
X4276993Y-5878543D01*
X3963976Y-5878543D01*
X3963976Y-3963976D01*
X5828837Y-3963976D01*
X5814763Y-3969413D01*
X5812129Y-3971173D01*
X5810363Y-3983948D01*
X5850000Y-4023586D01*
X5889637Y-3983948D01*
X5887871Y-3971173D01*
X5871615Y-3963976D01*
X7847047Y-3963976D01*
X7847047Y-5878543D01*
X7847047Y-5878543D01*
G37*
X7847047Y-5878543D02*
X7820300Y-5878543D01*
X7820300Y-5680320D01*
X7820300Y-4105517D01*
X7798559Y-4052899D01*
X7758337Y-4012606D01*
X7705757Y-3990773D01*
X7648824Y-3990723D01*
X7596206Y-4012465D01*
X7555913Y-4052687D01*
X7534080Y-4105267D01*
X7534030Y-4162200D01*
X7555772Y-4214818D01*
X7595994Y-4255110D01*
X7648574Y-4276944D01*
X7705507Y-4276993D01*
X7758125Y-4255252D01*
X7798418Y-4215030D01*
X7820251Y-4162450D01*
X7820300Y-4105517D01*
X7820300Y-5680320D01*
X7814350Y-5665919D01*
X7814350Y-4729312D01*
X7814350Y-4692750D01*
X7814350Y-4673250D01*
X7814350Y-4636688D01*
X7809022Y-4623824D01*
X7804361Y-4619164D01*
X7804361Y-4414256D01*
X7794585Y-4390596D01*
X7776499Y-4372479D01*
X7752856Y-4362661D01*
X7727256Y-4362639D01*
X7703596Y-4372415D01*
X7685479Y-4390501D01*
X7675661Y-4414144D01*
X7675639Y-4439744D01*
X7685415Y-4463404D01*
X7703501Y-4481521D01*
X7727144Y-4491339D01*
X7752744Y-4491361D01*
X7776404Y-4481585D01*
X7794521Y-4463499D01*
X7804339Y-4439856D01*
X7804361Y-4414256D01*
X7804361Y-4619164D01*
X7799176Y-4613978D01*
X7786312Y-4608650D01*
X7772388Y-4608650D01*
X7749750Y-4608650D01*
X7741000Y-4617400D01*
X7741000Y-4682000D01*
X7805600Y-4682000D01*
X7814350Y-4673250D01*
X7814350Y-4692750D01*
X7805600Y-4684000D01*
X7741000Y-4684000D01*
X7741000Y-4748600D01*
X7749750Y-4757350D01*
X7772388Y-4757350D01*
X7786312Y-4757350D01*
X7799176Y-4752022D01*
X7809022Y-4742176D01*
X7814350Y-4729312D01*
X7814350Y-5665919D01*
X7798559Y-5627702D01*
X7785294Y-5614413D01*
X7785294Y-5353646D01*
X7775978Y-5329524D01*
X7775010Y-5328073D01*
X7775010Y-5254108D01*
X7766654Y-5233886D01*
X7751196Y-5218400D01*
X7749000Y-5217489D01*
X7749000Y-5215000D01*
X7746793Y-5203902D01*
X7740506Y-5194494D01*
X7739000Y-5192988D01*
X7739000Y-4748600D01*
X7739000Y-4684000D01*
X7739000Y-4682000D01*
X7739000Y-4617400D01*
X7730250Y-4608650D01*
X7707612Y-4608650D01*
X7693688Y-4608650D01*
X7680824Y-4613978D01*
X7670978Y-4623824D01*
X7665650Y-4636688D01*
X7665650Y-4673250D01*
X7674400Y-4682000D01*
X7739000Y-4682000D01*
X7739000Y-4684000D01*
X7674400Y-4684000D01*
X7665650Y-4692750D01*
X7665650Y-4729312D01*
X7670978Y-4742176D01*
X7680824Y-4752022D01*
X7693688Y-4757350D01*
X7707612Y-4757350D01*
X7730250Y-4757350D01*
X7739000Y-4748600D01*
X7739000Y-5192988D01*
X7637173Y-5091161D01*
X7638990Y-5086787D01*
X7639010Y-5063316D01*
X7630047Y-5041623D01*
X7613464Y-5025011D01*
X7591787Y-5016010D01*
X7568316Y-5015990D01*
X7551000Y-5023144D01*
X7551000Y-4726842D01*
X7568213Y-4733990D01*
X7591684Y-4734010D01*
X7613377Y-4725047D01*
X7629989Y-4708464D01*
X7638990Y-4686787D01*
X7639010Y-4663316D01*
X7630047Y-4641623D01*
X7613464Y-4625011D01*
X7609000Y-4623158D01*
X7609000Y-4475906D01*
X7606793Y-4464808D01*
X7600506Y-4455399D01*
X7502393Y-4357286D01*
X7502393Y-4216984D01*
X7492527Y-4191369D01*
X7490569Y-4188438D01*
X7477331Y-4186130D01*
X7434485Y-4228976D01*
X7477331Y-4271823D01*
X7490569Y-4269515D01*
X7501705Y-4244426D01*
X7502393Y-4216984D01*
X7502393Y-4357286D01*
X7490244Y-4345138D01*
X7492061Y-4340764D01*
X7492081Y-4317292D01*
X7483118Y-4295599D01*
X7473669Y-4286134D01*
X7475917Y-4273237D01*
X7433071Y-4230391D01*
X7432514Y-4230947D01*
X7431100Y-4229533D01*
X7431657Y-4228976D01*
X7431100Y-4228420D01*
X7432514Y-4227005D01*
X7433071Y-4227562D01*
X7475917Y-4184716D01*
X7473668Y-4171816D01*
X7483059Y-4162441D01*
X7492061Y-4140764D01*
X7492081Y-4117292D01*
X7483118Y-4095599D01*
X7466535Y-4078988D01*
X7444858Y-4069987D01*
X7421387Y-4069966D01*
X7399694Y-4078929D01*
X7383082Y-4095512D01*
X7374081Y-4117189D01*
X7374061Y-4140661D01*
X7375907Y-4145128D01*
X7354494Y-4166541D01*
X7348207Y-4175949D01*
X7346000Y-4187047D01*
X7346000Y-4487702D01*
X7333491Y-4482507D01*
X7316583Y-4482493D01*
X7300957Y-4488949D01*
X7288991Y-4500894D01*
X7282507Y-4516509D01*
X7282499Y-4526489D01*
X7229000Y-4579988D01*
X7229000Y-4487012D01*
X7248513Y-4467499D01*
X7258417Y-4467507D01*
X7274043Y-4461051D01*
X7286009Y-4449106D01*
X7292493Y-4433491D01*
X7292507Y-4416583D01*
X7286051Y-4400957D01*
X7274106Y-4388991D01*
X7258491Y-4382507D01*
X7241583Y-4382493D01*
X7225957Y-4388949D01*
X7213991Y-4400894D01*
X7207507Y-4416509D01*
X7207499Y-4426489D01*
X7179494Y-4454494D01*
X7173207Y-4463902D01*
X7171000Y-4475000D01*
X7171000Y-4875000D01*
X7173207Y-4886098D01*
X7179494Y-4895506D01*
X7196000Y-4912012D01*
X7196000Y-5062702D01*
X7183491Y-5057507D01*
X7166583Y-5057493D01*
X7150957Y-5063949D01*
X7138991Y-5075894D01*
X7134010Y-5087890D01*
X7134010Y-4638316D01*
X7134010Y-4238316D01*
X7125047Y-4216623D01*
X7108464Y-4200011D01*
X7086787Y-4191010D01*
X7063316Y-4190990D01*
X7041623Y-4199953D01*
X7025011Y-4216536D01*
X7016010Y-4238213D01*
X7015990Y-4261684D01*
X7024953Y-4283377D01*
X7041536Y-4299989D01*
X7063213Y-4308990D01*
X7086684Y-4309010D01*
X7108377Y-4300047D01*
X7124989Y-4283464D01*
X7133990Y-4261787D01*
X7134010Y-4238316D01*
X7134010Y-4638316D01*
X7125047Y-4616623D01*
X7108464Y-4600011D01*
X7086787Y-4591010D01*
X7063316Y-4590990D01*
X7041623Y-4599953D01*
X7025011Y-4616536D01*
X7016010Y-4638213D01*
X7015990Y-4661684D01*
X7024953Y-4683377D01*
X7041536Y-4699989D01*
X7063213Y-4708990D01*
X7086684Y-4709010D01*
X7108377Y-4700047D01*
X7124989Y-4683464D01*
X7133990Y-4661787D01*
X7134010Y-4638316D01*
X7134010Y-5087890D01*
X7132507Y-5091509D01*
X7132499Y-5101489D01*
X7129494Y-5104494D01*
X7123207Y-5113902D01*
X7121000Y-5125000D01*
X7121000Y-5175000D01*
X7123207Y-5186098D01*
X7129494Y-5195506D01*
X7146000Y-5212012D01*
X7146000Y-5268898D01*
X7138991Y-5275894D01*
X7132507Y-5291509D01*
X7132493Y-5308417D01*
X7138949Y-5324043D01*
X7150894Y-5336009D01*
X7166509Y-5342493D01*
X7182506Y-5342507D01*
X7182493Y-5358417D01*
X7188949Y-5374043D01*
X7200894Y-5386009D01*
X7216509Y-5392493D01*
X7233417Y-5392507D01*
X7246000Y-5387308D01*
X7246000Y-5418898D01*
X7238991Y-5425894D01*
X7232507Y-5441509D01*
X7232493Y-5458417D01*
X7238949Y-5474043D01*
X7250894Y-5486009D01*
X7266509Y-5492493D01*
X7283417Y-5492507D01*
X7285836Y-5491508D01*
X7288949Y-5499043D01*
X7300894Y-5511009D01*
X7316509Y-5517493D01*
X7333417Y-5517507D01*
X7349043Y-5511051D01*
X7361009Y-5499106D01*
X7367493Y-5483491D01*
X7367507Y-5466583D01*
X7361051Y-5450957D01*
X7352483Y-5442375D01*
X7352483Y-5442375D01*
X7351793Y-5438902D01*
X7351793Y-5438902D01*
X7345506Y-5429494D01*
X7329000Y-5412988D01*
X7329000Y-5412298D01*
X7341509Y-5417493D01*
X7358417Y-5417507D01*
X7374043Y-5411051D01*
X7377095Y-5408004D01*
X7383024Y-5422354D01*
X7399606Y-5438965D01*
X7399643Y-5438980D01*
X7383082Y-5455512D01*
X7374081Y-5477189D01*
X7374061Y-5500661D01*
X7383024Y-5522354D01*
X7399606Y-5538965D01*
X7399643Y-5538980D01*
X7383082Y-5555512D01*
X7374081Y-5577189D01*
X7374061Y-5600661D01*
X7383024Y-5622354D01*
X7391647Y-5630992D01*
X7384910Y-5633782D01*
X7377877Y-5640815D01*
X7374071Y-5650004D01*
X7374071Y-5659949D01*
X7374071Y-5727949D01*
X7377877Y-5737138D01*
X7384909Y-5744170D01*
X7394098Y-5747976D01*
X7404044Y-5747976D01*
X7472044Y-5747976D01*
X7481232Y-5744170D01*
X7488265Y-5737138D01*
X7492071Y-5727949D01*
X7492071Y-5718004D01*
X7492071Y-5650004D01*
X7488265Y-5640815D01*
X7481232Y-5633782D01*
X7474494Y-5630991D01*
X7483059Y-5622441D01*
X7492061Y-5600764D01*
X7492081Y-5577292D01*
X7483118Y-5555599D01*
X7466535Y-5538988D01*
X7466499Y-5538973D01*
X7483059Y-5522441D01*
X7492061Y-5500764D01*
X7492081Y-5477292D01*
X7483118Y-5455599D01*
X7466535Y-5438988D01*
X7466499Y-5438973D01*
X7483059Y-5422441D01*
X7492061Y-5400764D01*
X7492081Y-5377292D01*
X7490235Y-5372824D01*
X7542506Y-5320553D01*
X7548793Y-5311145D01*
X7548793Y-5311145D01*
X7551000Y-5300047D01*
X7551000Y-5126842D01*
X7568213Y-5133990D01*
X7591684Y-5134010D01*
X7596152Y-5132164D01*
X7685607Y-5221619D01*
X7673400Y-5233804D01*
X7665010Y-5254012D01*
X7664990Y-5275892D01*
X7673346Y-5296114D01*
X7685756Y-5308546D01*
X7684524Y-5309022D01*
X7681859Y-5310802D01*
X7680038Y-5323624D01*
X7720000Y-5363586D01*
X7759962Y-5323624D01*
X7758141Y-5310802D01*
X7753865Y-5308908D01*
X7766600Y-5296196D01*
X7774990Y-5275988D01*
X7775010Y-5254108D01*
X7775010Y-5328073D01*
X7774198Y-5326859D01*
X7761376Y-5325038D01*
X7721414Y-5365000D01*
X7761376Y-5404962D01*
X7774198Y-5403141D01*
X7784668Y-5379497D01*
X7785294Y-5353646D01*
X7785294Y-5614413D01*
X7759962Y-5589037D01*
X7759962Y-5406376D01*
X7720000Y-5366414D01*
X7718586Y-5367828D01*
X7718586Y-5365000D01*
X7678624Y-5325038D01*
X7665802Y-5326859D01*
X7655332Y-5350503D01*
X7654706Y-5376354D01*
X7664022Y-5400476D01*
X7665802Y-5403141D01*
X7678624Y-5404962D01*
X7718586Y-5365000D01*
X7718586Y-5367828D01*
X7680038Y-5406376D01*
X7681859Y-5419198D01*
X7705503Y-5429668D01*
X7731354Y-5430294D01*
X7755476Y-5420978D01*
X7758141Y-5419198D01*
X7759962Y-5406376D01*
X7759962Y-5589037D01*
X7758337Y-5587409D01*
X7705757Y-5565576D01*
X7648824Y-5565526D01*
X7596206Y-5587268D01*
X7555913Y-5627490D01*
X7534080Y-5680070D01*
X7534030Y-5737003D01*
X7555772Y-5789621D01*
X7595994Y-5829914D01*
X7648574Y-5851747D01*
X7705507Y-5851796D01*
X7758125Y-5830055D01*
X7798418Y-5789833D01*
X7820251Y-5737253D01*
X7820300Y-5680320D01*
X7820300Y-5878543D01*
X7014507Y-5878543D01*
X7014507Y-5528583D01*
X7008051Y-5512957D01*
X7001000Y-5505894D01*
X7001000Y-4523000D01*
X6998793Y-4511902D01*
X6992506Y-4502494D01*
X6939361Y-4449349D01*
X6939361Y-4237256D01*
X6929585Y-4213596D01*
X6911499Y-4195479D01*
X6887856Y-4185661D01*
X6862256Y-4185639D01*
X6838596Y-4195415D01*
X6820479Y-4213501D01*
X6810661Y-4237144D01*
X6810639Y-4262744D01*
X6820415Y-4286404D01*
X6838501Y-4304521D01*
X6862144Y-4314339D01*
X6887744Y-4314361D01*
X6911404Y-4304585D01*
X6929521Y-4286499D01*
X6939339Y-4262856D01*
X6939361Y-4237256D01*
X6939361Y-4449349D01*
X6880499Y-4390486D01*
X6880507Y-4380583D01*
X6874051Y-4364957D01*
X6862106Y-4352991D01*
X6846491Y-4346507D01*
X6829583Y-4346493D01*
X6813957Y-4352949D01*
X6801991Y-4364894D01*
X6795507Y-4380509D01*
X6795493Y-4397417D01*
X6801949Y-4413043D01*
X6813894Y-4425009D01*
X6829509Y-4431493D01*
X6839489Y-4431501D01*
X6943000Y-4535012D01*
X6943000Y-5505898D01*
X6939350Y-5509541D01*
X6939350Y-4694323D01*
X6939350Y-4684377D01*
X6939350Y-4605677D01*
X6935544Y-4596489D01*
X6928511Y-4589456D01*
X6919323Y-4585650D01*
X6909377Y-4585650D01*
X6830677Y-4585650D01*
X6821489Y-4589456D01*
X6814456Y-4596489D01*
X6810650Y-4605677D01*
X6810650Y-4615623D01*
X6810650Y-4694323D01*
X6814456Y-4703511D01*
X6821489Y-4710544D01*
X6830000Y-4714069D01*
X6830000Y-4813884D01*
X6828827Y-4812129D01*
X6816052Y-4810363D01*
X6776414Y-4850000D01*
X6776971Y-4850557D01*
X6775557Y-4851971D01*
X6775000Y-4851414D01*
X6774443Y-4851971D01*
X6773029Y-4850557D01*
X6773586Y-4850000D01*
X6773029Y-4849443D01*
X6774443Y-4848029D01*
X6775000Y-4848586D01*
X6814637Y-4808948D01*
X6812871Y-4796173D01*
X6789390Y-4785778D01*
X6763718Y-4785160D01*
X6754000Y-4788913D01*
X6754000Y-4200000D01*
X6751793Y-4188902D01*
X6745506Y-4179494D01*
X6727200Y-4161188D01*
X6727491Y-4160489D01*
X6727509Y-4139603D01*
X6719533Y-4120300D01*
X6704778Y-4105519D01*
X6685489Y-4097509D01*
X6664603Y-4097491D01*
X6645300Y-4105467D01*
X6630519Y-4120222D01*
X6622509Y-4139511D01*
X6622491Y-4160397D01*
X6630467Y-4179700D01*
X6645222Y-4194481D01*
X6658521Y-4200004D01*
X6645300Y-4205467D01*
X6630519Y-4220222D01*
X6622509Y-4239511D01*
X6622491Y-4260397D01*
X6630467Y-4279700D01*
X6645222Y-4294481D01*
X6658521Y-4300004D01*
X6645300Y-4305467D01*
X6630519Y-4320222D01*
X6622509Y-4339511D01*
X6622491Y-4360397D01*
X6622812Y-4361175D01*
X6604494Y-4379494D01*
X6598207Y-4388902D01*
X6596000Y-4400000D01*
X6596000Y-4454988D01*
X6592499Y-4451486D01*
X6592507Y-4441583D01*
X6586051Y-4425957D01*
X6574106Y-4413991D01*
X6558491Y-4407507D01*
X6541583Y-4407493D01*
X6525957Y-4413949D01*
X6513991Y-4425894D01*
X6507507Y-4441509D01*
X6507493Y-4458417D01*
X6513949Y-4474043D01*
X6525894Y-4486009D01*
X6541509Y-4492493D01*
X6551489Y-4492501D01*
X6571000Y-4512012D01*
X6571000Y-4512702D01*
X6558491Y-4507507D01*
X6541583Y-4507493D01*
X6525957Y-4513949D01*
X6513991Y-4525894D01*
X6507507Y-4541509D01*
X6507493Y-4558417D01*
X6513949Y-4574043D01*
X6525894Y-4586009D01*
X6541509Y-4592493D01*
X6546000Y-4592497D01*
X6546000Y-4612702D01*
X6533491Y-4607507D01*
X6516583Y-4607493D01*
X6500957Y-4613949D01*
X6488991Y-4625894D01*
X6482507Y-4641509D01*
X6482499Y-4651489D01*
X6416613Y-4717375D01*
X6404778Y-4705519D01*
X6391478Y-4699996D01*
X6404700Y-4694533D01*
X6419481Y-4679778D01*
X6427491Y-4660489D01*
X6427509Y-4639603D01*
X6419533Y-4620300D01*
X6404778Y-4605519D01*
X6391478Y-4599996D01*
X6404700Y-4594533D01*
X6419481Y-4579778D01*
X6427491Y-4560489D01*
X6427509Y-4539603D01*
X6419533Y-4520300D01*
X6404778Y-4505519D01*
X6391478Y-4499996D01*
X6404700Y-4494533D01*
X6419481Y-4479778D01*
X6427491Y-4460489D01*
X6427509Y-4439603D01*
X6419533Y-4420300D01*
X6404778Y-4405519D01*
X6391478Y-4399996D01*
X6404700Y-4394533D01*
X6419481Y-4379778D01*
X6427491Y-4360489D01*
X6427509Y-4339603D01*
X6427188Y-4338825D01*
X6468506Y-4297506D01*
X6474793Y-4288098D01*
X6474793Y-4288098D01*
X6477000Y-4277000D01*
X6477000Y-4126102D01*
X6484009Y-4119106D01*
X6490493Y-4103491D01*
X6490507Y-4086583D01*
X6484051Y-4070957D01*
X6472106Y-4058991D01*
X6456491Y-4052507D01*
X6439583Y-4052493D01*
X6423957Y-4058949D01*
X6411991Y-4070894D01*
X6405507Y-4086509D01*
X6405498Y-4097500D01*
X6397527Y-4097500D01*
X6342527Y-4097500D01*
X6333339Y-4101306D01*
X6326306Y-4108339D01*
X6322500Y-4117527D01*
X6322500Y-4127473D01*
X6322500Y-4161488D01*
X6284010Y-4199978D01*
X6284010Y-4013316D01*
X6275047Y-3991623D01*
X6258464Y-3975011D01*
X6236787Y-3966010D01*
X6213316Y-3965990D01*
X6191623Y-3974953D01*
X6175011Y-3991536D01*
X6166010Y-4013213D01*
X6165990Y-4036684D01*
X6174953Y-4058377D01*
X6191536Y-4074989D01*
X6213213Y-4083990D01*
X6236684Y-4084010D01*
X6258377Y-4075047D01*
X6274989Y-4058464D01*
X6283990Y-4036787D01*
X6284010Y-4013316D01*
X6284010Y-4199978D01*
X6144494Y-4339494D01*
X6138207Y-4348902D01*
X6136000Y-4360000D01*
X6136000Y-4377551D01*
X6133464Y-4375011D01*
X6111787Y-4366010D01*
X6088316Y-4365990D01*
X6066623Y-4374953D01*
X6050011Y-4391536D01*
X6041010Y-4413213D01*
X6040990Y-4436684D01*
X6049953Y-4458377D01*
X6066536Y-4474989D01*
X6088213Y-4483990D01*
X6111684Y-4484010D01*
X6133377Y-4475047D01*
X6136000Y-4472429D01*
X6136000Y-4497988D01*
X6087757Y-4546231D01*
X6085898Y-4545459D01*
X6064197Y-4545441D01*
X6044140Y-4553728D01*
X6029000Y-4568842D01*
X6029000Y-4350000D01*
X6026793Y-4338902D01*
X6020506Y-4329494D01*
X6002200Y-4311188D01*
X6002491Y-4310489D01*
X6002509Y-4289603D01*
X5994533Y-4270300D01*
X5979778Y-4255519D01*
X5966478Y-4249996D01*
X5979700Y-4244533D01*
X5994481Y-4229778D01*
X6002022Y-4211617D01*
X6131820Y-4081820D01*
X6141575Y-4067221D01*
X6141663Y-4066775D01*
X6149989Y-4058464D01*
X6158990Y-4036787D01*
X6159010Y-4013316D01*
X6150047Y-3991623D01*
X6133464Y-3975011D01*
X6111787Y-3966010D01*
X6088316Y-3965990D01*
X6066623Y-3974953D01*
X6050011Y-3991536D01*
X6041010Y-4013213D01*
X6040990Y-4036684D01*
X6043529Y-4042831D01*
X5938353Y-4148007D01*
X5920300Y-4155467D01*
X5914840Y-4160917D01*
X5914840Y-4013718D01*
X5905587Y-3989763D01*
X5903827Y-3987129D01*
X5891052Y-3985363D01*
X5851414Y-4025000D01*
X5891052Y-4064637D01*
X5903827Y-4062871D01*
X5914222Y-4039390D01*
X5914840Y-4013718D01*
X5914840Y-4160917D01*
X5905519Y-4170222D01*
X5897509Y-4189511D01*
X5897491Y-4210397D01*
X5905467Y-4229700D01*
X5920222Y-4244481D01*
X5933521Y-4250004D01*
X5920300Y-4255467D01*
X5905519Y-4270222D01*
X5897509Y-4289511D01*
X5897491Y-4310397D01*
X5905467Y-4329700D01*
X5920222Y-4344481D01*
X5933521Y-4350004D01*
X5920300Y-4355467D01*
X5905519Y-4370222D01*
X5897509Y-4389511D01*
X5897491Y-4410397D01*
X5905467Y-4429700D01*
X5920222Y-4444481D01*
X5933521Y-4450004D01*
X5920300Y-4455467D01*
X5905519Y-4470222D01*
X5899164Y-4485525D01*
X5889637Y-4475998D01*
X5889637Y-4066052D01*
X5850000Y-4026414D01*
X5810363Y-4066052D01*
X5812129Y-4078827D01*
X5835610Y-4089222D01*
X5861282Y-4089840D01*
X5885237Y-4080587D01*
X5887871Y-4078827D01*
X5889637Y-4066052D01*
X5889637Y-4475998D01*
X5701993Y-4288353D01*
X5695000Y-4271429D01*
X5695000Y-4245355D01*
X5698694Y-4241661D01*
X5702500Y-4232473D01*
X5702500Y-4222527D01*
X5702500Y-4211140D01*
X5781820Y-4131820D01*
X5791575Y-4117221D01*
X5795000Y-4100000D01*
X5795000Y-4061116D01*
X5796173Y-4062871D01*
X5808948Y-4064637D01*
X5848586Y-4025000D01*
X5808948Y-3985363D01*
X5796173Y-3987129D01*
X5794053Y-3991917D01*
X5780940Y-3978782D01*
X5760898Y-3970459D01*
X5739197Y-3970441D01*
X5719140Y-3978728D01*
X5703782Y-3994060D01*
X5695459Y-4014102D01*
X5695441Y-4035803D01*
X5703728Y-4055860D01*
X5705000Y-4057134D01*
X5705000Y-4081360D01*
X5638860Y-4147500D01*
X5617527Y-4147500D01*
X5608339Y-4151306D01*
X5601306Y-4158339D01*
X5597500Y-4167527D01*
X5597500Y-4177473D01*
X5597500Y-4232473D01*
X5601306Y-4241661D01*
X5605000Y-4245355D01*
X5605000Y-4271471D01*
X5597509Y-4289511D01*
X5597491Y-4310397D01*
X5605467Y-4329700D01*
X5620222Y-4344481D01*
X5633521Y-4350004D01*
X5620300Y-4355467D01*
X5605519Y-4370222D01*
X5597509Y-4389511D01*
X5597491Y-4410397D01*
X5605467Y-4429700D01*
X5620222Y-4444481D01*
X5621000Y-4444804D01*
X5621000Y-4455177D01*
X5620300Y-4455467D01*
X5605519Y-4470222D01*
X5597509Y-4489511D01*
X5597491Y-4510397D01*
X5605467Y-4529700D01*
X5620222Y-4544481D01*
X5621000Y-4544804D01*
X5621000Y-4555177D01*
X5620300Y-4555467D01*
X5605519Y-4570222D01*
X5597509Y-4589511D01*
X5597491Y-4610397D01*
X5605467Y-4629700D01*
X5620222Y-4644481D01*
X5633521Y-4650004D01*
X5620300Y-4655467D01*
X5605519Y-4670222D01*
X5597509Y-4689511D01*
X5597491Y-4710397D01*
X5605467Y-4729700D01*
X5620222Y-4744481D01*
X5620253Y-4744494D01*
X5615855Y-4746195D01*
X5613357Y-4747864D01*
X5611841Y-4760427D01*
X5650000Y-4798586D01*
X5688159Y-4760427D01*
X5686643Y-4747864D01*
X5679394Y-4744660D01*
X5679700Y-4744533D01*
X5694481Y-4729778D01*
X5702491Y-4710489D01*
X5702509Y-4689603D01*
X5694533Y-4670300D01*
X5679778Y-4655519D01*
X5666478Y-4649996D01*
X5679700Y-4644533D01*
X5694481Y-4629778D01*
X5702491Y-4610489D01*
X5702509Y-4589603D01*
X5694533Y-4570300D01*
X5679778Y-4555519D01*
X5679000Y-4555196D01*
X5679000Y-4544823D01*
X5679700Y-4544533D01*
X5694481Y-4529778D01*
X5702491Y-4510489D01*
X5702509Y-4489603D01*
X5694533Y-4470300D01*
X5679778Y-4455519D01*
X5679000Y-4455196D01*
X5679000Y-4444823D01*
X5679700Y-4444533D01*
X5694481Y-4429778D01*
X5700836Y-4414475D01*
X5839000Y-4552640D01*
X5839000Y-4634000D01*
X5842425Y-4651221D01*
X5852180Y-4665820D01*
X5886360Y-4700000D01*
X5843180Y-4743180D01*
X5833425Y-4757779D01*
X5830000Y-4775000D01*
X5830000Y-5025000D01*
X5833425Y-5042221D01*
X5843180Y-5056820D01*
X5898007Y-5111647D01*
X5905189Y-5129029D01*
X5904494Y-5129494D01*
X5829494Y-5204494D01*
X5823207Y-5213902D01*
X5821000Y-5225000D01*
X5821000Y-5237988D01*
X5712776Y-5346212D01*
X5712776Y-4789045D01*
X5703805Y-4765855D01*
X5702136Y-4763357D01*
X5689573Y-4761841D01*
X5651414Y-4800000D01*
X5689573Y-4838159D01*
X5702136Y-4836643D01*
X5712190Y-4813902D01*
X5712776Y-4789045D01*
X5712776Y-5346212D01*
X5691613Y-5367375D01*
X5679778Y-5355519D01*
X5666478Y-5349996D01*
X5679700Y-5344533D01*
X5694481Y-5329778D01*
X5702491Y-5310489D01*
X5702509Y-5289603D01*
X5694533Y-5270300D01*
X5679778Y-5255519D01*
X5666478Y-5249996D01*
X5679700Y-5244533D01*
X5694481Y-5229778D01*
X5702491Y-5210489D01*
X5702509Y-5189603D01*
X5695000Y-5171429D01*
X5695000Y-5145355D01*
X5698694Y-5141661D01*
X5702500Y-5132473D01*
X5702500Y-5122527D01*
X5702500Y-5067527D01*
X5698694Y-5058339D01*
X5691661Y-5051306D01*
X5688159Y-5049855D01*
X5688159Y-4839573D01*
X5650000Y-4801414D01*
X5648586Y-4802828D01*
X5648586Y-4800000D01*
X5610427Y-4761841D01*
X5597864Y-4763357D01*
X5597480Y-4764228D01*
X5592527Y-4751369D01*
X5590569Y-4748438D01*
X5577331Y-4746130D01*
X5534485Y-4788976D01*
X5577331Y-4831823D01*
X5590569Y-4829515D01*
X5592618Y-4824898D01*
X5596195Y-4834145D01*
X5597864Y-4836643D01*
X5610427Y-4838159D01*
X5648586Y-4800000D01*
X5648586Y-4802828D01*
X5611841Y-4839573D01*
X5613357Y-4852136D01*
X5636098Y-4862190D01*
X5660955Y-4862776D01*
X5684145Y-4853805D01*
X5686643Y-4852136D01*
X5688159Y-4839573D01*
X5688159Y-5049855D01*
X5682473Y-5047500D01*
X5672527Y-5047500D01*
X5617527Y-5047500D01*
X5608339Y-5051306D01*
X5602393Y-5057252D01*
X5601306Y-5058339D01*
X5597500Y-5067527D01*
X5597500Y-5077473D01*
X5597500Y-5132473D01*
X5601306Y-5141661D01*
X5605000Y-5145355D01*
X5605000Y-5171471D01*
X5597509Y-5189511D01*
X5597491Y-5210397D01*
X5605467Y-5229700D01*
X5620222Y-5244481D01*
X5633521Y-5250004D01*
X5620300Y-5255467D01*
X5605519Y-5270222D01*
X5597509Y-5289511D01*
X5597491Y-5310397D01*
X5605467Y-5329700D01*
X5620222Y-5344481D01*
X5633521Y-5350004D01*
X5620300Y-5355467D01*
X5605519Y-5370222D01*
X5597509Y-5389511D01*
X5597491Y-5410397D01*
X5605467Y-5429700D01*
X5620222Y-5444481D01*
X5621000Y-5444804D01*
X5621000Y-5455177D01*
X5620300Y-5455467D01*
X5605519Y-5470222D01*
X5597509Y-5489511D01*
X5597491Y-5510397D01*
X5597812Y-5511175D01*
X5579494Y-5529494D01*
X5573207Y-5538902D01*
X5572085Y-5544547D01*
X5566535Y-5538988D01*
X5566499Y-5538973D01*
X5583059Y-5522441D01*
X5592061Y-5500764D01*
X5592081Y-5477292D01*
X5583118Y-5455599D01*
X5566535Y-5438988D01*
X5566499Y-5438973D01*
X5583059Y-5422441D01*
X5592061Y-5400764D01*
X5592081Y-5377292D01*
X5583118Y-5355599D01*
X5566535Y-5338988D01*
X5566499Y-5338973D01*
X5583059Y-5322441D01*
X5592061Y-5300764D01*
X5592081Y-5277292D01*
X5583118Y-5255599D01*
X5566535Y-5238988D01*
X5566499Y-5238973D01*
X5583059Y-5222441D01*
X5592061Y-5200764D01*
X5592081Y-5177292D01*
X5583118Y-5155599D01*
X5566535Y-5138988D01*
X5544858Y-5129987D01*
X5521387Y-5129966D01*
X5499694Y-5138929D01*
X5491000Y-5147608D01*
X5491000Y-5046693D01*
X5494098Y-5047976D01*
X5504044Y-5047976D01*
X5572044Y-5047976D01*
X5581232Y-5044170D01*
X5588265Y-5037138D01*
X5592071Y-5027949D01*
X5592071Y-5018004D01*
X5592071Y-4950004D01*
X5588265Y-4940815D01*
X5581232Y-4933782D01*
X5577919Y-4932410D01*
X5577331Y-4931823D01*
X5590569Y-4929515D01*
X5601705Y-4904426D01*
X5602393Y-4876984D01*
X5592527Y-4851369D01*
X5590569Y-4848438D01*
X5577331Y-4846130D01*
X5534485Y-4888976D01*
X5535042Y-4889533D01*
X5533628Y-4890947D01*
X5533071Y-4890391D01*
X5532514Y-4890947D01*
X5531100Y-4889533D01*
X5531657Y-4888976D01*
X5531100Y-4888420D01*
X5532514Y-4887005D01*
X5533071Y-4887562D01*
X5575917Y-4844716D01*
X5574916Y-4838976D01*
X5575917Y-4833237D01*
X5533071Y-4790391D01*
X5532514Y-4790947D01*
X5531100Y-4789533D01*
X5531657Y-4788976D01*
X5531100Y-4788420D01*
X5532514Y-4787005D01*
X5533071Y-4787562D01*
X5575917Y-4744716D01*
X5573668Y-4731816D01*
X5583059Y-4722441D01*
X5592061Y-4700764D01*
X5592081Y-4677292D01*
X5583118Y-4655599D01*
X5566535Y-4638988D01*
X5566499Y-4638973D01*
X5583059Y-4622441D01*
X5592061Y-4600764D01*
X5592081Y-4577292D01*
X5583118Y-4555599D01*
X5566535Y-4538988D01*
X5566499Y-4538973D01*
X5583059Y-4522441D01*
X5592061Y-4500764D01*
X5592081Y-4477292D01*
X5583118Y-4455599D01*
X5566535Y-4438988D01*
X5549923Y-4432090D01*
X5578506Y-4403506D01*
X5584793Y-4394098D01*
X5587000Y-4383000D01*
X5587000Y-4292102D01*
X5594009Y-4285106D01*
X5600493Y-4269491D01*
X5600507Y-4252583D01*
X5594051Y-4236957D01*
X5582106Y-4224991D01*
X5566491Y-4218507D01*
X5549583Y-4218493D01*
X5545000Y-4220386D01*
X5545000Y-4073444D01*
X5549989Y-4068464D01*
X5558990Y-4046787D01*
X5559010Y-4023316D01*
X5550047Y-4001623D01*
X5533464Y-3985011D01*
X5511787Y-3976010D01*
X5488316Y-3975990D01*
X5466623Y-3984953D01*
X5450011Y-4001536D01*
X5441010Y-4023213D01*
X5440990Y-4046684D01*
X5449953Y-4068377D01*
X5455000Y-4073433D01*
X5455000Y-4338884D01*
X5453827Y-4337129D01*
X5441052Y-4335363D01*
X5439637Y-4336777D01*
X5439637Y-4333948D01*
X5437871Y-4321173D01*
X5414390Y-4310778D01*
X5388718Y-4310160D01*
X5364763Y-4319413D01*
X5362129Y-4321173D01*
X5360363Y-4333948D01*
X5400000Y-4373586D01*
X5439637Y-4333948D01*
X5439637Y-4336777D01*
X5401414Y-4375000D01*
X5401971Y-4375557D01*
X5400557Y-4376971D01*
X5400000Y-4376414D01*
X5398586Y-4377828D01*
X5398586Y-4375000D01*
X5358948Y-4335363D01*
X5346173Y-4337129D01*
X5335778Y-4360610D01*
X5335160Y-4386282D01*
X5344413Y-4410237D01*
X5346173Y-4412871D01*
X5358948Y-4414637D01*
X5398586Y-4375000D01*
X5398586Y-4377828D01*
X5360363Y-4416052D01*
X5362129Y-4428827D01*
X5366917Y-4430947D01*
X5353782Y-4444060D01*
X5345459Y-4464102D01*
X5345441Y-4485803D01*
X5353728Y-4505860D01*
X5354613Y-4506747D01*
X5301831Y-4559530D01*
X5299072Y-4549729D01*
X5284559Y-4527306D01*
X5273552Y-4519717D01*
X5278620Y-4516330D01*
X5291290Y-4497368D01*
X5295740Y-4475000D01*
X5291290Y-4452632D01*
X5278620Y-4433670D01*
X5259657Y-4420999D01*
X5249634Y-4419005D01*
X5306820Y-4361820D01*
X5316575Y-4347221D01*
X5320000Y-4330000D01*
X5320000Y-4257157D01*
X5321218Y-4255940D01*
X5329541Y-4235898D01*
X5329559Y-4214197D01*
X5321272Y-4194140D01*
X5305940Y-4178782D01*
X5285898Y-4170459D01*
X5264197Y-4170441D01*
X5244140Y-4178728D01*
X5231282Y-4191563D01*
X5230587Y-4189763D01*
X5228827Y-4187129D01*
X5216052Y-4185363D01*
X5214637Y-4186777D01*
X5176414Y-4225000D01*
X5216052Y-4264637D01*
X5228827Y-4262871D01*
X5230000Y-4260221D01*
X5230000Y-4311360D01*
X5214637Y-4326723D01*
X5214637Y-4266052D01*
X5175000Y-4226414D01*
X5174443Y-4226971D01*
X5173586Y-4226114D01*
X5173029Y-4225557D01*
X5173586Y-4225000D01*
X5173029Y-4224443D01*
X5174443Y-4223029D01*
X5175000Y-4223586D01*
X5214637Y-4183948D01*
X5212871Y-4171173D01*
X5189390Y-4160778D01*
X5163718Y-4160160D01*
X5139763Y-4169413D01*
X5137129Y-4171173D01*
X5135363Y-4183948D01*
X5129238Y-4177824D01*
X5129000Y-4178063D01*
X5129000Y-4086856D01*
X5133377Y-4085047D01*
X5149989Y-4068464D01*
X5158990Y-4046787D01*
X5159010Y-4023316D01*
X5150047Y-4001623D01*
X5133464Y-3985011D01*
X5111787Y-3976010D01*
X5088316Y-3975990D01*
X5066623Y-3984953D01*
X5050011Y-4001536D01*
X5041010Y-4023213D01*
X5040990Y-4046684D01*
X5049953Y-4068377D01*
X5066536Y-4084989D01*
X5071000Y-4086842D01*
X5071000Y-4277898D01*
X5063991Y-4284894D01*
X5057507Y-4300509D01*
X5057493Y-4317417D01*
X5063949Y-4333043D01*
X5075894Y-4345009D01*
X5091509Y-4351493D01*
X5108417Y-4351507D01*
X5124043Y-4345051D01*
X5136009Y-4333106D01*
X5142493Y-4317491D01*
X5142507Y-4300583D01*
X5136051Y-4284957D01*
X5129000Y-4277894D01*
X5129000Y-4271937D01*
X5129238Y-4272176D01*
X5135363Y-4266052D01*
X5137129Y-4278827D01*
X5160610Y-4289222D01*
X5186282Y-4289840D01*
X5210237Y-4280587D01*
X5212871Y-4278827D01*
X5214637Y-4266052D01*
X5214637Y-4326723D01*
X5168180Y-4373180D01*
X5158425Y-4387779D01*
X5155000Y-4405000D01*
X5155000Y-4418084D01*
X5140343Y-4420999D01*
X5121380Y-4433670D01*
X5108710Y-4452632D01*
X5104260Y-4475000D01*
X5108710Y-4497368D01*
X5121380Y-4516330D01*
X5126448Y-4519717D01*
X5115441Y-4527306D01*
X5100928Y-4549729D01*
X5097106Y-4563306D01*
X5104858Y-4574000D01*
X5199000Y-4574000D01*
X5199000Y-4573213D01*
X5201000Y-4573213D01*
X5201000Y-4574000D01*
X5201787Y-4574000D01*
X5201787Y-4576000D01*
X5201000Y-4576000D01*
X5201000Y-4576787D01*
X5199000Y-4576787D01*
X5199000Y-4576000D01*
X5104858Y-4576000D01*
X5097106Y-4586694D01*
X5100928Y-4600271D01*
X5115441Y-4622694D01*
X5126448Y-4630283D01*
X5121380Y-4633670D01*
X5108710Y-4652632D01*
X5104260Y-4675000D01*
X5108710Y-4697368D01*
X5121380Y-4716330D01*
X5140343Y-4729001D01*
X5154536Y-4731824D01*
X5143180Y-4743180D01*
X5133425Y-4757779D01*
X5130000Y-4775000D01*
X5130000Y-4792843D01*
X5128782Y-4794060D01*
X5120459Y-4814102D01*
X5120441Y-4835803D01*
X5128728Y-4855860D01*
X5130000Y-4857134D01*
X5130000Y-4875000D01*
X5133425Y-4892221D01*
X5137306Y-4898028D01*
X5121380Y-4908670D01*
X5108710Y-4927632D01*
X5104260Y-4950000D01*
X5108710Y-4972368D01*
X5121380Y-4991330D01*
X5126448Y-4994717D01*
X5115441Y-5002306D01*
X5100928Y-5024729D01*
X5097106Y-5038306D01*
X5104858Y-5049000D01*
X5199000Y-5049000D01*
X5199000Y-5048213D01*
X5201000Y-5048213D01*
X5201000Y-5049000D01*
X5201787Y-5049000D01*
X5201787Y-5051000D01*
X5201000Y-5051000D01*
X5201000Y-5051787D01*
X5199000Y-5051787D01*
X5199000Y-5051000D01*
X5104858Y-5051000D01*
X5097106Y-5061694D01*
X5100928Y-5075271D01*
X5115441Y-5097694D01*
X5126448Y-5105283D01*
X5121380Y-5108670D01*
X5108710Y-5127632D01*
X5104260Y-5150000D01*
X5108710Y-5172368D01*
X5121380Y-5191330D01*
X5140343Y-5204001D01*
X5162710Y-5208450D01*
X5237290Y-5208450D01*
X5259657Y-5204001D01*
X5265000Y-5200431D01*
X5265000Y-5358586D01*
X5264637Y-5358948D01*
X5262871Y-5346173D01*
X5239390Y-5335778D01*
X5213718Y-5335160D01*
X5189763Y-5344413D01*
X5187129Y-5346173D01*
X5185363Y-5358948D01*
X5225000Y-5398586D01*
X5225557Y-5398029D01*
X5226971Y-5399443D01*
X5226414Y-5400000D01*
X5226971Y-5400557D01*
X5225557Y-5401971D01*
X5225000Y-5401414D01*
X5223586Y-5402828D01*
X5223586Y-5400000D01*
X5183948Y-5360363D01*
X5171173Y-5362129D01*
X5169053Y-5366917D01*
X5155940Y-5353782D01*
X5135898Y-5345459D01*
X5114197Y-5345441D01*
X5094140Y-5353728D01*
X5078782Y-5369060D01*
X5075000Y-5378167D01*
X5075000Y-5246962D01*
X5075000Y-5233038D01*
X5075000Y-5059750D01*
X5075000Y-5040250D01*
X5075000Y-4866962D01*
X5075000Y-4853038D01*
X5075000Y-4771962D01*
X5075000Y-4758038D01*
X5075000Y-4584750D01*
X5066250Y-4576000D01*
X4731000Y-4576000D01*
X4731000Y-4791250D01*
X4739750Y-4800000D01*
X5046962Y-4800000D01*
X5059826Y-4794672D01*
X5069672Y-4784826D01*
X5075000Y-4771962D01*
X5075000Y-4853038D01*
X5069672Y-4840174D01*
X5059826Y-4830328D01*
X5046962Y-4825000D01*
X4739750Y-4825000D01*
X4731000Y-4833750D01*
X4731000Y-5049000D01*
X5066250Y-5049000D01*
X5075000Y-5040250D01*
X5075000Y-5059750D01*
X5066250Y-5051000D01*
X4731000Y-5051000D01*
X4731000Y-5266250D01*
X4739750Y-5275000D01*
X5046962Y-5275000D01*
X5059826Y-5269672D01*
X5069672Y-5259826D01*
X5075000Y-5246962D01*
X5075000Y-5378167D01*
X5070459Y-5389102D01*
X5070441Y-5410803D01*
X5078728Y-5430860D01*
X5094060Y-5446218D01*
X5114102Y-5454541D01*
X5135803Y-5454559D01*
X5155860Y-5446272D01*
X5168718Y-5433437D01*
X5169413Y-5435237D01*
X5171173Y-5437871D01*
X5183948Y-5439637D01*
X5223586Y-5400000D01*
X5223586Y-5402828D01*
X5185363Y-5441052D01*
X5187129Y-5453827D01*
X5210610Y-5464222D01*
X5211126Y-5464235D01*
X5195360Y-5480000D01*
X5103529Y-5480000D01*
X5085489Y-5472509D01*
X5064603Y-5472491D01*
X5045300Y-5480467D01*
X5030519Y-5495222D01*
X5024996Y-5508521D01*
X5019533Y-5495300D01*
X5004778Y-5480519D01*
X4985489Y-5472509D01*
X4964603Y-5472491D01*
X4945300Y-5480467D01*
X4930519Y-5495222D01*
X4924996Y-5508521D01*
X4919533Y-5495300D01*
X4904778Y-5480519D01*
X4885489Y-5472509D01*
X4864603Y-5472491D01*
X4845300Y-5480467D01*
X4830519Y-5495222D01*
X4830506Y-5495253D01*
X4828805Y-5490855D01*
X4827136Y-5488357D01*
X4814573Y-5486841D01*
X4776414Y-5525000D01*
X4814573Y-5563159D01*
X4827136Y-5561643D01*
X4830340Y-5554394D01*
X4830467Y-5554700D01*
X4845222Y-5569481D01*
X4864511Y-5577491D01*
X4885397Y-5577509D01*
X4904700Y-5569533D01*
X4919481Y-5554778D01*
X4925004Y-5541478D01*
X4930467Y-5554700D01*
X4945222Y-5569481D01*
X4964511Y-5577491D01*
X4985397Y-5577509D01*
X5004700Y-5569533D01*
X5019481Y-5554778D01*
X5025004Y-5541478D01*
X5030000Y-5553571D01*
X5030000Y-5575000D01*
X5033425Y-5592221D01*
X5043180Y-5606820D01*
X5170442Y-5734082D01*
X5170441Y-5735803D01*
X5178728Y-5755860D01*
X5194060Y-5771218D01*
X5214102Y-5779541D01*
X5229434Y-5779554D01*
X5212988Y-5796000D01*
X5119823Y-5796000D01*
X5119533Y-5795300D01*
X5104778Y-5780519D01*
X5085489Y-5772509D01*
X5064603Y-5772491D01*
X5045300Y-5780467D01*
X5030519Y-5795222D01*
X5024996Y-5808521D01*
X5019533Y-5795300D01*
X5004778Y-5780519D01*
X4985489Y-5772509D01*
X4964603Y-5772491D01*
X4945300Y-5780467D01*
X4930519Y-5795222D01*
X4930506Y-5795253D01*
X4928805Y-5790855D01*
X4927136Y-5788357D01*
X4914573Y-5786841D01*
X4913159Y-5788255D01*
X4913159Y-5785427D01*
X4911643Y-5772864D01*
X4888902Y-5762810D01*
X4864045Y-5762224D01*
X4840855Y-5771195D01*
X4838357Y-5772864D01*
X4836841Y-5785427D01*
X4875000Y-5823586D01*
X4913159Y-5785427D01*
X4913159Y-5788255D01*
X4876414Y-5825000D01*
X4914573Y-5863159D01*
X4927136Y-5861643D01*
X4930340Y-5854394D01*
X4930467Y-5854700D01*
X4945222Y-5869481D01*
X4964511Y-5877491D01*
X4985397Y-5877509D01*
X5004700Y-5869533D01*
X5019481Y-5854778D01*
X5025004Y-5841478D01*
X5030467Y-5854700D01*
X5045222Y-5869481D01*
X5064511Y-5877491D01*
X5085397Y-5877509D01*
X5104700Y-5869533D01*
X5119481Y-5854778D01*
X5119804Y-5854000D01*
X5225000Y-5854000D01*
X5236098Y-5851793D01*
X5245506Y-5845506D01*
X5312012Y-5779000D01*
X5363704Y-5779000D01*
X5360778Y-5785610D01*
X5360160Y-5811282D01*
X5369413Y-5835237D01*
X5371173Y-5837871D01*
X5383948Y-5839637D01*
X5423586Y-5800000D01*
X5423029Y-5799443D01*
X5424443Y-5798029D01*
X5425000Y-5798586D01*
X5425557Y-5798029D01*
X5426971Y-5799443D01*
X5426414Y-5800000D01*
X5466052Y-5839637D01*
X5478827Y-5837871D01*
X5480947Y-5833083D01*
X5494060Y-5846218D01*
X5514102Y-5854541D01*
X5535803Y-5854559D01*
X5555860Y-5846272D01*
X5571218Y-5830940D01*
X5572024Y-5829000D01*
X5650000Y-5829000D01*
X5661098Y-5826793D01*
X5670506Y-5820506D01*
X5870506Y-5620506D01*
X5876793Y-5611098D01*
X5879000Y-5600000D01*
X5879000Y-5412012D01*
X5897506Y-5393507D01*
X5897491Y-5410397D01*
X5905467Y-5429700D01*
X5920222Y-5444481D01*
X5933521Y-5450004D01*
X5920300Y-5455467D01*
X5905519Y-5470222D01*
X5897509Y-5489511D01*
X5897491Y-5510397D01*
X5905467Y-5529700D01*
X5920222Y-5544481D01*
X5921000Y-5544804D01*
X5921000Y-5555177D01*
X5920300Y-5555467D01*
X5905519Y-5570222D01*
X5897509Y-5589511D01*
X5897491Y-5610397D01*
X5905467Y-5629700D01*
X5920222Y-5644481D01*
X5933521Y-5650004D01*
X5920300Y-5655467D01*
X5905519Y-5670222D01*
X5897509Y-5689511D01*
X5897491Y-5710397D01*
X5905467Y-5729700D01*
X5920222Y-5744481D01*
X5939511Y-5752491D01*
X5960397Y-5752509D01*
X5979700Y-5744533D01*
X5994481Y-5729778D01*
X6002491Y-5710489D01*
X6002509Y-5689603D01*
X5994533Y-5670300D01*
X5979778Y-5655519D01*
X5966478Y-5649996D01*
X5979700Y-5644533D01*
X5994481Y-5629778D01*
X6002491Y-5610489D01*
X6002509Y-5589603D01*
X5994533Y-5570300D01*
X5979778Y-5555519D01*
X5979000Y-5555196D01*
X5979000Y-5544823D01*
X5979700Y-5544533D01*
X5994481Y-5529778D01*
X6002491Y-5510489D01*
X6002506Y-5493518D01*
X6223982Y-5714994D01*
X6233391Y-5721281D01*
X6233391Y-5721281D01*
X6244488Y-5723488D01*
X6244488Y-5723488D01*
X6244489Y-5723488D01*
X6379728Y-5723488D01*
X6388227Y-5736208D01*
X6391722Y-5738543D01*
X6374698Y-5754744D01*
X6363782Y-5779355D01*
X6363115Y-5782708D01*
X6370860Y-5793488D01*
X6430102Y-5793488D01*
X6430102Y-5792701D01*
X6432102Y-5792701D01*
X6432102Y-5793488D01*
X6432889Y-5793488D01*
X6432889Y-5795488D01*
X6432102Y-5795488D01*
X6432102Y-5854731D01*
X6442882Y-5862475D01*
X6468003Y-5852792D01*
X6487140Y-5834581D01*
X6488227Y-5836208D01*
X6507368Y-5848997D01*
X6529946Y-5853488D01*
X6532258Y-5853488D01*
X6554836Y-5848997D01*
X6573977Y-5836208D01*
X6581102Y-5825545D01*
X6588227Y-5836208D01*
X6607368Y-5848997D01*
X6629946Y-5853488D01*
X6632258Y-5853488D01*
X6654836Y-5848997D01*
X6669067Y-5839488D01*
X6705512Y-5839488D01*
X6706512Y-5839488D01*
X6723732Y-5836063D01*
X6738331Y-5826308D01*
X6825820Y-5738820D01*
X6827833Y-5735806D01*
X6828806Y-5734833D01*
X6831820Y-5732820D01*
X6841575Y-5718221D01*
X6845000Y-5701000D01*
X6845000Y-5625000D01*
X6841575Y-5607779D01*
X6838979Y-5603895D01*
X6835575Y-5586779D01*
X6825820Y-5572180D01*
X6820000Y-5566360D01*
X6820000Y-4992016D01*
X6822221Y-4991575D01*
X6836820Y-4981820D01*
X6906820Y-4911820D01*
X6916575Y-4897221D01*
X6920000Y-4880000D01*
X6920000Y-4714069D01*
X6928511Y-4710544D01*
X6935544Y-4703511D01*
X6939350Y-4694323D01*
X6939350Y-5509541D01*
X6935991Y-5512894D01*
X6929507Y-5528509D01*
X6929493Y-5545417D01*
X6935949Y-5561043D01*
X6947894Y-5573009D01*
X6963509Y-5579493D01*
X6980417Y-5579507D01*
X6996043Y-5573051D01*
X7008009Y-5561106D01*
X7014493Y-5545491D01*
X7014507Y-5528583D01*
X7014507Y-5878543D01*
X6430102Y-5878543D01*
X6430102Y-5854731D01*
X6430102Y-5795488D01*
X6370860Y-5795488D01*
X6363115Y-5806269D01*
X6363782Y-5809622D01*
X6374698Y-5834232D01*
X6394201Y-5852792D01*
X6419321Y-5862475D01*
X6430102Y-5854731D01*
X6430102Y-5878543D01*
X6334010Y-5878543D01*
X6334010Y-5788316D01*
X6325047Y-5766623D01*
X6308464Y-5750011D01*
X6286787Y-5741010D01*
X6263316Y-5740990D01*
X6241623Y-5749953D01*
X6225011Y-5766536D01*
X6216010Y-5788213D01*
X6215990Y-5811684D01*
X6224953Y-5833377D01*
X6241536Y-5849989D01*
X6263213Y-5858990D01*
X6286684Y-5859010D01*
X6308377Y-5850047D01*
X6324989Y-5833464D01*
X6333990Y-5811787D01*
X6334010Y-5788316D01*
X6334010Y-5878543D01*
X6209010Y-5878543D01*
X6209010Y-5788316D01*
X6200047Y-5766623D01*
X6183464Y-5750011D01*
X6161787Y-5741010D01*
X6138316Y-5740990D01*
X6116623Y-5749953D01*
X6100011Y-5766536D01*
X6091010Y-5788213D01*
X6090990Y-5811684D01*
X6099953Y-5833377D01*
X6116536Y-5849989D01*
X6138213Y-5858990D01*
X6161684Y-5859010D01*
X6183377Y-5850047D01*
X6199989Y-5833464D01*
X6208990Y-5811787D01*
X6209010Y-5788316D01*
X6209010Y-5878543D01*
X5464637Y-5878543D01*
X5464637Y-5841052D01*
X5425000Y-5801414D01*
X5385363Y-5841052D01*
X5387129Y-5853827D01*
X5410610Y-5864222D01*
X5436282Y-5864840D01*
X5460237Y-5855587D01*
X5462871Y-5853827D01*
X5464637Y-5841052D01*
X5464637Y-5878543D01*
X4909536Y-5878543D01*
X4911643Y-5877136D01*
X4913159Y-5864573D01*
X4875000Y-5826414D01*
X4836841Y-5864573D01*
X4838357Y-5877136D01*
X4841541Y-5878543D01*
X4674915Y-5878543D01*
X4683377Y-5875047D01*
X4699989Y-5858464D01*
X4708990Y-5836787D01*
X4709010Y-5813316D01*
X4700047Y-5791623D01*
X4683464Y-5775011D01*
X4661787Y-5766010D01*
X4638316Y-5765990D01*
X4619696Y-5773683D01*
X4559000Y-5712988D01*
X4559000Y-5656027D01*
X4555194Y-5646839D01*
X4548161Y-5639806D01*
X4541423Y-5637015D01*
X4549989Y-5628464D01*
X4558990Y-5606787D01*
X4559010Y-5583316D01*
X4550047Y-5561623D01*
X4533464Y-5545011D01*
X4533428Y-5544996D01*
X4549989Y-5528464D01*
X4558990Y-5506787D01*
X4559010Y-5483316D01*
X4550047Y-5461623D01*
X4542437Y-5454000D01*
X4598144Y-5454000D01*
X4599953Y-5458377D01*
X4616536Y-5474989D01*
X4638213Y-5483990D01*
X4661684Y-5484010D01*
X4683377Y-5475047D01*
X4687000Y-5471430D01*
X4687000Y-5766000D01*
X4689207Y-5777098D01*
X4695494Y-5786506D01*
X4722500Y-5813512D01*
X4722500Y-5857473D01*
X4726306Y-5866661D01*
X4733339Y-5873694D01*
X4742527Y-5877500D01*
X4752473Y-5877500D01*
X4807473Y-5877500D01*
X4816661Y-5873694D01*
X4823694Y-5866661D01*
X4825634Y-5861977D01*
X4835427Y-5863159D01*
X4873586Y-5825000D01*
X4835427Y-5786841D01*
X4825634Y-5788023D01*
X4823694Y-5783339D01*
X4816661Y-5776306D01*
X4807473Y-5772500D01*
X4797527Y-5772500D01*
X4763512Y-5772500D01*
X4745000Y-5753988D01*
X4745000Y-5580072D01*
X4761098Y-5587190D01*
X4785955Y-5587776D01*
X4809145Y-5578805D01*
X4811643Y-5577136D01*
X4813159Y-5564573D01*
X4775000Y-5526414D01*
X4774443Y-5526971D01*
X4773029Y-5525557D01*
X4773586Y-5525000D01*
X4773029Y-5524443D01*
X4774443Y-5523029D01*
X4775000Y-5523586D01*
X4813159Y-5485427D01*
X4811643Y-5472864D01*
X4788902Y-5462810D01*
X4764045Y-5462224D01*
X4745000Y-5469592D01*
X4745000Y-5409000D01*
X4742793Y-5397902D01*
X4742793Y-5397902D01*
X4736506Y-5388494D01*
X4662506Y-5314494D01*
X4653098Y-5308207D01*
X4642000Y-5306000D01*
X4434012Y-5306000D01*
X4389000Y-5260988D01*
X4389000Y-5256619D01*
X4390328Y-5259826D01*
X4400174Y-5269672D01*
X4413038Y-5275000D01*
X4720250Y-5275000D01*
X4729000Y-5266250D01*
X4729000Y-5051000D01*
X4728213Y-5051000D01*
X4728213Y-5049000D01*
X4729000Y-5049000D01*
X4729000Y-4833750D01*
X4720250Y-4825000D01*
X4413038Y-4825000D01*
X4400174Y-4830328D01*
X4390328Y-4840174D01*
X4389000Y-4843381D01*
X4389000Y-4781619D01*
X4390328Y-4784826D01*
X4400174Y-4794672D01*
X4413038Y-4800000D01*
X4720250Y-4800000D01*
X4729000Y-4791250D01*
X4729000Y-4576000D01*
X4728213Y-4576000D01*
X4728213Y-4574000D01*
X4729000Y-4574000D01*
X4729000Y-4573213D01*
X4731000Y-4573213D01*
X4731000Y-4574000D01*
X5066250Y-4574000D01*
X5075000Y-4565250D01*
X5075000Y-4391962D01*
X5075000Y-4378038D01*
X5069672Y-4365174D01*
X5059826Y-4355328D01*
X5046962Y-4350000D01*
X5018012Y-4350000D01*
X5040506Y-4327506D01*
X5046793Y-4318098D01*
X5049000Y-4307000D01*
X5049000Y-4220000D01*
X5046793Y-4208902D01*
X5046793Y-4208902D01*
X5040506Y-4199494D01*
X5007173Y-4166161D01*
X5008990Y-4161787D01*
X5009010Y-4138316D01*
X5000047Y-4116623D01*
X4983464Y-4100011D01*
X4965357Y-4092493D01*
X4983377Y-4085047D01*
X4999989Y-4068464D01*
X5008990Y-4046787D01*
X5009010Y-4023316D01*
X5000047Y-4001623D01*
X4983464Y-3985011D01*
X4961787Y-3976010D01*
X4938316Y-3975990D01*
X4916623Y-3984953D01*
X4900011Y-4001536D01*
X4899996Y-4001572D01*
X4883464Y-3985011D01*
X4861787Y-3976010D01*
X4838316Y-3975990D01*
X4816623Y-3984953D01*
X4800011Y-4001536D01*
X4799996Y-4001572D01*
X4783464Y-3985011D01*
X4761787Y-3976010D01*
X4738316Y-3975990D01*
X4716623Y-3984953D01*
X4700011Y-4001536D01*
X4699996Y-4001572D01*
X4683464Y-3985011D01*
X4661787Y-3976010D01*
X4638316Y-3975990D01*
X4616623Y-3984953D01*
X4600011Y-4001536D01*
X4599996Y-4001572D01*
X4583464Y-3985011D01*
X4561787Y-3976010D01*
X4538316Y-3975990D01*
X4516623Y-3984953D01*
X4515642Y-3985932D01*
X4513672Y-3981174D01*
X4503826Y-3971328D01*
X4490962Y-3966000D01*
X4459750Y-3966000D01*
X4451000Y-3974750D01*
X4451000Y-4034000D01*
X4451787Y-4034000D01*
X4451787Y-4036000D01*
X4451000Y-4036000D01*
X4451000Y-4095250D01*
X4459750Y-4104000D01*
X4490962Y-4104000D01*
X4503826Y-4098672D01*
X4513672Y-4088826D01*
X4515635Y-4084086D01*
X4516536Y-4084989D01*
X4534643Y-4092507D01*
X4516623Y-4099953D01*
X4500011Y-4116536D01*
X4491010Y-4138213D01*
X4490990Y-4161684D01*
X4499953Y-4183377D01*
X4516536Y-4199989D01*
X4533976Y-4207231D01*
X4512392Y-4215544D01*
X4509461Y-4217502D01*
X4507154Y-4230740D01*
X4550000Y-4273586D01*
X4592846Y-4230740D01*
X4590539Y-4217502D01*
X4566720Y-4206930D01*
X4583377Y-4200047D01*
X4599989Y-4183464D01*
X4608990Y-4161787D01*
X4609010Y-4138316D01*
X4600047Y-4116623D01*
X4583464Y-4100011D01*
X4565357Y-4092493D01*
X4583377Y-4085047D01*
X4599989Y-4068464D01*
X4600004Y-4068428D01*
X4616536Y-4084989D01*
X4638213Y-4093990D01*
X4661684Y-4094010D01*
X4683377Y-4085047D01*
X4699989Y-4068464D01*
X4700004Y-4068428D01*
X4716536Y-4084989D01*
X4738213Y-4093990D01*
X4761684Y-4094010D01*
X4783377Y-4085047D01*
X4799989Y-4068464D01*
X4800004Y-4068428D01*
X4816536Y-4084989D01*
X4821000Y-4086842D01*
X4821000Y-4175000D01*
X4823207Y-4186098D01*
X4829494Y-4195506D01*
X4892826Y-4258839D01*
X4891010Y-4263213D01*
X4890990Y-4286684D01*
X4899953Y-4308377D01*
X4907563Y-4316000D01*
X4604851Y-4316000D01*
X4607498Y-4315539D01*
X4618634Y-4290449D01*
X4619322Y-4263008D01*
X4609456Y-4237392D01*
X4607498Y-4234461D01*
X4594260Y-4232154D01*
X4551414Y-4275000D01*
X4551971Y-4275557D01*
X4550557Y-4276971D01*
X4550000Y-4276414D01*
X4549443Y-4276971D01*
X4548029Y-4275557D01*
X4548586Y-4275000D01*
X4505740Y-4232154D01*
X4492502Y-4234461D01*
X4481366Y-4259551D01*
X4480678Y-4286992D01*
X4490544Y-4312608D01*
X4492502Y-4315539D01*
X4495149Y-4316000D01*
X4449000Y-4316000D01*
X4449000Y-4095250D01*
X4449000Y-4036000D01*
X4449000Y-4034000D01*
X4449000Y-3974750D01*
X4440250Y-3966000D01*
X4409038Y-3966000D01*
X4396174Y-3971328D01*
X4386328Y-3981174D01*
X4381000Y-3994038D01*
X4381000Y-4007962D01*
X4381000Y-4025250D01*
X4389750Y-4034000D01*
X4449000Y-4034000D01*
X4449000Y-4036000D01*
X4389750Y-4036000D01*
X4381000Y-4044750D01*
X4381000Y-4062038D01*
X4381000Y-4075962D01*
X4386328Y-4088826D01*
X4396174Y-4098672D01*
X4409038Y-4104000D01*
X4440250Y-4104000D01*
X4449000Y-4095250D01*
X4449000Y-4316000D01*
X4408000Y-4316000D01*
X4396902Y-4318207D01*
X4387494Y-4324494D01*
X4339494Y-4372494D01*
X4333207Y-4381902D01*
X4331000Y-4393000D01*
X4331000Y-5273000D01*
X4333207Y-5284098D01*
X4339494Y-5293506D01*
X4401494Y-5355506D01*
X4410902Y-5361793D01*
X4410902Y-5361793D01*
X4422000Y-5364000D01*
X4422000Y-5364000D01*
X4422000Y-5364000D01*
X4629988Y-5364000D01*
X4633831Y-5367843D01*
X4616623Y-5374953D01*
X4600011Y-5391536D01*
X4598158Y-5396000D01*
X4386012Y-5396000D01*
X4295000Y-5304988D01*
X4295000Y-4973480D01*
X4292793Y-4962383D01*
X4292793Y-4962382D01*
X4286506Y-4952974D01*
X4279073Y-4945541D01*
X4279073Y-4809906D01*
X4276993Y-4804520D01*
X4276993Y-4105517D01*
X4255252Y-4052899D01*
X4215030Y-4012606D01*
X4162450Y-3990773D01*
X4105517Y-3990723D01*
X4052899Y-4012465D01*
X4012606Y-4052687D01*
X3990773Y-4105267D01*
X3990723Y-4162200D01*
X4012465Y-4214818D01*
X4052687Y-4255110D01*
X4105267Y-4276944D01*
X4162200Y-4276993D01*
X4214818Y-4255252D01*
X4255110Y-4215030D01*
X4276944Y-4162450D01*
X4276993Y-4105517D01*
X4276993Y-4804520D01*
X4269758Y-4785783D01*
X4268789Y-4784333D01*
X4268789Y-4710368D01*
X4260433Y-4690146D01*
X4244975Y-4674660D01*
X4224768Y-4666269D01*
X4202887Y-4666250D01*
X4182665Y-4674606D01*
X4168780Y-4688467D01*
X4168780Y-4686287D01*
X4164974Y-4677099D01*
X4157941Y-4670066D01*
X4148752Y-4666260D01*
X4138807Y-4666260D01*
X4078807Y-4666260D01*
X4069618Y-4670066D01*
X4062586Y-4677098D01*
X4058780Y-4686287D01*
X4058780Y-4696233D01*
X4058780Y-4756233D01*
X4062586Y-4765421D01*
X4069618Y-4772454D01*
X4074581Y-4774509D01*
X4073818Y-4779884D01*
X4113780Y-4819846D01*
X4153741Y-4779884D01*
X4152978Y-4774509D01*
X4157941Y-4772454D01*
X4164974Y-4765421D01*
X4168780Y-4756233D01*
X4168780Y-4754031D01*
X4179535Y-4764806D01*
X4178303Y-4765281D01*
X4175638Y-4767062D01*
X4173818Y-4779884D01*
X4213780Y-4819846D01*
X4253741Y-4779884D01*
X4251921Y-4767062D01*
X4247644Y-4765168D01*
X4260379Y-4752456D01*
X4268770Y-4732248D01*
X4268789Y-4710368D01*
X4268789Y-4784333D01*
X4267978Y-4783119D01*
X4255156Y-4781298D01*
X4215194Y-4821260D01*
X4255156Y-4861222D01*
X4267978Y-4859401D01*
X4278448Y-4835757D01*
X4279073Y-4809906D01*
X4279073Y-4945541D01*
X4267893Y-4934361D01*
X4268770Y-4932248D01*
X4268789Y-4910368D01*
X4260433Y-4890146D01*
X4248024Y-4877714D01*
X4249256Y-4877238D01*
X4251921Y-4875458D01*
X4253741Y-4862636D01*
X4213780Y-4822674D01*
X4212365Y-4824088D01*
X4212365Y-4821260D01*
X4172403Y-4781298D01*
X4163780Y-4782523D01*
X4155156Y-4781298D01*
X4115194Y-4821260D01*
X4155156Y-4861222D01*
X4163780Y-4859997D01*
X4172403Y-4861222D01*
X4212365Y-4821260D01*
X4212365Y-4824088D01*
X4173818Y-4862636D01*
X4175638Y-4875458D01*
X4179915Y-4877352D01*
X4167180Y-4890064D01*
X4163781Y-4898249D01*
X4160433Y-4890146D01*
X4148024Y-4877714D01*
X4149256Y-4877238D01*
X4151921Y-4875458D01*
X4153741Y-4862636D01*
X4113780Y-4822674D01*
X4112365Y-4824088D01*
X4112365Y-4821260D01*
X4072403Y-4781298D01*
X4059582Y-4783119D01*
X4049111Y-4806763D01*
X4048486Y-4832614D01*
X4057801Y-4856736D01*
X4059582Y-4859401D01*
X4072403Y-4861222D01*
X4112365Y-4821260D01*
X4112365Y-4824088D01*
X4073818Y-4862636D01*
X4075638Y-4875458D01*
X4079915Y-4877352D01*
X4067180Y-4890064D01*
X4058789Y-4910272D01*
X4058770Y-4932152D01*
X4067126Y-4952374D01*
X4082584Y-4967859D01*
X4090768Y-4971258D01*
X4082665Y-4974606D01*
X4067180Y-4990064D01*
X4058789Y-5010272D01*
X4058770Y-5032152D01*
X4067126Y-5052374D01*
X4082584Y-5067859D01*
X4090768Y-5071258D01*
X4082665Y-5074606D01*
X4067180Y-5090064D01*
X4058789Y-5110272D01*
X4058770Y-5132152D01*
X4067126Y-5152374D01*
X4082584Y-5167859D01*
X4102791Y-5176250D01*
X4124672Y-5176269D01*
X4135000Y-5172002D01*
X4135000Y-5259000D01*
X4137207Y-5270098D01*
X4143494Y-5279506D01*
X4442826Y-5578839D01*
X4441010Y-5583213D01*
X4440990Y-5606684D01*
X4449953Y-5628377D01*
X4458576Y-5637015D01*
X4451839Y-5639806D01*
X4444806Y-5646839D01*
X4441000Y-5656027D01*
X4441000Y-5665973D01*
X4441000Y-5733973D01*
X4444806Y-5743161D01*
X4451839Y-5750194D01*
X4461027Y-5754000D01*
X4470973Y-5754000D01*
X4517988Y-5754000D01*
X4590998Y-5827010D01*
X4590990Y-5836684D01*
X4599953Y-5858377D01*
X4616536Y-5874989D01*
X4625096Y-5878543D01*
X4276993Y-5878543D01*
X4276993Y-5680320D01*
X4255252Y-5627702D01*
X4215030Y-5587409D01*
X4162450Y-5565576D01*
X4105517Y-5565526D01*
X4052899Y-5587268D01*
X4012606Y-5627490D01*
X3990773Y-5680070D01*
X3990723Y-5737003D01*
X4012465Y-5789621D01*
X4052687Y-5829914D01*
X4105267Y-5851747D01*
X4162200Y-5851796D01*
X4214818Y-5830055D01*
X4255110Y-5789833D01*
X4276944Y-5737253D01*
X4276993Y-5680320D01*
X4276993Y-5878543D01*
X3963976Y-5878543D01*
X3963976Y-3963976D01*
X5828837Y-3963976D01*
X5814763Y-3969413D01*
X5812129Y-3971173D01*
X5810363Y-3983948D01*
X5850000Y-4023586D01*
X5889637Y-3983948D01*
X5887871Y-3971173D01*
X5871615Y-3963976D01*
X7847047Y-3963976D01*
X7847047Y-5878543D01*
M02*
