%FSLAX36Y36*%
G04 Gerber Fmt 3.6, Leading zero omitted, Abs format (unit inch)*
G04 Created by KiCad (PCBNEW (2014-jul-16 BZR unknown)-product) date Mon 09 Feb 2015 12:25:07 PM PST*
%MOIN*%
G01*
G04 APERTURE LIST*
%ADD10C,0.003937*%
%ADD11C,0.006000*%
%ADD12C,0.000100*%
G04 APERTURE END LIST*
D10*
D11*
X5002114Y-4924495D02*
X5002114Y-4884495D01*
X4984971Y-4924495D02*
X4984971Y-4903543D01*
X4986876Y-4899733D01*
X4990686Y-4897829D01*
X4996400Y-4897829D01*
X5000209Y-4899733D01*
X5002114Y-4901638D01*
X4948781Y-4924495D02*
X4948781Y-4903543D01*
X4950686Y-4899733D01*
X4954495Y-4897829D01*
X4962114Y-4897829D01*
X4965924Y-4899733D01*
X4948781Y-4922590D02*
X4952590Y-4924495D01*
X4962114Y-4924495D01*
X4965924Y-4922590D01*
X4967829Y-4918781D01*
X4967829Y-4914971D01*
X4965924Y-4911162D01*
X4962114Y-4909257D01*
X4952590Y-4909257D01*
X4948781Y-4907352D01*
X4929733Y-4924495D02*
X4929733Y-4897829D01*
X4929733Y-4905448D02*
X4927829Y-4901638D01*
X4925924Y-4899733D01*
X4922114Y-4897829D01*
X4918305Y-4897829D01*
X4887829Y-4924495D02*
X4887829Y-4884495D01*
X4887829Y-4922590D02*
X4891638Y-4924495D01*
X4899257Y-4924495D01*
X4903067Y-4922590D01*
X4904971Y-4920686D01*
X4906876Y-4916876D01*
X4906876Y-4905448D01*
X4904971Y-4901638D01*
X4903067Y-4899733D01*
X4899257Y-4897829D01*
X4891638Y-4897829D01*
X4887829Y-4899733D01*
X4872590Y-4897829D02*
X4864971Y-4924495D01*
X4857352Y-4905448D01*
X4849733Y-4924495D01*
X4842114Y-4897829D01*
X4809733Y-4924495D02*
X4809733Y-4903543D01*
X4811638Y-4899733D01*
X4815448Y-4897829D01*
X4823067Y-4897829D01*
X4826876Y-4899733D01*
X4809733Y-4922590D02*
X4813543Y-4924495D01*
X4823067Y-4924495D01*
X4826876Y-4922590D01*
X4828781Y-4918781D01*
X4828781Y-4914971D01*
X4826876Y-4911162D01*
X4823067Y-4909257D01*
X4813543Y-4909257D01*
X4809733Y-4907352D01*
X4790686Y-4924495D02*
X4790686Y-4897829D01*
X4790686Y-4905448D02*
X4788781Y-4901638D01*
X4786876Y-4899733D01*
X4783067Y-4897829D01*
X4779257Y-4897829D01*
X4750686Y-4922590D02*
X4754495Y-4924495D01*
X4762114Y-4924495D01*
X4765924Y-4922590D01*
X4767829Y-4918781D01*
X4767829Y-4903543D01*
X4765924Y-4899733D01*
X4762114Y-4897829D01*
X4754495Y-4897829D01*
X4750686Y-4899733D01*
X4748781Y-4903543D01*
X4748781Y-4907352D01*
X4767829Y-4911162D01*
X5032476Y-4871095D02*
X5036286Y-4869190D01*
X5038190Y-4867286D01*
X5040095Y-4863476D01*
X5040095Y-4852048D01*
X5038190Y-4848238D01*
X5036286Y-4846333D01*
X5032476Y-4844429D01*
X5026762Y-4844429D01*
X5022952Y-4846333D01*
X5021048Y-4848238D01*
X5019143Y-4852048D01*
X5019143Y-4863476D01*
X5021048Y-4867286D01*
X5022952Y-4869190D01*
X5026762Y-4871095D01*
X5032476Y-4871095D01*
X5002000Y-4844429D02*
X5002000Y-4884429D01*
X5002000Y-4846333D02*
X4998190Y-4844429D01*
X4990571Y-4844429D01*
X4986762Y-4846333D01*
X4984857Y-4848238D01*
X4982952Y-4852048D01*
X4982952Y-4863476D01*
X4984857Y-4867286D01*
X4986762Y-4869190D01*
X4990571Y-4871095D01*
X4998190Y-4871095D01*
X5002000Y-4869190D01*
X4950571Y-4869190D02*
X4954381Y-4871095D01*
X4962000Y-4871095D01*
X4965809Y-4869190D01*
X4967714Y-4865381D01*
X4967714Y-4850143D01*
X4965809Y-4846333D01*
X4962000Y-4844429D01*
X4954381Y-4844429D01*
X4950571Y-4846333D01*
X4948667Y-4850143D01*
X4948667Y-4853952D01*
X4967714Y-4857762D01*
X4931524Y-4844429D02*
X4931524Y-4871095D01*
X4931524Y-4848238D02*
X4929619Y-4846333D01*
X4925809Y-4844429D01*
X4920095Y-4844429D01*
X4916286Y-4846333D01*
X4914381Y-4850143D01*
X4914381Y-4871095D01*
X4866762Y-4869190D02*
X4862952Y-4871095D01*
X4855333Y-4871095D01*
X4851524Y-4869190D01*
X4849619Y-4865381D01*
X4849619Y-4863476D01*
X4851524Y-4859667D01*
X4855333Y-4857762D01*
X4861048Y-4857762D01*
X4864857Y-4855857D01*
X4866762Y-4852048D01*
X4866762Y-4850143D01*
X4864857Y-4846333D01*
X4861048Y-4844429D01*
X4855333Y-4844429D01*
X4851524Y-4846333D01*
X4826762Y-4871095D02*
X4830571Y-4869190D01*
X4832476Y-4867286D01*
X4834381Y-4863476D01*
X4834381Y-4852048D01*
X4832476Y-4848238D01*
X4830571Y-4846333D01*
X4826762Y-4844429D01*
X4821048Y-4844429D01*
X4817238Y-4846333D01*
X4815333Y-4848238D01*
X4813429Y-4852048D01*
X4813429Y-4863476D01*
X4815333Y-4867286D01*
X4817238Y-4869190D01*
X4821048Y-4871095D01*
X4826762Y-4871095D01*
X4779143Y-4844429D02*
X4779143Y-4871095D01*
X4796286Y-4844429D02*
X4796286Y-4865381D01*
X4794381Y-4869190D01*
X4790571Y-4871095D01*
X4784857Y-4871095D01*
X4781048Y-4869190D01*
X4779143Y-4867286D01*
X4760095Y-4871095D02*
X4760095Y-4844429D01*
X4760095Y-4852048D02*
X4758190Y-4848238D01*
X4756286Y-4846333D01*
X4752476Y-4844429D01*
X4748667Y-4844429D01*
X4718191Y-4869190D02*
X4722000Y-4871095D01*
X4729619Y-4871095D01*
X4733429Y-4869190D01*
X4735333Y-4867286D01*
X4737238Y-4863476D01*
X4737238Y-4852048D01*
X4735333Y-4848238D01*
X4733429Y-4846333D01*
X4729619Y-4844429D01*
X4722000Y-4844429D01*
X4718191Y-4846333D01*
X4685810Y-4869190D02*
X4689619Y-4871095D01*
X4697238Y-4871095D01*
X4701048Y-4869190D01*
X4702952Y-4865381D01*
X4702952Y-4850143D01*
X4701048Y-4846333D01*
X4697238Y-4844429D01*
X4689619Y-4844429D01*
X4685810Y-4846333D01*
X4683905Y-4850143D01*
X4683905Y-4853952D01*
X4702952Y-4857762D01*
D12*
G36*
X4981200Y-4834600D02*
X4979100Y-4833600D01*
X4974400Y-4830600D01*
X4967800Y-4826200D01*
X4959900Y-4820900D01*
X4952000Y-4815600D01*
X4945400Y-4811200D01*
X4940900Y-4808300D01*
X4939000Y-4807200D01*
X4938000Y-4807600D01*
X4934200Y-4809400D01*
X4928700Y-4812300D01*
X4925600Y-4813900D01*
X4920500Y-4816100D01*
X4918100Y-4816500D01*
X4917600Y-4815800D01*
X4915800Y-4812000D01*
X4912900Y-4805400D01*
X4909100Y-4796800D01*
X4904800Y-4786600D01*
X4900200Y-4775700D01*
X4895500Y-4764500D01*
X4891100Y-4753800D01*
X4887200Y-4744300D01*
X4884100Y-4736500D01*
X4882000Y-4731100D01*
X4881200Y-4728700D01*
X4881500Y-4728300D01*
X4884000Y-4725800D01*
X4888400Y-4722500D01*
X4897800Y-4714900D01*
X4907200Y-4703200D01*
X4912900Y-4689900D01*
X4914700Y-4675200D01*
X4913100Y-4661600D01*
X4907800Y-4648500D01*
X4898600Y-4636700D01*
X4887500Y-4627900D01*
X4874600Y-4622400D01*
X4860000Y-4620600D01*
X4846100Y-4622200D01*
X4832700Y-4627400D01*
X4820900Y-4636400D01*
X4815900Y-4642200D01*
X4809000Y-4654100D01*
X4805100Y-4666900D01*
X4804700Y-4670200D01*
X4805300Y-4684200D01*
X4809400Y-4697700D01*
X4816900Y-4709700D01*
X4827200Y-4719600D01*
X4828400Y-4720500D01*
X4833200Y-4724100D01*
X4836400Y-4726500D01*
X4838900Y-4728600D01*
X4821000Y-4771600D01*
X4818200Y-4778500D01*
X4813300Y-4790200D01*
X4808900Y-4800400D01*
X4805500Y-4808500D01*
X4803100Y-4813800D01*
X4802100Y-4816000D01*
X4801900Y-4816100D01*
X4800400Y-4816400D01*
X4797100Y-4815200D01*
X4791100Y-4812300D01*
X4787100Y-4810300D01*
X4782500Y-4808100D01*
X4780500Y-4807200D01*
X4778800Y-4808200D01*
X4774300Y-4811000D01*
X4767900Y-4815300D01*
X4760200Y-4820500D01*
X4752900Y-4825500D01*
X4746200Y-4830000D01*
X4741200Y-4833100D01*
X4738900Y-4834400D01*
X4738500Y-4834400D01*
X4736400Y-4833200D01*
X4732500Y-4830000D01*
X4726600Y-4824400D01*
X4718300Y-4816300D01*
X4717100Y-4815000D01*
X4710300Y-4808100D01*
X4704700Y-4802200D01*
X4701000Y-4798100D01*
X4699700Y-4796200D01*
X4699700Y-4796200D01*
X4700900Y-4793900D01*
X4704000Y-4789000D01*
X4708500Y-4782100D01*
X4713900Y-4774100D01*
X4728200Y-4753400D01*
X4720300Y-4733900D01*
X4717900Y-4727900D01*
X4714900Y-4720600D01*
X4712600Y-4715400D01*
X4711400Y-4713200D01*
X4709300Y-4712400D01*
X4704000Y-4711100D01*
X4696200Y-4709500D01*
X4687000Y-4707800D01*
X4678200Y-4706200D01*
X4670200Y-4704700D01*
X4664400Y-4703600D01*
X4661800Y-4703000D01*
X4661200Y-4702700D01*
X4660700Y-4701400D01*
X4660400Y-4698700D01*
X4660200Y-4693900D01*
X4660100Y-4686300D01*
X4660100Y-4675200D01*
X4660100Y-4674000D01*
X4660200Y-4663500D01*
X4660300Y-4655100D01*
X4660600Y-4649700D01*
X4661000Y-4647500D01*
X4661000Y-4647500D01*
X4663500Y-4646900D01*
X4669100Y-4645700D01*
X4677100Y-4644100D01*
X4686600Y-4642300D01*
X4687200Y-4642200D01*
X4696600Y-4640400D01*
X4704600Y-4638700D01*
X4710100Y-4637400D01*
X4712500Y-4636700D01*
X4712900Y-4636000D01*
X4714900Y-4632400D01*
X4717600Y-4626500D01*
X4720700Y-4619300D01*
X4723800Y-4611900D01*
X4726500Y-4605200D01*
X4728300Y-4600200D01*
X4728800Y-4598000D01*
X4728800Y-4597900D01*
X4727300Y-4595600D01*
X4724100Y-4590800D01*
X4719500Y-4583900D01*
X4714000Y-4575900D01*
X4713500Y-4575300D01*
X4708100Y-4567300D01*
X4703700Y-4560500D01*
X4700800Y-4555700D01*
X4699700Y-4553500D01*
X4699700Y-4553400D01*
X4701500Y-4551000D01*
X4705600Y-4546500D01*
X4711400Y-4540400D01*
X4718400Y-4533300D01*
X4720600Y-4531100D01*
X4728400Y-4523500D01*
X4733800Y-4518600D01*
X4737200Y-4515900D01*
X4738800Y-4515300D01*
X4738800Y-4515400D01*
X4741200Y-4516800D01*
X4746300Y-4520100D01*
X4753100Y-4524800D01*
X4761200Y-4530300D01*
X4761800Y-4530700D01*
X4769800Y-4536100D01*
X4776500Y-4540600D01*
X4781200Y-4543700D01*
X4783300Y-4545000D01*
X4783600Y-4545000D01*
X4786900Y-4544000D01*
X4792600Y-4542000D01*
X4799600Y-4539300D01*
X4807000Y-4536400D01*
X4813700Y-4533500D01*
X4818700Y-4531200D01*
X4821100Y-4529900D01*
X4821200Y-4529700D01*
X4822000Y-4526900D01*
X4823400Y-4520900D01*
X4825100Y-4512700D01*
X4826900Y-4502900D01*
X4827200Y-4501300D01*
X4829000Y-4491800D01*
X4830600Y-4483900D01*
X4831700Y-4478500D01*
X4832200Y-4476200D01*
X4833600Y-4475900D01*
X4838300Y-4475600D01*
X4845400Y-4475400D01*
X4854000Y-4475300D01*
X4863000Y-4475400D01*
X4871900Y-4475500D01*
X4879400Y-4475800D01*
X4884800Y-4476200D01*
X4887100Y-4476600D01*
X4887100Y-4476800D01*
X4888000Y-4479700D01*
X4889300Y-4485700D01*
X4891000Y-4494000D01*
X4892800Y-4503800D01*
X4893200Y-4505500D01*
X4895000Y-4515000D01*
X4896600Y-4522800D01*
X4897700Y-4528200D01*
X4898300Y-4530300D01*
X4899200Y-4530800D01*
X4903100Y-4532500D01*
X4909500Y-4535100D01*
X4917400Y-4538300D01*
X4935700Y-4545700D01*
X4958100Y-4530300D01*
X4960200Y-4528900D01*
X4968300Y-4523400D01*
X4974900Y-4519000D01*
X4979500Y-4516000D01*
X4981400Y-4514900D01*
X4981600Y-4515000D01*
X4983800Y-4517000D01*
X4988300Y-4521200D01*
X4994300Y-4527100D01*
X5001400Y-4534100D01*
X5006600Y-4539300D01*
X5012800Y-4545600D01*
X5016700Y-4549900D01*
X5018900Y-4552600D01*
X5019600Y-4554200D01*
X5019500Y-4555300D01*
X5018000Y-4557600D01*
X5014700Y-4562600D01*
X5010100Y-4569400D01*
X5004600Y-4577300D01*
X5000100Y-4583900D01*
X4995200Y-4591500D01*
X4992100Y-4596900D01*
X4991000Y-4599500D01*
X4991300Y-4600600D01*
X4992800Y-4605000D01*
X4995500Y-4611600D01*
X4998900Y-4619500D01*
X5006700Y-4637300D01*
X5018300Y-4639500D01*
X5025400Y-4640900D01*
X5035200Y-4642800D01*
X5044700Y-4644600D01*
X5059400Y-4647500D01*
X5060000Y-4701700D01*
X5057700Y-4702600D01*
X5055500Y-4703200D01*
X5050000Y-4704400D01*
X5042200Y-4706000D01*
X5033000Y-4707700D01*
X5025200Y-4709200D01*
X5017300Y-4710700D01*
X5011600Y-4711800D01*
X5009100Y-4712300D01*
X5008500Y-4713200D01*
X5006500Y-4717000D01*
X5003700Y-4723100D01*
X5000500Y-4730400D01*
X4997400Y-4738000D01*
X4994600Y-4745000D01*
X4992700Y-4750300D01*
X4991900Y-4753100D01*
X4993000Y-4755200D01*
X4996000Y-4759800D01*
X5000400Y-4766400D01*
X5005700Y-4774300D01*
X5011100Y-4782100D01*
X5015600Y-4788800D01*
X5018800Y-4793700D01*
X5020100Y-4795900D01*
X5019500Y-4797400D01*
X5016300Y-4801200D01*
X5010400Y-4807300D01*
X5001600Y-4816000D01*
X5000100Y-4817400D01*
X4993100Y-4824200D01*
X4987200Y-4829600D01*
X4983100Y-4833300D01*
X4981200Y-4834600D01*
X4981200Y-4834600D01*
G37*
X4981200Y-4834600D02*
X4979100Y-4833600D01*
X4974400Y-4830600D01*
X4967800Y-4826200D01*
X4959900Y-4820900D01*
X4952000Y-4815600D01*
X4945400Y-4811200D01*
X4940900Y-4808300D01*
X4939000Y-4807200D01*
X4938000Y-4807600D01*
X4934200Y-4809400D01*
X4928700Y-4812300D01*
X4925600Y-4813900D01*
X4920500Y-4816100D01*
X4918100Y-4816500D01*
X4917600Y-4815800D01*
X4915800Y-4812000D01*
X4912900Y-4805400D01*
X4909100Y-4796800D01*
X4904800Y-4786600D01*
X4900200Y-4775700D01*
X4895500Y-4764500D01*
X4891100Y-4753800D01*
X4887200Y-4744300D01*
X4884100Y-4736500D01*
X4882000Y-4731100D01*
X4881200Y-4728700D01*
X4881500Y-4728300D01*
X4884000Y-4725800D01*
X4888400Y-4722500D01*
X4897800Y-4714900D01*
X4907200Y-4703200D01*
X4912900Y-4689900D01*
X4914700Y-4675200D01*
X4913100Y-4661600D01*
X4907800Y-4648500D01*
X4898600Y-4636700D01*
X4887500Y-4627900D01*
X4874600Y-4622400D01*
X4860000Y-4620600D01*
X4846100Y-4622200D01*
X4832700Y-4627400D01*
X4820900Y-4636400D01*
X4815900Y-4642200D01*
X4809000Y-4654100D01*
X4805100Y-4666900D01*
X4804700Y-4670200D01*
X4805300Y-4684200D01*
X4809400Y-4697700D01*
X4816900Y-4709700D01*
X4827200Y-4719600D01*
X4828400Y-4720500D01*
X4833200Y-4724100D01*
X4836400Y-4726500D01*
X4838900Y-4728600D01*
X4821000Y-4771600D01*
X4818200Y-4778500D01*
X4813300Y-4790200D01*
X4808900Y-4800400D01*
X4805500Y-4808500D01*
X4803100Y-4813800D01*
X4802100Y-4816000D01*
X4801900Y-4816100D01*
X4800400Y-4816400D01*
X4797100Y-4815200D01*
X4791100Y-4812300D01*
X4787100Y-4810300D01*
X4782500Y-4808100D01*
X4780500Y-4807200D01*
X4778800Y-4808200D01*
X4774300Y-4811000D01*
X4767900Y-4815300D01*
X4760200Y-4820500D01*
X4752900Y-4825500D01*
X4746200Y-4830000D01*
X4741200Y-4833100D01*
X4738900Y-4834400D01*
X4738500Y-4834400D01*
X4736400Y-4833200D01*
X4732500Y-4830000D01*
X4726600Y-4824400D01*
X4718300Y-4816300D01*
X4717100Y-4815000D01*
X4710300Y-4808100D01*
X4704700Y-4802200D01*
X4701000Y-4798100D01*
X4699700Y-4796200D01*
X4699700Y-4796200D01*
X4700900Y-4793900D01*
X4704000Y-4789000D01*
X4708500Y-4782100D01*
X4713900Y-4774100D01*
X4728200Y-4753400D01*
X4720300Y-4733900D01*
X4717900Y-4727900D01*
X4714900Y-4720600D01*
X4712600Y-4715400D01*
X4711400Y-4713200D01*
X4709300Y-4712400D01*
X4704000Y-4711100D01*
X4696200Y-4709500D01*
X4687000Y-4707800D01*
X4678200Y-4706200D01*
X4670200Y-4704700D01*
X4664400Y-4703600D01*
X4661800Y-4703000D01*
X4661200Y-4702700D01*
X4660700Y-4701400D01*
X4660400Y-4698700D01*
X4660200Y-4693900D01*
X4660100Y-4686300D01*
X4660100Y-4675200D01*
X4660100Y-4674000D01*
X4660200Y-4663500D01*
X4660300Y-4655100D01*
X4660600Y-4649700D01*
X4661000Y-4647500D01*
X4661000Y-4647500D01*
X4663500Y-4646900D01*
X4669100Y-4645700D01*
X4677100Y-4644100D01*
X4686600Y-4642300D01*
X4687200Y-4642200D01*
X4696600Y-4640400D01*
X4704600Y-4638700D01*
X4710100Y-4637400D01*
X4712500Y-4636700D01*
X4712900Y-4636000D01*
X4714900Y-4632400D01*
X4717600Y-4626500D01*
X4720700Y-4619300D01*
X4723800Y-4611900D01*
X4726500Y-4605200D01*
X4728300Y-4600200D01*
X4728800Y-4598000D01*
X4728800Y-4597900D01*
X4727300Y-4595600D01*
X4724100Y-4590800D01*
X4719500Y-4583900D01*
X4714000Y-4575900D01*
X4713500Y-4575300D01*
X4708100Y-4567300D01*
X4703700Y-4560500D01*
X4700800Y-4555700D01*
X4699700Y-4553500D01*
X4699700Y-4553400D01*
X4701500Y-4551000D01*
X4705600Y-4546500D01*
X4711400Y-4540400D01*
X4718400Y-4533300D01*
X4720600Y-4531100D01*
X4728400Y-4523500D01*
X4733800Y-4518600D01*
X4737200Y-4515900D01*
X4738800Y-4515300D01*
X4738800Y-4515400D01*
X4741200Y-4516800D01*
X4746300Y-4520100D01*
X4753100Y-4524800D01*
X4761200Y-4530300D01*
X4761800Y-4530700D01*
X4769800Y-4536100D01*
X4776500Y-4540600D01*
X4781200Y-4543700D01*
X4783300Y-4545000D01*
X4783600Y-4545000D01*
X4786900Y-4544000D01*
X4792600Y-4542000D01*
X4799600Y-4539300D01*
X4807000Y-4536400D01*
X4813700Y-4533500D01*
X4818700Y-4531200D01*
X4821100Y-4529900D01*
X4821200Y-4529700D01*
X4822000Y-4526900D01*
X4823400Y-4520900D01*
X4825100Y-4512700D01*
X4826900Y-4502900D01*
X4827200Y-4501300D01*
X4829000Y-4491800D01*
X4830600Y-4483900D01*
X4831700Y-4478500D01*
X4832200Y-4476200D01*
X4833600Y-4475900D01*
X4838300Y-4475600D01*
X4845400Y-4475400D01*
X4854000Y-4475300D01*
X4863000Y-4475400D01*
X4871900Y-4475500D01*
X4879400Y-4475800D01*
X4884800Y-4476200D01*
X4887100Y-4476600D01*
X4887100Y-4476800D01*
X4888000Y-4479700D01*
X4889300Y-4485700D01*
X4891000Y-4494000D01*
X4892800Y-4503800D01*
X4893200Y-4505500D01*
X4895000Y-4515000D01*
X4896600Y-4522800D01*
X4897700Y-4528200D01*
X4898300Y-4530300D01*
X4899200Y-4530800D01*
X4903100Y-4532500D01*
X4909500Y-4535100D01*
X4917400Y-4538300D01*
X4935700Y-4545700D01*
X4958100Y-4530300D01*
X4960200Y-4528900D01*
X4968300Y-4523400D01*
X4974900Y-4519000D01*
X4979500Y-4516000D01*
X4981400Y-4514900D01*
X4981600Y-4515000D01*
X4983800Y-4517000D01*
X4988300Y-4521200D01*
X4994300Y-4527100D01*
X5001400Y-4534100D01*
X5006600Y-4539300D01*
X5012800Y-4545600D01*
X5016700Y-4549900D01*
X5018900Y-4552600D01*
X5019600Y-4554200D01*
X5019500Y-4555300D01*
X5018000Y-4557600D01*
X5014700Y-4562600D01*
X5010100Y-4569400D01*
X5004600Y-4577300D01*
X5000100Y-4583900D01*
X4995200Y-4591500D01*
X4992100Y-4596900D01*
X4991000Y-4599500D01*
X4991300Y-4600600D01*
X4992800Y-4605000D01*
X4995500Y-4611600D01*
X4998900Y-4619500D01*
X5006700Y-4637300D01*
X5018300Y-4639500D01*
X5025400Y-4640900D01*
X5035200Y-4642800D01*
X5044700Y-4644600D01*
X5059400Y-4647500D01*
X5060000Y-4701700D01*
X5057700Y-4702600D01*
X5055500Y-4703200D01*
X5050000Y-4704400D01*
X5042200Y-4706000D01*
X5033000Y-4707700D01*
X5025200Y-4709200D01*
X5017300Y-4710700D01*
X5011600Y-4711800D01*
X5009100Y-4712300D01*
X5008500Y-4713200D01*
X5006500Y-4717000D01*
X5003700Y-4723100D01*
X5000500Y-4730400D01*
X4997400Y-4738000D01*
X4994600Y-4745000D01*
X4992700Y-4750300D01*
X4991900Y-4753100D01*
X4993000Y-4755200D01*
X4996000Y-4759800D01*
X5000400Y-4766400D01*
X5005700Y-4774300D01*
X5011100Y-4782100D01*
X5015600Y-4788800D01*
X5018800Y-4793700D01*
X5020100Y-4795900D01*
X5019500Y-4797400D01*
X5016300Y-4801200D01*
X5010400Y-4807300D01*
X5001600Y-4816000D01*
X5000100Y-4817400D01*
X4993100Y-4824200D01*
X4987200Y-4829600D01*
X4983100Y-4833300D01*
X4981200Y-4834600D01*
M02*
