<?xml version="1.0" encoding="utf-8" ?>
<svg baseProfile="tiny" height="300mm" version="1.2" viewBox="0 0 300 300" width="300mm" xmlns="http://www.w3.org/2000/svg" xmlns:ev="http://www.w3.org/2001/xml-events" xmlns:xlink="http://www.w3.org/1999/xlink"><defs /><line stroke="green" x1="250.0" x2="150.0" y1="50.0" y2="50.0" /><line stroke="green" x1="150.0" x2="150.0" y1="50.0" y2="100.0" /><line stroke="green" x1="150.0" x2="250.0" y1="100.0" y2="100.0" /><line stroke="green" x1="250.0" x2="250.0" y1="100.0" y2="50.0" /><circle cx="155.0" cy="95.0" fill="white" r="1.55" stroke="black" /><circle cx="155.0" cy="55.0" fill="white" r="1.55" stroke="black" /><circle cx="245.0" cy="95.0" fill="white" r="1.55" stroke="black" /><circle cx="245.0" cy="55.0" fill="white" r="1.55" stroke="black" /><line stroke="blue" x1="241.34" x2="188.0" y1="31.0" y2="31.0" /><line stroke="blue" x1="188.0" x2="188.0" y1="31.0" y2="99.58" /><line stroke="blue" x1="188.0" x2="241.34" y1="99.58" y2="99.58" /><line stroke="blue" x1="241.34" x2="241.34" y1="99.58" y2="31.0" /><line stroke="blue" x1="240.07" x2="237.53" y1="53.606" y2="53.606" /><line stroke="blue" x1="237.53" x2="237.53" y1="53.606" y2="73.926" /><line stroke="blue" x1="237.53" x2="240.07" y1="73.926" y2="73.926" /><line stroke="blue" x1="240.07" x2="240.07" y1="73.926" y2="53.606" /><line stroke="blue" x1="240.07" x2="237.53" y1="75.45" y2="75.45" /><line stroke="blue" x1="237.53" x2="237.53" y1="75.45" y2="95.77" /><line stroke="blue" x1="237.53" x2="240.07" y1="95.77" y2="95.77" /><line stroke="blue" x1="240.07" x2="240.07" y1="95.77" y2="75.45" /><line stroke="blue" x1="191.81" x2="189.27" y1="62.75" y2="62.75" /><line stroke="blue" x1="189.27" x2="189.27" y1="62.75" y2="77.99" /><line stroke="blue" x1="189.27" x2="191.81" y1="77.99" y2="77.99" /><line stroke="blue" x1="191.81" x2="191.81" y1="77.99" y2="62.75" /><line stroke="blue" x1="191.81" x2="189.27" y1="80.53" y2="80.53" /><line stroke="blue" x1="189.27" x2="189.27" y1="80.53" y2="95.77" /><line stroke="blue" x1="189.27" x2="191.81" y1="95.77" y2="95.77" /><line stroke="blue" x1="191.81" x2="191.81" y1="95.77" y2="80.53" /><line stroke="blue" x1="219.7" x2="212.08" y1="93.37" y2="93.37" /><line stroke="blue" x1="212.08" x2="212.08" y1="93.37" y2="98.45" /><line stroke="blue" x1="212.08" x2="219.7" y1="98.45" y2="98.45" /><line stroke="blue" x1="219.7" x2="219.7" y1="98.45" y2="93.37" /><circle cx="238.8" cy="46.24" fill="white" r="1.5875" stroke="black" /><circle cx="223.56" cy="97.04" fill="white" r="1.5875" stroke="black" /><circle cx="195.62" cy="97.04" fill="white" r="1.5875" stroke="black" /><circle cx="190.54" cy="44.97" fill="white" r="1.5875" stroke="black" /></svg>